<svg width="233" height="233" viewBox="0 0 233 233" fill="none" xmlns="http://www.w3.org/2000/svg">
<rect width="233" height="233" fill="#F4F4F4"/>
<path d="M205.371 122.912C206.303 110.53 203.423 97.6036 199.564 86.098C193.856 68.9679 182.709 51.4137 163.976 47.3595C153.174 45.0295 142.181 47.5272 132.917 53.3802C124.012 59.0095 117.073 66.2837 106.118 67.691C95.0407 69.117 83.6749 68.5438 72.5422 68.5438C43.9158 68.5438 20.6857 98.6148 26.4921 129.939C32.2984 161.264 59.6806 182.984 82.9107 182.984C103.788 182.984 120.964 170.463 140.793 167.098C150.625 165.43 160.5 167.406 170.23 164.908C181.54 162 192.174 155.071 198.441 145.038C202.71 138.197 204.788 130.662 205.371 122.912Z" fill="#0C6D5C"/>
<path opacity="0.7" d="M205.371 122.912C206.303 110.53 203.423 97.6036 199.564 86.098C193.856 68.9679 182.709 51.4137 163.976 47.3595C153.174 45.0295 142.181 47.5272 132.917 53.3802C124.012 59.0095 117.073 66.2837 106.118 67.691C95.0407 69.117 83.6749 68.5438 72.5422 68.5438C43.9158 68.5438 20.6857 98.6148 26.4921 129.939C32.2984 161.264 59.6806 182.984 82.9107 182.984C103.788 182.984 120.964 170.463 140.793 167.098C150.625 165.43 160.5 167.406 170.23 164.908C181.54 162 192.174 155.071 198.441 145.038C202.71 138.197 204.788 130.662 205.371 122.912Z" fill="#F4F4F4"/>
<path d="M202.02 118.564C202.02 118.564 202.02 116.234 198.758 113.005C195.496 109.776 193.427 107.902 193.427 107.902C193.427 107.902 191.805 113.233 194.825 116.481C197.042 118.763 199.445 120.854 202.011 122.735L202.02 118.564Z" fill="#0C6D5C"/>
<path d="M197.314 133.039C197.314 133.039 197.314 130.709 194.052 127.479C190.79 124.25 188.73 122.376 188.73 122.376C188.73 122.376 187.104 127.708 190.128 130.956C192.345 133.237 194.748 135.329 197.314 137.209V133.039Z" fill="#0C6D5C"/>
<path d="M201.815 122.512C201.815 122.512 202.062 120.21 205.632 117.325C209.201 114.441 211.471 112.819 211.471 112.819C211.471 112.819 212.519 118.29 209.183 121.207C206.738 123.242 204.127 125.068 201.377 126.668L201.815 122.512Z" fill="#0C6D5C"/>
<path d="M196.13 139.604C196.13 139.604 196.596 137.339 200.468 134.846C204.341 132.353 206.745 130.979 206.745 130.979C206.745 130.979 207.211 136.533 203.591 139.073C200.945 140.84 198.156 142.383 195.254 143.686L196.13 139.604Z" fill="#0C6D5C"/>
<path d="M197.197 158.244C197.197 158.244 197.197 155.914 200.459 152.68C203.721 149.446 205.785 147.582 205.785 147.582C205.785 147.582 207.412 152.913 204.387 156.156C202.172 158.44 199.768 160.533 197.202 162.415L197.197 158.244Z" fill="#0C6D5C"/>
<path d="M197.146 162.793C197.146 162.793 197.472 160.5 194.723 156.828C191.973 153.156 190.17 151.021 190.17 151.021C190.17 151.021 187.807 156.068 190.328 159.708C192.197 162.282 194.278 164.695 196.549 166.921L197.146 162.793Z" fill="#0C6D5C"/>
<path d="M193.944 176.274C193.944 176.274 193.944 173.944 197.206 170.715C200.468 167.485 202.537 165.612 202.537 165.612C202.537 165.612 204.159 170.943 201.139 174.191C198.922 176.473 196.518 178.566 193.954 180.449L193.944 176.274Z" fill="#0C6D5C"/>
<path d="M196.111 188.497C196.111 188.497 195.524 186.255 197.84 182.294C200.156 178.333 201.708 176.013 201.708 176.013C201.708 176.013 204.625 180.757 202.533 184.662C200.968 187.43 199.173 190.063 197.169 192.532L196.111 188.497Z" fill="#0C6D5C"/>
<path d="M202.314 117.973C202.151 120.385 201.855 122.787 201.428 125.168C200.142 131.794 196.936 136.072 195.655 142.056C194.373 148.039 198.054 155.751 197.053 163.44C196.051 171.129 193.078 175.402 193.93 180.533C194.783 185.664 199.275 199.56 199.275 199.56" stroke="#263238" stroke-linecap="round" stroke-linejoin="round"/>
<path d="M201.787 124.054L205.282 121.37" stroke="#263238" stroke-linecap="round" stroke-linejoin="round"/>
<path d="M201.95 120.964L200.482 118.359" stroke="#263238" stroke-linecap="round" stroke-linejoin="round"/>
<path d="M195.85 141.78C195.85 141.78 198.777 139.585 201.787 137.391" stroke="#263238" stroke-linecap="round" stroke-linejoin="round"/>
<path d="M197.314 137.209C197.314 137.209 194.872 132.428 192.108 129.259" stroke="#263238" stroke-linecap="round" stroke-linejoin="round"/>
<path d="M197.314 161.544C198.983 158.459 201.093 155.633 203.577 153.156" stroke="#263238" stroke-linecap="round" stroke-linejoin="round"/>
<path d="M196.745 164.796C195.857 162.704 194.796 160.69 193.572 158.775C191.866 156.254 191.619 155.928 191.619 155.928" stroke="#263238" stroke-linecap="round" stroke-linejoin="round"/>
<path d="M193.944 180.533C194.687 178.697 195.569 176.919 196.582 175.216C197.595 173.634 198.738 172.137 199.998 170.743" stroke="#263238" stroke-linecap="round" stroke-linejoin="round"/>
<path d="M197.169 192.533C196.999 190.777 197.302 189.007 198.045 187.407C199.266 185.049 200.646 181.959 201.214 180.738" stroke="#263238" stroke-linecap="round" stroke-linejoin="round"/>
<path d="M175.542 149.53C175.542 149.53 175.291 148.076 176.973 145.686C178.655 143.295 179.769 141.911 179.769 141.911C179.769 141.911 181.362 145.08 179.825 147.438C178.683 149.11 177.403 150.685 175.999 152.144L175.542 149.53Z" fill="#0C6D5C"/>
<path d="M180.067 158.095C180.067 158.095 179.815 156.641 181.498 154.251C183.18 151.86 184.294 150.476 184.294 150.476C184.294 150.476 185.887 153.645 184.35 156.007C183.207 157.678 181.927 159.251 180.524 160.709L180.067 158.095Z" fill="#0C6D5C"/>
<path d="M176.097 151.981C176.097 151.981 175.696 150.583 173.142 149.143C170.589 147.703 168.995 146.948 168.995 146.948C168.995 146.948 168.93 150.495 171.325 151.958C173.078 152.967 174.913 153.829 176.81 154.535L176.097 151.981Z" fill="#0C6D5C"/>
<path d="M181.521 162.084C181.521 162.084 180.971 160.714 178.287 159.568C175.603 158.421 173.925 157.825 173.925 157.825C173.925 157.825 174.233 161.357 176.786 162.559C178.637 163.379 180.552 164.043 182.513 164.544L181.521 162.084Z" fill="#0C6D5C"/>
<path d="M182.872 173.888C182.872 173.888 182.625 172.434 180.235 170.752C177.844 169.069 176.339 168.133 176.339 168.133C176.339 168.133 175.901 171.651 178.142 173.357C179.78 174.549 181.515 175.601 183.329 176.502L182.872 173.888Z" fill="#0C6D5C"/>
<path d="M183.404 176.735C183.404 176.735 182.938 175.337 184.275 172.728C185.612 170.118 186.498 168.594 186.498 168.594C186.498 168.594 188.525 171.502 187.341 174.06C186.449 175.877 185.407 177.615 184.224 179.256L183.404 176.735Z" fill="#0C6D5C"/>
<path d="M187.476 188.455C187.476 188.455 187.644 186.992 189.932 185.193C192.22 183.394 193.66 182.355 193.66 182.355C193.66 182.355 194.299 185.845 192.16 187.677C190.593 188.959 188.922 190.107 187.164 191.111L187.476 188.455Z" fill="#0C6D5C"/>
<path d="M186.866 184.839C186.866 184.839 186.614 183.385 184.228 181.703C181.842 180.021 180.342 179.084 180.342 179.084C180.342 179.084 179.904 182.602 182.145 184.313C183.784 185.503 185.519 186.555 187.332 187.458L186.866 184.839Z" fill="#0C6D5C"/>
<path d="M186.866 192.743C186.866 192.743 186.987 191.27 185.104 189.038C183.222 186.806 182.001 185.52 182.001 185.52C182.001 185.52 180.682 188.809 182.42 191.032C183.694 192.598 185.097 194.054 186.614 195.385L186.866 192.743Z" fill="#0C6D5C"/>
<path d="M175.295 149.185C175.66 150.681 176.106 152.156 176.633 153.603C178.156 157.62 180.631 159.954 182.085 163.566C183.539 167.177 182.085 172.42 183.52 177.131C184.955 181.842 187.332 184.2 187.332 187.509C187.332 190.817 186.046 200.021 186.046 200.021" stroke="#263238" stroke-linecap="round" stroke-linejoin="round"/>
<path d="M176.288 152.941L173.804 151.641" stroke="#263238" stroke-linecap="round" stroke-linejoin="round"/>
<path d="M175.85 151.021L176.483 149.232" stroke="#263238" stroke-linecap="round" stroke-linejoin="round"/>
<path d="M181.931 163.417C181.931 163.417 179.857 162.359 177.737 161.306" stroke="#263238" stroke-linecap="round" stroke-linejoin="round"/>
<path d="M180.519 160.71C181.13 158.79 181.934 156.936 182.919 155.178" stroke="#263238" stroke-linecap="round" stroke-linejoin="round"/>
<path d="M183.161 175.966C181.779 174.217 180.149 172.677 178.324 171.395" stroke="#263238" stroke-linecap="round" stroke-linejoin="round"/>
<path d="M183.87 177.942C184.201 176.536 184.649 175.16 185.207 173.827C186.004 172.061 186.139 171.828 186.139 171.828" stroke="#263238" stroke-linecap="round" stroke-linejoin="round"/>
<path d="M187.22 190.021C188.028 189.02 188.923 188.092 189.895 187.248C190.513 186.793 191.093 186.288 191.628 185.738" stroke="#263238" stroke-linecap="round" stroke-linejoin="round"/>
<path d="M187.332 187.509C186.666 186.435 185.92 185.413 185.1 184.452C184.292 183.57 183.413 182.757 182.471 182.02" stroke="#263238" stroke-linecap="round" stroke-linejoin="round"/>
<path d="M186.614 195.384C186.531 194.264 186.15 193.186 185.51 192.262C184.489 190.915 183.287 189.126 182.798 188.422" stroke="#263238" stroke-linecap="round" stroke-linejoin="round"/>
<path d="M43.1841 129.231L41.1431 123.402L43.1841 125.876L41.5811 117.129L44.0602 123.402L44.9363 111.15L46.3949 122.814L47.9979 120.484V123.402L49.8945 119.464L48.874 126.314L50.6215 125.149L47.8535 128.938L43.1841 129.231Z" fill="#0C6D5C"/>
<path d="M49.601 127.772H42.0192L43.3845 143.081H48.2356L49.601 127.772Z" fill="#263238" stroke="#263238" stroke-linecap="round" stroke-linejoin="round"/>
<path d="M63.8233 142.908H37.9929V197.617H63.8233V142.908Z" fill="#F4F4F4" stroke="#263238" stroke-linecap="round" stroke-linejoin="round"/>
<path d="M65.2353 142.908H50.9058V197.617H65.2353V142.908Z" fill="#F4F4F4" stroke="#263238" stroke-linecap="round" stroke-linejoin="round"/>
<path d="M63.6229 142.908H50.9058V197.617H63.6229V142.908Z" fill="#263238" stroke="#263238" stroke-linecap="round" stroke-linejoin="round"/>
<path d="M62.1923 184.895H50.9058V196.098H62.1923V184.895Z" fill="#0C6D5C" stroke="#263238" stroke-linecap="round" stroke-linejoin="round"/>
<path d="M62.1923 185.5H50.9058V186.936H62.1923V185.5Z" fill="#F4F4F4" stroke="#263238" stroke-linecap="round" stroke-linejoin="round"/>
<path d="M62.1923 193.749H50.9058V195.184H62.1923V193.749Z" fill="#F4F4F4" stroke="#263238" stroke-linecap="round" stroke-linejoin="round"/>
<path d="M53.0447 185.128V199.294" stroke="#263238" stroke-linecap="round" stroke-linejoin="round"/>
<path d="M56.9824 185.128V199.294" stroke="#263238" stroke-linecap="round" stroke-linejoin="round"/>
<path d="M60.4402 185.128V199.294" stroke="#263238" stroke-linecap="round" stroke-linejoin="round"/>
<path d="M62.1923 144.94H50.9058V161.413H62.1923V144.94Z" fill="#0C6D5C" stroke="#263238" stroke-linecap="round" stroke-linejoin="round"/>
<path d="M62.1923 145.63H50.9058V147.261H62.1923V145.63Z" fill="#F4F4F4" stroke="#263238" stroke-linecap="round" stroke-linejoin="round"/>
<path d="M62.1923 156.189H50.9058V157.82H62.1923V156.189Z" fill="#F4F4F4" stroke="#263238" stroke-linecap="round" stroke-linejoin="round"/>
<path d="M53.0447 145.201V161.301" stroke="#263238" stroke-linecap="round" stroke-linejoin="round"/>
<path d="M56.9824 145.201V161.301" stroke="#263238" stroke-linecap="round" stroke-linejoin="round"/>
<path d="M60.4402 145.201V161.301" stroke="#263238" stroke-linecap="round" stroke-linejoin="round"/>
<path d="M62.1923 164.792H50.9058V181.265H62.1923V164.792Z" fill="#0C6D5C" stroke="#263238" stroke-linecap="round" stroke-linejoin="round"/>
<path d="M62.1923 165.481H50.9058V167.112H62.1923V165.481Z" fill="#F4F4F4" stroke="#263238" stroke-linecap="round" stroke-linejoin="round"/>
<path d="M62.1923 176.041H50.9058V177.672H62.1923V176.041Z" fill="#F4F4F4" stroke="#263238" stroke-linecap="round" stroke-linejoin="round"/>
<path d="M53.0447 165.057V181.153" stroke="#263238" stroke-linecap="round" stroke-linejoin="round"/>
<path d="M56.9824 165.057V181.153" stroke="#263238" stroke-linecap="round" stroke-linejoin="round"/>
<path d="M60.4402 165.057V181.153" stroke="#263238" stroke-linecap="round" stroke-linejoin="round"/>
<path d="M63.8186 161.185H50.9058V163.058H63.8186V161.185Z" fill="#F4F4F4" stroke="#263238" stroke-linecap="round" stroke-linejoin="round"/>
<path d="M63.8186 181.162H50.9058V183.035H63.8186V181.162Z" fill="#F4F4F4" stroke="#263238" stroke-linecap="round" stroke-linejoin="round"/>
<path d="M63.8186 142.908V197.612" stroke="#263238" stroke-linecap="round" stroke-linejoin="round"/>
<path d="M49.0837 142.908V197.612H50.9058V144.94H63.595V142.885L49.0837 142.908Z" fill="#F4F4F4" stroke="#263238" stroke-linecap="round" stroke-linejoin="round"/>
<path d="M50.9058 144.94V142.908" stroke="#263238" stroke-linecap="round" stroke-linejoin="round"/>
<path d="M63.7208 117.777C62.3648 115.163 61.7963 113.289 61.7963 112.856C61.7963 111.999 63.6603 111.486 63.6603 111.486C66.5681 109.948 80.2452 112.171 86.4011 113.196C89.8471 113.797 93.3331 114.14 96.8301 114.221C96.8301 114.221 97.6829 113.541 98.6941 112.684C99.7054 111.826 104.505 106.188 106.388 105.694C108.27 105.2 109.976 106.379 109.976 106.379C109.976 106.379 113.056 108.243 112.539 108.602C112.022 108.96 104.505 115.438 102.623 116.635C100.74 117.833 96.8115 117.32 93.3911 118.005C90.4459 118.593 78.5163 119.32 75.7809 119.543C73.7266 120.03 71.5705 119.851 69.6251 119.031" fill="#F4F4F4"/>
<mask id="mask0_483_488" style="mask-type:luminance" maskUnits="userSpaceOnUse" x="61" y="105" width="52" height="15">
<path d="M63.7208 117.777C62.3648 115.163 61.7963 113.289 61.7963 112.856C61.7963 111.999 63.6603 111.486 63.6603 111.486C66.5681 109.948 80.2452 112.171 86.4011 113.196C89.8471 113.797 93.3331 114.14 96.8301 114.221C96.8301 114.221 97.6829 113.541 98.6941 112.684C99.7054 111.826 104.505 106.188 106.388 105.694C108.27 105.2 109.976 106.379 109.976 106.379C109.976 106.379 113.056 108.243 112.539 108.602C112.022 108.96 104.505 115.438 102.623 116.635C100.74 117.833 96.8115 117.32 93.3911 118.005C90.4459 118.593 78.5163 119.32 75.7809 119.543C73.7266 120.03 71.5705 119.851 69.6251 119.031" fill="white"/>
</mask>
<g mask="url(#mask0_483_488)">
<path d="M110.009 106.36C110.009 106.36 108.298 105.162 106.42 105.675C104.542 106.188 99.7519 111.831 98.7267 112.665C97.7015 113.499 96.8627 114.203 96.8627 114.203C93.3657 114.121 89.8797 113.778 86.4337 113.178C80.2778 112.152 66.6007 109.916 63.6929 111.467C63.6929 111.467 61.8289 111.98 61.8289 112.837C61.8936 113.317 62.0173 113.786 62.197 114.235L62.4533 114.329C62.4533 114.329 65.8691 113.97 73.2412 114.147C80.6133 114.324 97.6643 115.335 98.7594 115.731C99.2254 115.908 102.529 115.163 106.192 113.867C108.988 111.588 112.273 108.741 112.604 108.541C113.089 108.238 110.009 106.36 110.009 106.36Z" fill="#0C6D5C"/>
<path opacity="0.5" d="M110.009 106.36C110.009 106.36 108.298 105.162 106.42 105.675C104.542 106.188 99.7519 111.831 98.7267 112.665C97.7015 113.499 96.8627 114.203 96.8627 114.203C93.3657 114.121 89.8797 113.778 86.4337 113.178C80.2778 112.152 66.6007 109.916 63.6929 111.467C63.6929 111.467 61.8289 111.98 61.8289 112.837C61.8936 113.317 62.0173 113.786 62.197 114.235L62.4533 114.329C62.4533 114.329 65.8691 113.97 73.2412 114.147C80.6133 114.324 97.6643 115.335 98.7594 115.731C99.2254 115.908 102.529 115.163 106.192 113.867C108.988 111.588 112.273 108.741 112.604 108.541C113.089 108.238 110.009 106.36 110.009 106.36Z" fill="#F4F4F4"/>
</g>
<path d="M63.7208 117.777C62.3648 115.163 61.7963 113.289 61.7963 112.856C61.7963 111.999 63.6603 111.486 63.6603 111.486C66.5681 109.948 80.2452 112.171 86.4011 113.196C89.8471 113.797 93.3331 114.14 96.8301 114.221C96.8301 114.221 97.6829 113.541 98.6941 112.684C99.7054 111.826 104.505 106.188 106.388 105.694C108.27 105.2 109.976 106.379 109.976 106.379C109.976 106.379 113.056 108.243 112.539 108.602C112.022 108.96 104.505 115.438 102.623 116.635C100.74 117.833 96.8115 117.32 93.3911 118.005C90.4459 118.593 78.5163 119.32 75.7809 119.543C73.7266 120.03 71.5705 119.851 69.6251 119.031" stroke="#263238" stroke-linecap="round" stroke-linejoin="round"/>
<path d="M131.249 132.978C131.558 132.391 132.022 131.899 132.591 131.557C133.159 131.214 133.81 131.034 134.474 131.035H165.556C165.556 131.035 167.802 131.035 167.131 135.303C166.46 139.572 157.242 165.635 155.015 173.515C152.788 181.395 152.317 198.004 152.317 198.004H115.037C115.037 198.004 117.991 158.286 131.249 132.978Z" fill="#F4F4F4"/>
<mask id="mask1_483_488" style="mask-type:luminance" maskUnits="userSpaceOnUse" x="115" y="131" width="53" height="68">
<path d="M131.249 132.978C131.558 132.391 132.022 131.899 132.591 131.557C133.159 131.214 133.81 131.034 134.474 131.035H165.556C165.556 131.035 167.802 131.035 167.131 135.303C166.46 139.572 157.242 165.635 155.015 173.515C152.788 181.395 152.317 198.004 152.317 198.004H115.037C115.037 198.004 117.991 158.286 131.249 132.978Z" fill="white"/>
</mask>
<g mask="url(#mask1_483_488)">
<path opacity="0.16" d="M145.248 131.035H134.474C133.81 131.034 133.159 131.214 132.59 131.557C132.022 131.899 131.558 132.391 131.249 132.978C117.991 158.286 115.004 197.99 115.004 197.99H131.724L135.848 182.327L153.044 185.874C153.165 184.559 153.305 183.222 153.468 181.903L153.09 177.709C153.09 177.709 149.567 174.005 148.458 173.077C147.349 172.15 148.085 170.477 147.899 163.249C147.713 156.022 141.226 150.826 138.812 146.375C136.398 141.925 140.112 139.143 143.449 134.693C144.637 133.085 145.122 131.901 145.248 131.035Z" fill="black"/>
</g>
<path d="M131.249 132.978C131.558 132.391 132.022 131.899 132.591 131.557C133.159 131.214 133.81 131.034 134.474 131.035H165.556C165.556 131.035 167.802 131.035 167.131 135.303C166.46 139.572 157.242 165.635 155.015 173.515C152.788 181.395 152.317 198.004 152.317 198.004H115.037C115.037 198.004 117.991 158.286 131.249 132.978Z" stroke="#263238" stroke-linecap="round" stroke-linejoin="round"/>
<path d="M160.164 138.449C157.023 145.779 150.378 174.797 149.297 197.99H152.298C152.298 197.99 152.764 181.363 154.996 173.502C157.228 165.64 166.455 139.572 167.112 135.29C167.769 131.007 165.537 131.021 165.537 131.021C165.537 131.021 162.685 132.573 160.164 138.449Z" fill="#263238" stroke="#263238" stroke-linecap="round" stroke-linejoin="round"/>
<path d="M105.563 123.798C105.563 123.798 100.605 120.89 98.7268 115.764C96.8488 110.638 113.429 102.427 120.629 101.914C127.828 101.402 129.86 103.28 134.143 110.633C138.425 117.987 141.324 128.071 139.101 133.029C136.878 137.987 133.118 139.185 135.839 143.281C138.56 147.377 146.268 159.009 145.756 164.48C145.243 169.95 139.944 174.732 132.242 175.254C124.539 175.775 114.287 171.148 105.74 163.604C97.1936 156.059 99.4118 144.964 102.478 141.375C105.544 137.787 110.172 136.417 110.512 132.829C110.852 129.241 105.563 123.798 105.563 123.798Z" fill="#263238" stroke="#263238" stroke-linecap="round" stroke-linejoin="round"/>
<path d="M126.696 115.685C129.329 120.587 132.624 127.153 133.653 131.118C135.452 138.062 126.197 142.433 128.765 145.774" stroke="#F4F4F4" stroke-linecap="round" stroke-linejoin="round"/>
<path d="M123.108 109.263C123.108 109.263 124.133 111.011 125.55 113.583" stroke="#F4F4F4" stroke-linecap="round" stroke-linejoin="round"/>
<path d="M136.92 121.598C137.224 122.517 137.421 123.468 137.507 124.431" stroke="#F4F4F4" stroke-linecap="round" stroke-linejoin="round"/>
<path d="M124.888 106.714C124.888 106.714 132.987 112.698 136.221 119.86" stroke="#F4F4F4" stroke-linecap="round" stroke-linejoin="round"/>
<path d="M113.648 111.202C107.865 112.823 99.5468 115.456 100.223 116.975" stroke="#F4F4F4" stroke-linecap="round" stroke-linejoin="round"/>
<path d="M118.993 109.776C118.993 109.776 117.758 110.083 115.917 110.577" stroke="#F4F4F4" stroke-linecap="round" stroke-linejoin="round"/>
<path d="M111.84 106.756C115.153 105.712 118.622 105.255 122.092 105.405" stroke="#F4F4F4" stroke-linecap="round" stroke-linejoin="round"/>
<path d="M109.482 107.721C110.006 107.448 110.547 107.211 111.104 107.013" stroke="#F4F4F4" stroke-linecap="round" stroke-linejoin="round"/>
<path d="M63.7208 117.777C62.936 116.34 62.3109 114.821 61.8568 113.247C62.3087 114.822 62.9339 116.341 63.7208 117.777ZM61.8056 112.982C61.8056 113.01 61.8056 113.042 61.8056 113.084C61.8149 113.042 61.8102 113.01 61.8056 112.982ZM63.7208 117.772C65.4637 121.073 67.632 124.132 70.1703 126.869C76.3261 133.537 94.1087 150.979 95.8003 152.177C97.4919 153.375 96.9979 156.79 95.8003 160.211C94.6027 163.631 90.157 168.599 90.3294 174.06C90.5019 179.522 92.1934 187.91 92.0397 189.62C91.8859 191.33 87.608 197.146 87.608 197.146H131.72C131.72 197.146 126.221 190.156 126.221 187.765C126.221 185.375 133.77 154.745 134.11 152.522C134.45 150.299 133.085 148.761 130.35 148.589C127.614 148.416 117.185 146.194 116.672 144.483C116.16 142.773 119.408 136.277 119.408 136.277L109.156 136.79C109.156 136.79 108.643 141.235 107.958 142.093C107.273 142.95 106.248 141.235 103.853 140.042C101.458 138.849 96.8628 137.82 95.1339 136.45C93.405 135.08 77.0112 119.674 77.0112 119.674" fill="#F4F4F4"/>
<mask id="mask2_483_488" style="mask-type:luminance" maskUnits="userSpaceOnUse" x="61" y="112" width="74" height="86">
<path d="M63.7208 117.777C62.936 116.34 62.3109 114.821 61.8568 113.247C62.3087 114.822 62.9339 116.341 63.7208 117.777ZM61.8056 112.982C61.8056 113.01 61.8056 113.042 61.8056 113.084C61.8149 113.042 61.8102 113.01 61.8056 112.982ZM63.7208 117.772C65.4637 121.073 67.632 124.132 70.1703 126.869C76.3261 133.537 94.1087 150.979 95.8003 152.177C97.4919 153.375 96.9979 156.79 95.8003 160.211C94.6027 163.631 90.157 168.599 90.3294 174.06C90.5019 179.522 92.1934 187.91 92.0397 189.62C91.8859 191.33 87.608 197.146 87.608 197.146H131.72C131.72 197.146 126.221 190.156 126.221 187.765C126.221 185.375 133.77 154.745 134.11 152.522C134.45 150.299 133.085 148.761 130.35 148.589C127.614 148.416 117.185 146.194 116.672 144.483C116.16 142.773 119.408 136.277 119.408 136.277L109.156 136.79C109.156 136.79 108.643 141.235 107.958 142.093C107.273 142.95 106.248 141.235 103.853 140.042C101.458 138.849 96.8628 137.82 95.1339 136.45C93.405 135.08 77.0112 119.674 77.0112 119.674" fill="white"/>
</mask>
<g mask="url(#mask2_483_488)">
<path d="M97.7527 137.768C98.6055 139.259 99.4582 140.606 99.4582 140.606C99.4582 140.606 102.333 142.223 103.051 142.223C103.769 142.223 108.084 144.553 108.084 144.553C108.084 144.553 111.681 143.654 110.414 140.597C110.014 139.814 109.509 139.09 108.913 138.444C108.699 139.8 108.354 141.575 107.949 142.083C107.264 142.936 106.239 141.226 103.843 140.033C102.292 139.259 99.7798 138.551 97.7527 137.768Z" fill="#0C6D5C"/>
<path d="M88.9733 130.848C83.6936 125.96 77.0111 119.692 77.0111 119.692L73.1247 119.133L72.6587 119.394C72.6587 119.394 83.6283 129.101 85.963 130.182C86.9075 130.616 87.9339 130.843 88.9733 130.848Z" fill="#0C6D5C"/>
<path d="M94.5049 135.909L94.0854 135.536C94.2998 135.89 94.421 136.114 94.421 136.114L94.5049 135.909Z" fill="#0C6D5C"/>
<g opacity="0.5">
<path d="M97.7527 137.768C98.6055 139.259 99.4582 140.606 99.4582 140.606C99.4582 140.606 102.333 142.223 103.051 142.223C103.769 142.223 108.084 144.553 108.084 144.553C108.084 144.553 111.681 143.654 110.414 140.597C110.014 139.814 109.509 139.09 108.913 138.444C108.699 139.8 108.354 141.575 107.949 142.083C107.264 142.936 106.239 141.226 103.843 140.033C102.292 139.259 99.7798 138.551 97.7527 137.768Z" fill="#F4F4F4"/>
<path d="M88.9733 130.848C83.6936 125.96 77.0111 119.692 77.0111 119.692L73.1247 119.133L72.6587 119.394C72.6587 119.394 83.6283 129.101 85.963 130.182C86.9075 130.616 87.9339 130.843 88.9733 130.848Z" fill="#F4F4F4"/>
<path d="M94.5049 135.909L94.0854 135.536C94.2998 135.89 94.421 136.114 94.421 136.114L94.5049 135.909Z" fill="#F4F4F4"/>
</g>
</g>
<path d="M61.7963 112.856C61.7941 112.889 61.7941 112.921 61.7963 112.954M61.8568 113.247C62.3109 114.821 62.936 116.34 63.7208 117.777C62.9339 116.341 62.3087 114.822 61.8568 113.247ZM61.8568 113.247C61.844 113.203 61.8346 113.158 61.8289 113.112M63.7208 117.772C65.4637 121.073 67.632 124.132 70.1703 126.869C76.3261 133.537 94.1087 150.979 95.8003 152.177C97.4919 153.375 96.9979 156.79 95.8003 160.211C94.6027 163.631 90.157 168.599 90.3294 174.06C90.5019 179.522 92.1934 187.91 92.0397 189.62C91.8859 191.33 87.608 197.146 87.608 197.146H131.72C131.72 197.146 126.221 190.156 126.221 187.765C126.221 185.375 133.77 154.745 134.11 152.522C134.45 150.299 133.085 148.761 130.35 148.589C127.614 148.416 117.185 146.194 116.672 144.483C116.16 142.773 119.408 136.277 119.408 136.277L109.156 136.79C109.156 136.79 108.643 141.235 107.958 142.093C107.273 142.95 106.248 141.235 103.853 140.042C101.458 138.849 96.8628 137.82 95.1339 136.45C93.405 135.08 77.0112 119.674 77.0112 119.674M61.8056 112.982C61.8056 113.01 61.8056 113.042 61.8056 113.084C61.8149 113.042 61.8102 113.01 61.8056 112.982Z" stroke="#263238" stroke-linecap="round" stroke-linejoin="round"/>
<path d="M77.0111 119.692C77.0111 119.692 71.5496 119.795 68.502 117.283" stroke="#263238" stroke-linecap="round" stroke-linejoin="round"/>
<path d="M116.677 144.484C116.164 142.778 119.412 136.277 119.412 136.277L109.16 136.79C109.16 136.79 108.648 141.236 107.963 142.093C107.278 142.95 106.253 141.236 103.857 140.043C103.676 139.949 103.475 139.861 103.27 139.772L102.65 149.516C102.65 149.516 103.55 158.953 114.333 157.159C118.699 156.432 123.359 152.536 127.381 148.156C123.243 147.396 117.068 145.793 116.677 144.484Z" fill="#F4F4F4"/>
<mask id="mask3_483_488" style="mask-type:luminance" maskUnits="userSpaceOnUse" x="102" y="136" width="26" height="22">
<path d="M116.677 144.484C116.164 142.778 119.412 136.277 119.412 136.277L109.16 136.79C109.16 136.79 108.648 141.236 107.963 142.093C107.278 142.95 106.253 141.236 103.857 140.043C103.676 139.949 103.475 139.861 103.27 139.772L102.65 149.516C102.65 149.516 103.55 158.953 114.333 157.159C118.699 156.432 123.359 152.536 127.381 148.156C123.243 147.396 117.068 145.793 116.677 144.484Z" fill="white"/>
</mask>
<g mask="url(#mask3_483_488)">
<path d="M116.388 137.568C116.388 137.568 115.768 141.044 115.27 144.889C114.771 148.733 114.403 151.595 114.403 151.595L116.677 144.483L119.24 136.948C119.24 136.948 116.761 136.948 116.388 137.568Z" fill="#0C6D5C"/>
<path opacity="0.5" d="M116.388 137.568C116.388 137.568 115.768 141.044 115.27 144.889C114.771 148.733 114.403 151.595 114.403 151.595L116.677 144.483L119.24 136.948C119.24 136.948 116.761 136.948 116.388 137.568Z" fill="#F4F4F4"/>
</g>
<path d="M116.677 144.484C116.164 142.778 119.412 136.277 119.412 136.277L109.16 136.79C109.16 136.79 108.648 141.236 107.963 142.093C107.278 142.95 106.253 141.236 103.857 140.043C103.676 139.949 103.475 139.861 103.27 139.772L102.65 149.516C102.65 149.516 103.55 158.953 114.333 157.159C118.699 156.432 123.359 152.536 127.381 148.156C123.243 147.396 117.068 145.793 116.677 144.484Z" stroke="#263238" stroke-linecap="round" stroke-linejoin="round"/>
<path d="M107.958 142.093C107.273 142.946 106.248 141.236 103.853 140.043C102.343 139.283 99.9384 138.594 97.9485 137.848C97.3847 136.51 96.6391 134.768 96.1591 133.714C95.3063 131.85 93.9363 133.029 93.9363 133.029C93.2215 132.217 92.6439 131.293 92.2261 130.294C91.3733 128.43 90.0032 128.584 88.1253 128.244C86.2473 127.903 82.3096 124.311 82.3096 124.311C82.3096 124.311 80.4689 122.913 79.7093 122.218C78.8239 123.961 76.7036 127.027 72.1182 128.943C79.4297 136.58 94.2625 151.092 95.8189 152.182C97.5291 153.375 97.0165 156.795 95.8189 160.216C94.6213 163.636 90.1757 168.604 90.3481 174.065C90.5205 179.527 92.2121 187.915 92.0583 189.625C91.9045 191.149 88.4934 195.925 87.7525 196.951L89.4906 197.146H98.5404C98.4891 192.561 98.4938 173.846 101.63 166.39C105.223 157.821 107.958 142.093 107.958 142.093Z" fill="#0C6D5C"/>
<mask id="mask4_483_488" style="mask-type:luminance" maskUnits="userSpaceOnUse" x="72" y="122" width="36" height="76">
<path d="M107.958 142.093C107.273 142.946 106.248 141.236 103.853 140.043C102.343 139.283 99.9384 138.594 97.9485 137.848C97.3847 136.51 96.6391 134.768 96.1591 133.714C95.3063 131.85 93.9363 133.029 93.9363 133.029C93.2215 132.217 92.6439 131.293 92.2261 130.294C91.3733 128.43 90.0032 128.584 88.1253 128.244C86.2473 127.903 82.3096 124.311 82.3096 124.311C82.3096 124.311 80.4689 122.913 79.7093 122.218C78.8239 123.961 76.7036 127.027 72.1182 128.943C79.4297 136.58 94.2625 151.092 95.8189 152.182C97.5291 153.375 97.0165 156.795 95.8189 160.216C94.6213 163.636 90.1757 168.604 90.3481 174.065C90.5205 179.527 92.2121 187.915 92.0583 189.625C91.9045 191.149 88.4934 195.925 87.7525 196.951L89.4906 197.146H98.5404C98.4891 192.561 98.4938 173.846 101.63 166.39C105.223 157.821 107.958 142.093 107.958 142.093Z" fill="white"/>
</mask>
<g mask="url(#mask4_483_488)">
<path opacity="0.16" d="M103.853 140.043C102.343 139.283 99.9383 138.594 97.9485 137.848C97.3847 136.51 96.6391 134.768 96.1591 133.714C95.3063 131.85 93.9363 133.029 93.9363 133.029C93.2215 132.217 92.6439 131.293 92.226 130.294C91.3733 128.43 90.0032 128.584 88.1252 128.244C86.2473 127.903 82.3096 124.311 82.3096 124.311C82.3096 124.311 80.4689 122.913 79.7093 122.218C79.3303 122.958 78.8792 123.659 78.3625 124.311C81.4195 126.897 84.7933 129.637 85.9723 130.182C88.3023 131.259 88.8476 130.359 90.6323 131.44C92.4171 132.522 94.4069 136.1 94.4069 136.1C94.4069 136.1 95.488 133.221 96.3874 135.201C97.2868 137.182 99.4444 140.593 99.4444 140.593C99.4444 140.593 102.32 142.21 103.037 142.21C103.601 142.21 106.364 143.645 107.539 144.265C107.8 142.899 107.944 142.079 107.944 142.079C107.273 142.946 106.248 141.236 103.853 140.043Z" fill="black"/>
</g>
<path d="M107.958 142.093C107.273 142.946 106.248 141.236 103.853 140.043C102.343 139.283 99.9384 138.594 97.9485 137.848C97.3847 136.51 96.6391 134.768 96.1591 133.714C95.3063 131.85 93.9363 133.029 93.9363 133.029C93.2215 132.217 92.6439 131.293 92.2261 130.294C91.3733 128.43 90.0032 128.584 88.1253 128.244C86.2473 127.903 82.3096 124.311 82.3096 124.311C82.3096 124.311 80.4689 122.913 79.7093 122.218C78.8239 123.961 76.7036 127.027 72.1182 128.943C79.4297 136.58 94.2625 151.092 95.8189 152.182C97.5291 153.375 97.0165 156.795 95.8189 160.216C94.6213 163.636 90.1757 168.604 90.3481 174.065C90.5205 179.527 92.2121 187.915 92.0583 189.625C91.9045 191.149 88.4934 195.925 87.7525 196.951L89.4906 197.146H98.5404C98.4891 192.561 98.4938 173.846 101.63 166.39C105.223 157.821 107.958 142.093 107.958 142.093Z" stroke="#263238" stroke-linecap="round" stroke-linejoin="round"/>
<path d="M108.079 141.496C108.079 141.496 105.954 140.844 104.645 141.99C103.336 143.137 101.383 149.018 100.232 155.397C99.5225 159.111 100.012 162.954 101.63 166.371C101.63 166.371 104.319 159.321 105.134 155.886C105.95 152.452 108.079 141.496 108.079 141.496Z" fill="#0C6D5C"/>
<mask id="mask5_483_488" style="mask-type:luminance" maskUnits="userSpaceOnUse" x="99" y="141" width="10" height="26">
<path d="M108.079 141.496C108.079 141.496 105.954 140.844 104.645 141.99C103.336 143.137 101.383 149.018 100.232 155.397C99.5225 159.111 100.012 162.954 101.63 166.371C101.63 166.371 104.319 159.321 105.134 155.886C105.95 152.452 108.079 141.496 108.079 141.496Z" fill="white"/>
</mask>
<g mask="url(#mask5_483_488)">
<path opacity="0.16" d="M104.002 142.535C104.002 142.535 105.54 142.163 106.174 142.377C106.707 142.606 107.206 142.909 107.655 143.276L108.079 141.496C107.443 141.171 106.722 141.052 106.015 141.156C104.957 141.37 104.002 142.535 104.002 142.535Z" fill="black"/>
</g>
<path d="M108.079 141.496C108.079 141.496 105.954 140.844 104.645 141.99C103.336 143.137 101.383 149.018 100.232 155.397C99.5225 159.111 100.012 162.954 101.63 166.371C101.63 166.371 104.319 159.321 105.134 155.886C105.95 152.452 108.079 141.496 108.079 141.496Z" stroke="#263238" stroke-linecap="round" stroke-linejoin="round"/>
<path d="M93.7686 142.056L96.504 153.17L90.3481 139.148" stroke="#263238" stroke-linecap="round" stroke-linejoin="round"/>
<path d="M111.789 197.146H131.724C131.724 197.146 126.225 190.156 126.225 187.765C126.225 185.375 133.775 154.745 134.115 152.522C134.455 150.299 133.09 148.761 130.354 148.589C127.619 148.416 117.19 146.194 116.677 144.483C116.677 144.483 112.744 158.333 111.379 167.737C110.204 175.803 111.42 192.542 111.789 197.146Z" fill="#0C6D5C"/>
<mask id="mask6_483_488" style="mask-type:luminance" maskUnits="userSpaceOnUse" x="110" y="144" width="25" height="54">
<path d="M111.789 197.146H131.724C131.724 197.146 126.225 190.156 126.225 187.765C126.225 185.375 133.775 154.745 134.115 152.522C134.455 150.299 133.09 148.761 130.354 148.589C127.619 148.416 117.19 146.194 116.677 144.483C116.677 144.483 112.744 158.333 111.379 167.737C110.204 175.803 111.42 192.542 111.789 197.146Z" fill="white"/>
</mask>
<g mask="url(#mask6_483_488)">
<path opacity="0.16" d="M130.354 148.589C128.113 148.449 120.708 146.93 117.823 145.448L118.872 147.871C120.771 148.879 122.815 149.59 124.93 149.978C128.401 150.598 131.631 150.476 133.742 153.58L133.844 153.734C133.975 153.137 134.063 152.718 134.091 152.522C134.459 150.299 133.089 148.761 130.354 148.589Z" fill="black"/>
</g>
<path d="M111.789 197.146H131.724C131.724 197.146 126.225 190.156 126.225 187.765C126.225 185.375 133.775 154.745 134.115 152.522C134.455 150.299 133.09 148.761 130.354 148.589C127.619 148.416 117.19 146.194 116.677 144.483C116.677 144.483 112.744 158.333 111.379 167.737C110.204 175.803 111.42 192.542 111.789 197.146Z" stroke="#263238" stroke-linecap="round" stroke-linejoin="round"/>
<path d="M116.677 144.483C116.677 144.483 111.402 161.259 111.379 167.737C111.379 167.737 118.872 158.664 119.851 152.289C120.829 145.914 116.677 144.483 116.677 144.483Z" fill="#0C6D5C"/>
<mask id="mask7_483_488" style="mask-type:luminance" maskUnits="userSpaceOnUse" x="111" y="144" width="9" height="24">
<path d="M116.677 144.483C116.677 144.483 111.402 161.259 111.379 167.737C111.379 167.737 118.872 158.664 119.851 152.289C120.829 145.914 116.677 144.483 116.677 144.483Z" fill="white"/>
</mask>
<g mask="url(#mask7_483_488)">
<path opacity="0.16" d="M115.768 146.627C116.561 146.6 117.348 146.767 118.062 147.113C118.775 147.459 119.394 147.974 119.864 148.612C119.864 148.612 118.83 145.569 116.677 144.483L115.768 146.627Z" fill="black"/>
</g>
<path d="M116.677 144.483C116.677 144.483 111.402 161.259 111.379 167.737C111.379 167.737 118.872 158.664 119.851 152.289C120.829 145.914 116.677 144.483 116.677 144.483Z" stroke="#263238" stroke-linecap="round" stroke-linejoin="round"/>
<path d="M172.993 193.991C172.993 193.991 176.856 194.15 179.387 194.513C181.074 194.742 182.773 194.877 184.475 194.919C184.475 194.919 183.077 192.095 181.586 191.298C180.095 190.501 177.392 189.075 175.127 189.392C172.863 189.709 169.624 191.992 169.894 192.719C170.165 193.446 171.372 193.772 172.993 193.991Z" fill="#F4F4F4"/>
<mask id="mask8_483_488" style="mask-type:luminance" maskUnits="userSpaceOnUse" x="169" y="189" width="16" height="6">
<path d="M172.993 193.991C172.993 193.991 176.856 194.15 179.387 194.513C181.074 194.742 182.773 194.877 184.475 194.919C184.475 194.919 183.077 192.095 181.586 191.298C180.095 190.501 177.392 189.075 175.127 189.392C172.863 189.709 169.624 191.992 169.894 192.719C170.165 193.446 171.372 193.772 172.993 193.991Z" fill="white"/>
</mask>
<g mask="url(#mask8_483_488)">
<path d="M172.993 193.991C172.993 193.991 176.856 194.15 179.387 194.513C181.074 194.742 182.773 194.877 184.475 194.919C184.475 194.919 183.077 192.095 181.586 191.298C180.095 190.501 177.392 189.075 175.127 189.392C172.863 189.709 169.624 191.992 169.894 192.719C170.165 193.446 171.372 193.772 172.993 193.991Z" fill="#0C6D5C"/>
<path opacity="0.5" d="M172.993 193.991C172.993 193.991 176.856 194.15 179.387 194.513C181.074 194.742 182.773 194.877 184.475 194.919C184.475 194.919 183.077 192.095 181.586 191.298C180.095 190.501 177.392 189.075 175.127 189.392C172.863 189.709 169.624 191.992 169.894 192.719C170.165 193.446 171.372 193.772 172.993 193.991Z" fill="#F4F4F4"/>
</g>
<path d="M172.993 193.991C172.993 193.991 176.856 194.15 179.387 194.513C181.074 194.742 182.773 194.877 184.475 194.919C184.475 194.919 183.077 192.095 181.586 191.298C180.095 190.501 177.392 189.075 175.127 189.392C172.863 189.709 169.624 191.992 169.894 192.719C170.165 193.446 171.372 193.772 172.993 193.991Z" stroke="#263238" stroke-linecap="round" stroke-linejoin="round"/>
<path d="M179.41 192.836C179.41 192.836 182.472 191.246 183.236 191.27C184 191.293 189.079 194.727 188.828 195.277C188.657 195.532 188.41 195.727 188.122 195.834C187.835 195.941 187.521 195.955 187.225 195.874C186.661 195.608 183.24 194.154 183.24 194.154L181.004 194.681L179.41 192.836Z" fill="#F4F4F4"/>
<mask id="mask9_483_488" style="mask-type:luminance" maskUnits="userSpaceOnUse" x="179" y="191" width="10" height="5">
<path d="M179.41 192.836C179.41 192.836 182.472 191.246 183.236 191.27C184 191.293 189.079 194.727 188.828 195.277C188.657 195.532 188.41 195.727 188.122 195.834C187.835 195.941 187.521 195.955 187.225 195.874C186.661 195.608 183.24 194.154 183.24 194.154L181.004 194.681L179.41 192.836Z" fill="white"/>
</mask>
<g mask="url(#mask9_483_488)">
<path d="M179.41 192.836C179.41 192.836 182.472 191.246 183.236 191.27C184 191.293 189.079 194.727 188.828 195.277C188.576 195.827 187.374 196.275 187.225 195.874C187.076 195.473 183.24 194.154 183.24 194.154L181.004 194.681L179.41 192.836Z" fill="#0C6D5C"/>
<path opacity="0.5" d="M179.41 192.836C179.41 192.836 182.472 191.246 183.236 191.27C184 191.293 189.079 194.727 188.828 195.277C188.576 195.827 187.374 196.275 187.225 195.874C187.076 195.473 183.24 194.154 183.24 194.154L181.004 194.681L179.41 192.836Z" fill="#F4F4F4"/>
</g>
<path d="M179.41 192.836C179.41 192.836 182.472 191.246 183.236 191.27C184 191.293 189.079 194.727 188.828 195.277C188.657 195.532 188.41 195.727 188.122 195.834C187.835 195.941 187.521 195.955 187.225 195.874C186.661 195.608 183.24 194.154 183.24 194.154L181.004 194.681L179.41 192.836Z" stroke="#263238" stroke-linecap="round" stroke-linejoin="round"/>
<path d="M177.224 190.221C177.224 190.221 181.307 190.091 182.117 190.501C182.928 190.911 186.591 197.193 186.041 197.649C185.491 198.106 183.972 197.971 184.019 197.463C184.065 196.955 180.645 193.591 180.645 193.591L177.984 193.008L177.224 190.221Z" fill="#F4F4F4"/>
<mask id="mask10_483_488" style="mask-type:luminance" maskUnits="userSpaceOnUse" x="177" y="190" width="10" height="8">
<path d="M177.224 190.221C177.224 190.221 181.307 190.091 182.117 190.501C182.928 190.911 186.591 197.193 186.041 197.649C185.491 198.106 183.972 197.971 184.019 197.463C184.065 196.955 180.645 193.591 180.645 193.591L177.984 193.008L177.224 190.221Z" fill="white"/>
</mask>
<g mask="url(#mask10_483_488)">
<path d="M177.224 190.221C177.224 190.221 181.307 190.091 182.117 190.501C182.928 190.911 186.591 197.193 186.041 197.649C185.491 198.106 183.972 197.971 184.019 197.463C184.065 196.955 180.645 193.591 180.645 193.591L177.984 193.008L177.224 190.221Z" fill="#0C6D5C"/>
<path opacity="0.5" d="M177.224 190.221C177.224 190.221 181.307 190.091 182.117 190.501C182.928 190.911 186.591 197.193 186.041 197.649C185.491 198.106 183.972 197.971 184.019 197.463C184.065 196.955 180.645 193.591 180.645 193.591L177.984 193.008L177.224 190.221Z" fill="#F4F4F4"/>
</g>
<path d="M177.224 190.221C177.224 190.221 181.307 190.091 182.117 190.501C182.928 190.911 186.591 197.193 186.041 197.649C185.491 198.106 183.972 197.971 184.019 197.463C184.065 196.955 180.645 193.591 180.645 193.591L177.984 193.008L177.224 190.221Z" stroke="#263238" stroke-linecap="round" stroke-linejoin="round"/>
<path d="M174.806 189.378C174.806 189.378 178.939 189.243 179.759 189.662C180.58 190.082 184.289 196.433 183.73 196.899C183.171 197.365 181.642 197.221 181.689 196.708C181.735 196.196 178.273 192.789 178.273 192.789L175.579 192.197L174.806 189.378Z" fill="#F4F4F4"/>
<mask id="mask11_483_488" style="mask-type:luminance" maskUnits="userSpaceOnUse" x="174" y="189" width="10" height="9">
<path d="M174.806 189.378C174.806 189.378 178.939 189.243 179.759 189.662C180.58 190.082 184.289 196.433 183.73 196.899C183.171 197.365 181.642 197.221 181.689 196.708C181.735 196.196 178.273 192.789 178.273 192.789L175.579 192.197L174.806 189.378Z" fill="white"/>
</mask>
<g mask="url(#mask11_483_488)">
<path d="M174.806 189.378C174.806 189.378 178.939 189.243 179.759 189.662C180.58 190.082 184.289 196.433 183.73 196.899C183.171 197.365 181.642 197.221 181.689 196.708C181.735 196.196 178.273 192.789 178.273 192.789L175.579 192.197L174.806 189.378Z" fill="#0C6D5C"/>
<path opacity="0.5" d="M174.806 189.378C174.806 189.378 178.939 189.243 179.759 189.662C180.58 190.082 184.289 196.433 183.73 196.899C183.171 197.365 181.642 197.221 181.689 196.708C181.735 196.196 178.273 192.789 178.273 192.789L175.579 192.197L174.806 189.378Z" fill="#F4F4F4"/>
</g>
<path d="M174.806 189.378C174.806 189.378 178.939 189.243 179.759 189.662C180.58 190.082 184.289 196.433 183.73 196.899C183.171 197.365 181.642 197.221 181.689 196.708C181.735 196.196 178.273 192.789 178.273 192.789L175.579 192.197L174.806 189.378Z" stroke="#263238" stroke-linecap="round" stroke-linejoin="round"/>
<path d="M127.81 165.696C130.802 170.305 136.808 181.983 138.56 183.297C141.296 185.347 159.582 190.324 161.343 191.685C163.105 193.045 162.984 194.411 164.652 194.909C166.32 195.408 172.574 196.839 174.96 197.062C177.346 197.286 176.279 195.809 176.279 195.809L172.21 193.013L175.757 192.137C175.757 192.137 179.312 196.415 179.979 196.648C180.645 196.881 181.819 196.648 181.745 196.121C181.614 195.277 177.821 188.376 176.474 188.082C175.128 187.789 166.954 188.921 166.954 188.921C166.954 188.921 149.81 177.36 149.502 176.95C149.502 176.95 148.477 174.042 147.638 172.844C146.799 171.647 146.268 171.991 146.268 171.991C146.268 171.991 146.613 170.449 146.1 169.936L143.365 167.201L143.267 167.331C142.801 166.399 142.335 165.337 141.822 164.125C140.392 160.756 135.326 151.301 134.474 149.936C133.835 148.915 128.486 148.184 125.773 147.876" fill="#0C6D5C"/>
<mask id="mask12_483_488" style="mask-type:luminance" maskUnits="userSpaceOnUse" x="125" y="147" width="57" height="51">
<path d="M127.81 165.696C130.802 170.305 136.808 181.983 138.56 183.297C141.296 185.347 159.582 190.324 161.343 191.685C163.105 193.045 162.984 194.411 164.652 194.909C166.32 195.408 172.574 196.839 174.96 197.062C177.346 197.286 176.279 195.809 176.279 195.809L172.21 193.013L175.757 192.137C175.757 192.137 179.312 196.415 179.979 196.648C180.645 196.881 181.819 196.648 181.745 196.121C181.614 195.277 177.821 188.376 176.474 188.082C175.128 187.789 166.954 188.921 166.954 188.921C166.954 188.921 149.81 177.36 149.502 176.95C149.502 176.95 148.477 174.042 147.638 172.844C146.799 171.647 146.268 171.991 146.268 171.991C146.268 171.991 146.613 170.449 146.1 169.936L143.365 167.201L143.267 167.331C142.801 166.399 142.335 165.337 141.822 164.125C140.392 160.756 135.326 151.301 134.474 149.936C133.835 148.915 128.486 148.184 125.773 147.876" fill="white"/>
</mask>
<g mask="url(#mask12_483_488)">
<path opacity="0.16" d="M139.721 165.989C141.958 167.974 141.212 167.974 140.713 169.717C140.215 171.46 141.086 169.097 143.197 169.223C145.308 169.349 144.688 172.075 144.437 172.574C144.185 173.072 147.046 173.692 146.548 174.806C146.049 175.92 143.197 177.537 141.585 179.154C139.973 180.771 145.802 176.544 147.787 176.423C148.393 176.381 148.892 176.46 149.311 176.451C148.871 175.204 148.306 174.005 147.624 172.872C146.767 171.674 146.254 172.019 146.254 172.019C146.254 172.019 146.599 170.477 146.086 169.964L143.351 167.229L143.253 167.359C142.787 166.427 142.321 165.365 141.809 164.153C140.378 160.784 135.313 151.329 134.46 149.964C133.821 148.943 128.472 148.211 125.76 147.904L126.007 150.061L126.067 150.108C126.067 150.108 129.418 150.728 130.536 150.854C131.654 150.979 133.02 151.967 132.894 152.718C132.768 153.468 129.543 156.814 130.536 157.065C131.529 157.317 132.647 154.582 133.765 154.954C134.884 155.327 137.47 164.004 139.721 165.989Z" fill="black"/>
</g>
<path d="M127.81 165.696C130.802 170.305 136.808 181.983 138.56 183.297C141.296 185.347 159.582 190.324 161.343 191.685C163.105 193.045 162.984 194.411 164.652 194.909C166.32 195.408 172.574 196.839 174.96 197.062C177.346 197.286 176.279 195.809 176.279 195.809L172.21 193.013L175.757 192.137C175.757 192.137 179.312 196.415 179.979 196.648C180.645 196.881 181.819 196.648 181.745 196.121C181.614 195.277 177.821 188.376 176.474 188.082C175.128 187.789 166.954 188.921 166.954 188.921C166.954 188.921 149.81 177.36 149.502 176.95C149.502 176.95 148.477 174.042 147.638 172.844C146.799 171.647 146.268 171.991 146.268 171.991C146.268 171.991 146.613 170.449 146.1 169.936L143.365 167.201L143.267 167.331C142.801 166.399 142.335 165.337 141.822 164.125C140.392 160.756 135.326 151.301 134.474 149.936C133.835 148.915 128.486 148.184 125.773 147.876" stroke="#263238" stroke-linecap="round" stroke-linejoin="round"/>
<path d="M127.856 159.372C127.731 159.791 127.623 160.211 127.54 160.64" stroke="#263238" stroke-linecap="round" stroke-linejoin="round"/>
<path d="M132.386 151.66C130.922 153.329 129.687 155.186 128.714 157.182" stroke="#263238" stroke-linecap="round" stroke-linejoin="round"/>
<path d="M139.231 178.12C140.49 176.256 142.493 173.893 144.702 173.217" stroke="#263238" stroke-linecap="round" stroke-linejoin="round"/>
<path d="M137.838 180.412C137.838 180.412 138.062 179.974 138.463 179.312" stroke="#263238" stroke-linecap="round" stroke-linejoin="round"/>
<path d="M137.838 177.467C137.838 177.467 140.126 171.745 142.414 170.272C144.702 168.8 143.393 171.745 143.393 171.745" stroke="#263238" stroke-linecap="round" stroke-linejoin="round"/>
<path d="M161.343 191.69C163.109 193.055 162.984 194.416 164.652 194.914C166.32 195.413 172.574 196.844 174.96 197.067C177.346 197.291 176.279 195.814 176.279 195.814L172.21 193.018L175.757 192.142C175.757 192.142 179.312 196.419 179.979 196.652C180.645 196.885 181.913 196.969 181.745 196.126C181.419 194.495 177.821 188.381 176.474 188.087C175.128 187.794 166.954 188.926 166.954 188.926C166.954 188.926 151.338 178.208 149.628 177.048C142.997 177.686 139.842 181.158 138.514 183.241L138.561 183.278C141.296 185.347 159.582 190.324 161.343 191.69Z" fill="#F4F4F4"/>
<mask id="mask13_483_488" style="mask-type:luminance" maskUnits="userSpaceOnUse" x="138" y="177" width="44" height="21">
<path d="M161.343 191.69C163.109 193.055 162.984 194.416 164.652 194.914C166.32 195.413 172.574 196.844 174.96 197.067C177.346 197.291 176.279 195.814 176.279 195.814L172.21 193.018L175.757 192.142C175.757 192.142 179.312 196.419 179.979 196.652C180.645 196.885 181.913 196.969 181.745 196.126C181.419 194.495 177.821 188.381 176.474 188.087C175.128 187.794 166.954 188.926 166.954 188.926C166.954 188.926 151.338 178.208 149.628 177.048C142.997 177.686 139.842 181.158 138.514 183.241L138.561 183.278C141.296 185.347 159.582 190.324 161.343 191.69Z" fill="white"/>
</mask>
<g mask="url(#mask13_483_488)">
<path d="M181.74 196.144C180.892 194.071 177.816 188.4 176.47 188.106C175.123 187.812 166.949 188.945 166.949 188.945C166.949 188.945 151.333 178.227 149.623 177.066C147.883 177.218 146.175 177.631 144.558 178.292C147.023 179.69 163.454 189.01 165.528 189.425C167.727 189.891 175.067 188.684 176.358 189.551C177.178 190.1 179.62 193.973 181.269 196.722C181.74 196.652 181.912 196.564 181.74 196.144Z" fill="#0C6D5C"/>
<path opacity="0.5" d="M181.74 196.144C180.417 193.176 177.816 188.4 176.47 188.106C175.123 187.812 166.949 188.945 166.949 188.945C166.949 188.945 151.333 178.227 149.623 177.066C147.883 177.218 146.175 177.631 144.558 178.292C147.023 179.69 163.454 189.01 165.528 189.425C167.727 189.891 175.067 188.684 176.358 189.551C177.178 190.1 179.62 193.973 181.269 196.722C181.74 196.652 181.926 196.559 181.74 196.144Z" fill="#F4F4F4"/>
</g>
<path d="M161.343 191.69C163.109 193.055 162.984 194.416 164.652 194.914C166.32 195.413 172.574 196.844 174.96 197.067C177.346 197.291 176.279 195.814 176.279 195.814L172.21 193.018L175.757 192.142C175.757 192.142 179.312 196.419 179.979 196.652C180.645 196.885 181.913 196.969 181.745 196.126C181.419 194.495 177.821 188.381 176.474 188.087C175.128 187.794 166.954 188.926 166.954 188.926C166.954 188.926 151.338 178.208 149.628 177.048C142.997 177.686 139.842 181.158 138.514 183.241L138.561 183.278C141.296 185.347 159.582 190.324 161.343 191.69Z" stroke="#263238" stroke-linecap="round" stroke-linejoin="round"/>
<path d="M120.158 110.316L106.122 116.174C105.952 118.641 105.341 121.057 104.319 123.308C102.66 126.817 103.629 133.458 105.223 137.042C106.816 140.625 113.839 139.222 116.407 138.775C118.148 138.444 119.854 137.946 121.5 137.288C122.25 137.577 123.06 137.671 123.856 137.56C124.652 137.449 125.406 137.138 126.048 136.655C126.048 136.655 118.536 115.568 120.158 110.316Z" fill="#F4F4F4"/>
<mask id="mask14_483_488" style="mask-type:luminance" maskUnits="userSpaceOnUse" x="103" y="110" width="24" height="30">
<path d="M120.158 110.316L106.122 116.174C105.952 118.641 105.341 121.057 104.319 123.308C102.66 126.817 103.629 133.458 105.223 137.042C106.816 140.625 113.839 139.222 116.407 138.775C118.148 138.444 119.854 137.946 121.5 137.288C122.25 137.577 123.06 137.671 123.856 137.56C124.652 137.449 125.406 137.138 126.048 136.655C126.048 136.655 118.536 115.568 120.158 110.316Z" fill="white"/>
</mask>
<g mask="url(#mask14_483_488)">
<path d="M120.158 110.316L106.122 116.174C105.952 118.641 105.341 121.057 104.319 123.308C102.66 126.817 103.629 133.458 105.223 137.042C105.489 137.618 105.919 138.104 106.458 138.44V138.169C106.458 138.169 103.853 131.715 104.347 127.992C104.841 124.268 106.956 122.4 107.203 120.046C107.45 117.693 107.324 116.575 112.045 114.837C116.766 113.098 118.746 111.486 119.24 113.22C119.734 114.953 121.724 126.379 123.089 129.11C124.455 131.841 124.329 134.702 122.222 135.937C120.094 137.215 117.812 138.22 115.433 138.929L116.425 138.756C118.167 138.425 119.872 137.927 121.519 137.27C122.268 137.559 123.079 137.652 123.875 137.541C124.67 137.43 125.425 137.119 126.067 136.636C126.067 136.636 118.536 115.568 120.158 110.316Z" fill="#0C6D5C"/>
<path opacity="0.5" d="M120.158 110.316L106.122 116.174C105.952 118.641 105.341 121.057 104.319 123.308C102.66 126.817 103.629 133.458 105.223 137.042C105.489 137.618 105.919 138.104 106.458 138.44V138.169C106.458 138.169 103.853 131.715 104.347 127.992C104.841 124.268 106.956 122.4 107.203 120.046C107.45 117.693 107.324 116.575 112.045 114.837C116.766 113.098 118.746 111.486 119.24 113.22C119.734 114.953 121.724 126.379 123.089 129.11C124.455 131.841 124.329 134.702 122.222 135.937C120.094 137.215 117.812 138.22 115.433 138.929L116.425 138.756C118.167 138.425 119.872 137.927 121.519 137.27C122.268 137.559 123.079 137.652 123.875 137.541C124.67 137.43 125.425 137.119 126.067 136.636C126.067 136.636 118.536 115.568 120.158 110.316Z" fill="#F4F4F4"/>
</g>
<path d="M120.158 110.316L106.122 116.174C105.952 118.641 105.341 121.057 104.319 123.308C102.66 126.817 103.629 133.458 105.223 137.042C106.816 140.625 113.839 139.222 116.407 138.775C118.148 138.444 119.854 137.946 121.5 137.288C122.25 137.577 123.06 137.671 123.856 137.56C124.652 137.449 125.406 137.138 126.048 136.655C126.048 136.655 118.536 115.568 120.158 110.316Z" stroke="#263238" stroke-linecap="round" stroke-linejoin="round"/>
<path d="M113.066 119.501C113.104 120.327 113.001 121.152 112.763 121.943C112.39 122.875 108.872 126.538 108.979 126.934C109.086 127.33 109.403 128.602 110.027 128.724" stroke="#263238" stroke-linecap="round" stroke-linejoin="round"/>
<path d="M116.966 122.777C117.455 121.799 119.063 122.754 119.04 124.958" stroke="#263238" stroke-linecap="round" stroke-linejoin="round"/>
<path d="M108.997 119.898C108.997 119.898 110.367 119.296 111.593 121.515" stroke="#263238" stroke-linecap="round" stroke-linejoin="round"/>
<path d="M115.018 126.007C116.601 126.087 118.106 126.718 119.273 127.792" stroke="#263238" stroke-width="0.5" stroke-linecap="round" stroke-linejoin="round"/>
<path d="M107.343 123.094C108.162 123.204 108.961 123.425 109.72 123.751" stroke="#263238" stroke-width="0.5" stroke-linecap="round" stroke-linejoin="round"/>
<path d="M112.912 117.432C112.55 117.241 112.149 117.136 111.739 117.127C111.33 117.117 110.924 117.202 110.554 117.376C109.3 117.978 108.531 118.639 108.615 117.87C108.699 117.101 110.172 116.253 110.615 116.142C111.057 116.03 113.038 115.722 112.912 117.432Z" fill="#263238"/>
<path d="M116.426 115.694C117.732 116.751 118.77 118.102 119.455 119.637C120.387 121.967 121.123 119.422 120.387 117.898C119.65 116.375 117.521 114.753 116.426 115.694Z" fill="#263238"/>
<path d="M126.253 140.639C126.253 141.725 125.638 142.606 124.883 142.606C124.129 142.606 123.518 141.725 123.518 140.639C123.518 139.553 124.129 136.79 124.883 136.79C125.638 136.79 126.253 139.553 126.253 140.639Z" fill="#0C6D5C" stroke="#263238" stroke-linecap="round" stroke-linejoin="round"/>
<path d="M117.087 122.353C117.033 122.495 116.991 122.642 116.961 122.791C116.826 123.481 116.691 124.921 116.961 124.981C117.232 125.042 117.893 123.695 118.01 123.005C118.036 122.87 118.052 122.733 118.056 122.595C117.738 122.496 117.415 122.415 117.087 122.353Z" fill="#263238"/>
<path d="M109.137 119.762C109.096 119.884 109.063 120.009 109.039 120.135C108.9 120.825 108.904 122.339 109.198 122.395C109.491 122.451 109.971 121.034 110.107 120.345C110.14 120.177 110.159 120.007 110.162 119.837C109.829 119.745 109.481 119.72 109.137 119.762Z" fill="#263238"/>
<path d="M116.966 122.8L117.432 121.934C118.171 122.078 118.84 122.465 119.333 123.033" stroke="#263238" stroke-width="0.75" stroke-linecap="round" stroke-linejoin="round"/>
<path d="M109.137 119.762L109.603 119.217C109.603 119.217 109.804 119.119 110.903 119.618" stroke="#263238" stroke-width="0.75" stroke-linecap="round" stroke-linejoin="round"/>
<path d="M107.371 132.4C107.371 132.4 108.154 130.96 109.202 130.96C110.251 130.96 111.034 133.314 111.034 133.314" stroke="#263238" stroke-linecap="round" stroke-linejoin="round"/>
<path d="M73.628 194.499C72.6147 194.448 71.6195 194.211 70.6922 193.8C70.5629 193.752 70.4447 193.678 70.3448 193.583C70.2449 193.488 70.1653 193.374 70.111 193.247C70.0566 193.121 70.0286 192.984 70.0287 192.846C70.0287 192.709 70.0568 192.572 70.1113 192.446C70.1657 192.319 70.2454 192.205 70.3454 192.11C70.4454 192.015 70.5637 191.941 70.693 191.894C70.8223 191.846 70.96 191.825 71.0977 191.832C71.2354 191.84 71.3701 191.875 71.4937 191.936C72.4257 192.332 73.6327 192.579 73.9542 192.439C74.546 191.777 75.4547 187.779 74.2804 185.85C74.0148 185.421 73.7678 185.342 73.6047 185.323C72.9383 185.23 71.9504 185.915 71.6009 186.255C71.5036 186.347 71.3892 186.419 71.2642 186.466C71.1391 186.514 71.006 186.536 70.8723 186.532C70.7386 186.529 70.6069 186.498 70.4849 186.444C70.3628 186.389 70.2528 186.311 70.161 186.213C70.0692 186.116 69.9975 186.002 69.9499 185.876C69.9023 185.751 69.8798 185.618 69.8837 185.485C69.8876 185.351 69.9178 185.219 69.9726 185.097C70.0274 184.975 70.1056 184.865 70.2029 184.773C70.3847 184.596 72.0669 183.082 73.861 183.324C74.306 183.389 74.73 183.556 75.1002 183.811C75.4703 184.066 75.7766 184.404 75.9953 184.797C77.7242 187.616 76.5405 192.98 75.2124 194.042C74.7509 194.369 74.1925 194.529 73.628 194.499Z" fill="#F4F4F4"/>
<mask id="mask15_483_488" style="mask-type:luminance" maskUnits="userSpaceOnUse" x="69" y="183" width="8" height="12">
<path d="M73.628 194.499C72.6147 194.448 71.6195 194.211 70.6922 193.8C70.5629 193.752 70.4447 193.678 70.3448 193.583C70.2449 193.488 70.1653 193.374 70.111 193.247C70.0566 193.121 70.0286 192.984 70.0287 192.846C70.0287 192.709 70.0568 192.572 70.1113 192.446C70.1657 192.319 70.2454 192.205 70.3454 192.11C70.4454 192.015 70.5637 191.941 70.693 191.894C70.8223 191.846 70.96 191.825 71.0977 191.832C71.2354 191.84 71.3701 191.875 71.4937 191.936C72.4257 192.332 73.6327 192.579 73.9542 192.439C74.546 191.777 75.4547 187.779 74.2804 185.85C74.0148 185.421 73.7678 185.342 73.6047 185.323C72.9383 185.23 71.9504 185.915 71.6009 186.255C71.5036 186.347 71.3892 186.419 71.2642 186.466C71.1391 186.514 71.006 186.536 70.8723 186.532C70.7386 186.529 70.6069 186.498 70.4849 186.444C70.3628 186.389 70.2528 186.311 70.161 186.213C70.0692 186.116 69.9975 186.002 69.9499 185.876C69.9023 185.751 69.8798 185.618 69.8837 185.485C69.8876 185.351 69.9178 185.219 69.9726 185.097C70.0274 184.975 70.1056 184.865 70.2029 184.773C70.3847 184.596 72.0669 183.082 73.861 183.324C74.306 183.389 74.73 183.556 75.1002 183.811C75.4703 184.066 75.7766 184.404 75.9953 184.797C77.7242 187.616 76.5405 192.98 75.2124 194.042C74.7509 194.369 74.1925 194.529 73.628 194.499Z" fill="white"/>
</mask>
<g mask="url(#mask15_483_488)">
<path d="M74.9934 185.542C74.8712 185.253 74.6798 184.998 74.4361 184.8C74.1923 184.601 73.9036 184.466 73.5954 184.405C72.4304 184.219 71.3353 185.389 71.2141 185.519C71.1027 185.653 71.0339 185.818 71.0165 185.991C70.999 186.165 71.0338 186.339 71.1163 186.493C71.2996 186.456 71.469 186.369 71.6056 186.241C71.9551 185.915 72.943 185.23 73.6094 185.309C73.7725 185.309 74.0194 185.407 74.2851 185.836C75.4594 187.747 74.5507 191.763 73.9589 192.425C73.6373 192.565 72.435 192.318 71.4984 191.922C71.3831 191.873 71.2599 191.847 71.1349 191.843C71.1434 191.97 71.1836 192.094 71.252 192.202C71.3204 192.31 71.4147 192.4 71.5263 192.462C72.1156 192.777 72.7656 192.962 73.4323 193.003C73.8127 193.021 74.1853 192.891 74.4714 192.64C75.3475 191.833 76.1211 187.709 74.9934 185.542Z" fill="#0C6D5C"/>
<path opacity="0.5" d="M74.9934 185.542C74.8712 185.253 74.6798 184.998 74.4361 184.8C74.1923 184.601 73.9036 184.466 73.5954 184.405C72.4304 184.219 71.3353 185.389 71.2141 185.519C71.1027 185.653 71.0339 185.818 71.0165 185.991C70.999 186.165 71.0338 186.339 71.1163 186.493C71.2996 186.456 71.469 186.369 71.6056 186.241C71.9551 185.915 72.943 185.23 73.6094 185.309C73.7725 185.309 74.0194 185.407 74.2851 185.836C75.4594 187.747 74.5507 191.763 73.9589 192.425C73.6373 192.565 72.435 192.318 71.4984 191.922C71.3831 191.873 71.2599 191.847 71.1349 191.843C71.1434 191.97 71.1836 192.094 71.252 192.202C71.3204 192.31 71.4147 192.4 71.5263 192.462C72.1156 192.777 72.7656 192.962 73.4323 193.003C73.8127 193.021 74.1853 192.891 74.4714 192.64C75.3475 191.833 76.1211 187.709 74.9934 185.542Z" fill="#F4F4F4"/>
</g>
<path d="M73.628 194.499C72.6147 194.448 71.6195 194.211 70.6922 193.8C70.5629 193.752 70.4447 193.678 70.3448 193.583C70.2449 193.488 70.1653 193.374 70.111 193.247C70.0566 193.121 70.0286 192.984 70.0287 192.846C70.0287 192.709 70.0568 192.572 70.1113 192.446C70.1657 192.319 70.2454 192.205 70.3454 192.11C70.4454 192.015 70.5637 191.941 70.693 191.894C70.8223 191.846 70.96 191.825 71.0977 191.832C71.2354 191.84 71.3701 191.875 71.4937 191.936C72.4257 192.332 73.6327 192.579 73.9542 192.439C74.546 191.777 75.4547 187.779 74.2804 185.85C74.0148 185.421 73.7678 185.342 73.6047 185.323C72.9383 185.23 71.9504 185.915 71.6009 186.255C71.5036 186.347 71.3892 186.419 71.2642 186.466C71.1391 186.514 71.006 186.536 70.8723 186.532C70.7386 186.529 70.6069 186.498 70.4849 186.444C70.3628 186.389 70.2528 186.311 70.161 186.213C70.0692 186.116 69.9975 186.002 69.9499 185.876C69.9023 185.751 69.8798 185.618 69.8837 185.485C69.8876 185.351 69.9178 185.219 69.9726 185.097C70.0274 184.975 70.1056 184.865 70.2029 184.773C70.3847 184.596 72.0669 183.082 73.861 183.324C74.306 183.389 74.73 183.556 75.1002 183.811C75.4703 184.066 75.7766 184.404 75.9953 184.797C77.7242 187.616 76.5405 192.98 75.2124 194.042C74.7509 194.369 74.1925 194.529 73.628 194.499Z" stroke="#263238" stroke-linecap="round" stroke-linejoin="round"/>
<path d="M71.8479 182.476H60.6406V197.351H71.8479V182.476Z" fill="#F4F4F4"/>
<mask id="mask16_483_488" style="mask-type:luminance" maskUnits="userSpaceOnUse" x="60" y="182" width="12" height="16">
<path d="M71.8479 182.476H60.6406V197.351H71.8479V182.476Z" fill="white"/>
</mask>
<g mask="url(#mask16_483_488)">
<path d="M65.2307 182.476H60.6406V197.351H65.2307V182.476Z" fill="#0C6D5C"/>
<path opacity="0.5" d="M65.2307 182.476H60.6406V197.351H65.2307V182.476Z" fill="#F4F4F4"/>
</g>
<path d="M71.8479 182.476H60.6406V197.351H71.8479V182.476Z" stroke="#263238" stroke-linecap="round" stroke-linejoin="round"/>
<path d="M133.434 197.146H85.5576L83.9965 170.826C83.9533 170.571 83.9661 170.31 84.0338 170.06C84.1015 169.81 84.2226 169.578 84.3887 169.38C84.5548 169.181 84.762 169.021 84.996 168.91C85.23 168.8 85.4852 168.741 85.744 168.739H133.229C133.49 168.739 133.747 168.795 133.983 168.905C134.22 169.014 134.429 169.174 134.597 169.372C134.765 169.571 134.888 169.804 134.957 170.055C135.026 170.307 135.039 170.57 134.996 170.826L133.434 197.146Z" fill="#263238" stroke="#263238" stroke-linecap="round" stroke-linejoin="round"/>
<path d="M87.9155 169.368H132.885C133.139 169.365 133.39 169.418 133.622 169.523C133.853 169.628 134.059 169.782 134.224 169.975C134.39 170.167 134.511 170.394 134.58 170.638C134.649 170.883 134.663 171.139 134.623 171.39" stroke="#F4F4F4" stroke-linecap="round" stroke-linejoin="round"/>
<path d="M84.3459 170.975C84.3835 170.535 84.5856 170.125 84.9121 169.827C85.2386 169.529 85.6654 169.365 86.1074 169.368" stroke="#F4F4F4" stroke-linecap="round" stroke-linejoin="round"/>
<path d="M133.635 194.583H85.3572V197.146H133.635V194.583Z" fill="#F4F4F4" stroke="#263238" stroke-linecap="round" stroke-linejoin="round"/>
<path d="M109.324 185.095C111.213 185.095 112.744 184.177 112.744 183.045C112.744 181.913 111.213 180.995 109.324 180.995C107.434 180.995 105.903 181.913 105.903 183.045C105.903 184.177 107.434 185.095 109.324 185.095Z" fill="#F4F4F4" stroke="#263238" stroke-linecap="round" stroke-linejoin="round"/>
<path d="M206.452 196.843H26.6412V201.21H206.452V196.843Z" fill="#263238"/>
<path d="M159.829 34.9502H73.3251C70.4091 34.9502 68.0453 37.314 68.0453 40.23V89.8636C68.0453 92.7796 70.4091 95.1434 73.3251 95.1434H159.829C162.745 95.1434 165.108 92.7796 165.108 89.8636V40.23C165.108 37.314 162.745 34.9502 159.829 34.9502Z" fill="#0C6D5C"/>
<path d="M118.859 69.5414C126.706 68.2803 132.045 60.897 130.784 53.0503C129.523 45.2035 122.139 39.8648 114.293 41.1258C106.446 42.3869 101.107 49.7702 102.368 57.6169C103.629 65.4637 111.013 70.8024 118.859 69.5414Z" fill="#263238"/>
<path d="M116.467 57.9941L111.672 64.1499C111.509 64.4062 111.285 64.6179 111.02 64.7659C110.755 64.914 110.457 64.9938 110.153 64.9981C109.737 65.0038 109.335 64.8446 109.035 64.5554C108.882 64.4155 108.762 64.2445 108.681 64.054C108.601 63.8634 108.563 63.6577 108.569 63.4509C108.584 62.9879 108.747 62.5419 109.035 62.1788L114.501 55.4171L109.375 48.6508C109.137 48.3332 109.006 47.948 109.002 47.551C109.001 47.3143 109.049 47.0799 109.143 46.8625C109.236 46.6452 109.374 46.4496 109.547 46.2882C109.71 46.1184 109.905 45.9834 110.122 45.8913C110.338 45.7992 110.571 45.7519 110.806 45.7523C111.107 45.7571 111.402 45.8373 111.664 45.9855C111.926 46.1336 112.147 46.345 112.306 46.6004L116.938 52.7003L121.598 46.7029C121.765 46.4231 121.998 46.1887 122.277 46.0204C122.555 45.8522 122.871 45.7553 123.197 45.7383C123.398 45.7378 123.598 45.7789 123.783 45.8591C123.969 45.9393 124.135 46.0568 124.273 46.2043C124.42 46.3426 124.537 46.5093 124.617 46.6944C124.697 46.8795 124.739 47.079 124.739 47.2807C124.734 47.6417 124.609 47.9908 124.385 48.2733L118.9 55.2913L124.198 62.2813C124.449 62.5937 124.588 62.9806 124.595 63.381C124.596 63.6126 124.547 63.8417 124.451 64.0525C124.356 64.2633 124.215 64.4508 124.04 64.602C123.698 64.9308 123.242 65.1145 122.768 65.1146C122.465 65.1108 122.169 65.0312 121.905 64.883C121.641 64.7348 121.419 64.5228 121.258 64.2664L116.467 57.9941Z" fill="#F4F4F4"/>
<path d="M143.994 84.7191H89.141C88.0287 84.7191 86.9619 84.2772 86.1754 83.4907C85.3889 82.7041 84.947 81.6374 84.947 80.5251C84.947 79.4127 85.3889 78.346 86.1754 77.5594C86.9619 76.7729 88.0287 76.3311 89.141 76.3311H143.994C145.106 76.3311 146.173 76.7729 146.959 77.5594C147.746 78.346 148.188 79.4127 148.188 80.5251C148.188 81.6374 147.746 82.7041 146.959 83.4907C146.173 84.2772 145.106 84.7191 143.994 84.7191Z" fill="#F4F4F4"/>
<path d="M96.6576 81.8763C96.621 81.8763 96.5848 81.8689 96.5511 81.8544C96.5175 81.84 96.4871 81.8189 96.4619 81.7924C96.4343 81.765 96.4127 81.7323 96.3982 81.6962C96.3838 81.6602 96.3769 81.6215 96.378 81.5827C96.378 81.5171 96.3957 81.4527 96.4293 81.3963L96.8487 80.7439H95.9912C95.9516 80.7459 95.912 80.7395 95.875 80.7251C95.8381 80.7106 95.8046 80.6884 95.7769 80.66C95.729 80.6043 95.7026 80.5332 95.7026 80.4597C95.7026 80.3861 95.729 80.315 95.7769 80.2593C95.8046 80.2309 95.8381 80.2087 95.875 80.1942C95.912 80.1798 95.9516 80.1734 95.9912 80.1754L96.8347 80.1987L96.4619 79.5929C96.4245 79.5308 96.4037 79.4602 96.4013 79.3878C96.4002 79.349 96.4071 79.3104 96.4215 79.2743C96.436 79.2382 96.4576 79.2055 96.4852 79.1782C96.5113 79.1515 96.5425 79.1304 96.5769 79.116C96.6113 79.1015 96.6483 79.0942 96.6856 79.0943C96.7377 79.0935 96.789 79.1081 96.8329 79.1363C96.8768 79.1645 96.9115 79.205 96.9325 79.2527L97.3426 79.9843L97.7341 79.2853C97.7587 79.2309 97.7978 79.1844 97.8471 79.1507C97.8964 79.117 97.954 79.0975 98.0137 79.0943C98.0503 79.0943 98.0865 79.1017 98.1201 79.1161C98.1538 79.1305 98.1841 79.1516 98.2094 79.1782C98.2367 79.2038 98.2583 79.2348 98.2728 79.2694C98.2872 79.3039 98.2942 79.3411 98.2933 79.3785C98.2927 79.4447 98.2733 79.5093 98.2374 79.5649L97.8273 80.222L98.68 80.1987C98.7197 80.1964 98.7594 80.2026 98.7964 80.2171C98.8334 80.2316 98.8669 80.2539 98.8944 80.2826C98.9423 80.3383 98.9686 80.4094 98.9686 80.483C98.9686 80.5565 98.9423 80.6276 98.8944 80.6833C98.8669 80.712 98.8334 80.7343 98.7964 80.7488C98.7594 80.7633 98.7197 80.7696 98.68 80.7672H97.818L98.2001 81.3637C98.2432 81.4357 98.2672 81.5175 98.27 81.6013C98.2713 81.6391 98.265 81.6767 98.2514 81.712C98.2377 81.7472 98.2171 81.7793 98.1908 81.8064C98.1662 81.8325 98.1366 81.8535 98.1038 81.8679C98.071 81.8823 98.0356 81.8899 97.9997 81.8903C97.942 81.8889 97.8859 81.871 97.838 81.8388C97.7902 81.8066 97.7525 81.7614 97.7294 81.7085L97.3426 81.0235L96.9559 81.7085C96.9279 81.7625 96.8847 81.8071 96.8318 81.8369C96.7788 81.8667 96.7183 81.8804 96.6576 81.8763Z" fill="black"/>
<path d="M100.936 81.8762C100.899 81.8762 100.863 81.8687 100.829 81.8543C100.796 81.8399 100.765 81.8188 100.74 81.7923C100.712 81.7649 100.691 81.7322 100.676 81.6961C100.662 81.66 100.655 81.6214 100.656 81.5826C100.656 81.517 100.674 81.4525 100.707 81.3962L101.127 80.7438H100.269C100.23 80.7458 100.19 80.7394 100.153 80.7249C100.116 80.7105 100.083 80.6883 100.055 80.6599C100.007 80.6041 99.9807 80.533 99.9807 80.4595C99.9807 80.386 100.007 80.3149 100.055 80.2591C100.083 80.2307 100.116 80.2086 100.153 80.1941C100.19 80.1796 100.23 80.1732 100.269 80.1753L101.113 80.1986L100.717 79.5695C100.679 79.5074 100.658 79.4368 100.656 79.3644C100.655 79.3256 100.662 79.2869 100.676 79.2509C100.691 79.2148 100.712 79.1821 100.74 79.1547C100.766 79.1281 100.797 79.1069 100.832 79.0925C100.866 79.0781 100.903 79.0707 100.94 79.0708C100.993 79.0701 101.044 79.0847 101.088 79.1129C101.132 79.141 101.166 79.1815 101.187 79.2293L101.597 79.9609L101.989 79.2619C102.013 79.2075 102.053 79.1609 102.102 79.1272C102.151 79.0935 102.209 79.074 102.268 79.0708C102.305 79.0708 102.341 79.0783 102.375 79.0927C102.409 79.1071 102.439 79.1282 102.464 79.1547C102.491 79.1803 102.513 79.2114 102.528 79.2459C102.542 79.2805 102.549 79.3177 102.548 79.3551C102.547 79.4213 102.528 79.4859 102.492 79.5415L102.082 80.1986L102.935 80.1753C102.974 80.1729 103.014 80.1792 103.051 80.1937C103.088 80.2082 103.122 80.2305 103.149 80.2591C103.197 80.3149 103.223 80.386 103.223 80.4595C103.223 80.533 103.197 80.6041 103.149 80.6599C103.122 80.6885 103.088 80.7109 103.051 80.7253C103.014 80.7398 102.974 80.7461 102.935 80.7438H102.073L102.455 81.3403C102.498 81.4123 102.522 81.494 102.525 81.5779C102.526 81.6157 102.52 81.6533 102.506 81.6885C102.493 81.7238 102.472 81.7559 102.446 81.783C102.421 81.8091 102.391 81.83 102.359 81.8444C102.326 81.8589 102.29 81.8665 102.254 81.8668C102.197 81.866 102.14 81.8484 102.092 81.8161C102.044 81.7839 102.007 81.7383 101.984 81.6851L101.597 81.0001L101.211 81.6851C101.188 81.7398 101.15 81.7868 101.101 81.8206C101.052 81.8544 100.995 81.8737 100.936 81.8762Z" fill="black"/>
<path d="M105.214 81.8762C105.177 81.8762 105.141 81.8687 105.107 81.8543C105.073 81.8399 105.043 81.8188 105.018 81.7923C104.99 81.7649 104.969 81.7322 104.954 81.6961C104.94 81.66 104.933 81.6214 104.934 81.5826C104.934 81.517 104.952 81.4525 104.985 81.3962L105.405 80.7438H104.547C104.508 80.7458 104.468 80.7394 104.431 80.7249C104.394 80.7105 104.361 80.6883 104.333 80.6599C104.285 80.6041 104.259 80.533 104.259 80.4595C104.259 80.386 104.285 80.3149 104.333 80.2591C104.361 80.2307 104.394 80.2086 104.431 80.1941C104.468 80.1796 104.508 80.1732 104.547 80.1753L105.391 80.1986L104.994 79.5695C104.957 79.5074 104.936 79.4368 104.934 79.3644C104.933 79.3256 104.94 79.2869 104.954 79.2509C104.969 79.2148 104.99 79.1821 105.018 79.1547C105.044 79.1281 105.075 79.1069 105.11 79.0925C105.144 79.0781 105.181 79.0707 105.218 79.0708C105.27 79.0701 105.322 79.0847 105.366 79.1129C105.409 79.141 105.444 79.1815 105.465 79.2293L105.875 79.9609L106.267 79.2619C106.291 79.2075 106.33 79.1609 106.38 79.1272C106.429 79.0935 106.487 79.074 106.546 79.0708C106.583 79.0708 106.619 79.0783 106.653 79.0927C106.686 79.1071 106.717 79.1282 106.742 79.1547C106.769 79.1803 106.791 79.2114 106.805 79.2459C106.82 79.2805 106.827 79.3177 106.826 79.3551C106.825 79.4213 106.806 79.4859 106.77 79.5415L106.36 80.1986L107.213 80.1753C107.252 80.1729 107.292 80.1792 107.329 80.1937C107.366 80.2082 107.399 80.2305 107.427 80.2591C107.475 80.3149 107.501 80.386 107.501 80.4595C107.501 80.533 107.475 80.6041 107.427 80.6599C107.399 80.6885 107.366 80.7109 107.329 80.7253C107.292 80.7398 107.252 80.7461 107.213 80.7438H106.351L106.733 81.3403C106.776 81.4123 106.8 81.494 106.803 81.5779C106.804 81.6157 106.798 81.6533 106.784 81.6885C106.77 81.7238 106.75 81.7559 106.723 81.783C106.699 81.8091 106.669 81.83 106.636 81.8444C106.604 81.8589 106.568 81.8665 106.532 81.8668C106.474 81.866 106.418 81.8484 106.37 81.8161C106.322 81.7839 106.285 81.7383 106.262 81.6851L105.875 81.0001L105.488 81.6851C105.466 81.7398 105.427 81.7868 105.379 81.8206C105.33 81.8544 105.273 81.8737 105.214 81.8762Z" fill="black"/>
<path d="M109.51 81.8762C109.473 81.8762 109.437 81.8687 109.403 81.8543C109.37 81.8399 109.339 81.8188 109.314 81.7923C109.287 81.7649 109.265 81.7322 109.251 81.6961C109.236 81.66 109.229 81.6214 109.23 81.5826C109.23 81.517 109.248 81.4525 109.282 81.3962L109.701 80.7438H108.844C108.804 80.7458 108.764 80.7394 108.727 80.7249C108.69 80.7105 108.657 80.6883 108.629 80.6599C108.581 80.6041 108.555 80.533 108.555 80.4595C108.555 80.386 108.581 80.3149 108.629 80.2591C108.657 80.2307 108.69 80.2086 108.727 80.1941C108.764 80.1796 108.804 80.1732 108.844 80.1753L109.687 80.1986L109.291 79.5695C109.254 79.5074 109.233 79.4368 109.23 79.3644C109.229 79.3256 109.236 79.2869 109.251 79.2509C109.265 79.2148 109.287 79.1821 109.314 79.1547C109.34 79.1281 109.371 79.1069 109.406 79.0925C109.44 79.0781 109.477 79.0707 109.515 79.0708C109.567 79.0701 109.618 79.0847 109.662 79.1129C109.706 79.141 109.74 79.1815 109.762 79.2293L110.172 79.9609L110.563 79.2619C110.588 79.2075 110.627 79.1609 110.676 79.1272C110.725 79.0935 110.783 79.074 110.843 79.0708C110.879 79.0708 110.915 79.0783 110.949 79.0927C110.983 79.1071 111.013 79.1282 111.038 79.1547C111.066 79.1803 111.087 79.2114 111.102 79.2459C111.116 79.2805 111.123 79.3177 111.122 79.3551C111.122 79.4213 111.102 79.4859 111.066 79.5415L110.656 80.1986L111.509 80.1753C111.549 80.1729 111.588 80.1792 111.625 80.1937C111.662 80.2082 111.696 80.2305 111.723 80.2591C111.771 80.3149 111.798 80.386 111.798 80.4595C111.798 80.533 111.771 80.6041 111.723 80.6599C111.696 80.6885 111.662 80.7109 111.625 80.7253C111.588 80.7398 111.549 80.7461 111.509 80.7438H110.647L111.029 81.3403C111.072 81.4123 111.096 81.494 111.099 81.5779C111.1 81.6157 111.094 81.6533 111.08 81.6885C111.067 81.7238 111.046 81.7559 111.02 81.783C110.995 81.8091 110.966 81.83 110.933 81.8444C110.9 81.8589 110.865 81.8665 110.829 81.8668C110.771 81.8654 110.715 81.8476 110.667 81.8154C110.619 81.7832 110.581 81.738 110.558 81.6851L110.172 81.0001L109.785 81.6851C109.762 81.7398 109.724 81.7868 109.675 81.8206C109.626 81.8544 109.569 81.8737 109.51 81.8762Z" fill="black"/>
<path d="M113.769 81.8762C113.733 81.8762 113.696 81.8687 113.663 81.8543C113.629 81.8399 113.599 81.8188 113.573 81.7923C113.546 81.7649 113.524 81.7322 113.51 81.6961C113.495 81.66 113.488 81.6214 113.49 81.5826C113.492 81.5173 113.509 81.4534 113.541 81.3962L113.96 80.7438H113.103C113.063 80.7458 113.024 80.7394 112.987 80.7249C112.95 80.7105 112.916 80.6883 112.888 80.6599C112.841 80.6041 112.814 80.533 112.814 80.4595C112.814 80.386 112.841 80.3149 112.888 80.2591C112.916 80.2307 112.95 80.2086 112.987 80.1941C113.024 80.1797 113.063 80.1732 113.103 80.1753L113.946 80.1986L113.55 79.5695C113.513 79.5074 113.492 79.4368 113.49 79.3644C113.488 79.3256 113.495 79.2869 113.51 79.2509C113.524 79.2148 113.546 79.1821 113.573 79.1547C113.6 79.1281 113.631 79.1069 113.665 79.0925C113.7 79.0781 113.737 79.0707 113.774 79.0708C113.826 79.0701 113.877 79.0847 113.921 79.1129C113.965 79.141 114 79.1815 114.021 79.2293L114.431 79.9609L114.822 79.2619C114.847 79.2075 114.886 79.1609 114.935 79.1272C114.985 79.0935 115.042 79.074 115.102 79.0708C115.139 79.0703 115.175 79.0775 115.209 79.0919C115.242 79.1064 115.273 79.1278 115.298 79.1547C115.325 79.1803 115.347 79.2114 115.361 79.2459C115.375 79.2805 115.382 79.3177 115.382 79.3551C115.381 79.4213 115.362 79.4859 115.326 79.5415L114.916 80.1986L115.768 80.1753C115.808 80.1729 115.848 80.1792 115.885 80.1937C115.922 80.2082 115.955 80.2305 115.983 80.2591C116.031 80.3149 116.057 80.386 116.057 80.4595C116.057 80.533 116.031 80.6041 115.983 80.6599C115.955 80.6885 115.922 80.7109 115.885 80.7253C115.848 80.7398 115.808 80.7461 115.768 80.7438H114.906L115.288 81.3403C115.331 81.4123 115.356 81.494 115.358 81.5779C115.36 81.6157 115.353 81.6533 115.34 81.6885C115.326 81.7238 115.305 81.7559 115.279 81.783C115.254 81.8091 115.225 81.83 115.192 81.8444C115.159 81.8589 115.124 81.8665 115.088 81.8668C115.03 81.8654 114.974 81.8476 114.926 81.8154C114.878 81.7832 114.841 81.738 114.818 81.6851L114.431 81.0001L114.044 81.6851C114.021 81.7398 113.983 81.7868 113.934 81.8206C113.886 81.8544 113.828 81.8737 113.769 81.8762Z" fill="black"/>
<path d="M118.047 81.8762C118.01 81.8762 117.974 81.8687 117.941 81.8543C117.907 81.8399 117.877 81.8188 117.851 81.7923C117.824 81.7649 117.802 81.7322 117.788 81.6961C117.773 81.66 117.766 81.6214 117.767 81.5826C117.77 81.5173 117.787 81.4534 117.819 81.3962L118.238 80.7438H117.385C117.345 80.7462 117.304 80.7399 117.267 80.7255C117.229 80.711 117.195 80.6887 117.166 80.6599C117.118 80.6041 117.092 80.533 117.092 80.4595C117.092 80.386 117.118 80.3149 117.166 80.2591C117.195 80.2304 117.229 80.208 117.267 80.1936C117.304 80.1791 117.345 80.1729 117.385 80.1753L118.224 80.1986L117.828 79.5695C117.791 79.5074 117.77 79.4368 117.767 79.3644C117.766 79.3256 117.773 79.2869 117.788 79.2509C117.802 79.2148 117.824 79.1821 117.851 79.1547C117.877 79.1281 117.909 79.1069 117.943 79.0925C117.977 79.0781 118.014 79.0707 118.052 79.0708C118.104 79.0701 118.155 79.0847 118.199 79.1129C118.243 79.141 118.278 79.1815 118.299 79.2293L118.709 79.9609L119.1 79.2619C119.125 79.2075 119.164 79.1609 119.213 79.1272C119.263 79.0935 119.32 79.074 119.38 79.0708C119.416 79.0703 119.453 79.0775 119.487 79.0919C119.52 79.1064 119.551 79.1278 119.575 79.1547C119.603 79.1803 119.624 79.2114 119.639 79.2459C119.653 79.2805 119.66 79.3177 119.659 79.3551C119.659 79.4213 119.639 79.4859 119.603 79.5415L119.193 80.1986L120.046 80.1753C120.086 80.1729 120.126 80.1792 120.163 80.1937C120.2 80.2082 120.233 80.2305 120.261 80.2591C120.308 80.3149 120.335 80.386 120.335 80.4595C120.335 80.533 120.308 80.6041 120.261 80.6599C120.233 80.6885 120.2 80.7109 120.163 80.7253C120.126 80.7398 120.086 80.7461 120.046 80.7438H119.184L119.566 81.3403C119.609 81.4123 119.633 81.494 119.636 81.5779C119.637 81.6157 119.631 81.6533 119.617 81.6885C119.604 81.7238 119.583 81.7559 119.557 81.783C119.532 81.8091 119.503 81.83 119.47 81.8444C119.437 81.8589 119.402 81.8665 119.366 81.8668C119.308 81.8654 119.252 81.8476 119.204 81.8154C119.156 81.7832 119.119 81.738 119.096 81.6851L118.709 81.0001L118.322 81.6851C118.299 81.7398 118.261 81.7868 118.212 81.8206C118.164 81.8544 118.106 81.8737 118.047 81.8762Z" fill="black"/>
<path d="M122.325 81.8763C122.288 81.8763 122.252 81.8689 122.219 81.8544C122.185 81.84 122.155 81.8189 122.129 81.7924C122.102 81.765 122.08 81.7323 122.066 81.6962C122.051 81.6602 122.044 81.6215 122.045 81.5827C122.045 81.5171 122.063 81.4527 122.097 81.3963L122.516 80.7439H121.659C121.619 80.7459 121.579 80.7395 121.542 80.7251C121.506 80.7106 121.472 80.6884 121.444 80.66C121.396 80.6043 121.37 80.5332 121.37 80.4597C121.37 80.3861 121.396 80.315 121.444 80.2593C121.472 80.2309 121.506 80.2087 121.542 80.1942C121.579 80.1798 121.619 80.1734 121.659 80.1754L122.502 80.1987L122.092 79.5929C122.055 79.5308 122.034 79.4603 122.032 79.3879C122.03 79.349 122.037 79.3104 122.052 79.2743C122.066 79.2382 122.088 79.2055 122.115 79.1782C122.141 79.1515 122.173 79.1304 122.207 79.116C122.242 79.1016 122.278 79.0942 122.316 79.0943C122.368 79.0935 122.419 79.1081 122.463 79.1363C122.507 79.1645 122.542 79.205 122.563 79.2527L122.973 79.9843L123.364 79.2853C123.389 79.2309 123.428 79.1844 123.477 79.1507C123.527 79.117 123.584 79.0975 123.644 79.0943C123.681 79.0937 123.717 79.1009 123.751 79.1153C123.784 79.1298 123.815 79.1512 123.84 79.1782C123.867 79.2038 123.888 79.2348 123.903 79.2694C123.917 79.3039 123.924 79.3411 123.923 79.3785C123.923 79.4447 123.903 79.5093 123.868 79.5649L123.457 80.222L124.31 80.1987C124.35 80.1964 124.39 80.2026 124.427 80.2171C124.464 80.2316 124.497 80.2539 124.525 80.2826C124.573 80.3383 124.599 80.4094 124.599 80.483C124.599 80.5565 124.573 80.6276 124.525 80.6833C124.497 80.712 124.464 80.7343 124.427 80.7488C124.39 80.7633 124.35 80.7696 124.31 80.7672H123.448L123.83 81.3637C123.873 81.4357 123.897 81.5175 123.9 81.6014C123.901 81.6391 123.895 81.6767 123.882 81.712C123.868 81.7472 123.847 81.7793 123.821 81.8064C123.796 81.8325 123.767 81.8535 123.734 81.8679C123.701 81.8823 123.666 81.8899 123.63 81.8903C123.572 81.8889 123.516 81.871 123.468 81.8388C123.42 81.8066 123.383 81.7614 123.36 81.7085L122.973 81.0235L122.586 81.7085C122.561 81.7568 122.524 81.7977 122.478 81.8271C122.432 81.8565 122.379 81.8735 122.325 81.8763Z" fill="black"/>
<path d="M126.603 81.8763C126.566 81.8763 126.53 81.8688 126.496 81.8544C126.463 81.84 126.432 81.8189 126.407 81.7924C126.38 81.765 126.358 81.7323 126.343 81.6962C126.329 81.6601 126.322 81.6215 126.323 81.5827C126.325 81.5174 126.343 81.4535 126.374 81.3963L126.794 80.7439H125.941C125.901 80.7469 125.861 80.7409 125.824 80.7264C125.787 80.7118 125.754 80.6892 125.727 80.66C125.676 80.6056 125.648 80.534 125.648 80.4596C125.648 80.3852 125.676 80.3136 125.727 80.2592C125.754 80.2301 125.787 80.2074 125.824 80.1929C125.861 80.1783 125.901 80.1724 125.941 80.1754L126.78 80.1987L126.384 79.5696C126.346 79.5075 126.326 79.4369 126.323 79.3645C126.322 79.3264 126.328 79.2884 126.342 79.2529C126.356 79.2173 126.377 79.1848 126.403 79.1575C126.43 79.1301 126.461 79.1083 126.496 79.0934C126.532 79.0786 126.569 79.0709 126.607 79.0709C126.66 79.0702 126.711 79.0848 126.755 79.113C126.799 79.1411 126.833 79.1816 126.854 79.2294L127.265 79.961L127.656 79.262C127.681 79.2076 127.72 79.161 127.769 79.1273C127.818 79.0936 127.876 79.0741 127.936 79.0709C127.972 79.0698 128.009 79.0767 128.043 79.0912C128.077 79.1056 128.107 79.1274 128.131 79.1548C128.159 79.1804 128.18 79.2115 128.195 79.246C128.209 79.2806 128.216 79.3178 128.215 79.3552C128.215 79.4214 128.195 79.486 128.159 79.5416L127.749 80.1987L128.602 80.1754C128.642 80.173 128.681 80.1793 128.718 80.1938C128.755 80.2083 128.789 80.2306 128.816 80.2592C128.864 80.315 128.891 80.3861 128.891 80.4596C128.891 80.5331 128.864 80.6042 128.816 80.66C128.789 80.6886 128.755 80.711 128.718 80.7254C128.681 80.7399 128.642 80.7462 128.602 80.7439H127.74L128.122 81.3404C128.165 81.4124 128.189 81.4941 128.192 81.578C128.193 81.6147 128.187 81.6513 128.174 81.6857C128.161 81.7201 128.142 81.7517 128.117 81.7785C128.092 81.8053 128.061 81.8269 128.028 81.8421C127.994 81.8573 127.958 81.8657 127.922 81.8669C127.864 81.8655 127.808 81.8477 127.76 81.8155C127.712 81.7833 127.674 81.7381 127.651 81.6852L127.265 81.0002L126.878 81.6852C126.855 81.7399 126.817 81.7869 126.768 81.8207C126.719 81.8545 126.662 81.8738 126.603 81.8763Z" fill="black"/>
<path d="M130.881 81.8763C130.844 81.8763 130.808 81.8688 130.774 81.8544C130.741 81.84 130.71 81.8189 130.685 81.7924C130.657 81.765 130.636 81.7323 130.621 81.6962C130.607 81.6601 130.6 81.6215 130.601 81.5827C130.603 81.5174 130.621 81.4535 130.652 81.3963L131.072 80.7439H130.214C130.175 80.7462 130.136 80.7398 130.1 80.7253C130.064 80.7108 130.031 80.6885 130.005 80.66C129.954 80.6056 129.926 80.534 129.926 80.4596C129.926 80.3852 129.954 80.3136 130.005 80.2592C130.031 80.2307 130.064 80.2084 130.1 80.1939C130.136 80.1794 130.175 80.1731 130.214 80.1754L131.058 80.1987L130.662 79.5696C130.624 79.5075 130.603 79.4369 130.601 79.3645C130.6 79.3264 130.606 79.2884 130.62 79.2529C130.634 79.2173 130.654 79.1848 130.681 79.1575C130.707 79.1301 130.739 79.1083 130.774 79.0934C130.809 79.0786 130.847 79.0709 130.885 79.0709C130.937 79.0702 130.989 79.0848 131.033 79.113C131.077 79.1411 131.111 79.1816 131.132 79.2294L131.542 79.961L131.934 79.262C131.958 79.2076 131.998 79.161 132.047 79.1273C132.096 79.0936 132.154 79.0741 132.213 79.0709C132.25 79.0698 132.287 79.0767 132.321 79.0912C132.354 79.1056 132.385 79.1274 132.409 79.1548C132.436 79.1804 132.458 79.2115 132.472 79.246C132.487 79.2806 132.494 79.3178 132.493 79.3552C132.492 79.4214 132.473 79.486 132.437 79.5416L132.027 80.1987L132.88 80.1754C132.919 80.173 132.959 80.1793 132.996 80.1938C133.033 80.2083 133.067 80.2306 133.094 80.2592C133.142 80.315 133.168 80.3861 133.168 80.4596C133.168 80.5331 133.142 80.6042 133.094 80.66C133.067 80.6886 133.033 80.711 132.996 80.7254C132.959 80.7399 132.919 80.7462 132.88 80.7439H132.018L132.4 81.3404C132.443 81.4124 132.467 81.4941 132.47 81.578C132.471 81.6147 132.465 81.6513 132.452 81.6857C132.439 81.7201 132.42 81.7517 132.394 81.7785C132.369 81.8053 132.339 81.8269 132.306 81.8421C132.272 81.8573 132.236 81.8657 132.199 81.8669C132.142 81.8655 132.086 81.8477 132.038 81.8155C131.99 81.7833 131.952 81.7381 131.929 81.6852L131.542 81.0002L131.156 81.6852C131.133 81.7399 131.095 81.7869 131.046 81.8207C130.997 81.8545 130.94 81.8738 130.881 81.8763Z" fill="black"/>
<path d="M135.14 81.8763C135.103 81.8763 135.067 81.8688 135.033 81.8544C135 81.84 134.969 81.8189 134.944 81.7924C134.917 81.765 134.895 81.7323 134.881 81.6962C134.866 81.6601 134.859 81.6215 134.86 81.5827C134.862 81.5174 134.88 81.4535 134.912 81.3963L135.331 80.7439H134.474C134.435 80.7462 134.396 80.7398 134.359 80.7253C134.323 80.7108 134.29 80.6885 134.264 80.66C134.213 80.6056 134.185 80.534 134.185 80.4596C134.185 80.3852 134.213 80.3136 134.264 80.2592C134.29 80.2307 134.323 80.2084 134.359 80.1939C134.396 80.1794 134.435 80.1731 134.474 80.1754L135.317 80.1987L134.921 79.5696C134.884 79.5075 134.863 79.4369 134.86 79.3645C134.859 79.3257 134.866 79.287 134.881 79.251C134.895 79.2149 134.917 79.1822 134.944 79.1548C134.97 79.1282 135.001 79.107 135.036 79.0926C135.07 79.0782 135.107 79.0708 135.145 79.0709C135.197 79.0702 135.248 79.0848 135.292 79.113C135.336 79.1411 135.371 79.1816 135.392 79.2294L135.802 79.961L136.193 79.262C136.218 79.2076 136.257 79.161 136.306 79.1273C136.355 79.0936 136.413 79.0741 136.473 79.0709C136.509 79.0698 136.546 79.0767 136.58 79.0912C136.614 79.1056 136.644 79.1274 136.668 79.1548C136.696 79.1804 136.717 79.2115 136.732 79.246C136.746 79.2806 136.753 79.3178 136.752 79.3552C136.752 79.4214 136.732 79.486 136.696 79.5416L136.286 80.1987L137.139 80.1754C137.179 80.173 137.218 80.1793 137.255 80.1938C137.292 80.2083 137.326 80.2306 137.353 80.2592C137.401 80.315 137.428 80.3861 137.428 80.4596C137.428 80.5331 137.401 80.6042 137.353 80.66C137.326 80.6886 137.292 80.711 137.255 80.7254C137.218 80.7399 137.179 80.7462 137.139 80.7439H136.277L136.659 81.3404C136.702 81.4124 136.726 81.4941 136.729 81.578C136.73 81.6158 136.724 81.6534 136.71 81.6886C136.697 81.7239 136.676 81.756 136.65 81.7831C136.625 81.8092 136.596 81.8301 136.563 81.8445C136.53 81.859 136.495 81.8666 136.459 81.8669C136.401 81.8655 136.345 81.8477 136.297 81.8155C136.249 81.7833 136.211 81.7381 136.188 81.6852L135.802 81.0002L135.415 81.6852C135.392 81.7399 135.354 81.7869 135.305 81.8207C135.256 81.8545 135.199 81.8738 135.14 81.8763Z" fill="black"/>
<path d="M149.8 92.1841H155.499" stroke="#F4F4F4" stroke-width="3" stroke-linecap="round" stroke-linejoin="round"/>
<path d="M70.7528 50.2212V88.0744C70.7528 89.1706 71.1883 90.222 71.9635 90.9971C72.7386 91.7723 73.79 92.2078 74.8862 92.2078H144.39" stroke="#F4F4F4" stroke-width="3" stroke-linecap="round" stroke-linejoin="round"/>
<path d="M70.7528 40.1836V45.8595" stroke="#F4F4F4" stroke-width="3" stroke-linecap="round" stroke-linejoin="round"/>
</svg>
