<svg width="185" height="186" viewBox="0 0 185 186" fill="none" xmlns="http://www.w3.org/2000/svg">
<mask id="mask0_1_1035" style="mask-type:luminance" maskUnits="userSpaceOnUse" x="6" y="7" width="179" height="179">
<path d="M6.09595 7.61346H184.001V185.52H6.09595V7.61346Z" fill="white"/>
</mask>
<g mask="url(#mask0_1_1035)">
<g opacity="0.199997">
<path d="M184.001 96.5671C184.001 47.4391 144.176 7.61377 95.048 7.61377C45.9214 7.61377 6.09473 47.4391 6.09473 96.5671C6.09473 145.695 45.9214 185.52 95.048 185.52C144.176 185.52 184.001 145.695 184.001 96.5671Z" fill="#FF8672"/>
</g>
</g>
<path d="M130.6 154.945C130.6 153.363 131.882 152.083 133.462 152.083C135.043 152.083 136.324 153.363 136.324 154.945" stroke="#25475F" stroke-width="1.33333" stroke-miterlimit="10" stroke-linecap="round" stroke-linejoin="round"/>
<path d="M142.047 154.878C142.047 156.46 140.766 157.74 139.186 157.74C137.606 157.74 136.324 156.46 136.324 154.878" stroke="#25475F" stroke-width="1.33333" stroke-miterlimit="10" stroke-linecap="round" stroke-linejoin="round"/>
<path d="M142.047 154.945C142.047 153.363 143.328 152.083 144.908 152.083C146.49 152.083 147.77 153.363 147.77 154.945" stroke="#25475F" stroke-width="1.33333" stroke-miterlimit="10" stroke-linecap="round" stroke-linejoin="round"/>
<path d="M153.494 154.878C153.494 156.46 152.212 157.74 150.632 157.74C149.051 157.74 147.77 156.46 147.77 154.878" stroke="#25475F" stroke-width="1.33333" stroke-miterlimit="10" stroke-linecap="round" stroke-linejoin="round"/>
<path d="M153.493 154.945C153.493 153.363 154.775 152.083 156.355 152.083C157.935 152.083 159.216 153.363 159.216 154.945" stroke="#25475F" stroke-width="1.33333" stroke-miterlimit="10" stroke-linecap="round" stroke-linejoin="round"/>
<path d="M164.94 154.878C164.94 156.46 163.658 157.74 162.078 157.74C160.497 157.74 159.216 156.46 159.216 154.878" stroke="#25475F" stroke-width="1.33333" stroke-miterlimit="10" stroke-linecap="round" stroke-linejoin="round"/>
<path d="M20.4922 45.9336C20.4922 44.3536 21.7735 43.0723 23.3535 43.0723C24.9349 43.0723 26.2149 44.3536 26.2149 45.9336" stroke="#25475F" stroke-width="1.33333" stroke-miterlimit="10" stroke-linecap="round" stroke-linejoin="round"/>
<path d="M31.9388 45.8679C31.9388 47.4479 30.6575 48.7292 29.0775 48.7292C27.4962 48.7292 26.2148 47.4479 26.2148 45.8679" stroke="#25475F" stroke-width="1.33333" stroke-miterlimit="10" stroke-linecap="round" stroke-linejoin="round"/>
<path d="M31.939 45.9336C31.939 44.3536 33.2203 43.0723 34.8003 43.0723C36.3803 43.0723 37.6616 44.3536 37.6616 45.9336" stroke="#25475F" stroke-width="1.33333" stroke-miterlimit="10" stroke-linecap="round" stroke-linejoin="round"/>
<path d="M43.384 45.8679C43.384 47.4479 42.104 48.7292 40.5227 48.7292C38.9427 48.7292 37.6614 47.4479 37.6614 45.8679" stroke="#25475F" stroke-width="1.33333" stroke-miterlimit="10" stroke-linecap="round" stroke-linejoin="round"/>
<path d="M43.384 45.9336C43.384 44.3536 44.6654 43.0723 46.2454 43.0723C47.8267 43.0723 49.108 44.3536 49.108 45.9336" stroke="#25475F" stroke-width="1.33333" stroke-miterlimit="10" stroke-linecap="round" stroke-linejoin="round"/>
<path d="M54.8306 45.8679C54.8306 47.4479 53.5492 48.7292 51.9692 48.7292C50.3892 48.7292 49.1079 47.4479 49.1079 45.8679" stroke="#25475F" stroke-width="1.33333" stroke-miterlimit="10" stroke-linecap="round" stroke-linejoin="round"/>
<path d="M36.5181 95.5664C36.5181 96.5158 35.7488 97.2851 34.7995 97.2851C33.8501 97.2851 33.0808 96.5158 33.0808 95.5664C33.0808 94.6171 33.8501 93.8478 34.7995 93.8478C35.7488 93.8478 36.5181 94.6171 36.5181 95.5664Z" fill="#25475F"/>
<path d="M36.5181 105.747C36.5181 106.696 35.7488 107.465 34.7995 107.465C33.8501 107.465 33.0808 106.696 33.0808 105.747C33.0808 104.797 33.8501 104.028 34.7995 104.028C35.7488 104.028 36.5181 104.797 36.5181 105.747Z" fill="#25475F"/>
<path d="M36.5181 115.926C36.5181 116.876 35.7488 117.645 34.7995 117.645C33.8501 117.645 33.0808 116.876 33.0808 115.926C33.0808 114.977 33.8501 114.208 34.7995 114.208C35.7488 114.208 36.5181 114.977 36.5181 115.926Z" fill="#25475F"/>
<path d="M36.5181 126.107C36.5181 127.056 35.7488 127.826 34.7995 127.826C33.8501 127.826 33.0808 127.056 33.0808 126.107C33.0808 125.158 33.8501 124.388 34.7995 124.388C35.7488 124.388 36.5181 125.158 36.5181 126.107Z" fill="#25475F"/>
<path d="M36.5181 136.286C36.5181 137.236 35.7488 138.005 34.7995 138.005C33.8501 138.005 33.0808 137.236 33.0808 136.286C33.0808 135.337 33.8501 134.568 34.7995 134.568C35.7488 134.568 36.5181 135.337 36.5181 136.286Z" fill="#25475F"/>
<path d="M36.5181 146.467C36.5181 147.416 35.7488 148.185 34.7995 148.185C33.8501 148.185 33.0808 147.416 33.0808 146.467C33.0808 145.517 33.8501 144.748 34.7995 144.748C35.7488 144.748 36.5181 145.517 36.5181 146.467Z" fill="#25475F"/>
<path d="M90.2891 153.546C90.2891 156.48 87.9117 158.857 84.9784 158.857C82.0451 158.857 79.6677 156.48 79.6677 153.546C79.6677 150.614 82.0451 148.237 84.9784 148.237C87.9117 148.237 90.2891 150.614 90.2891 153.546Z" stroke="#25475F" stroke-width="1.48" stroke-miterlimit="10" stroke-linecap="round" stroke-linejoin="round"/>
<path d="M167.453 85.8139C167.453 88.7472 165.076 91.1245 162.144 91.1245C159.209 91.1245 156.832 88.7472 156.832 85.8139C156.832 82.8805 159.209 80.5032 162.144 80.5032C165.076 80.5032 167.453 82.8805 167.453 85.8139Z" stroke="#25475F" stroke-width="1.48" stroke-miterlimit="10" stroke-linecap="round" stroke-linejoin="round"/>
<path d="M68.1106 27.6362C68.1106 30.5695 65.7333 32.9468 62.7999 32.9468C59.8666 32.9468 57.4893 30.5695 57.4893 27.6362C57.4893 24.7042 59.8666 22.3268 62.7999 22.3268C65.7333 22.3268 68.1106 24.7042 68.1106 27.6362Z" stroke="#25475F" stroke-width="1.48" stroke-miterlimit="10" stroke-linecap="round" stroke-linejoin="round"/>
<path d="M103.525 169.425L112.137 160.813" stroke="#25475F" stroke-width="1.48" stroke-miterlimit="10" stroke-linecap="round" stroke-linejoin="round"/>
<path d="M103.525 160.813L112.137 169.425" stroke="#25475F" stroke-width="1.48" stroke-miterlimit="10" stroke-linecap="round" stroke-linejoin="round"/>
<path d="M130.398 73.2462L139.009 64.6355" stroke="#25475F" stroke-width="1.48" stroke-miterlimit="10" stroke-linecap="round" stroke-linejoin="round"/>
<path d="M130.398 64.6348L139.009 73.2455" stroke="#25475F" stroke-width="1.48" stroke-miterlimit="10" stroke-linecap="round" stroke-linejoin="round"/>
<path d="M16.186 111.771L24.798 103.159" stroke="#25475F" stroke-width="1.48" stroke-miterlimit="10" stroke-linecap="round" stroke-linejoin="round"/>
<path d="M16.186 103.16L24.798 111.772" stroke="#25475F" stroke-width="1.48" stroke-miterlimit="10" stroke-linecap="round" stroke-linejoin="round"/>
<path d="M166.572 129.173H115.902V82.6545H137.529L146.529 100.449L166.572 105.915V129.173Z" fill="white"/>
<path d="M166.572 129.173H115.902V82.6545H137.529L146.529 100.449L166.572 105.915V129.173Z" stroke="#25475F" stroke-width="1.36533" stroke-miterlimit="10" stroke-linecap="round" stroke-linejoin="round"/>
<path d="M153.895 129.173C153.895 122.183 148.228 116.515 141.237 116.515C134.247 116.515 128.58 122.183 128.58 129.173C128.58 136.164 134.247 141.832 141.237 141.832C148.228 141.832 153.895 136.164 153.895 129.173Z" fill="white"/>
<path d="M147.77 129.173C147.77 125.565 144.846 122.64 141.238 122.64C137.63 122.64 134.703 125.565 134.703 129.173C134.703 132.781 137.63 135.707 141.238 135.707C144.846 135.707 147.77 132.781 147.77 129.173Z" stroke="#25475F" stroke-width="1.36533" stroke-miterlimit="10" stroke-linecap="round" stroke-linejoin="round"/>
<path d="M153.895 129.173C153.895 122.183 148.228 116.515 141.237 116.515C134.247 116.515 128.58 122.183 128.58 129.173C128.58 136.164 134.247 141.832 141.237 141.832C148.228 141.832 153.895 136.164 153.895 129.173Z" stroke="#25475F" stroke-width="1.36533" stroke-miterlimit="10" stroke-linecap="round" stroke-linejoin="round"/>
<path d="M84.9779 129.173C84.9779 122.183 79.3112 116.515 72.3205 116.515C65.3299 116.515 59.6619 122.183 59.6619 129.173C59.6619 136.164 65.3299 141.832 72.3205 141.832C79.3112 141.832 84.9779 136.164 84.9779 129.173Z" fill="white"/>
<path d="M78.8528 129.173C78.8528 125.565 75.9288 122.64 72.3208 122.64C68.7128 122.64 65.7861 125.565 65.7861 129.173C65.7861 132.781 68.7128 135.707 72.3208 135.707C75.9288 135.707 78.8528 132.781 78.8528 129.173Z" stroke="#25475F" stroke-width="1.36533" stroke-miterlimit="10" stroke-linecap="round" stroke-linejoin="round"/>
<path d="M84.9779 129.173C84.9779 122.183 79.3112 116.515 72.3205 116.515C65.3299 116.515 59.6619 122.183 59.6619 129.173C59.6619 136.164 65.3299 141.832 72.3205 141.832C79.3112 141.832 84.9779 136.164 84.9779 129.173Z" stroke="#25475F" stroke-width="1.36533" stroke-miterlimit="10" stroke-linecap="round" stroke-linejoin="round"/>
<path d="M115.902 129.173H43.4331V61.4359C43.4331 58.8225 45.5504 56.7039 48.1638 56.7039H111.17C113.784 56.7039 115.902 58.8225 115.902 61.4359V129.173Z" fill="#00B8B0"/>
<path d="M115.902 129.173H43.4331V61.4359C43.4331 58.8225 45.5504 56.7039 48.1638 56.7039H111.17C113.784 56.7039 115.902 58.8225 115.902 61.4359V129.173Z" stroke="#25475F" stroke-width="1.36533" stroke-miterlimit="10" stroke-linecap="round" stroke-linejoin="round"/>
<path d="M142.189 101.665H118.912V86.3647H134.704L142.189 101.665Z" stroke="#25475F" stroke-width="1.36533" stroke-miterlimit="10" stroke-linecap="round" stroke-linejoin="round"/>
<path d="M1 64.6348H31.9387" stroke="#25475F" stroke-width="1.33333" stroke-miterlimit="10" stroke-linecap="round" stroke-linejoin="round"/>
<path d="M13.6394 79.9759H31.9394" stroke="#25475F" stroke-width="1.02533" stroke-miterlimit="10" stroke-linecap="round" stroke-linejoin="round"/>
<path d="M117.337 24.5364C116.732 24.2551 116.114 24.0004 115.488 23.7751" stroke="#25475F" stroke-width="1.33333" stroke-linecap="round" stroke-linejoin="round"/>
<path d="M111.699 22.7825C107.13 22.0105 102.282 22.6719 97.8619 24.9892C90.6539 28.7679 86.4165 35.9879 86.1125 43.5745" stroke="#25475F" stroke-width="1.33333" stroke-linecap="round" stroke-linejoin="round" stroke-dasharray="3.92 3.92"/>
<path d="M86.1211 45.5443C86.1531 46.2083 86.2171 46.8723 86.3118 47.535" stroke="#25475F" stroke-width="1.33333" stroke-linecap="round" stroke-linejoin="round"/>
<path d="M114.961 28.474L120.956 26.1007L118.582 20.1047" stroke="#25475F" stroke-width="1.33333" stroke-miterlimit="10" stroke-linecap="round" stroke-linejoin="round"/>
<path d="M153.241 40.3455H130.515V20.9588H153.241V40.3455Z" stroke="#25475F" stroke-width="1.33333" stroke-miterlimit="10" stroke-linecap="round" stroke-linejoin="round"/>
<path d="M145.589 28.1842H137.513V40.3455H145.589V28.1842Z" stroke="#25475F" stroke-width="1.33333" stroke-miterlimit="10" stroke-linecap="round" stroke-linejoin="round"/>
<path d="M142.306 10.8998L127.313 20.9584H156.949L142.306 10.8998Z" stroke="#25475F" stroke-width="1.33333" stroke-miterlimit="10" stroke-linecap="round" stroke-linejoin="round"/>
<path d="M158.264 29.629L168.733 31.2543" stroke="#25475F" stroke-width="1.36533" stroke-miterlimit="10" stroke-linecap="round" stroke-linejoin="round"/>
<path d="M157.815 17.3679L165.22 12.6519" stroke="#25475F" stroke-width="1.36533" stroke-miterlimit="10" stroke-linecap="round" stroke-linejoin="round"/>
<path d="M148.113 8.52802L150.3 1.00002" stroke="#25475F" stroke-width="1.36533" stroke-miterlimit="10" stroke-linecap="round" stroke-linejoin="round"/>
<path d="M135.021 9.82028L131.401 2.09762" stroke="#25475F" stroke-width="1.36533" stroke-miterlimit="10" stroke-linecap="round" stroke-linejoin="round"/>
<path d="M125.154 17.9284L117.931 15.4004" stroke="#25475F" stroke-width="1.36533" stroke-miterlimit="10" stroke-linecap="round" stroke-linejoin="round"/>
<path d="M124.952 31.6094L116.596 34.284" stroke="#25475F" stroke-width="1.36533" stroke-miterlimit="10" stroke-linecap="round" stroke-linejoin="round"/>
<path d="M131.471 43.6576L128.059 49.3496" stroke="#25475F" stroke-width="1.36533" stroke-miterlimit="10" stroke-linecap="round" stroke-linejoin="round"/>
<path d="M145.025 44.4056L146.617 53.0949" stroke="#25475F" stroke-width="1.36533" stroke-miterlimit="10" stroke-linecap="round" stroke-linejoin="round"/>
<path d="M158.264 39.8952L163.028 43.6579" stroke="#25475F" stroke-width="1.36533" stroke-miterlimit="10" stroke-linecap="round" stroke-linejoin="round"/>
<path d="M68.1106 111.533L101.963 70.7165L70.2746 94.8299L68.1106 105.805V111.533Z" fill="white"/>
<path d="M68.1106 111.533L101.963 70.7165L70.2746 94.8299L68.1106 105.805V111.533Z" stroke="#25475F" stroke-width="1.36533" stroke-miterlimit="10" stroke-linecap="round" stroke-linejoin="round"/>
<path d="M55.7449 92.2019L65.7915 95.9112L68.1102 111.533L71.6649 96.8392L92.8422 104.722L101.962 70.7165L55.7449 92.2019Z" fill="white"/>
<path d="M55.7449 92.2019L65.7915 95.9112L68.1102 111.533L71.6649 96.8392L92.8422 104.722L101.962 70.7165L55.7449 92.2019Z" stroke="#25475F" stroke-width="1.36533" stroke-miterlimit="10" stroke-linecap="round" stroke-linejoin="round"/>
<path d="M65.7915 95.9115L101.962 70.7168L71.6648 96.8395" stroke="#25475F" stroke-width="1.36533" stroke-miterlimit="10" stroke-linecap="round" stroke-linejoin="round"/>
</svg>
