<svg width="185" height="232" viewBox="0 0 185 232" fill="none" xmlns="http://www.w3.org/2000/svg">
<mask id="mask0_1_1177" style="mask-type:luminance" maskUnits="userSpaceOnUse" x="14" y="6" width="165" height="165">
<path d="M14.0103 6.14281H178.184V170.316H14.0103V6.14281Z" fill="white"/>
</mask>
<g mask="url(#mask0_1_1177)">
<g opacity="0.199997">
<path d="M178.184 88.2291C178.184 42.8945 141.433 6.14248 96.0969 6.14248C50.7623 6.14248 14.0103 42.8945 14.0103 88.2291C14.0103 133.564 50.7623 170.316 96.0969 170.316C141.433 170.316 178.184 133.564 178.184 88.2291Z" fill="#FF8672"/>
</g>
</g>
<path d="M29.0347 20.2602C29.0347 18.8016 30.2173 17.6202 31.6747 17.6202C33.1347 17.6202 34.316 18.8016 34.316 20.2602" stroke="#25475F" stroke-width="1.23067" stroke-miterlimit="10" stroke-linecap="round" stroke-linejoin="round"/>
<path d="M39.598 20.1991C39.598 21.6577 38.4153 22.8391 36.958 22.8391C35.498 22.8391 34.3167 21.6577 34.3167 20.1991" stroke="#25475F" stroke-width="1.23067" stroke-miterlimit="10" stroke-linecap="round" stroke-linejoin="round"/>
<path d="M39.5979 20.2602C39.5979 18.8016 40.7806 17.6202 42.2379 17.6202C43.6966 17.6202 44.8792 18.8016 44.8792 20.2602" stroke="#25475F" stroke-width="1.23067" stroke-miterlimit="10" stroke-linecap="round" stroke-linejoin="round"/>
<path d="M50.1605 20.1991C50.1605 21.6577 48.9778 22.8391 47.5205 22.8391C46.0618 22.8391 44.8792 21.6577 44.8792 20.1991" stroke="#25475F" stroke-width="1.23067" stroke-miterlimit="10" stroke-linecap="round" stroke-linejoin="round"/>
<path d="M50.1604 20.2602C50.1604 18.8016 51.3431 17.6202 52.8004 17.6202C54.2591 17.6202 55.4417 18.8016 55.4417 20.2602" stroke="#25475F" stroke-width="1.23067" stroke-miterlimit="10" stroke-linecap="round" stroke-linejoin="round"/>
<path d="M60.7227 20.1991C60.7227 21.6577 59.5401 22.8391 58.0827 22.8391C56.6241 22.8391 55.4414 21.6577 55.4414 20.1991" stroke="#25475F" stroke-width="1.23067" stroke-miterlimit="10" stroke-linecap="round" stroke-linejoin="round"/>
<path d="M136.649 172.024H56.2393C52.0686 172.024 48.6873 168.643 48.6873 164.472V8.552C48.6873 4.38134 52.0686 0.99999 56.2393 0.99999H136.649C140.819 0.99999 144.201 4.38134 144.201 8.552V164.472C144.201 168.643 140.819 172.024 136.649 172.024Z" fill="white"/>
<path d="M136.649 172.024H56.2393C52.0686 172.024 48.6873 168.643 48.6873 164.472V8.552C48.6873 4.38134 52.0686 0.99999 56.2393 0.99999H136.649C140.819 0.99999 144.201 4.38134 144.201 8.552V164.472C144.201 168.643 140.819 172.024 136.649 172.024Z" stroke="#25475F" stroke-width="1.23067" stroke-miterlimit="10" stroke-linecap="round" stroke-linejoin="round"/>
<path d="M132.774 150.103H60.1131C56.8677 150.103 54.2371 147.473 54.2371 144.226V13.866C54.2371 10.6193 56.8677 7.98868 60.1131 7.98868H132.774C136.02 7.98868 138.652 10.6193 138.652 13.866V144.226C138.652 147.473 136.02 150.103 132.774 150.103Z" fill="#E4E3E3"/>
<path d="M138.877 34.7988H54.4624V16.0788H138.877V34.7988Z" fill="#00B8B0"/>
<path d="M69.7776 25.4393C69.7776 28.8526 67.0096 31.6206 63.5963 31.6206C60.1829 31.6206 57.4163 28.8526 57.4163 25.4393C57.4163 22.026 60.1829 19.258 63.5963 19.258C67.0096 19.258 69.7776 22.026 69.7776 25.4393Z" fill="white"/>
<path d="M134.461 21.4654H74.0649V20.2294H134.461V21.4654Z" fill="white"/>
<path d="M134.461 26.0575H74.0649V24.8215H134.461V26.0575Z" fill="white"/>
<path d="M134.461 30.6494H74.0649V29.4134H134.461V30.6494Z" fill="white"/>
<path d="M138.877 55.9334H54.4624V37.2134H138.877V55.9334Z" fill="#00B8B0"/>
<path d="M69.7776 46.5734C69.7776 49.9881 67.0096 52.7547 63.5963 52.7547C60.1829 52.7547 57.4163 49.9881 57.4163 46.5734C57.4163 43.1601 60.1829 40.3921 63.5963 40.3921C67.0096 40.3921 69.7776 43.1601 69.7776 46.5734Z" fill="white"/>
<path d="M134.461 42.6001H74.0649V41.3641H134.461V42.6001Z" fill="white"/>
<path d="M134.461 47.1908H74.0649V45.9548H134.461V47.1908Z" fill="white"/>
<path d="M134.461 51.7828H74.0649V50.5468H134.461V51.7828Z" fill="white"/>
<path d="M138.877 77.0681H54.4624V58.3481H138.877V77.0681Z" fill="#FF8672"/>
<path d="M69.7776 67.7076C69.7776 71.1209 67.0096 73.8889 63.5963 73.8889C60.1829 73.8889 57.4163 71.1209 57.4163 67.7076C57.4163 64.2942 60.1829 61.5262 63.5963 61.5262C67.0096 61.5262 69.7776 64.2942 69.7776 67.7076Z" fill="white"/>
<path d="M134.461 63.7348H74.0649V62.4988H134.461V63.7348Z" fill="white"/>
<path d="M134.461 68.3255H74.0649V67.0895H134.461V68.3255Z" fill="white"/>
<path d="M134.461 72.9174H74.0649V71.6814H134.461V72.9174Z" fill="white"/>
<path d="M138.877 98.2014H54.4624V79.4815H138.877V98.2014Z" fill="#00B8B0"/>
<path d="M69.7776 88.8417C69.7776 92.255 67.0096 95.023 63.5963 95.023C60.1829 95.023 57.4163 92.255 57.4163 88.8417C57.4163 85.4284 60.1829 82.6604 63.5963 82.6604C67.0096 82.6604 69.7776 85.4284 69.7776 88.8417Z" fill="white"/>
<path d="M134.461 84.8681H74.0649V83.6321H134.461V84.8681Z" fill="white"/>
<path d="M134.461 89.4601H74.0649V88.2241H134.461V89.4601Z" fill="white"/>
<path d="M134.461 94.0508H74.0649V92.8148H134.461V94.0508Z" fill="white"/>
<path d="M138.877 119.335H54.4624V100.615H138.877V119.335Z" fill="#00B8B0"/>
<path d="M69.7776 109.976C69.7776 113.389 67.0096 116.157 63.5963 116.157C60.1829 116.157 57.4163 113.389 57.4163 109.976C57.4163 106.561 60.1829 103.794 63.5963 103.794C67.0096 103.794 69.7776 106.561 69.7776 109.976Z" fill="white"/>
<path d="M134.461 106.001H74.0649V104.765H134.461V106.001Z" fill="white"/>
<path d="M134.461 110.593H74.0649V109.357H134.461V110.593Z" fill="white"/>
<path d="M134.461 115.185H74.0649V113.949H134.461V115.185Z" fill="white"/>
<path d="M138.877 140.469H54.4624V121.749H138.877V140.469Z" fill="#00B8B0"/>
<path d="M69.7776 131.11C69.7776 134.523 67.0096 137.291 63.5963 137.291C60.1829 137.291 57.4163 134.523 57.4163 131.11C57.4163 127.695 60.1829 124.929 63.5963 124.929C67.0096 124.929 69.7776 127.695 69.7776 131.11Z" fill="white"/>
<path d="M134.461 127.136H74.0649V125.9H134.461V127.136Z" fill="white"/>
<path d="M134.461 131.728H74.0649V130.492H134.461V131.728Z" fill="white"/>
<path d="M134.461 136.32H74.0649V135.084H134.461V136.32Z" fill="white"/>
<path d="M132.774 150.103H60.1131C56.8677 150.103 54.2371 147.473 54.2371 144.226V13.866C54.2371 10.6193 56.8677 7.98868 60.1131 7.98868H132.774C136.02 7.98868 138.652 10.6193 138.652 13.866V144.226C138.652 147.473 136.02 150.103 132.774 150.103Z" stroke="#25475F" stroke-width="1.23067" stroke-miterlimit="10" stroke-linecap="round" stroke-linejoin="round"/>
<path d="M104.348 161.131C104.348 156.767 100.809 153.227 96.4438 153.227C92.0785 153.227 88.5398 156.767 88.5398 161.131C88.5398 165.496 92.0785 169.036 96.4438 169.036C100.809 169.036 104.348 165.496 104.348 161.131Z" stroke="#25475F" stroke-width="1.36533" stroke-miterlimit="10" stroke-linecap="round" stroke-linejoin="round"/>
<path d="M60.1435 73.3208L61.4368 64.9581L53.0741 66.2501L55.5315 68.7088L51.0981 73.1408L53.2541 75.2968L57.6861 70.8635L60.1435 73.3208Z" fill="white"/>
<path d="M60.1435 73.3208L61.4368 64.9581L53.0741 66.2501L55.5315 68.7088L51.0981 73.1408L53.2541 75.2968L57.6861 70.8635L60.1435 73.3208Z" stroke="#25475F" stroke-width="1.23067" stroke-miterlimit="10" stroke-linecap="round" stroke-linejoin="round"/>
<path d="M32.7425 116.615C32.7425 119.322 30.5478 121.515 27.8425 121.515C25.1358 121.515 22.9412 119.322 22.9412 116.615C22.9412 113.908 25.1358 111.714 27.8425 111.714C30.5478 111.714 32.7425 113.908 32.7425 116.615Z" stroke="#25475F" stroke-width="1.36533" stroke-miterlimit="10" stroke-linecap="round" stroke-linejoin="round"/>
<path d="M160.998 169.036C160.998 171.741 158.804 173.936 156.097 173.936C153.39 173.936 151.197 171.741 151.197 169.036C151.197 166.329 153.39 164.134 156.097 164.134C158.804 164.134 160.998 166.329 160.998 169.036Z" stroke="#25475F" stroke-width="1.36533" stroke-miterlimit="10" stroke-linecap="round" stroke-linejoin="round"/>
<path d="M152.124 119.159L160.07 111.212" stroke="#25475F" stroke-width="1.36533" stroke-miterlimit="10" stroke-linecap="round" stroke-linejoin="round"/>
<path d="M152.124 111.212L160.07 119.159" stroke="#25475F" stroke-width="1.36533" stroke-miterlimit="10" stroke-linecap="round" stroke-linejoin="round"/>
<path d="M28.0542 59.9068L36.0009 51.9601" stroke="#25475F" stroke-width="1.36533" stroke-miterlimit="10" stroke-linecap="round" stroke-linejoin="round"/>
<path d="M28.0542 51.9594L36.0009 59.9061" stroke="#25475F" stroke-width="1.36533" stroke-miterlimit="10" stroke-linecap="round" stroke-linejoin="round"/>
<path d="M92.4702 197.955L100.417 190.008" stroke="#25475F" stroke-width="1.36533" stroke-miterlimit="10" stroke-linecap="round" stroke-linejoin="round"/>
<path d="M92.4702 190.008L100.417 197.955" stroke="#25475F" stroke-width="1.36533" stroke-miterlimit="10" stroke-linecap="round" stroke-linejoin="round"/>
<path d="M26.9585 184.18C26.4691 183.807 25.9865 183.427 25.5078 183.042" stroke="#25475F" stroke-width="1.36533" stroke-linecap="round" stroke-linejoin="round"/>
<path d="M22.676 180.614C9.36267 168.546 1 151.114 1 131.727C1 104.353 17.676 80.8712 41.4253 70.8899" stroke="#25475F" stroke-width="1.36533" stroke-linecap="round" stroke-linejoin="round" stroke-dasharray="3.73 3.73"/>
<path d="M43.1448 70.1952C43.7194 69.9725 44.2968 69.7578 44.8794 69.5512" stroke="#25475F" stroke-width="1.36533" stroke-linecap="round" stroke-linejoin="round"/>
<path d="M29.081 178.602L29.9304 186.59L21.9424 187.439" stroke="#25475F" stroke-width="1.36533" stroke-miterlimit="10" stroke-linecap="round" stroke-linejoin="round"/>
<path d="M56.3583 196.161H52.5063C52.5063 198.049 50.9756 199.578 49.0876 199.578C47.1996 199.578 45.669 198.049 45.669 196.161L41.817 196.285L34.8796 199.314L36.517 205.841L41.817 205.131V218.575H56.3583V205.093L61.9436 205.841L63.581 199.314L56.3583 196.161Z" stroke="#25475F" stroke-width="1.36533" stroke-miterlimit="10" stroke-linecap="round" stroke-linejoin="round"/>
<path d="M45.8179 197.162H52.3565" stroke="#25475F" stroke-width="1.36533" stroke-miterlimit="10" stroke-linecap="round" stroke-linejoin="round"/>
<path d="M49.1265 197.162V194.433" stroke="#25475F" stroke-width="1.36533" stroke-miterlimit="10" stroke-linecap="round" stroke-linejoin="round"/>
<path d="M49.1265 194.433C50.4345 194.433 51.4945 193.373 51.4945 192.066C51.4945 190.757 50.4345 189.697 49.1265 189.697C47.8199 189.697 46.7585 190.757 46.7585 192.066" stroke="#25475F" stroke-width="1.36533" stroke-miterlimit="10" stroke-linecap="round" stroke-linejoin="round"/>
<path d="M67.6948 205.477H76.2895" stroke="#25475F" stroke-width="1.36533" stroke-miterlimit="10" stroke-linecap="round" stroke-linejoin="round"/>
<path d="M63.3706 193.43L69.9639 187.633" stroke="#25475F" stroke-width="1.36533" stroke-miterlimit="10" stroke-linecap="round" stroke-linejoin="round"/>
<path d="M52.428 186.183L53.4333 178.408" stroke="#25475F" stroke-width="1.36533" stroke-miterlimit="10" stroke-linecap="round" stroke-linejoin="round"/>
<path d="M39.6892 189.468L34.9265 182.392" stroke="#25475F" stroke-width="1.36533" stroke-miterlimit="10" stroke-linecap="round" stroke-linejoin="round"/>
<path d="M32.0276 199.805L23.657 197.604" stroke="#25475F" stroke-width="1.36533" stroke-miterlimit="10" stroke-linecap="round" stroke-linejoin="round"/>
<path d="M33.081 212.543L25.2344 216.467" stroke="#25475F" stroke-width="1.36533" stroke-miterlimit="10" stroke-linecap="round" stroke-linejoin="round"/>
<path d="M41.8986 222.15L38.8733 229.597" stroke="#25475F" stroke-width="1.36533" stroke-miterlimit="10" stroke-linecap="round" stroke-linejoin="round"/>
<path d="M55.4136 223.644L57.7856 230.452" stroke="#25475F" stroke-width="1.36533" stroke-miterlimit="10" stroke-linecap="round" stroke-linejoin="round"/>
<path d="M64.5112 214.062L72.5539 218.608" stroke="#25475F" stroke-width="1.36533" stroke-miterlimit="10" stroke-linecap="round" stroke-linejoin="round"/>
<path d="M152.124 86.5421C152.124 85.0834 153.306 83.9021 154.764 83.9021C156.222 83.9021 157.405 85.0834 157.405 86.5421" stroke="#25475F" stroke-width="1.23067" stroke-miterlimit="10" stroke-linecap="round" stroke-linejoin="round"/>
<path d="M162.686 86.4809C162.686 87.9396 161.504 89.1222 160.046 89.1222C158.588 89.1222 157.405 87.9396 157.405 86.4809" stroke="#25475F" stroke-width="1.23067" stroke-miterlimit="10" stroke-linecap="round" stroke-linejoin="round"/>
<path d="M162.687 86.5421C162.687 85.0834 163.869 83.9021 165.327 83.9021C166.787 83.9021 167.968 85.0834 167.968 86.5421" stroke="#25475F" stroke-width="1.23067" stroke-miterlimit="10" stroke-linecap="round" stroke-linejoin="round"/>
<path d="M173.25 86.4809C173.25 87.9396 172.067 89.1222 170.61 89.1222C169.151 89.1222 167.968 87.9396 167.968 86.4809" stroke="#25475F" stroke-width="1.23067" stroke-miterlimit="10" stroke-linecap="round" stroke-linejoin="round"/>
<path d="M173.25 86.5421C173.25 85.0834 174.432 83.9021 175.89 83.9021C177.348 83.9021 178.531 85.0834 178.531 86.5421" stroke="#25475F" stroke-width="1.23067" stroke-miterlimit="10" stroke-linecap="round" stroke-linejoin="round"/>
<path d="M183.812 86.4809C183.812 87.9396 182.629 89.1222 181.172 89.1222C179.713 89.1222 178.531 87.9396 178.531 86.4809" stroke="#25475F" stroke-width="1.23067" stroke-miterlimit="10" stroke-linecap="round" stroke-linejoin="round"/>
<path d="M154.404 13.4459C154.404 14.3219 153.693 15.0312 152.819 15.0312C151.941 15.0312 151.232 14.3219 151.232 13.4459C151.232 12.5699 151.941 11.8606 152.819 11.8606C153.693 11.8606 154.404 12.5699 154.404 13.4459Z" fill="#25475F"/>
<path d="M154.404 22.8397C154.404 23.7157 153.693 24.4264 152.819 24.4264C151.941 24.4264 151.232 23.7157 151.232 22.8397C151.232 21.9637 151.941 21.2544 152.819 21.2544C153.693 21.2544 154.404 21.9637 154.404 22.8397Z" fill="#25475F"/>
<path d="M154.404 32.2342C154.404 33.1102 153.693 33.8195 152.819 33.8195C151.941 33.8195 151.232 33.1102 151.232 32.2342C151.232 31.3582 151.941 30.6489 152.819 30.6489C153.693 30.6489 154.404 31.3582 154.404 32.2342Z" fill="#25475F"/>
<path d="M154.404 41.6281C154.404 42.5041 153.693 43.2135 152.819 43.2135C151.941 43.2135 151.232 42.5041 151.232 41.6281C151.232 40.7521 151.941 40.0428 152.819 40.0428C153.693 40.0428 154.404 40.7521 154.404 41.6281Z" fill="#25475F"/>
<path d="M154.404 51.0227C154.404 51.8987 153.693 52.608 152.819 52.608C151.941 52.608 151.232 51.8987 151.232 51.0227C151.232 50.1467 151.941 49.436 152.819 49.436C153.693 49.436 154.404 50.1467 154.404 51.0227Z" fill="#25475F"/>
<path d="M154.404 60.4165C154.404 61.2925 153.693 62.0019 152.819 62.0019C151.941 62.0019 151.232 61.2925 151.232 60.4165C151.232 59.5405 151.941 58.8312 152.819 58.8312C153.693 58.8312 154.404 59.5405 154.404 60.4165Z" fill="#25475F"/>
</svg>
