<svg width="1206" height="1205" viewBox="0 0 1206 1205" fill="none" xmlns="http://www.w3.org/2000/svg">
<g clip-path="url(#clip0_10_3)">
<g filter="url(#filter0_f_10_3)">
<circle cx="603" cy="660" r="473" fill="#E0FFE9"/>
</g>
<circle cx="603" cy="660" r="472.5" fill="#F2FFF6" stroke="#D8FBE3"/>
<path d="M383.119 767.605C386.437 760.173 395.173 756.865 402.583 760.234L466.912 789.488C474.381 792.885 477.612 801.748 474.079 809.154L436.188 888.582C432.708 895.876 423.985 898.981 416.68 895.526L354.78 866.256C347.571 862.846 344.407 854.3 347.659 847.017L383.119 767.605Z" fill="#4F4F4F"/>
<path d="M976.667 578.006C974 596.673 888 716.101 768 752.673C648 789.246 652.243 808.638 631.333 853.34C607.985 903.244 532.599 1178 532.599 1178H196L440.892 739.704C440.892 739.704 423.333 664.006 440.892 469.34C453.137 423.549 479.573 417.176 489.832 343.7C500.581 329.237 522.679 238.005 524.583 232.314C525.411 229.864 532.013 226.1 540.587 226.112C547.469 226.112 567.521 245.005 570.467 258.674C585.367 327.778 559.063 355.782 559.265 357.81C564.521 410.92 559.387 450.341 570.467 460.782C570.879 461.17 571.644 460.985 572.732 460.293C613.333 402.006 715.333 329.341 739.18 310.348C763.027 291.356 942.036 160.217 971.532 146.66C1001.9 131.636 1027.04 153.621 992.667 189.341C984.047 198.008 791.499 398.26 796 402.836C831.333 570.673 979.333 559.34 976.667 578.006Z" fill="#FFBE9D"/>
<path d="M594.475 976.413L369.156 866.798L391.012 815.2L616.896 903.97L594.475 976.413Z" fill="#F2C2AB"/>
<path d="M395.476 779.406C397.288 775.368 402.036 773.568 406.069 775.39L637.041 879.732C640.821 881.44 642.669 885.753 641.297 889.668L616.659 959.973C615.12 964.373 610.167 966.533 605.901 964.666L367.949 860.481C363.876 858.698 362.039 853.934 363.859 849.878L395.476 779.406Z" fill="#333333"/>
<path d="M540.195 870.758L550.439 875.09L540.571 898.424L530.328 894.092L540.195 870.758Z" fill="#1F1F1F"/>
<path d="M578.861 886.758L586.229 889.874L576.361 913.213L568.995 910.092L578.861 886.758Z" fill="#1F1F1F"/>
<path d="M608.195 900.092L615.563 903.208L605.695 926.546L598.328 923.426L608.195 900.092Z" fill="#1F1F1F"/>
<path d="M521.944 817.598L583.621 845.842C585.544 846.724 586.355 849.024 585.409 850.916C584.513 852.708 582.364 853.476 580.536 852.658L538.095 833.672C535.373 832.453 532.181 833.704 531.011 836.448L498.509 912.68C497.376 915.333 498.567 918.413 501.193 919.613L541.891 938.266C543.36 938.946 544.087 940.613 543.575 942.146C542.984 943.92 540.996 944.8 539.289 944.04L477.899 916.826C474.533 915.333 473.015 911.393 474.505 908.028L513.073 820.96C514.577 817.564 518.567 816.052 521.944 817.598Z" fill="white"/>
<mask id="mask0_10_3" style="mask-type:luminance" maskUnits="userSpaceOnUse" x="499" y="857" width="45" height="37">
<path d="M509.099 857.454L543.381 872.39L534.089 893.719L499.805 878.783L509.099 857.454Z" fill="white"/>
</mask>
<g mask="url(#mask0_10_3)">
<path d="M509.099 857.454L543.381 872.39L534.089 893.719L499.805 878.783L509.099 857.454Z" fill="url(#paint0_linear_10_3)"/>
</g>
<path d="M520.289 243.122L506.76 296.934C506.76 296.934 521.571 301.524 528.913 297.453C536.263 293.382 539.96 245.016 520.289 243.122Z" fill="#FFEEE3"/>
<path d="M528.913 297.452C521.565 301.524 506.767 296.937 506.767 296.937L508.253 291.028C513.127 292.061 521.448 288.7 524.763 285.313C531.563 278.362 533.443 263.404 528.725 248.104C538.511 260.944 534.939 294.114 528.913 297.452Z" fill="#FFE2CF"/>
<path d="M973.856 572.658L907.893 550.092C907.903 549.921 907.913 549.75 907.92 549.58C865.161 530.125 814.92 491.473 796.228 402.672C796.121 402.565 796.121 402.366 796.228 402.058C795.161 400.98 918.876 267.632 934.929 249.673L932.569 170.929C884.948 200.502 616.296 391.905 572.961 460.125C571.868 460.818 571.108 461.005 570.695 460.618C559.615 450.178 559.535 357.418 559.535 357.405C559.521 357.286 559.895 356.06 560.601 354.885C561.028 354.192 568.845 343.285 571.695 328.592C571.776 328.173 571.908 327.765 572.001 327.352C572.308 326.085 572.601 324.778 572.868 323.418C573.241 321.485 573.601 319.472 573.908 317.366C574.255 315.033 574.535 312.592 574.748 310.018C574.841 309.018 574.921 307.98 574.988 306.938C575.028 306.298 575.055 305.658 575.095 305.006C575.121 304.432 575.148 303.845 575.161 303.272C575.188 302.805 575.201 302.352 575.215 301.885L575.228 301.565V301.458C575.241 300.872 575.241 300.286 575.255 299.7C575.268 298.578 575.268 297.445 575.255 296.298C575.241 295.605 575.228 294.912 575.215 294.205C575.175 292.898 575.121 291.578 575.055 290.232C574.948 288.205 574.801 286.125 574.615 284.006C574.561 283.298 574.495 282.578 574.415 281.858C574.361 281.313 574.308 280.765 574.241 280.205C574.188 279.7 574.135 279.192 574.068 278.673C573.975 277.885 573.881 277.098 573.775 276.298C573.695 275.578 573.588 274.872 573.495 274.152C573.295 272.712 573.068 271.258 572.828 269.778C572.681 268.805 572.508 267.818 572.335 266.818L572.255 266.378C572.055 265.245 571.841 264.112 571.615 262.953C571.321 261.498 571.015 260.018 570.695 258.512C570.121 255.858 567.348 250.972 565.708 248.104C570.861 285.162 553.787 361.638 546.097 423.301C531.748 538.368 546.097 670.384 560.028 690.42C585.601 715.658 630.824 732.95 703.855 721.832C721.335 719.172 851.777 717.217 928.032 648.545C953.661 620.813 969.36 593.754 976.848 580.501C978.527 577.526 977.087 573.764 973.856 572.658Z" fill="#F6B797"/>
<path d="M568.067 520.538C578.555 536.361 586.431 553.81 592.528 571.821L594.768 578.606C595.481 580.88 596.073 583.189 596.732 585.481C597.979 590.085 599.16 594.713 600.208 599.381C602.2 608.738 603.643 618.234 604.609 627.817C605.332 637.418 605.633 647.104 604.987 656.802C604.199 666.474 602.865 676.204 600.003 685.59C599.281 687.933 598.487 690.256 597.732 692.577C596.881 694.876 595.948 697.149 594.988 699.396C593.943 701.617 592.804 703.797 591.72 705.98C590.512 708.112 589.252 710.212 587.989 712.29C582.587 720.422 575.901 727.686 567.977 733.002L567.432 732.418C574.235 726.046 579.907 718.508 584.273 710.289C588.659 702.072 591.779 693.214 593.885 684.148C598.099 665.962 598.333 647.065 596.647 628.525C595.033 609.934 591.413 591.532 586.455 573.522C581.461 555.522 575.168 537.853 567.343 520.88L568.067 520.538Z" fill="#F6B08D"/>
<path d="M559.744 357.229C557.397 357.365 555.052 357.341 552.7 357.305C550.352 357.224 548.001 357.074 545.649 356.832C543.304 356.578 540.891 356.466 538.619 355.64C536.371 354.836 534.089 353.781 532.383 351.965L532.516 351.734L539.316 353.065C541.544 353.477 543.72 354.25 545.984 354.725C548.24 355.222 550.524 355.633 552.824 355.978C555.119 356.368 557.432 356.673 559.749 356.962L559.744 357.229Z" fill="#F6B08D"/>
<path d="M580.813 211.482C578.057 211.474 575.817 213.701 575.809 216.457L575.733 245.293C575.727 248.049 577.955 250.289 580.711 250.297L580.813 211.482Z" fill="#666363"/>
<path d="M580.468 261.626C577.712 261.618 575.472 263.846 575.465 266.601L575.388 295.438C575.381 298.193 577.609 300.434 580.365 300.441L580.468 261.626Z" fill="#666363"/>
<path d="M924.197 211.468C926.955 211.476 929.183 213.716 929.173 216.472L928.944 302.772C928.937 305.528 926.697 307.754 923.941 307.746L924.197 211.468Z" fill="#666363"/>
<path d="M921.739 130.15C921.869 87.7609 921.935 66.5663 911.728 51.6836C908.432 46.877 904.437 42.6475 899.889 39.1489C885.811 28.3209 865.68 28.2716 825.419 28.1743L681.357 27.8236C641.096 27.7263 620.965 27.6769 606.819 38.4382C602.251 41.9142 598.229 46.1236 594.904 50.9142C584.605 65.7476 584.539 86.9422 584.408 129.332L582.972 593.126C582.841 635.515 582.776 656.709 592.983 671.592C596.279 676.4 600.275 680.629 604.821 684.126C618.9 694.956 639.031 695.005 679.292 695.101L823.355 695.452C863.616 695.549 883.747 695.597 897.892 684.838C902.46 681.362 906.481 677.152 909.808 672.362C920.107 657.529 920.172 636.334 920.303 593.945L921.739 130.15Z" fill="#333333"/>
<path fill-rule="evenodd" clip-rule="evenodd" d="M914.183 50.0343C924.601 65.0343 924.535 86.3943 924.403 129.116L922.956 596.537C922.824 639.258 922.759 660.621 912.247 675.569C908.853 680.397 904.749 684.64 900.087 688.142C885.651 698.985 865.105 698.935 824.015 698.837L676.985 698.48C635.895 698.38 615.349 698.329 600.98 687.416C596.339 683.892 592.261 679.629 588.897 674.785C578.479 659.785 578.545 638.424 578.677 595.704L580.124 128.28C580.256 85.5596 580.323 64.1982 590.832 49.2489C594.227 44.4222 598.331 40.1782 602.993 36.6756C617.429 25.8316 637.975 25.8822 679.065 25.9809L826.095 26.3382C867.185 26.4382 887.731 26.4876 902.1 37.4023C906.741 40.9276 910.819 45.1903 914.183 50.0343ZM679.048 31.6783L826.077 32.0356C846.745 32.0849 861.805 32.1289 873.511 33.4769C885.113 34.8129 892.768 37.3716 898.865 42.0036C903.043 45.1756 906.712 49.0115 909.74 53.3715C914.161 59.7369 916.58 67.7089 917.8 79.7796C919.031 91.9569 918.991 107.616 918.924 129.102L917.477 596.525C917.411 618.013 917.355 633.67 916.049 645.842C914.753 657.906 912.285 665.866 907.825 672.209C904.771 676.554 901.077 680.373 896.881 683.526C890.755 688.128 883.084 690.649 871.473 691.928C859.76 693.218 844.7 693.19 824.032 693.141L677.003 692.784C656.335 692.733 641.275 692.689 629.569 691.342C617.967 690.006 610.312 687.446 604.215 682.814C600.039 679.644 596.368 675.806 593.34 671.446C588.92 665.082 586.5 657.107 585.28 645.037C584.049 632.862 584.091 617.204 584.157 595.716L585.603 128.293C585.669 106.806 585.725 91.1475 587.032 78.9769C588.327 66.9129 590.795 58.9516 595.255 52.6089C598.309 48.2636 602.003 44.4449 606.2 41.2929C612.325 36.6916 619.996 34.1689 631.607 32.8903C643.32 31.5996 658.381 31.6276 679.048 31.6783Z" fill="url(#paint1_linear_10_3)"/>
<path d="M906.66 126.216C906.767 92.2183 906.82 75.2196 898.2 63.2836C895.416 59.4276 892.041 56.0356 888.201 53.2302C876.312 44.5436 859.313 44.5035 825.316 44.4222L679.759 44.0769C645.761 43.9955 628.763 43.9543 616.819 52.5849C612.961 55.3716 609.567 58.7476 606.759 62.5903C598.063 74.4863 598.009 91.4849 597.903 125.482L596.42 597.059C596.313 631.057 596.26 648.056 604.88 659.992C607.664 663.849 611.039 667.241 614.877 670.045C626.767 678.733 643.767 678.772 677.764 678.854L823.32 679.2C857.319 679.28 874.317 679.32 886.26 670.692C890.117 667.905 893.513 664.528 896.321 660.686C905.016 648.79 905.069 631.792 905.177 597.794L906.66 126.216Z" fill="white"/>
<path d="M719.177 60.2383L751.468 60.1464C758.191 60.1277 763.653 65.5611 763.672 72.2838C763.689 79.0064 758.253 84.4703 751.532 84.489L719.241 84.5823C712.52 84.601 707.056 79.1677 707.037 72.4464C707.02 65.7237 712.455 60.2583 719.177 60.2383Z" fill="#333333"/>
<path d="M783.67 60.4861C789.925 60.4675 795.01 65.7262 795.026 72.2288C795.044 78.7315 789.988 84.0168 783.733 84.0355C777.477 84.0528 772.395 78.7954 772.376 72.2928C772.359 65.7901 777.416 60.5048 783.67 60.4861Z" fill="#333333"/>
<path d="M660.183 381.012C668.283 381.012 674.849 387.578 674.849 395.678C674.849 403.778 668.283 410.345 660.183 410.345C652.081 410.345 645.516 403.778 645.516 395.678C645.516 387.578 652.081 381.012 660.183 381.012Z" fill="#E0E0E0"/>
<path d="M724.183 381.012C732.283 381.012 738.849 387.578 738.849 395.678C738.849 403.778 732.283 410.345 724.183 410.345C716.081 410.345 709.516 403.778 709.516 395.678C709.516 387.578 716.081 381.012 724.183 381.012Z" fill="#E0E0E0"/>
<path d="M788.183 381.012C796.283 381.012 802.849 387.578 802.849 395.678C802.849 403.778 796.283 410.345 788.183 410.345C780.081 410.345 773.516 403.778 773.516 395.678C773.516 387.578 780.081 381.012 788.183 381.012Z" fill="#E0E0E0"/>
<path d="M852.183 381.012C860.283 381.012 866.849 387.578 866.849 395.678C866.849 403.778 860.283 410.345 852.183 410.345C844.081 410.345 837.516 403.778 837.516 395.678C837.516 387.578 844.081 381.012 852.183 381.012Z" fill="#E0E0E0"/>
<path d="M652.913 586.213H851.58C865.572 586.213 876.913 597.556 876.913 611.546C876.913 625.537 865.572 636.88 851.58 636.88H652.913C638.923 636.88 627.58 625.537 627.58 611.546C627.58 597.556 638.923 586.213 652.913 586.213Z" fill="#01AC31"/>
<path d="M714.201 606.424L718.231 617.852H718.39L722.42 606.424H724.144L719.159 620H717.462L712.477 606.424H714.201ZM729.367 620.212C728.386 620.212 727.54 619.996 726.829 619.563C726.122 619.125 725.576 618.515 725.191 617.733C724.811 616.946 724.621 616.032 724.621 614.989C724.621 613.946 724.811 613.027 725.191 612.231C725.576 611.431 726.11 610.808 726.795 610.362C727.485 609.911 728.289 609.686 729.208 609.686C729.739 609.686 730.262 609.774 730.779 609.951C731.296 610.128 731.767 610.415 732.191 610.813C732.616 611.206 732.954 611.727 733.205 612.377C733.457 613.027 733.583 613.826 733.583 614.777V615.439H725.735V614.087H731.992C731.992 613.513 731.878 613 731.648 612.549C731.422 612.098 731.1 611.743 730.68 611.482C730.265 611.221 729.774 611.091 729.208 611.091C728.585 611.091 728.046 611.246 727.591 611.555C727.14 611.86 726.793 612.258 726.55 612.748C726.307 613.239 726.186 613.765 726.186 614.326V615.227C726.186 615.996 726.318 616.648 726.583 617.183C726.853 617.713 727.226 618.117 727.704 618.396C728.181 618.67 728.735 618.807 729.367 618.807C729.778 618.807 730.15 618.749 730.481 618.634C730.817 618.515 731.106 618.338 731.349 618.104C731.592 617.866 731.78 617.569 731.913 617.216L733.424 617.64C733.265 618.153 732.998 618.604 732.622 618.992C732.247 619.377 731.783 619.677 731.23 619.894C730.678 620.106 730.057 620.212 729.367 620.212ZM735.963 620V609.818H737.474V611.356H737.58C737.766 610.852 738.102 610.443 738.588 610.13C739.074 609.816 739.622 609.659 740.232 609.659C740.347 609.659 740.491 609.661 740.663 609.666C740.835 609.67 740.966 609.677 741.054 609.686V611.277C741.001 611.263 740.879 611.243 740.689 611.217C740.504 611.186 740.307 611.17 740.099 611.17C739.604 611.17 739.163 611.274 738.774 611.482C738.389 611.685 738.084 611.968 737.859 612.33C737.638 612.688 737.527 613.097 737.527 613.557V620H735.963ZM742.908 620V609.818H744.473V620H742.908ZM743.704 608.121C743.399 608.121 743.136 608.017 742.915 607.81C742.698 607.602 742.59 607.352 742.59 607.061C742.59 606.769 742.698 606.519 742.915 606.312C743.136 606.104 743.399 606 743.704 606C744.009 606 744.269 606.104 744.486 606.312C744.707 606.519 744.817 606.769 744.817 607.061C744.817 607.352 744.707 607.602 744.486 607.81C744.269 608.017 744.009 608.121 743.704 608.121ZM751.872 609.818V611.144H746.384V609.818H751.872ZM748.027 620V608.413C748.027 607.83 748.164 607.343 748.438 606.955C748.712 606.566 749.068 606.274 749.506 606.08C749.943 605.885 750.405 605.788 750.891 605.788C751.276 605.788 751.589 605.819 751.832 605.881C752.075 605.943 752.257 606 752.376 606.053L751.925 607.405C751.846 607.379 751.735 607.346 751.594 607.306C751.457 607.266 751.276 607.246 751.05 607.246C750.533 607.246 750.16 607.377 749.93 607.637C749.705 607.898 749.592 608.28 749.592 608.784V620H748.027ZM755.072 623.818C754.807 623.818 754.571 623.796 754.363 623.752C754.155 623.712 754.012 623.672 753.932 623.633L754.33 622.254C754.71 622.351 755.046 622.386 755.337 622.36C755.629 622.333 755.888 622.203 756.113 621.969C756.343 621.739 756.553 621.366 756.743 620.848L757.034 620.053L753.269 609.818H754.966L757.777 617.932H757.883L760.693 609.818H762.39L758.068 621.485C757.874 622.011 757.633 622.446 757.346 622.791C757.059 623.14 756.725 623.398 756.345 623.566C755.969 623.734 755.545 623.818 755.072 623.818ZM781.372 613.212C781.372 614.644 781.113 615.881 780.596 616.924C780.079 617.967 779.37 618.771 778.469 619.337C777.567 619.903 776.537 620.186 775.379 620.186C774.222 620.186 773.192 619.903 772.29 619.337C771.389 618.771 770.68 617.967 770.163 616.924C769.646 615.881 769.387 614.644 769.387 613.212C769.387 611.78 769.646 610.543 770.163 609.5C770.68 608.457 771.389 607.653 772.29 607.087C773.192 606.521 774.222 606.239 775.379 606.239C776.537 606.239 777.567 606.521 778.469 607.087C779.37 607.653 780.079 608.457 780.596 609.5C781.113 610.543 781.372 611.78 781.372 613.212ZM779.781 613.212C779.781 612.037 779.584 611.045 779.191 610.236C778.802 609.427 778.274 608.815 777.607 608.4C776.944 607.984 776.201 607.777 775.379 607.777C774.558 607.777 773.813 607.984 773.146 608.4C772.483 608.815 771.955 609.427 771.561 610.236C771.172 611.045 770.978 612.037 770.978 613.212C770.978 614.388 771.172 615.38 771.561 616.188C771.955 616.997 772.483 617.609 773.146 618.025C773.813 618.44 774.558 618.648 775.379 618.648C776.201 618.648 776.944 618.44 777.607 618.025C778.274 617.609 778.802 616.997 779.191 616.188C779.584 615.38 779.781 614.388 779.781 613.212ZM782.829 607.883V606.424H793.01V607.883H788.741V620H787.098V607.883H782.829ZM795.548 620V606.424H800.135C801.2 606.424 802.07 606.616 802.746 607.001C803.427 607.381 803.931 607.896 804.258 608.545C804.585 609.195 804.748 609.92 804.748 610.72C804.748 611.52 804.585 612.247 804.258 612.901C803.935 613.555 803.436 614.076 802.76 614.465C802.084 614.849 801.217 615.042 800.161 615.042H796.873V613.583H800.108C800.837 613.583 801.423 613.457 801.865 613.205C802.307 612.954 802.627 612.613 802.826 612.185C803.029 611.752 803.131 611.263 803.131 610.72C803.131 610.176 803.029 609.69 802.826 609.261C802.627 608.833 802.305 608.497 801.858 608.254C801.412 608.006 800.82 607.883 800.082 607.883H797.192V620H795.548Z" fill="white"/>
<path d="M991.787 341.073L994.807 345.464C1003.67 358.356 1002.24 370.921 997.34 377.694C992.436 384.469 988.576 387.681 974.388 394.98L918.715 423.62C912.505 428.429 886.708 435.026 875.375 417.256C872.785 411.805 862.281 390.813 882.517 376.496C882.517 376.496 913.372 353.56 941.183 338.66C961.648 327.693 977.996 317.888 991.787 341.073Z" fill="#FFBE9D"/>
<path d="M877.849 401.092C874.191 394.62 876.385 386.256 882.749 382.412L895.639 374.626C910.715 367.87 917.147 372.085 922.577 381.694C928.007 391.302 924.749 403.716 915.303 409.422L900.316 418.473C895.109 421.617 888.461 419.872 885.469 414.577L877.849 401.092Z" fill="#FFEEE3"/>
<path fill-rule="evenodd" clip-rule="evenodd" d="M892.94 419.566C895.961 420.754 899.487 420.525 902.496 418.628L918.788 408.358C928.017 402.54 931.049 390.18 925.56 380.75C921.573 373.904 914.191 370.485 906.911 371.354L909.776 376.236C917.479 389.358 913.313 406.614 900.472 414.777L892.94 419.566Z" fill="#FFE2CF"/>
<path d="M987.303 455.318L989.395 459.876C995.535 473.26 993.116 485.058 988.364 490.909C983.613 496.758 980.08 499.342 967.532 504.544L917.487 521.314C892.743 527.998 884.936 513.312 882.423 508.498C878.647 500.248 877.732 485.224 894.308 474.416C894.308 474.416 969.519 416.338 987.303 455.318Z" fill="#FFBE9D"/>
<path d="M886.833 497.978C883.793 491.533 886.552 483.841 892.997 480.801L904.913 475.178C912.963 471.381 922.565 474.826 926.361 482.874C930.159 490.924 926.713 500.526 918.665 504.322L904.627 510.946C899.353 513.434 893.061 511.176 890.573 505.902L886.833 497.978Z" fill="#FFEEE3"/>
<path fill-rule="evenodd" clip-rule="evenodd" d="M895.857 511.069C898.572 512.148 901.705 512.148 904.517 510.808L919.253 503.782C927.233 499.981 930.463 490.505 926.468 482.621C923.471 476.708 917.264 473.37 910.981 473.672L912.592 476.821C918.531 488.432 913.819 502.428 902.067 508.082L895.857 511.069Z" fill="#FFE2CF"/>
<path d="M961.231 605.484C961.231 605.484 963.215 588.552 943.868 593.194C924.523 597.834 905.36 607.464 905.36 607.464C892.129 611.066 880.027 600.797 875.384 593.744L874.039 588.812C870.343 569.256 946.425 543.002 946.425 543.002C961.7 539.453 973.432 547.282 977.033 560.517L978.379 565.442C984.027 580.797 965.991 598.449 961.231 605.484Z" fill="#FFBE9D"/>
<path d="M879.889 589.425C877.468 584.292 879.665 578.168 884.799 575.748L894.287 571.27C900.693 568.248 908.34 570.99 911.363 577.4C914.387 583.808 911.643 591.453 905.236 594.477L894.057 599.75C889.857 601.732 884.848 599.933 882.865 595.734L879.889 589.425Z" fill="#FFEEE3"/>
<path fill-rule="evenodd" clip-rule="evenodd" d="M887.076 599.848C889.236 600.708 891.732 600.705 893.969 599.64L905.702 594.046C912.057 591.018 914.629 583.474 911.448 577.197C909.062 572.489 904.12 569.83 899.117 570.07L900.4 572.578C905.129 581.824 901.376 592.969 892.019 597.47L887.076 599.848Z" fill="#FFE2CF"/>
<path d="M752.333 168C787.312 168 815.667 196.356 815.667 231.333C815.667 266.312 787.312 294.667 752.333 294.667C717.355 294.667 689 266.312 689 231.333C689 196.356 717.355 168 752.333 168Z" fill="#E0FFE9"/>
<path d="M778.348 207.652C778.044 207.35 777.66 207.141 777.242 207.049C776.823 206.958 776.387 206.987 775.985 207.135L726.485 225.135C726.058 225.297 725.691 225.585 725.431 225.961C725.172 226.336 725.033 226.782 725.033 227.239C725.033 227.695 725.172 228.141 725.431 228.517C725.691 228.893 726.058 229.181 726.485 229.342L745.813 237.06L760.078 222.75L763.25 225.922L748.918 240.255L756.658 259.582C756.824 260.001 757.113 260.36 757.486 260.613C757.859 260.866 758.299 261 758.75 261C759.205 260.991 759.646 260.844 760.015 260.579C760.385 260.314 760.665 259.943 760.82 259.515L778.82 210.015C778.973 209.617 779.01 209.183 778.927 208.765C778.843 208.347 778.642 207.961 778.348 207.652Z" fill="#01AC31"/>
</g>
<defs>
<filter id="filter0_f_10_3" x="18" y="75" width="1170" height="1170" filterUnits="userSpaceOnUse" color-interpolation-filters="sRGB">
<feFlood flood-opacity="0" result="BackgroundImageFix"/>
<feBlend mode="normal" in="SourceGraphic" in2="BackgroundImageFix" result="shape"/>
<feGaussianBlur stdDeviation="56" result="effect1_foregroundBlur_10_3"/>
</filter>
<linearGradient id="paint0_linear_10_3" x1="528.783" y1="879.181" x2="543.45" y2="886.513" gradientUnits="userSpaceOnUse">
<stop stop-color="#E2E2E2"/>
<stop offset="1"/>
</linearGradient>
<linearGradient id="paint1_linear_10_3" x1="564.929" y1="10.7049" x2="917.032" y2="674.31" gradientUnits="userSpaceOnUse">
<stop stop-color="#F2F2F2"/>
<stop offset="0.479167" stop-color="#F7F7F7"/>
<stop offset="1" stop-color="#D2D2D2"/>
</linearGradient>
<clipPath id="clip0_10_3">
<rect width="1206" height="1205" fill="white"/>
</clipPath>
</defs>
</svg>
