<svg width="233" height="233" viewBox="0 0 233 233" fill="none" xmlns="http://www.w3.org/2000/svg">
<rect width="233" height="233" rx="116.5" fill="white"/>
<path d="M190.655 47.9982C179.06 21.562 151.231 11.6082 129.273 29.3582C120.699 36.2829 115.349 47.3038 104.85 51.7262C94.9987 55.8736 82.5193 54.6526 71.8665 56.8988C49.1816 61.652 18.64 79.6862 20.97 107.474C21.9905 119.646 30.2014 133.164 34.2603 144.553C38.9203 157.657 41.7163 174.051 54.0513 181.885C75.1984 195.333 100.707 184.34 119.757 173.497C130.009 167.667 135.653 164.083 146.692 166.083C156.912 167.947 166.115 174.471 176.101 166.73C183.599 160.919 184.219 149.143 190.515 142.228C197.607 134.436 204.798 133.873 208.484 122.162C212.953 107.954 206.368 99.0764 201.918 86.3826C197.467 73.6887 196.116 60.4357 190.655 47.9982Z" fill="#187863"/>
<g opacity="0.7">
<path d="M190.655 47.9982C179.06 21.562 151.231 11.6082 129.273 29.3582C120.699 36.2829 115.349 47.3038 104.85 51.7262C94.9987 55.8736 82.5193 54.6526 71.8665 56.8988C49.1816 61.652 18.64 79.6862 20.97 107.474C21.9905 119.646 30.2014 133.164 34.2603 144.553C38.9203 157.657 41.7163 174.051 54.0513 181.885C75.1984 195.333 100.707 184.34 119.757 173.497C130.009 167.667 135.653 164.083 146.692 166.083C156.912 167.947 166.115 174.471 176.101 166.73C183.599 160.919 184.219 149.143 190.515 142.228C197.607 134.436 204.798 133.873 208.484 122.162C212.953 107.954 206.368 99.0764 201.918 86.3826C197.467 73.6887 196.116 60.4357 190.655 47.9982Z" fill="#0C6D5C"/>
</g>
<path d="M102.431 203.959C142.215 203.959 174.466 201.95 174.466 199.471C174.466 196.993 142.215 194.984 102.431 194.984C62.648 194.984 30.3972 196.993 30.3972 199.471C30.3972 201.95 62.648 203.959 102.431 203.959Z" fill="#187863"/>
<path opacity="0.8" d="M102.431 203.959C142.215 203.959 174.466 201.95 174.466 199.471C174.466 196.993 142.215 194.984 102.431 194.984C62.648 194.984 30.3972 196.993 30.3972 199.471C30.3972 201.95 62.648 203.959 102.431 203.959Z" fill="white"/>
<path d="M156.562 28.8267H84.1316C79.1311 28.8267 75.0773 32.8804 75.0773 37.881V190.794C75.0773 195.795 79.1311 199.849 84.1316 199.849H156.562C161.563 199.849 165.616 195.795 165.616 190.794V37.881C165.616 32.8804 161.563 28.8267 156.562 28.8267Z" fill="#263238"/>
<path d="M161.59 47.6064H79.0989V181.069H161.59V47.6064Z" fill="white" stroke="#263238" stroke-width="1.33739" stroke-miterlimit="10"/>
<path d="M132.99 101.649C139.973 94.6665 139.973 83.3452 132.99 76.3625C126.007 69.3798 114.686 69.3798 107.703 76.3625C100.721 83.3452 100.721 94.6665 107.703 101.649C114.686 108.632 126.007 108.632 132.99 101.649Z" fill="#187863"/>
<path d="M143.822 172.676H96.8767C96.7711 172.677 96.6664 172.656 96.5686 172.616C96.4708 172.576 96.3819 172.517 96.307 172.443C96.2321 172.368 96.1726 172.28 96.132 172.182C96.0914 172.085 96.0706 171.98 96.0706 171.875C96.07 171.769 96.0904 171.663 96.1307 171.565C96.171 171.467 96.2303 171.378 96.3053 171.303C96.3803 171.228 96.4694 171.169 96.5675 171.128C96.6656 171.088 96.7707 171.068 96.8767 171.068H143.822C143.927 171.068 144.032 171.089 144.129 171.13C144.227 171.17 144.316 171.23 144.39 171.305C144.464 171.38 144.523 171.469 144.563 171.566C144.603 171.664 144.624 171.769 144.623 171.875C144.623 172.087 144.539 172.291 144.388 172.441C144.238 172.592 144.034 172.676 143.822 172.676Z" fill="#187863"/>
<path d="M145.35 116.938H95.3436C94.3116 116.938 93.475 117.775 93.475 118.807V124.702C93.475 125.734 94.3116 126.57 95.3436 126.57H145.35C146.382 126.57 147.219 125.734 147.219 124.702V118.807C147.219 117.775 146.382 116.938 145.35 116.938Z" fill="#187863"/>
<path d="M145.35 134.954H95.3436C94.3116 134.954 93.475 135.79 93.475 136.822V142.717C93.475 143.749 94.3116 144.586 95.3436 144.586H145.35C146.382 144.586 147.219 143.749 147.219 142.717V136.822C147.219 135.79 146.382 134.954 145.35 134.954Z" fill="#187863"/>
<path d="M129.25 97.9253L123.989 94.8963V92.3939C124.75 91.4722 125.302 90.3957 125.606 89.2391C125.787 89.3034 125.977 89.3365 126.169 89.3369C126.822 89.3369 127.237 87.3145 127.307 85.8699C128.066 84.2622 127.032 83.3209 127.032 83.3209C127.032 83.3209 127.46 82.8921 127.745 81.1726C128.029 79.4531 126.743 80.1707 125.741 78.5956C124.739 77.0205 124.021 75.3057 120.731 75.3057C119.825 75.2759 118.93 75.5194 118.164 76.0048C117.398 76.4901 116.795 77.1948 116.435 78.0271C115.616 78.0301 114.8 78.1254 114.002 78.3114C112.996 78.5956 112.711 81.8902 113.569 83.1811C113.953 83.8865 114.158 84.6754 114.165 85.4784C113.937 85.1988 113.699 85.1243 113.569 85.758C113.285 87.1887 114.431 89.1925 114.431 89.1925L115.023 89.0247C115.321 90.2607 115.896 91.4128 116.705 92.3939V94.8963L111.444 97.9253C110.829 98.28 110.319 98.7901 109.964 99.4044C109.609 100.019 109.422 100.715 109.421 101.425V103.158C112.55 105.576 116.393 106.887 120.347 106.887C124.301 106.887 128.143 105.576 131.272 103.158V101.425C131.273 100.715 131.086 100.018 130.731 99.4037C130.376 98.7892 129.865 98.2793 129.25 97.9253Z" fill="#263238"/>
<path d="M100.283 142.191C100.163 142.189 100.047 142.141 99.9617 142.056C99.9158 142.015 99.8792 141.964 99.8543 141.908C99.8294 141.852 99.8168 141.791 99.8172 141.729C99.8187 141.645 99.8428 141.563 99.8871 141.492L100.726 140.15L99.0903 140.201C99.0286 140.205 98.9669 140.196 98.9091 140.174C98.8512 140.152 98.7986 140.118 98.7548 140.075C98.6788 139.99 98.6368 139.879 98.6368 139.765C98.6368 139.651 98.6788 139.541 98.7548 139.455C98.7977 139.41 98.85 139.375 98.908 139.353C98.966 139.33 99.0282 139.321 99.0903 139.325L100.703 139.385L99.8732 138.048C99.828 137.975 99.8038 137.891 99.8033 137.806C99.8028 137.744 99.8155 137.683 99.8404 137.627C99.8653 137.571 99.9019 137.52 99.9477 137.479C100.033 137.394 100.149 137.346 100.269 137.344C100.349 137.345 100.426 137.368 100.493 137.411C100.56 137.454 100.613 137.515 100.647 137.587L101.444 139.027L102.231 137.596C102.268 137.52 102.326 137.455 102.397 137.409C102.469 137.363 102.552 137.337 102.637 137.335C102.695 137.335 102.754 137.348 102.807 137.372C102.861 137.396 102.909 137.431 102.949 137.475C103.034 137.563 103.081 137.682 103.079 137.806C103.079 137.886 103.058 137.964 103.019 138.034L102.175 139.385L103.811 139.325C103.873 139.321 103.935 139.33 103.993 139.353C104.051 139.375 104.103 139.41 104.146 139.455C104.226 139.538 104.269 139.648 104.268 139.763C104.267 139.878 104.224 139.99 104.146 140.075C104.102 140.118 104.05 140.152 103.992 140.174C103.934 140.196 103.872 140.205 103.811 140.201L102.166 140.15L102.986 141.478C103.032 141.552 103.056 141.637 103.056 141.725C103.056 141.848 103.007 141.967 102.919 142.054C102.832 142.142 102.714 142.191 102.59 142.191C102.51 142.19 102.432 142.165 102.366 142.121C102.3 142.076 102.248 142.013 102.217 141.939L101.439 140.541L100.665 141.939C100.631 142.012 100.577 142.074 100.51 142.119C100.442 142.163 100.364 142.188 100.283 142.191Z" fill="#263238"/>
<path d="M107.842 142.191C107.721 142.189 107.606 142.141 107.52 142.056C107.474 142.015 107.438 141.964 107.413 141.908C107.388 141.852 107.375 141.791 107.376 141.729C107.377 141.645 107.401 141.563 107.446 141.492L108.284 140.15L106.653 140.201C106.591 140.204 106.529 140.194 106.471 140.172C106.412 140.151 106.359 140.118 106.313 140.075C106.251 140.011 106.21 139.93 106.195 139.843C106.18 139.755 106.191 139.665 106.228 139.584C106.265 139.503 106.325 139.435 106.401 139.389C106.477 139.343 106.565 139.32 106.653 139.325L108.261 139.385L107.432 138.048C107.387 137.975 107.362 137.891 107.362 137.806C107.361 137.744 107.374 137.683 107.399 137.627C107.424 137.571 107.46 137.52 107.506 137.479C107.592 137.394 107.707 137.346 107.828 137.344C107.907 137.345 107.985 137.368 108.052 137.411C108.118 137.454 108.172 137.515 108.205 137.587L109.002 139.027L109.79 137.596C109.827 137.52 109.884 137.455 109.956 137.409C110.027 137.363 110.11 137.337 110.195 137.335C110.254 137.335 110.312 137.347 110.366 137.371C110.42 137.395 110.468 137.431 110.507 137.475C110.55 137.518 110.585 137.57 110.608 137.627C110.631 137.684 110.643 137.744 110.642 137.806C110.641 137.886 110.618 137.965 110.577 138.034L109.734 139.385L111.374 139.334C111.435 139.33 111.497 139.34 111.554 139.362C111.611 139.385 111.663 139.42 111.705 139.465C111.784 139.547 111.828 139.658 111.826 139.772C111.826 139.888 111.783 139.999 111.705 140.084C111.662 140.128 111.61 140.161 111.553 140.183C111.496 140.205 111.435 140.214 111.374 140.21L109.724 140.159L110.545 141.487C110.59 141.561 110.615 141.647 110.614 141.734C110.614 141.858 110.565 141.976 110.478 142.064C110.391 142.151 110.272 142.2 110.148 142.2C110.069 142.199 109.991 142.175 109.924 142.13C109.858 142.085 109.806 142.022 109.776 141.948L108.997 140.55L108.224 141.948C108.188 142.02 108.134 142.08 108.066 142.123C107.999 142.165 107.921 142.189 107.842 142.191Z" fill="#263238"/>
<path d="M115.405 142.191C115.283 142.19 115.166 142.142 115.079 142.056C115.033 142.015 114.996 141.964 114.971 141.908C114.946 141.852 114.934 141.791 114.934 141.729C114.936 141.645 114.96 141.563 115.004 141.492L115.843 140.15L114.212 140.201C114.124 140.204 114.037 140.182 113.962 140.136C113.887 140.09 113.828 140.022 113.792 139.942C113.755 139.862 113.743 139.773 113.757 139.687C113.772 139.6 113.812 139.519 113.872 139.455C113.916 139.41 113.969 139.375 114.028 139.353C114.086 139.33 114.149 139.321 114.212 139.325L115.82 139.385L114.99 138.048C114.945 137.975 114.921 137.891 114.92 137.806C114.922 137.744 114.935 137.684 114.96 137.628C114.985 137.572 115.02 137.522 115.065 137.479C115.152 137.393 115.269 137.345 115.391 137.344C115.47 137.346 115.546 137.369 115.612 137.412C115.678 137.455 115.731 137.515 115.764 137.587L116.561 139.027L117.348 137.596C117.385 137.52 117.443 137.455 117.514 137.409C117.586 137.363 117.669 137.337 117.754 137.335C117.813 137.335 117.871 137.347 117.925 137.371C117.979 137.395 118.027 137.431 118.066 137.475C118.109 137.518 118.143 137.57 118.166 137.627C118.19 137.684 118.201 137.744 118.201 137.806C118.199 137.886 118.177 137.965 118.136 138.034L117.292 139.385L118.933 139.325C118.993 139.319 119.054 139.326 119.111 139.345C119.169 139.365 119.221 139.396 119.265 139.438C119.309 139.479 119.344 139.53 119.367 139.586C119.39 139.642 119.401 139.702 119.399 139.763C119.4 139.878 119.358 139.989 119.282 140.075C119.238 140.118 119.186 140.152 119.128 140.174C119.07 140.196 119.008 140.205 118.947 140.201L117.302 140.15L118.117 141.478C118.163 141.552 118.187 141.637 118.187 141.725C118.185 141.786 118.172 141.846 118.147 141.902C118.122 141.958 118.087 142.009 118.042 142.051C118.002 142.095 117.953 142.129 117.898 142.153C117.844 142.177 117.785 142.19 117.726 142.191C117.646 142.189 117.569 142.165 117.504 142.12C117.438 142.075 117.387 142.012 117.357 141.939L116.575 140.541L115.801 141.939C115.766 142.015 115.71 142.079 115.64 142.123C115.57 142.168 115.488 142.191 115.405 142.191Z" fill="#263238"/>
<path d="M122.963 142.191C122.841 142.19 122.724 142.142 122.637 142.056C122.549 141.97 122.499 141.852 122.497 141.729C122.496 141.646 122.519 141.563 122.563 141.492L123.401 140.15L121.77 140.201C121.708 140.204 121.646 140.194 121.588 140.172C121.529 140.151 121.476 140.118 121.43 140.075C121.354 139.99 121.312 139.879 121.312 139.765C121.312 139.651 121.354 139.541 121.43 139.455C121.475 139.412 121.529 139.378 121.587 139.355C121.646 139.333 121.708 139.323 121.77 139.325L123.383 139.385L122.558 138.048C122.513 137.975 122.489 137.891 122.488 137.806C122.49 137.744 122.503 137.684 122.528 137.628C122.553 137.572 122.588 137.522 122.633 137.479C122.719 137.393 122.837 137.345 122.959 137.344C123.038 137.345 123.116 137.368 123.183 137.411C123.249 137.454 123.303 137.515 123.336 137.587L124.128 139.027L124.916 137.596C124.953 137.52 125.011 137.455 125.082 137.409C125.154 137.363 125.236 137.337 125.321 137.335C125.38 137.335 125.439 137.347 125.493 137.371C125.546 137.395 125.595 137.431 125.634 137.475C125.677 137.518 125.711 137.57 125.734 137.627C125.757 137.684 125.769 137.744 125.769 137.806C125.767 137.886 125.745 137.965 125.704 138.034L124.86 139.385L126.5 139.325C126.561 139.319 126.622 139.326 126.679 139.345C126.736 139.365 126.789 139.396 126.833 139.438C126.877 139.479 126.912 139.53 126.935 139.586C126.958 139.642 126.969 139.702 126.966 139.763C126.967 139.878 126.926 139.989 126.85 140.075C126.806 140.118 126.753 140.152 126.696 140.174C126.638 140.196 126.576 140.205 126.514 140.201L124.869 140.15L125.685 141.478C125.731 141.552 125.755 141.637 125.755 141.725C125.755 141.786 125.743 141.847 125.718 141.903C125.693 141.96 125.656 142.01 125.61 142.051C125.57 142.095 125.521 142.129 125.466 142.153C125.412 142.177 125.353 142.19 125.293 142.191C125.214 142.189 125.137 142.165 125.072 142.12C125.006 142.075 124.955 142.012 124.925 141.939L124.142 140.541L123.369 141.939C123.333 142.016 123.276 142.081 123.204 142.126C123.132 142.17 123.048 142.193 122.963 142.191Z" fill="#263238"/>
<path d="M130.522 142.191C130.4 142.19 130.283 142.142 130.196 142.056C130.124 141.982 130.078 141.887 130.065 141.786C130.052 141.684 130.074 141.58 130.126 141.492L130.96 140.15L129.329 140.201C129.267 140.204 129.205 140.194 129.146 140.172C129.088 140.151 129.034 140.118 128.989 140.075C128.913 139.99 128.871 139.879 128.871 139.765C128.871 139.651 128.913 139.541 128.989 139.455C129.034 139.412 129.087 139.378 129.146 139.355C129.204 139.333 129.266 139.323 129.329 139.325L130.941 139.385L130.112 138.048C130.067 137.975 130.043 137.891 130.042 137.806C130.044 137.683 130.094 137.565 130.182 137.479C130.269 137.393 130.386 137.345 130.508 137.344C130.587 137.345 130.665 137.368 130.732 137.411C130.799 137.454 130.852 137.515 130.885 137.587L131.678 139.027L132.465 137.596C132.503 137.52 132.56 137.455 132.632 137.409C132.703 137.363 132.786 137.337 132.871 137.335C132.93 137.335 132.989 137.347 133.044 137.371C133.099 137.395 133.147 137.43 133.187 137.475C133.273 137.563 133.32 137.682 133.318 137.806C133.316 137.886 133.294 137.965 133.253 138.034L132.409 139.385L134.05 139.325C134.11 139.319 134.171 139.326 134.228 139.345C134.286 139.365 134.338 139.396 134.382 139.438C134.426 139.479 134.461 139.53 134.484 139.586C134.507 139.642 134.518 139.702 134.516 139.763C134.517 139.878 134.475 139.989 134.399 140.075C134.355 140.118 134.303 140.152 134.245 140.174C134.187 140.196 134.125 140.205 134.064 140.201L132.419 140.15L133.234 141.478C133.28 141.552 133.304 141.637 133.304 141.725C133.304 141.786 133.292 141.847 133.267 141.903C133.242 141.96 133.205 142.01 133.16 142.051C133.119 142.095 133.07 142.129 133.015 142.153C132.961 142.177 132.902 142.19 132.843 142.191C132.763 142.189 132.686 142.165 132.621 142.12C132.555 142.075 132.505 142.012 132.474 141.939L131.692 140.541L130.918 141.939C130.883 142.015 130.827 142.079 130.757 142.123C130.687 142.168 130.605 142.191 130.522 142.191Z" fill="#263238"/>
<path d="M138.081 142.191C137.96 142.189 137.845 142.141 137.759 142.056C137.713 142.015 137.677 141.964 137.652 141.908C137.627 141.852 137.614 141.791 137.615 141.729C137.616 141.645 137.64 141.563 137.684 141.492L138.519 140.15L136.888 140.201C136.828 140.205 136.767 140.197 136.711 140.177C136.654 140.157 136.602 140.126 136.558 140.084C136.514 140.043 136.479 139.993 136.456 139.938C136.432 139.883 136.421 139.823 136.422 139.763C136.421 139.706 136.432 139.649 136.454 139.597C136.475 139.544 136.507 139.496 136.547 139.455C136.59 139.41 136.643 139.375 136.701 139.353C136.759 139.33 136.821 139.321 136.883 139.325L138.495 139.385L137.666 138.048C137.621 137.975 137.596 137.891 137.596 137.806C137.598 137.683 137.648 137.565 137.736 137.479C137.822 137.393 137.94 137.345 138.062 137.344C138.141 137.345 138.219 137.368 138.286 137.411C138.353 137.454 138.406 137.515 138.439 137.587L139.232 139.027L140.024 137.596C140.061 137.52 140.118 137.456 140.188 137.41C140.259 137.364 140.34 137.338 140.424 137.335C140.484 137.335 140.543 137.347 140.598 137.371C140.652 137.395 140.701 137.43 140.741 137.475C140.827 137.563 140.874 137.682 140.872 137.806C140.872 137.886 140.851 137.964 140.811 138.034L139.968 139.385L141.603 139.325C141.666 139.321 141.728 139.33 141.786 139.353C141.844 139.375 141.896 139.41 141.939 139.455C142.018 139.538 142.062 139.648 142.06 139.763C142.06 139.878 142.017 139.99 141.939 140.075C141.895 140.118 141.843 140.152 141.785 140.174C141.727 140.196 141.665 140.205 141.603 140.201L139.958 140.15L140.774 141.478C140.82 141.552 140.844 141.637 140.844 141.725C140.842 141.848 140.792 141.965 140.704 142.051C140.619 142.138 140.504 142.188 140.383 142.191C140.303 142.189 140.226 142.165 140.161 142.12C140.095 142.075 140.044 142.012 140.014 141.939L139.232 140.541L138.458 141.939C138.424 142.012 138.371 142.074 138.305 142.118C138.238 142.163 138.161 142.188 138.081 142.191Z" fill="#263238"/>
<g style="mix-blend-mode:multiply">
<path d="M161.59 47.7837H79.0989V52.9516H161.59V47.7837Z" fill="#187863"/>
</g>
<path d="M129.315 38.2631H111.374C111.05 38.2631 110.74 38.1345 110.511 37.9055C110.282 37.6766 110.153 37.366 110.153 37.0422C110.153 36.7184 110.282 36.4079 110.511 36.1789C110.74 35.9499 111.05 35.8213 111.374 35.8213H129.315C129.639 35.8213 129.949 35.9499 130.178 36.1789C130.407 36.4079 130.536 36.7184 130.536 37.0422C130.536 37.366 130.407 37.6766 130.178 37.9055C129.949 38.1345 129.639 38.2631 129.315 38.2631Z" fill="#187863" stroke="#263238" stroke-width="1.33739" stroke-linecap="round" stroke-linejoin="round"/>
<path d="M125.238 188.609C125.238 187.64 124.952 186.694 124.415 185.888C123.878 185.083 123.113 184.455 122.219 184.084C121.325 183.713 120.341 183.616 119.391 183.805C118.442 183.993 117.569 184.459 116.885 185.144C116.2 185.829 115.734 186.701 115.545 187.651C115.357 188.6 115.454 189.584 115.825 190.479C116.196 191.373 116.824 192.137 117.629 192.674C118.434 193.212 119.381 193.498 120.349 193.497C121.645 193.496 122.888 192.98 123.804 192.064C124.721 191.147 125.236 189.905 125.238 188.609Z" fill="#187863"/>
<path d="M122.828 186.129H117.87V191.088H122.828V186.129Z" fill="#187863" stroke="#263238" stroke-width="1.33739" stroke-linecap="round" stroke-linejoin="round"/>
<path d="M179.41 132.344C179.41 132.344 172.914 115.838 178.697 113.876C184.718 111.831 184.452 122.73 184.219 128.043C183.73 139.395 182.476 141.506 181.54 138.733L179.41 132.344ZM177.457 145.22C179.242 147.55 179.746 145.136 176.525 134.236C175.016 129.11 171.735 118.741 166.702 122.633C161.87 126.361 173.371 139.875 173.371 139.875L177.457 145.22ZM174.009 154.679C175.71 156.189 175.743 154.283 171.702 146.413C169.806 142.726 165.793 135.266 162.508 138.957C159.353 142.517 170.104 151.17 170.104 151.17L174.009 154.679ZM170.281 165.929C171.982 167.443 172.015 165.533 167.974 157.666C166.078 153.98 162.065 146.515 158.78 150.21C155.644 153.78 166.362 162.434 166.362 162.434L170.281 165.929ZM181.046 143.029C178.324 144.092 180.486 145.248 191.852 145.215C197.183 145.215 208.069 144.973 205.748 139.05C203.526 133.36 187.337 140.606 187.337 140.606L181.046 143.029ZM177.947 150.597C175.067 151.096 176.959 152.662 188.106 154.889C193.329 155.938 204.043 157.871 202.948 151.627C201.899 145.606 184.592 149.493 184.592 149.493L177.947 150.597ZM174.48 159.838C172.029 160.192 173.594 161.558 182.966 163.701C187.36 164.708 196.377 166.595 195.594 161.269C194.849 156.143 180.123 159.041 180.123 159.041L174.48 159.838ZM171.847 168.398C169.447 169.009 171.148 170.202 180.701 171.339C185.174 171.87 194.341 172.793 193.003 167.578C191.712 162.573 177.378 167.005 177.378 167.005L171.847 168.398ZM185.892 133.742C184.494 136.874 187.397 136.398 197.267 127.787C201.89 123.746 211.163 115.293 203.819 111.085C196.769 107.04 189.187 126.556 189.187 126.556L185.892 133.742ZM172.21 179.55C170.733 180.412 172.182 180.747 178.958 179.396C182.136 178.767 188.6 177.369 186.414 174.61C184.298 171.954 175.631 177.546 175.631 177.546L172.21 179.55Z" fill="#187863"/>
<path opacity="0.3" d="M179.41 132.344C179.41 132.344 172.914 115.838 178.697 113.876C184.718 111.831 184.452 122.73 184.219 128.043C183.73 139.395 182.476 141.506 181.54 138.733L179.41 132.344ZM177.457 145.22C179.242 147.55 179.746 145.136 176.525 134.236C175.016 129.11 171.735 118.741 166.702 122.633C161.87 126.361 173.371 139.875 173.371 139.875L177.457 145.22ZM174.009 154.679C175.71 156.189 175.743 154.283 171.702 146.413C169.806 142.726 165.793 135.266 162.508 138.957C159.353 142.517 170.104 151.17 170.104 151.17L174.009 154.679ZM170.281 165.929C171.982 167.443 172.015 165.533 167.974 157.666C166.078 153.98 162.065 146.515 158.78 150.21C155.644 153.78 166.362 162.434 166.362 162.434L170.281 165.929ZM181.046 143.029C178.324 144.092 180.486 145.248 191.852 145.215C197.183 145.215 208.069 144.973 205.748 139.05C203.526 133.36 187.337 140.606 187.337 140.606L181.046 143.029ZM177.947 150.597C175.067 151.096 176.959 152.662 188.106 154.889C193.329 155.938 204.043 157.871 202.948 151.627C201.899 145.606 184.592 149.493 184.592 149.493L177.947 150.597ZM174.48 159.838C172.029 160.192 173.594 161.558 182.966 163.701C187.36 164.708 196.377 166.595 195.594 161.269C194.849 156.143 180.123 159.041 180.123 159.041L174.48 159.838ZM171.847 168.398C169.447 169.009 171.148 170.202 180.701 171.339C185.174 171.87 194.341 172.793 193.003 167.578C191.712 162.573 177.378 167.005 177.378 167.005L171.847 168.398ZM185.892 133.742C184.494 136.874 187.397 136.398 197.267 127.787C201.89 123.746 211.163 115.293 203.819 111.085C196.769 107.04 189.187 126.556 189.187 126.556L185.892 133.742ZM172.21 179.55C170.733 180.412 172.182 180.747 178.958 179.396C182.136 178.767 188.6 177.369 186.414 174.61C184.298 171.954 175.631 177.546 175.631 177.546L172.21 179.55Z" fill="white"/>
<path d="M182.276 140.028L181.144 121.188ZM178.692 146.245L171.535 130.042ZM197.165 141.533L180.011 143.994ZM174.983 154.978L165.696 143.062ZM176.614 151.324L189.41 151.967ZM173.585 160.462L183.371 161.432ZM171.222 166.269L166.362 158.957ZM170.663 168.85L182.169 168.958ZM168.333 190.436C168.41 190.43 168.482 190.393 168.533 190.335C168.583 190.277 168.609 190.2 168.604 190.123C167.872 179.135 172.122 161.138 178.939 146.366C183.296 136.925 200.375 118.369 200.557 118.182C200.612 118.127 200.643 118.053 200.643 117.975C200.643 117.897 200.612 117.823 200.557 117.767C200.53 117.74 200.498 117.719 200.463 117.704C200.428 117.69 200.39 117.682 200.352 117.682C200.314 117.682 200.276 117.69 200.241 117.704C200.206 117.719 200.174 117.74 200.147 117.767C199.975 117.954 182.826 136.58 178.431 146.105C171.488 161.236 167.294 178.907 168.04 190.161C168.045 190.235 168.079 190.304 168.133 190.355C168.187 190.406 168.259 190.435 168.333 190.436ZM182.271 140.317C182.348 140.312 182.42 140.277 182.472 140.22C182.523 140.162 182.55 140.087 182.546 140.01L181.432 121.16C181.431 121.122 181.421 121.084 181.405 121.049C181.388 121.015 181.365 120.984 181.336 120.958C181.308 120.932 181.274 120.913 181.238 120.9C181.202 120.888 181.163 120.883 181.125 120.885C181.048 120.89 180.976 120.925 180.924 120.982C180.873 121.04 180.846 121.115 180.85 121.193L181.982 140.033C181.986 140.107 182.018 140.177 182.072 140.228C182.126 140.279 182.197 140.308 182.271 140.308V140.317ZM178.795 146.51C178.865 146.479 178.919 146.421 178.947 146.35C178.975 146.278 178.974 146.199 178.944 146.128L171.782 129.925C171.751 129.855 171.693 129.8 171.621 129.772C171.55 129.744 171.47 129.745 171.4 129.776C171.329 129.807 171.274 129.865 171.246 129.937C171.218 130.008 171.219 130.088 171.25 130.158L178.408 146.361C178.431 146.413 178.468 146.458 178.515 146.489C178.562 146.52 178.617 146.538 178.674 146.538C178.722 146.541 178.77 146.531 178.814 146.51H178.795ZM180.034 144.274L197.179 141.822C197.22 141.822 197.261 141.812 197.298 141.794C197.336 141.777 197.369 141.751 197.396 141.72C197.423 141.688 197.443 141.651 197.454 141.612C197.466 141.572 197.469 141.53 197.463 141.489C197.458 141.448 197.444 141.409 197.422 141.373C197.4 141.338 197.371 141.308 197.336 141.285C197.302 141.262 197.263 141.247 197.222 141.24C197.181 141.233 197.14 141.234 197.099 141.245L179.955 143.696C179.879 143.701 179.807 143.736 179.756 143.794C179.706 143.851 179.68 143.927 179.685 144.003C179.69 144.08 179.725 144.151 179.783 144.202C179.84 144.253 179.916 144.279 179.993 144.274H180.034ZM175.146 155.211C175.207 155.163 175.247 155.093 175.256 155.016C175.266 154.939 175.245 154.862 175.197 154.801L165.905 142.862C165.858 142.8 165.788 142.759 165.71 142.749C165.633 142.739 165.555 142.76 165.493 142.808C165.431 142.856 165.391 142.926 165.381 143.003C165.371 143.08 165.392 143.159 165.439 143.22L174.75 155.178C174.777 155.213 174.812 155.241 174.851 155.26C174.891 155.28 174.934 155.29 174.978 155.29C175.048 155.286 175.114 155.258 175.165 155.211H175.146ZM189.667 151.981C189.669 151.904 189.641 151.829 189.589 151.772C189.537 151.716 189.464 151.682 189.387 151.678L176.614 151.031C176.542 151.036 176.475 151.067 176.424 151.118C176.374 151.169 176.344 151.238 176.341 151.309C176.338 151.381 176.361 151.452 176.406 151.508C176.451 151.564 176.515 151.601 176.586 151.613L189.382 152.261C189.46 152.263 189.535 152.235 189.591 152.183C189.648 152.131 189.682 152.058 189.685 151.981H189.667ZM183.641 161.46C183.646 161.421 183.643 161.382 183.632 161.345C183.621 161.308 183.603 161.274 183.579 161.244C183.554 161.214 183.524 161.189 183.49 161.171C183.456 161.153 183.419 161.142 183.38 161.138L173.594 160.173C173.556 160.17 173.518 160.173 173.482 160.184C173.445 160.195 173.411 160.214 173.382 160.238C173.352 160.262 173.328 160.292 173.31 160.326C173.292 160.36 173.281 160.396 173.277 160.434C173.271 160.511 173.295 160.587 173.343 160.646C173.392 160.705 173.462 160.743 173.538 160.751L183.324 161.721H183.352C183.428 161.726 183.502 161.701 183.559 161.653C183.617 161.604 183.653 161.535 183.66 161.46H183.641ZM171.362 166.511C171.427 166.468 171.472 166.402 171.488 166.326C171.504 166.25 171.489 166.171 171.446 166.106L166.609 158.794C166.565 158.731 166.498 158.688 166.422 158.673C166.347 158.658 166.268 158.673 166.204 158.715C166.139 158.758 166.094 158.824 166.078 158.9C166.062 158.976 166.077 159.055 166.12 159.12L170.957 166.432C170.984 166.472 171.021 166.505 171.064 166.527C171.107 166.55 171.155 166.562 171.204 166.562C171.267 166.566 171.329 166.548 171.381 166.511H171.362ZM182.462 168.958C182.461 168.881 182.431 168.808 182.377 168.753C182.323 168.698 182.25 168.666 182.173 168.664L170.668 168.557C170.591 168.557 170.518 168.587 170.464 168.641C170.409 168.696 170.379 168.769 170.379 168.846C170.378 168.884 170.384 168.923 170.398 168.958C170.412 168.994 170.433 169.027 170.46 169.055C170.487 169.082 170.52 169.104 170.555 169.118C170.591 169.133 170.629 169.14 170.668 169.139L182.173 169.247C182.213 169.248 182.252 169.242 182.289 169.229C182.326 169.215 182.36 169.194 182.388 169.167C182.417 169.14 182.44 169.108 182.456 169.072C182.472 169.036 182.48 168.997 182.481 168.958H182.462ZM167.024 186.162C167.047 186.111 169.009 180.705 174.908 179.415C174.984 179.398 175.051 179.352 175.093 179.286C175.135 179.221 175.149 179.141 175.132 179.065C175.113 178.991 175.066 178.926 175.001 178.885C174.936 178.845 174.858 178.831 174.783 178.846C168.562 180.207 166.497 185.915 166.474 185.971C166.45 186.045 166.455 186.125 166.489 186.194C166.523 186.264 166.583 186.318 166.656 186.344H166.749C166.811 186.349 166.873 186.335 166.926 186.302C166.979 186.269 167.02 186.22 167.042 186.162H167.024ZM168.333 190.436C168.41 190.43 168.482 190.393 168.533 190.335C168.583 190.277 168.609 190.2 168.604 190.123C167.872 179.135 172.122 161.138 178.939 146.366C183.296 136.925 200.375 118.369 200.557 118.182C200.612 118.127 200.643 118.053 200.643 117.975C200.643 117.897 200.612 117.823 200.557 117.767C200.53 117.74 200.498 117.719 200.463 117.704C200.428 117.69 200.39 117.682 200.352 117.682C200.314 117.682 200.276 117.69 200.241 117.704C200.206 117.719 200.174 117.74 200.147 117.767C199.975 117.954 182.826 136.58 178.431 146.105C171.488 161.236 167.294 178.907 168.04 190.161C168.045 190.235 168.079 190.304 168.133 190.355C168.187 190.406 168.259 190.435 168.333 190.436ZM182.271 140.317C182.348 140.312 182.42 140.277 182.472 140.22C182.523 140.162 182.55 140.087 182.546 140.01L181.432 121.16C181.431 121.122 181.421 121.084 181.405 121.049C181.388 121.015 181.365 120.984 181.336 120.958C181.308 120.932 181.274 120.913 181.238 120.9C181.202 120.888 181.163 120.883 181.125 120.885C181.048 120.89 180.976 120.925 180.924 120.982C180.873 121.04 180.846 121.115 180.85 121.193L181.982 140.033C181.986 140.107 182.018 140.177 182.072 140.228C182.126 140.279 182.197 140.308 182.271 140.308V140.317ZM178.795 146.51C178.865 146.479 178.919 146.421 178.947 146.35C178.975 146.278 178.974 146.199 178.944 146.128L171.782 129.925C171.751 129.855 171.693 129.8 171.621 129.772C171.55 129.744 171.47 129.745 171.4 129.776C171.329 129.807 171.274 129.865 171.246 129.937C171.218 130.008 171.219 130.088 171.25 130.158L178.408 146.361C178.431 146.413 178.468 146.458 178.515 146.489C178.562 146.52 178.617 146.538 178.674 146.538C178.722 146.541 178.77 146.531 178.814 146.51H178.795ZM180.034 144.274L197.179 141.822C197.22 141.822 197.261 141.812 197.298 141.794C197.336 141.777 197.369 141.751 197.396 141.72C197.423 141.688 197.443 141.651 197.454 141.612C197.466 141.572 197.469 141.53 197.463 141.489C197.458 141.448 197.444 141.409 197.422 141.373C197.4 141.338 197.371 141.308 197.336 141.285C197.302 141.262 197.263 141.247 197.222 141.24C197.181 141.233 197.14 141.234 197.099 141.245L179.955 143.696C179.879 143.701 179.807 143.736 179.756 143.794C179.706 143.851 179.68 143.927 179.685 144.003C179.69 144.08 179.725 144.151 179.783 144.202C179.84 144.253 179.916 144.279 179.993 144.274H180.034ZM175.146 155.211C175.207 155.163 175.247 155.093 175.256 155.016C175.266 154.939 175.245 154.862 175.197 154.801L165.905 142.862C165.882 142.831 165.852 142.805 165.819 142.786C165.785 142.767 165.749 142.754 165.71 142.749C165.672 142.744 165.633 142.747 165.596 142.757C165.559 142.767 165.524 142.784 165.493 142.808C165.462 142.832 165.437 142.861 165.417 142.894C165.398 142.928 165.386 142.965 165.381 143.003C165.376 143.041 165.378 143.08 165.388 143.118C165.399 143.155 165.416 143.19 165.439 143.22L174.75 155.178C174.777 155.213 174.812 155.241 174.851 155.26C174.891 155.28 174.934 155.29 174.978 155.29C175.048 155.286 175.114 155.258 175.165 155.211H175.146ZM189.667 151.981C189.669 151.904 189.641 151.829 189.589 151.772C189.537 151.716 189.464 151.682 189.387 151.678L176.614 151.031C176.542 151.036 176.475 151.067 176.424 151.118C176.374 151.169 176.344 151.238 176.341 151.309C176.338 151.381 176.361 151.452 176.406 151.508C176.451 151.564 176.515 151.601 176.586 151.613L189.382 152.261C189.46 152.263 189.535 152.235 189.591 152.183C189.648 152.131 189.682 152.058 189.685 151.981H189.667ZM183.641 161.46C183.646 161.421 183.643 161.382 183.632 161.345C183.621 161.308 183.603 161.274 183.579 161.244C183.554 161.214 183.524 161.189 183.49 161.171C183.456 161.153 183.419 161.142 183.38 161.138L173.594 160.173C173.556 160.17 173.518 160.173 173.482 160.184C173.445 160.195 173.411 160.214 173.382 160.238C173.352 160.262 173.328 160.292 173.31 160.326C173.292 160.36 173.281 160.396 173.277 160.434C173.271 160.511 173.295 160.587 173.343 160.646C173.392 160.705 173.462 160.743 173.538 160.751L183.324 161.721H183.352C183.428 161.726 183.502 161.701 183.559 161.653C183.617 161.604 183.653 161.535 183.66 161.46H183.641ZM171.362 166.511C171.427 166.468 171.472 166.402 171.488 166.326C171.504 166.25 171.489 166.171 171.446 166.106L166.609 158.794C166.565 158.731 166.498 158.688 166.422 158.673C166.347 158.658 166.268 158.673 166.204 158.715C166.139 158.758 166.094 158.824 166.078 158.9C166.062 158.976 166.077 159.055 166.12 159.12L170.957 166.432C170.984 166.472 171.021 166.505 171.064 166.527C171.107 166.55 171.155 166.562 171.204 166.562C171.267 166.566 171.329 166.548 171.381 166.511H171.362ZM182.462 168.958C182.461 168.881 182.431 168.808 182.377 168.753C182.323 168.698 182.25 168.666 182.173 168.664L170.668 168.557C170.591 168.557 170.518 168.587 170.464 168.641C170.409 168.696 170.379 168.769 170.379 168.846C170.378 168.884 170.384 168.923 170.398 168.958C170.412 168.994 170.433 169.027 170.46 169.055C170.487 169.082 170.52 169.104 170.555 169.118C170.591 169.133 170.629 169.14 170.668 169.139L182.173 169.247C182.213 169.248 182.252 169.242 182.289 169.229C182.326 169.215 182.36 169.194 182.388 169.167C182.417 169.14 182.44 169.108 182.456 169.072C182.472 169.036 182.48 168.997 182.481 168.958H182.462ZM167.024 186.162C167.047 186.111 169.009 180.705 174.908 179.415C174.984 179.398 175.051 179.352 175.093 179.286C175.135 179.221 175.149 179.141 175.132 179.065C175.113 178.991 175.066 178.926 175.001 178.885C174.936 178.845 174.858 178.831 174.783 178.846C168.562 180.207 166.497 185.915 166.474 185.971C166.45 186.045 166.455 186.125 166.489 186.194C166.523 186.264 166.583 186.318 166.656 186.344H166.749C166.811 186.349 166.873 186.335 166.926 186.302C166.979 186.269 167.02 186.22 167.042 186.162H167.024Z" fill="#187863"/>
<path opacity="0.2" d="M182.276 140.028L181.144 121.188ZM178.692 146.245L171.535 130.042ZM197.165 141.533L180.011 143.994ZM174.983 154.978L165.696 143.062ZM176.614 151.324L189.41 151.967ZM173.585 160.462L183.371 161.432ZM171.222 166.269L166.362 158.957ZM170.663 168.85L182.169 168.958ZM168.333 190.436C168.41 190.43 168.482 190.393 168.533 190.335C168.583 190.277 168.609 190.2 168.604 190.123C167.872 179.135 172.122 161.138 178.939 146.366C183.296 136.925 200.375 118.369 200.557 118.182C200.612 118.127 200.643 118.053 200.643 117.975C200.643 117.897 200.612 117.823 200.557 117.767C200.53 117.74 200.498 117.719 200.463 117.704C200.428 117.69 200.39 117.682 200.352 117.682C200.314 117.682 200.276 117.69 200.241 117.704C200.206 117.719 200.174 117.74 200.147 117.767C199.975 117.954 182.826 136.58 178.431 146.105C171.488 161.236 167.294 178.907 168.04 190.161C168.045 190.235 168.079 190.304 168.133 190.355C168.187 190.406 168.259 190.435 168.333 190.436ZM182.271 140.317C182.348 140.312 182.42 140.277 182.472 140.22C182.523 140.162 182.55 140.087 182.546 140.01L181.432 121.16C181.431 121.122 181.421 121.084 181.405 121.049C181.388 121.015 181.365 120.984 181.336 120.958C181.308 120.932 181.274 120.913 181.238 120.9C181.202 120.888 181.163 120.883 181.125 120.885C181.048 120.89 180.976 120.925 180.924 120.982C180.873 121.04 180.846 121.115 180.85 121.193L181.982 140.033C181.986 140.107 182.018 140.177 182.072 140.228C182.126 140.279 182.197 140.308 182.271 140.308V140.317ZM178.795 146.51C178.865 146.479 178.919 146.421 178.947 146.35C178.975 146.278 178.974 146.199 178.944 146.128L171.782 129.925C171.751 129.855 171.693 129.8 171.621 129.772C171.55 129.744 171.47 129.745 171.4 129.776C171.329 129.807 171.274 129.865 171.246 129.937C171.218 130.008 171.219 130.088 171.25 130.158L178.408 146.361C178.431 146.413 178.468 146.458 178.515 146.489C178.562 146.52 178.617 146.538 178.674 146.538C178.722 146.541 178.77 146.531 178.814 146.51H178.795ZM180.034 144.274L197.179 141.822C197.22 141.822 197.261 141.812 197.298 141.794C197.336 141.777 197.369 141.751 197.396 141.72C197.423 141.688 197.443 141.651 197.454 141.612C197.466 141.572 197.469 141.53 197.463 141.489C197.458 141.448 197.444 141.409 197.422 141.373C197.4 141.338 197.371 141.308 197.336 141.285C197.302 141.262 197.263 141.247 197.222 141.24C197.181 141.233 197.14 141.234 197.099 141.245L179.955 143.696C179.879 143.701 179.807 143.736 179.756 143.794C179.706 143.851 179.68 143.927 179.685 144.003C179.69 144.08 179.725 144.151 179.783 144.202C179.84 144.253 179.916 144.279 179.993 144.274H180.034ZM175.146 155.211C175.207 155.163 175.247 155.093 175.256 155.016C175.266 154.939 175.245 154.862 175.197 154.801L165.905 142.862C165.858 142.8 165.788 142.759 165.71 142.749C165.633 142.739 165.555 142.76 165.493 142.808C165.431 142.856 165.391 142.926 165.381 143.003C165.371 143.08 165.392 143.159 165.439 143.22L174.75 155.178C174.777 155.213 174.812 155.241 174.851 155.26C174.891 155.28 174.934 155.29 174.978 155.29C175.048 155.286 175.114 155.258 175.165 155.211H175.146ZM189.667 151.981C189.669 151.904 189.641 151.829 189.589 151.772C189.537 151.716 189.464 151.682 189.387 151.678L176.614 151.031C176.542 151.036 176.475 151.067 176.424 151.118C176.374 151.169 176.344 151.238 176.341 151.309C176.338 151.381 176.361 151.452 176.406 151.508C176.451 151.564 176.515 151.601 176.586 151.613L189.382 152.261C189.46 152.263 189.535 152.235 189.591 152.183C189.648 152.131 189.682 152.058 189.685 151.981H189.667ZM183.641 161.46C183.646 161.421 183.643 161.382 183.632 161.345C183.621 161.308 183.603 161.274 183.579 161.244C183.554 161.214 183.524 161.189 183.49 161.171C183.456 161.153 183.419 161.142 183.38 161.138L173.594 160.173C173.556 160.17 173.518 160.173 173.482 160.184C173.445 160.195 173.411 160.214 173.382 160.238C173.352 160.262 173.328 160.292 173.31 160.326C173.292 160.36 173.281 160.396 173.277 160.434C173.271 160.511 173.295 160.587 173.343 160.646C173.392 160.705 173.462 160.743 173.538 160.751L183.324 161.721H183.352C183.428 161.726 183.502 161.701 183.559 161.653C183.617 161.604 183.653 161.535 183.66 161.46H183.641ZM171.362 166.511C171.427 166.468 171.472 166.402 171.488 166.326C171.504 166.25 171.489 166.171 171.446 166.106L166.609 158.794C166.565 158.731 166.498 158.688 166.422 158.673C166.347 158.658 166.268 158.673 166.204 158.715C166.139 158.758 166.094 158.824 166.078 158.9C166.062 158.976 166.077 159.055 166.12 159.12L170.957 166.432C170.984 166.472 171.021 166.505 171.064 166.527C171.107 166.55 171.155 166.562 171.204 166.562C171.267 166.566 171.329 166.548 171.381 166.511H171.362ZM182.462 168.958C182.461 168.881 182.431 168.808 182.377 168.753C182.323 168.698 182.25 168.666 182.173 168.664L170.668 168.557C170.591 168.557 170.518 168.587 170.464 168.641C170.409 168.696 170.379 168.769 170.379 168.846C170.378 168.884 170.384 168.923 170.398 168.958C170.412 168.994 170.433 169.027 170.46 169.055C170.487 169.082 170.52 169.104 170.555 169.118C170.591 169.133 170.629 169.14 170.668 169.139L182.173 169.247C182.213 169.248 182.252 169.242 182.289 169.229C182.326 169.215 182.36 169.194 182.388 169.167C182.417 169.14 182.44 169.108 182.456 169.072C182.472 169.036 182.48 168.997 182.481 168.958H182.462ZM167.024 186.162C167.047 186.111 169.009 180.705 174.908 179.415C174.984 179.398 175.051 179.352 175.093 179.286C175.135 179.221 175.149 179.141 175.132 179.065C175.113 178.991 175.066 178.926 175.001 178.885C174.936 178.845 174.858 178.831 174.783 178.846C168.562 180.207 166.497 185.915 166.474 185.971C166.45 186.045 166.455 186.125 166.489 186.194C166.523 186.264 166.583 186.318 166.656 186.344H166.749C166.811 186.349 166.873 186.335 166.926 186.302C166.979 186.269 167.02 186.22 167.042 186.162H167.024ZM168.333 190.436C168.41 190.43 168.482 190.393 168.533 190.335C168.583 190.277 168.609 190.2 168.604 190.123C167.872 179.135 172.122 161.138 178.939 146.366C183.296 136.925 200.375 118.369 200.557 118.182C200.612 118.127 200.643 118.053 200.643 117.975C200.643 117.897 200.612 117.823 200.557 117.767C200.53 117.74 200.498 117.719 200.463 117.704C200.428 117.69 200.39 117.682 200.352 117.682C200.314 117.682 200.276 117.69 200.241 117.704C200.206 117.719 200.174 117.74 200.147 117.767C199.975 117.954 182.826 136.58 178.431 146.105C171.488 161.236 167.294 178.907 168.04 190.161C168.045 190.235 168.079 190.304 168.133 190.355C168.187 190.406 168.259 190.435 168.333 190.436ZM182.271 140.317C182.348 140.312 182.42 140.277 182.472 140.22C182.523 140.162 182.55 140.087 182.546 140.01L181.432 121.16C181.431 121.122 181.421 121.084 181.405 121.049C181.388 121.015 181.365 120.984 181.336 120.958C181.308 120.932 181.274 120.913 181.238 120.9C181.202 120.888 181.163 120.883 181.125 120.885C181.048 120.89 180.976 120.925 180.924 120.982C180.873 121.04 180.846 121.115 180.85 121.193L181.982 140.033C181.986 140.107 182.018 140.177 182.072 140.228C182.126 140.279 182.197 140.308 182.271 140.308V140.317ZM178.795 146.51C178.865 146.479 178.919 146.421 178.947 146.35C178.975 146.278 178.974 146.199 178.944 146.128L171.782 129.925C171.751 129.855 171.693 129.8 171.621 129.772C171.55 129.744 171.47 129.745 171.4 129.776C171.329 129.807 171.274 129.865 171.246 129.937C171.218 130.008 171.219 130.088 171.25 130.158L178.408 146.361C178.431 146.413 178.468 146.458 178.515 146.489C178.562 146.52 178.617 146.538 178.674 146.538C178.722 146.541 178.77 146.531 178.814 146.51H178.795ZM180.034 144.274L197.179 141.822C197.22 141.822 197.261 141.812 197.298 141.794C197.336 141.777 197.369 141.751 197.396 141.72C197.423 141.688 197.443 141.651 197.454 141.612C197.466 141.572 197.469 141.53 197.463 141.489C197.458 141.448 197.444 141.409 197.422 141.373C197.4 141.338 197.371 141.308 197.336 141.285C197.302 141.262 197.263 141.247 197.222 141.24C197.181 141.233 197.14 141.234 197.099 141.245L179.955 143.696C179.879 143.701 179.807 143.736 179.756 143.794C179.706 143.851 179.68 143.927 179.685 144.003C179.69 144.08 179.725 144.151 179.783 144.202C179.84 144.253 179.916 144.279 179.993 144.274H180.034ZM175.146 155.211C175.207 155.163 175.247 155.093 175.256 155.016C175.266 154.939 175.245 154.862 175.197 154.801L165.905 142.862C165.882 142.831 165.852 142.805 165.819 142.786C165.785 142.767 165.749 142.754 165.71 142.749C165.672 142.744 165.633 142.747 165.596 142.757C165.559 142.767 165.524 142.784 165.493 142.808C165.462 142.832 165.437 142.861 165.417 142.894C165.398 142.928 165.386 142.965 165.381 143.003C165.376 143.041 165.378 143.08 165.388 143.118C165.399 143.155 165.416 143.19 165.439 143.22L174.75 155.178C174.777 155.213 174.812 155.241 174.851 155.26C174.891 155.28 174.934 155.29 174.978 155.29C175.048 155.286 175.114 155.258 175.165 155.211H175.146ZM189.667 151.981C189.669 151.904 189.641 151.829 189.589 151.772C189.537 151.716 189.464 151.682 189.387 151.678L176.614 151.031C176.542 151.036 176.475 151.067 176.424 151.118C176.374 151.169 176.344 151.238 176.341 151.309C176.338 151.381 176.361 151.452 176.406 151.508C176.451 151.564 176.515 151.601 176.586 151.613L189.382 152.261C189.46 152.263 189.535 152.235 189.591 152.183C189.648 152.131 189.682 152.058 189.685 151.981H189.667ZM183.641 161.46C183.646 161.421 183.643 161.382 183.632 161.345C183.621 161.308 183.603 161.274 183.579 161.244C183.554 161.214 183.524 161.189 183.49 161.171C183.456 161.153 183.419 161.142 183.38 161.138L173.594 160.173C173.556 160.17 173.518 160.173 173.482 160.184C173.445 160.195 173.411 160.214 173.382 160.238C173.352 160.262 173.328 160.292 173.31 160.326C173.292 160.36 173.281 160.396 173.277 160.434C173.271 160.511 173.295 160.587 173.343 160.646C173.392 160.705 173.462 160.743 173.538 160.751L183.324 161.721H183.352C183.428 161.726 183.502 161.701 183.559 161.653C183.617 161.604 183.653 161.535 183.66 161.46H183.641ZM171.362 166.511C171.427 166.468 171.472 166.402 171.488 166.326C171.504 166.25 171.489 166.171 171.446 166.106L166.609 158.794C166.565 158.731 166.498 158.688 166.422 158.673C166.347 158.658 166.268 158.673 166.204 158.715C166.139 158.758 166.094 158.824 166.078 158.9C166.062 158.976 166.077 159.055 166.12 159.12L170.957 166.432C170.984 166.472 171.021 166.505 171.064 166.527C171.107 166.55 171.155 166.562 171.204 166.562C171.267 166.566 171.329 166.548 171.381 166.511H171.362ZM182.462 168.958C182.461 168.881 182.431 168.808 182.377 168.753C182.323 168.698 182.25 168.666 182.173 168.664L170.668 168.557C170.591 168.557 170.518 168.587 170.464 168.641C170.409 168.696 170.379 168.769 170.379 168.846C170.378 168.884 170.384 168.923 170.398 168.958C170.412 168.994 170.433 169.027 170.46 169.055C170.487 169.082 170.52 169.104 170.555 169.118C170.591 169.133 170.629 169.14 170.668 169.139L182.173 169.247C182.213 169.248 182.252 169.242 182.289 169.229C182.326 169.215 182.36 169.194 182.388 169.167C182.417 169.14 182.44 169.108 182.456 169.072C182.472 169.036 182.48 168.997 182.481 168.958H182.462ZM167.024 186.162C167.047 186.111 169.009 180.705 174.908 179.415C174.984 179.398 175.051 179.352 175.093 179.286C175.135 179.221 175.149 179.141 175.132 179.065C175.113 178.991 175.066 178.926 175.001 178.885C174.936 178.845 174.858 178.831 174.783 178.846C168.562 180.207 166.497 185.915 166.474 185.971C166.45 186.045 166.455 186.125 166.489 186.194C166.523 186.264 166.583 186.318 166.656 186.344H166.749C166.811 186.349 166.873 186.335 166.926 186.302C166.979 186.269 167.02 186.22 167.042 186.162H167.024Z" fill="black"/>
<path d="M175.943 182.22H162.75V184.951H163.902L166.283 199.849H172.411L174.792 184.951H175.943V182.22Z" fill="#187863"/>
<path opacity="0.3" d="M175.943 182.22H162.75V184.951H163.902L166.283 199.849H172.411L174.792 184.951H175.943V182.22Z" fill="white"/>
<path d="M57.1689 99.6444L41.8235 94.6349L40.4581 91.0281L37.3406 90.9302L31.6833 89.8584L32.3637 91.0281L39.4842 96.196L41.241 97.0721L57.2901 105.455L57.1689 99.6444Z" fill="white" stroke="#263238" stroke-width="1.00396" stroke-miterlimit="10"/>
<path d="M40.4581 91.0284L38.9949 90.1523L36.0731 91.2241L36.5577 91.8066L40.4581 91.0284Z" fill="white" stroke="#263238" stroke-width="1.00396" stroke-linejoin="round"/>
<path d="M57.1689 99.6444L41.8235 94.6349L40.4581 91.0281L37.3406 90.9302L31.6833 89.8584L32.3637 91.0281L39.4842 96.196L41.241 97.0721L57.2901 105.455L57.1689 99.6444Z" fill="white"/>
<mask id="mask0_464_345" style="mask-type:luminance" maskUnits="userSpaceOnUse" x="31" y="89" width="27" height="17">
<path d="M57.1689 99.6444L41.8235 94.6349L40.4581 91.0281L37.3406 90.9302L31.6833 89.8584L32.3637 91.0281L39.4842 96.196L41.241 97.0721L57.2901 105.455L57.1689 99.6444Z" fill="white"/>
</mask>
<g mask="url(#mask0_464_345)">
<path opacity="0.5" d="M57.1689 99.6444L41.8235 94.6349L40.4581 91.0281L37.3406 90.9302L31.6833 89.8584L32.3637 91.0281L39.4842 96.196L41.241 97.0721L57.2901 105.455L57.1689 99.6444Z" fill="#187863" stroke="#263238" stroke-width="1.00396" stroke-miterlimit="10"/>
</g>
<path d="M57.1689 99.6444L41.8235 94.6349L40.4581 91.0281L37.3406 90.9302L31.6833 89.8584L32.3637 91.0281L39.4842 96.196L41.241 97.0721L57.2901 105.455L57.1689 99.6444Z" stroke="#263238" stroke-width="1.00396" stroke-miterlimit="10"/>
<path d="M40.4581 91.0284L38.9949 90.1523L36.0731 91.2241L36.5577 91.8066L40.4581 91.0284Z" fill="white"/>
<mask id="mask1_464_345" style="mask-type:luminance" maskUnits="userSpaceOnUse" x="36" y="90" width="5" height="2">
<path d="M40.4581 91.0284L38.9949 90.1523L36.0731 91.2241L36.5577 91.8066L40.4581 91.0284Z" fill="white"/>
</mask>
<g mask="url(#mask1_464_345)">
<path opacity="0.5" d="M40.4581 91.0284L38.9949 90.1523L36.0731 91.2241L36.5577 91.8066L40.4581 91.0284Z" fill="#187863" stroke="#263238" stroke-width="1.00396" stroke-linejoin="round"/>
</g>
<path d="M40.4581 91.0284L38.9949 90.1523L36.0731 91.2241L36.5577 91.8066L40.4581 91.0284Z" stroke="#263238" stroke-width="1.00396" stroke-linejoin="round"/>
<path d="M60.4262 67.1317C60.4262 67.1317 60.1886 69.2287 60.7804 70.5754C61.3722 71.9221 64.6575 76.4843 64.6575 76.4843L58.525 81.4006C58.525 81.4006 55.9806 76.2746 55.496 75.4451C55.0113 74.6156 54.4288 71.0461 56.0086 68.4877C57.5883 65.9294 59.8624 65.2397 60.4262 67.1317Z" fill="white"/>
<mask id="mask2_464_345" style="mask-type:luminance" maskUnits="userSpaceOnUse" x="54" y="66" width="11" height="16">
<path d="M60.4262 67.1317C60.4262 67.1317 60.1886 69.2287 60.7804 70.5754C61.3722 71.9221 64.6575 76.4843 64.6575 76.4843L58.525 81.4006C58.525 81.4006 55.9806 76.2746 55.496 75.4451C55.0113 74.6156 54.4288 71.0461 56.0086 68.4877C57.5883 65.9294 59.8624 65.2397 60.4262 67.1317Z" fill="white"/>
</mask>
<g mask="url(#mask2_464_345)">
<g style="mix-blend-mode:multiply" opacity="0.5">
<path d="M57.2761 73.8701L59.9369 79.3876L58.5203 81.4053L55.8455 76.6288L57.2761 73.8701Z" fill="#187863"/>
</g>
</g>
<path d="M60.4262 67.1317C60.4262 67.1317 60.1886 69.2287 60.7804 70.5754C61.3722 71.9221 64.6575 76.4843 64.6575 76.4843L58.525 81.4006C58.525 81.4006 55.9806 76.2746 55.496 75.4451C55.0113 74.6156 54.4288 71.0461 56.0086 68.4877C57.5883 65.9294 59.8624 65.2397 60.4262 67.1317Z" stroke="#263238" stroke-width="1.00396" stroke-miterlimit="10"/>
<path d="M62.3275 63.292C61.95 60.962 59.2798 56.2228 55.0439 56.4045C52.2945 56.5257 51.0083 57.0802 49.8154 57.7559C48.843 58.3288 47.9366 59.007 47.1126 59.7783C45.0435 62.2621 44.3166 62.9425 44.7173 64.8438C44.6845 65.6021 44.8033 66.3594 45.0668 67.0712C45.7006 68.7628 46.134 69.8672 46.6839 70.6734C46.5161 71.461 46.0781 73.5393 46.0548 74.0146C46.0315 74.49 47.4528 74.1591 48.1704 73.9774C49.5032 76.9598 51.945 79.0288 52.7046 79.2665C54.028 79.6812 56.1204 77.505 57.2294 75.8181C58.3385 74.1311 57.4997 72.2345 57.5044 71.4796C57.509 70.7247 59.9975 69.0657 60.9202 68.5391C61.8428 68.0126 62.7003 65.6173 62.3275 63.292Z" fill="white"/>
<mask id="mask3_464_345" style="mask-type:luminance" maskUnits="userSpaceOnUse" x="44" y="56" width="19" height="24">
<path d="M62.3275 63.292C61.95 60.962 59.2798 56.2228 55.0439 56.4045C52.2945 56.5257 51.0083 57.0802 49.8154 57.7559C48.843 58.3288 47.9366 59.007 47.1126 59.7783C45.0435 62.2621 44.3166 62.9425 44.7173 64.8438C44.6845 65.6021 44.8033 66.3594 45.0668 67.0712C45.7006 68.7628 46.134 69.8672 46.6839 70.6734C46.5161 71.461 46.0781 73.5393 46.0548 74.0146C46.0315 74.49 47.4528 74.1591 48.1704 73.9774C49.5032 76.9598 51.945 79.0288 52.7046 79.2665C54.028 79.6812 56.1204 77.505 57.2294 75.8181C58.3385 74.1311 57.4997 72.2345 57.5044 71.4796C57.509 70.7247 59.9975 69.0657 60.9202 68.5391C61.8428 68.0126 62.7003 65.6173 62.3275 63.292Z" fill="white"/>
</mask>
<g mask="url(#mask3_464_345)">
<g style="mix-blend-mode:multiply" opacity="0.5">
<path d="M44.736 64.8438C44.7031 65.6021 44.8219 66.3594 45.0855 67.0713C45.7193 68.7628 46.1526 69.8673 46.7025 70.6734C46.5348 71.461 46.0967 73.5393 46.0734 74.0147C46.0501 74.49 47.4714 74.1591 48.1891 73.9774C49.5218 76.9598 51.9637 79.0288 52.7232 79.2665C54.0467 79.6812 56.139 77.505 57.2481 75.8181C57.5252 75.3969 57.7051 74.9194 57.7747 74.4201C57.7141 74.2011 57.6722 74.0659 57.6722 74.0659C57.6722 74.0659 57.0477 76.4658 55.8082 76.1536C54.5686 75.8414 52.672 73.3576 51.6142 72.5002C50.5563 71.6427 50.9897 70.515 50.78 69.2382C50.5703 67.9613 47.4388 66.8383 47.2291 66.1066C47.0194 65.375 47.751 62.346 47.751 62.346C47.751 62.346 48.9393 60.7616 48.683 61.414C48.5019 61.9797 48.4362 62.576 48.4898 63.1676C48.5434 63.7591 48.7153 64.3339 48.9952 64.8578C49.1917 65.2711 49.5033 65.619 49.8926 65.8596C50.282 66.1001 50.7325 66.2231 51.1901 66.2138L52.3271 60.5799L49.9272 58.5947L47.1312 59.7597C45.0436 62.2621 44.3306 62.9425 44.736 64.8438Z" fill="#187863"/>
</g>
</g>
<path d="M62.3275 63.292C61.95 60.962 59.2798 56.2228 55.0439 56.4045C52.2945 56.5257 51.0083 57.0802 49.8154 57.7559C48.843 58.3288 47.9366 59.007 47.1126 59.7783C45.0435 62.2621 44.3166 62.9425 44.7173 64.8438C44.6845 65.6021 44.8033 66.3594 45.0668 67.0712C45.7006 68.7628 46.134 69.8672 46.6839 70.6734C46.5161 71.461 46.0781 73.5393 46.0548 74.0146C46.0315 74.49 47.4528 74.1591 48.1704 73.9774C49.5032 76.9598 51.945 79.0288 52.7046 79.2665C54.028 79.6812 56.1204 77.505 57.2294 75.8181C58.3385 74.1311 57.4997 72.2345 57.5044 71.4796C57.509 70.7247 59.9975 69.0657 60.9202 68.5391C61.8428 68.0126 62.7003 65.6173 62.3275 63.292Z" stroke="#263238" stroke-miterlimit="10"/>
<path d="M47.2617 69.2661L47.7277 70.5989C47.7277 70.5989 48.7296 70.9297 49.9505 69.597" stroke="#263238" stroke-miterlimit="10" stroke-linecap="round"/>
<path d="M50.7054 75.4915C50.7054 75.4915 51.8145 75.3797 52.2619 73.8232" stroke="#263238" stroke-miterlimit="10" stroke-linecap="round"/>
<path d="M46.4835 68.1523C46.4835 68.1523 46.8144 67.1504 48.8135 67.1504" stroke="#263238" stroke-miterlimit="10" stroke-linecap="round"/>
<path d="M56.7308 54.5497C55.2782 54.3408 53.8133 54.2287 52.3458 54.2142C52.3458 54.2142 47.9561 51.6838 43.7388 54.382C39.5215 57.0801 41.5486 61.8053 41.5486 62.9843C41.5486 64.1633 40.1972 64.168 41.0406 65.6871C41.8841 67.2063 44.736 66.3675 44.736 66.3675C44.7661 65.7945 44.9175 65.2345 45.1802 64.7243C45.4429 64.2142 45.8109 63.7657 46.2598 63.4084C47.779 62.2294 48.9906 61.9731 49.4939 62.3133C49.4939 62.3133 49.1583 64.8437 49.6616 65.8549C49.6616 65.8549 51.3485 66.6983 51.8565 66.6983C52.3644 66.6983 51.5256 67.4113 53.2079 68.0451C53.5144 68.1552 53.8422 68.1927 54.1656 68.1547C54.489 68.1167 54.7992 68.0042 55.0719 67.8261C55.3189 66.8009 55.8594 65.2584 56.866 65.6172C58.3432 66.1438 59.6899 69.7786 57.6908 71.0182C60.0954 71.4562 63.0079 67.2016 63.1803 63.3245C63.3527 59.4474 59.2286 54.9878 56.7308 54.5497Z" fill="#263238"/>
<path d="M49.5684 60.6497C49.5684 60.6497 50.808 59.9833 52.3271 61.4093C53.8463 62.8352 56.8007 64.7411 60.7151 63.6926" stroke="white" stroke-width="0.5" stroke-linecap="round" stroke-linejoin="round"/>
<path d="M49.396 59.5081C49.396 59.5081 50.2488 58.1753 51.6747 58.1753C53.1007 58.1753 56.4326 60.1744 59.0935 60.1744" stroke="white" stroke-width="0.5" stroke-linecap="round" stroke-linejoin="round"/>
<path d="M48.4267 62.0757C48.4267 62.0757 46.8097 60.0813 45.2905 61.6983C43.7714 63.3153 44.736 64.8438 44.736 64.8438" stroke="white" stroke-width="0.5" stroke-linecap="round" stroke-linejoin="round"/>
<path d="M41.9633 63.4082C42.89 62.5726 43.466 61.4172 43.5757 60.1742C43.7667 58.0819 46.6233 56.2738 48.4267 57.9887" stroke="white" stroke-width="0.5" stroke-linecap="round" stroke-linejoin="round"/>
<path d="M44.9084 55.7986C44.9084 55.7986 47.765 53.0399 50.1416 56.5582" stroke="white" stroke-width="0.5" stroke-linecap="round" stroke-linejoin="round"/>
<path d="M68.1572 191.437C68.1572 191.437 69.914 194.168 69.7183 195.925L69.5272 197.681C69.5272 197.681 63.0824 199.448 61.7171 199.448C60.3517 199.448 53.124 198.763 53.124 198.763L52.8118 197.523C52.79 197.431 52.8003 197.335 52.841 197.25C52.8817 197.165 52.9504 197.097 53.0355 197.057L59.4803 194.051L61.512 191.828L68.1572 191.437Z" fill="white" stroke="#263238" stroke-width="1.00396" stroke-miterlimit="10"/>
<path d="M62.6956 198.073C64.4431 198.208 67.7611 197.141 69.6856 196.461L69.5505 197.682C69.5505 197.682 63.0824 199.448 61.7171 199.448C60.3517 199.448 53.124 198.763 53.124 198.763L52.9003 197.878C54.056 197.882 60.3843 197.896 62.6956 198.073Z" fill="#187863" stroke="#263238" stroke-width="1.00396" stroke-miterlimit="10"/>
<path d="M59.4896 194.051L50.109 198.134C50.109 198.134 49.3075 200.142 50.109 200.543C50.9105 200.944 68.3855 200.543 68.3855 200.543C68.3855 200.543 69.5924 197.369 67.6865 195.24C65.7806 193.11 59.4896 194.051 59.4896 194.051Z" fill="white" stroke="#263238" stroke-width="1.00396" stroke-miterlimit="10"/>
<path d="M68.3855 200.543C68.3855 200.543 50.9105 200.944 50.109 200.543C49.7222 200.347 49.7082 199.783 49.7968 199.248H68.6931C68.6313 199.688 68.5283 200.122 68.3855 200.543Z" fill="#187863" stroke="#263238" stroke-width="1.00396" stroke-miterlimit="10"/>
<path d="M55.0533 123.122C55.0533 123.122 52.6021 133.984 51.6748 140.778C50.7474 147.573 50.2022 161.185 50.3979 162.746C50.5936 164.307 60.3517 190.463 60.3517 190.463L61.3256 192.793L68.1572 191.428C68.1572 191.428 65.035 181.474 63.8653 176.008C62.6957 170.542 60.1373 161.562 60.1373 160.001C60.1373 158.44 66.1953 128.625 66.6287 126.668C67.0621 124.711 69.0286 121.705 69.0286 121.705L55.948 121.439L55.0533 123.122Z" fill="#187863" stroke="#263238" stroke-width="1.00396" stroke-miterlimit="10"/>
<path d="M55.0533 123.122C55.0533 123.122 53.618 133.043 54.2098 139.94C54.8016 146.836 56.0738 161.52 56.0738 163.706C56.0738 165.891 59.6014 178.944 59.8018 183.045C60.114 188.968 59.676 191.899 59.676 191.899L59.4663 194.047C59.4663 194.047 63.5811 194.634 64.4804 194.89C65.5192 195.158 66.5912 195.274 67.6632 195.235C67.6632 195.235 69.1591 188.651 69.1591 183.04C69.1591 177.429 67.9149 165.882 67.2951 161.203C66.6753 156.525 68.6278 138.476 69.7369 135.107C70.846 131.738 73.2692 124.604 71.6382 120.959C70.0072 117.315 55.0533 123.122 55.0533 123.122Z" fill="#187863" stroke="#263238" stroke-width="1.00396" stroke-miterlimit="10"/>
<path d="M73.4509 119.133L73.3018 123.569C73.3018 123.569 70.6456 124.096 67.0667 124.715C64.1123 125.228 56.6935 124.58 54.1958 124.338C53.9682 124.318 53.7577 124.209 53.6102 124.034C53.4627 123.86 53.3901 123.634 53.4082 123.406L53.6506 119.398L73.4509 119.133Z" fill="#263238"/>
<path d="M63.0685 74.9092C63.0685 74.9092 58.8745 79.4434 57.2947 82.2627C55.715 85.082 55.0905 89.4018 54.4987 92.8036C53.9069 96.2054 55.5099 104.193 55.0579 107.86L53.6273 119.412C53.6273 119.412 53.3197 120.195 54.3496 121.052C55.3795 121.91 60.4076 122.222 64.9511 122.45C66.6101 122.534 71.5636 121.467 72.3745 121.416C73.3531 121.355 73.3857 120.111 73.4276 119.133C73.6234 114.533 74.4528 102.273 74.9981 96.9323C76.1211 86.0419 69.9746 75.529 63.0685 74.9092Z" fill="white" stroke="#263238" stroke-width="1.00396" stroke-miterlimit="10"/>
<g style="mix-blend-mode:multiply">
<path d="M74.4855 103.125C74.6719 100.707 74.8583 98.512 75.0214 96.9322C75.068 96.4662 75.0959 96.0002 75.1192 95.5342L63.9772 97.3982L54.4055 94.1362C54.4066 96.1168 54.5186 98.0957 54.741 100.064L64.1309 102.692L74.4855 103.125Z" fill="#187863"/>
</g>
<g style="mix-blend-mode:multiply">
<path d="M62.6537 75.3657C62.02 76.0694 60.7618 77.5 59.5641 79.0192L66.638 86.2095L68.968 85.2775L62.6537 75.3657Z" fill="#187863"/>
</g>
<path d="M63.0684 74.9092C63.0684 74.9092 58.8744 79.4434 57.2947 82.2627C56.8262 83.1195 56.4468 84.022 56.1623 84.9561L64.5969 75.2121C64.0986 75.0611 63.5866 74.9597 63.0684 74.9092Z" fill="#263238"/>
<g style="mix-blend-mode:multiply">
<path d="M54.8249 90.9674L63.9771 93.9778L75.0912 92.7009C74.917 89.9323 74.3019 87.2092 73.2692 84.6344L64.308 88.2273L56.2974 84.5972C55.6424 86.6793 55.1501 88.8091 54.8249 90.9674Z" fill="#187863"/>
</g>
<g style="mix-blend-mode:multiply">
<path d="M70.5804 114.533C65.9384 115.313 61.1754 114.924 56.7215 113.401L54.4894 112.637L53.795 118.229L56.3394 118.942C61.1764 120.294 66.2318 120.684 71.2188 120.088L73.2738 119.841C73.3808 119.615 73.441 119.369 73.4509 119.119C73.5068 117.875 73.6047 116.066 73.7305 113.993L70.5804 114.533Z" fill="#187863"/>
</g>
<g style="mix-blend-mode:multiply">
<path d="M71.8246 106.919C67.1825 107.701 62.4183 107.31 57.9658 105.782L55.1232 104.808C55.1937 105.823 55.1796 106.842 55.0812 107.855L54.7504 110.544L57.5836 111.336C62.4187 112.69 67.4726 113.081 72.4584 112.487L73.8564 112.32C73.9729 110.456 74.108 108.47 74.2525 106.509L71.8246 106.919Z" fill="#187863"/>
</g>
<path d="M28.1051 87.2126L37.1154 94.457L37.5037 93.974L28.4934 86.7296L28.1051 87.2126Z" fill="#263238"/>
<path d="M67.4069 79.9375C67.4069 79.9375 70.7108 82.1883 70.7854 87.5053C70.818 89.8353 70.5757 92.0116 70.0398 95.8281C69.5039 99.6446 66.1766 112.073 63.5857 113.583C60.9947 115.093 56.9731 112.241 56.9731 112.241L37.5223 99.3278L32.8204 95.5299L30.4904 91.1308L31.222 89.7328L36.9584 94.1319L33.8689 91.2753L34.4747 90.5064L35.5931 91.2846L38.8551 92.5055L39.568 97.1655L40.5746 97.8552L59.182 104.654C59.182 104.654 58.949 94.6398 59.1214 92.7245C59.2938 90.8093 59.5315 85.9955 61.5819 82.5052" fill="white"/>
<mask id="mask4_464_345" style="mask-type:luminance" maskUnits="userSpaceOnUse" x="30" y="79" width="41" height="36">
<path d="M67.4069 79.9375C67.4069 79.9375 70.7108 82.1883 70.7854 87.5053C70.818 89.8353 70.5757 92.0116 70.0398 95.8281C69.5039 99.6446 66.1766 112.073 63.5857 113.583C60.9947 115.093 56.9731 112.241 56.9731 112.241L37.5223 99.3278L32.8204 95.5299L30.4904 91.1308L31.222 89.7328L36.9584 94.1319L33.8689 91.2753L34.4747 90.5064L35.5931 91.2846L38.8551 92.5055L39.568 97.1655L40.5746 97.8552L59.182 104.654C59.182 104.654 58.949 94.6398 59.1214 92.7245C59.2938 90.8093 59.5315 85.9955 61.5819 82.5052" fill="white"/>
</mask>
<g mask="url(#mask4_464_345)">
<g style="mix-blend-mode:multiply" opacity="0.5">
<path d="M59.0515 97.0864C59.0515 100.544 59.168 104.654 59.168 104.654L40.5793 97.8833L39.5727 97.1936L38.8597 92.5336L35.5977 91.3126L34.484 90.5205L33.8782 91.2893L36.9584 94.132L31.222 89.7329L30.5276 91.1076L32.8576 95.5066L37.5596 99.3278L38.7432 100.115L64.4431 108.396L59.0515 97.0864Z" fill="#187863"/>
</g>
</g>
<path d="M67.4069 79.9375C67.4069 79.9375 70.7108 82.1883 70.7854 87.5053C70.818 89.8353 70.5757 92.0116 70.0398 95.8281C69.5039 99.6446 66.1766 112.073 63.5857 113.583C60.9947 115.093 56.9731 112.241 56.9731 112.241L37.5223 99.3278L32.8204 95.5299L30.4904 91.1308L31.222 89.7328L36.9584 94.1319L33.8689 91.2753L34.4747 90.5064L35.5931 91.2846L38.8551 92.5055L39.568 97.1655L40.5746 97.8552L59.182 104.654C59.182 104.654 58.949 94.6398 59.1214 92.7245C59.2938 90.8093 59.5315 85.9955 61.5819 82.5052" stroke="#263238" stroke-width="1.00396" stroke-miterlimit="10"/>
<path d="M59.182 104.654L66.2839 109.78L68.1246 106.518C68.1246 106.518 69.3967 105.516 69.5831 104.761C69.7695 104.006 69.5319 102.781 69.7229 102.026C69.914 101.271 70.8646 100.563 70.9532 98.7359C71.0417 96.9092 70.9532 95.3854 70.9532 95.3854C70.9532 95.3854 72.491 89.0618 72.3232 86.3124C72.1554 83.563 69.5039 78.7026 67.3789 78.5954C65.254 78.4882 62.4906 78.8098 60.347 82.0531C58.2034 85.2965 58.6415 94.7656 58.3059 95.3574C57.9704 95.9493 58.4364 98.8711 58.4364 98.8711C58.2502 99.01 58.0957 99.187 57.9832 99.3903C57.8707 99.5936 57.8028 99.8185 57.784 100.05C57.7467 100.81 58.5669 102.678 58.5669 102.678L59.182 104.654Z" fill="white" stroke="#263238" stroke-width="1.00396" stroke-miterlimit="10"/>
<g style="mix-blend-mode:multiply">
<path d="M58.4923 92.9248C58.507 93.738 58.4461 94.5507 58.3106 95.3527C58.0124 95.8839 58.3525 98.2838 58.4271 98.7731C62.4216 100.014 66.6454 100.332 70.7808 99.7051C70.8696 99.381 70.9227 99.0482 70.9392 98.7125C71.0324 96.8905 70.9392 95.362 70.9392 95.362C70.9392 95.362 71.0743 94.7981 71.2607 93.9407C66.9779 94.2129 62.6782 93.8708 58.4923 92.9248Z" fill="#187863"/>
</g>
<g style="mix-blend-mode:multiply">
<path d="M60.0581 82.5703C59.3917 83.9077 59.0189 85.9162 58.8046 87.9526C63.035 89.5671 67.5961 90.1222 72.0902 89.5696C72.2695 88.4919 72.3491 87.4 72.3279 86.3076C72.2472 85.4442 72.0432 84.5968 71.7221 83.7912C67.798 83.8828 63.8782 83.4725 60.0581 82.5703Z" fill="#187863"/>
</g>
<path d="M58.5669 102.729L59.168 104.654L66.2699 109.78L68.1106 106.518C68.1106 106.518 69.3828 105.516 69.5692 104.761C69.6024 104.63 69.6227 104.496 69.6297 104.36C65.8872 104.296 62.1688 103.748 58.5669 102.729Z" fill="#263238"/>
<path d="M63.7068 194.83C63.7068 194.83 63.8653 190.794 64.6388 184.895C65.4124 178.995 63.5531 170.617 63.2408 169.219C62.9286 167.821 63.3993 164.717 63.0871 163.627C62.7748 162.536 61.265 157.885 62.1551 152.489C63.0451 147.093 63.7674 132.829 63.7674 132.829C63.7674 132.829 61.526 131.007 60.8689 128.635C60.2118 126.263 60.7151 125.517 60.7151 125.517" stroke="#263238" stroke-width="1.00396" stroke-miterlimit="10"/>
<path d="M64.746 125.736L63.8839 130.508" stroke="#263238" stroke-width="1.00396" stroke-miterlimit="10"/>
</svg>
