<svg width="24" height="24" viewBox="0 0 24 24" fill="none" xmlns="http://www.w3.org/2000/svg">
<path d="M15.2767 4.84601C16.0252 4.57753 16.7443 4.31844 17.4641 4.06155C17.9652 3.88274 18.1429 3.96183 18.3337 4.47509C18.9857 6.22865 19.6332 7.98386 20.2791 9.73963C20.4299 10.1495 20.3591 10.3238 19.955 10.4797C19.0327 10.8355 18.1094 11.1896 17.1779 11.5199C16.8244 11.6453 16.5327 11.7853 16.434 12.1904C16.3959 12.3468 16.2722 12.4823 16.169 12.6592C16.5624 12.7451 16.9318 12.7293 17.2881 12.6981C19.4684 12.5077 20.7336 13.7166 21.5957 15.5135C22.0758 16.5143 22.2292 17.6028 22.2709 18.7024C22.2952 19.3443 22.0058 19.6161 21.3628 19.6206C21.2573 19.6214 21.1505 19.6296 21.0466 19.6164C20.7356 19.5768 20.6161 19.7225 20.5386 20.0176C20.2767 21.0146 19.6533 21.7157 18.6856 22.0789C17.0389 22.6968 15.2385 21.7756 14.7905 20.0718C14.6934 19.7026 14.5341 19.6056 14.1704 19.6083C12.0341 19.6238 9.89754 19.6213 7.7612 19.6061C7.4209 19.6037 7.28394 19.7136 7.19564 20.0449C6.74539 21.7341 5.04778 22.6468 3.38738 22.118C1.80624 21.6144 0.972179 19.8602 1.55899 18.255C1.63881 18.0367 1.64498 17.885 1.4593 17.6981C1.17543 17.4125 1.1303 17.0403 1.29286 16.6688C1.78383 15.5471 2.71614 15.0293 3.87274 14.9282C4.30715 14.8903 4.49535 14.7345 4.64123 14.3638C5.05145 13.3213 5.49102 12.2904 5.9132 11.2525C5.97077 11.111 6.06451 10.971 6.01311 10.7844C5.69386 10.7066 5.36465 10.7458 5.03971 10.7414C4.77297 10.7377 4.66209 10.6288 4.66705 10.3585C4.67768 9.77839 4.67413 9.19794 4.66778 8.61774C4.66537 8.3978 4.73018 8.24482 4.97647 8.26837C5.64891 8.33267 6.34764 8.09442 6.99564 8.44381C7.09269 8.49614 7.1713 8.42144 7.25387 8.38649C8.60204 7.81578 9.94722 7.24279 11.1458 6.378C11.8672 5.85752 12.7512 5.72826 13.5675 5.43725C14.1256 5.23825 14.6874 5.04961 15.2767 4.84601ZM20.8301 15.6919C20.6801 15.4288 20.5572 15.145 20.3752 14.9062C19.7079 14.0311 18.9168 13.4258 17.7115 13.4965C16.5676 13.5636 15.4168 13.5093 14.269 13.5147C14.1188 13.5154 13.9547 13.4674 13.7862 13.6019C13.9675 13.9896 14.1702 14.3701 14.2561 14.801C14.6528 16.7896 13.3996 18.468 11.3965 18.565C10.7137 18.5981 10.0261 18.5151 9.34099 18.5213C8.94209 18.5249 8.66453 18.3715 8.436 18.062C8.04426 17.5315 7.65768 16.9955 7.23652 16.4887C6.5208 15.6275 6.32598 14.6772 6.62895 13.6031C6.9366 12.5123 7.22344 11.4157 7.51025 10.3192C7.55362 10.1534 7.70016 9.92391 7.35017 9.85836C7.31401 9.91172 7.26749 9.96031 7.2438 10.0182C6.57014 11.6655 5.90029 13.3144 5.22514 14.9611C5.13861 15.1722 5.2073 15.3451 5.31002 15.5212C5.90152 16.5351 6.4964 17.547 7.07992 18.5655C7.21819 18.8068 7.40903 18.8653 7.66937 18.8651C12.1286 18.8614 16.5878 18.8611 21.047 18.8719C21.3875 18.8727 21.4784 18.7509 21.4611 18.4319C21.4106 17.5008 21.2227 16.6043 20.8301 15.6919ZM8.81172 9.98944C8.5655 10.0329 8.34809 10.0619 8.26826 10.3891C7.98129 11.5655 7.65674 12.7326 7.35012 13.9042C7.22751 14.3727 7.1894 14.8488 7.40398 15.2971C7.75269 16.0257 8.32495 16.5935 8.81406 17.2738C9.03954 16.9196 9.3053 16.7194 9.66229 16.6564C9.96125 16.6037 9.9933 16.4474 9.90424 16.1723C9.64919 15.3847 9.4181 14.589 9.18854 13.7933C8.91647 12.8503 9.19676 12.3243 10.1188 11.9823C10.8596 11.7076 11.5961 11.4209 12.3306 11.1298C12.4635 11.0771 12.6849 11.0403 12.599 10.8178C12.36 10.1983 12.0999 9.58689 11.8397 8.95173C10.8391 9.39497 9.90079 9.81351 8.81172 9.98944ZM18.5402 10.2123C18.8296 10.064 19.1699 10.0293 19.4784 9.80147C18.8907 8.21916 18.3033 6.64161 17.7202 5.06249C17.6353 4.83265 17.4934 4.86213 17.3119 4.92999C16.6086 5.19303 15.9049 5.4554 15.1954 5.70101C14.9228 5.79538 14.9084 5.93178 15.0023 6.17852C15.4337 7.311 15.847 8.45034 16.2685 9.58656C16.3082 9.69343 16.3246 9.82157 16.4604 9.85984C16.4898 9.85264 16.518 9.85149 16.5402 9.83938C16.7859 9.70559 17.054 9.59179 17.2271 9.90562C17.4049 10.2279 17.1405 10.3727 16.907 10.5146C16.8082 10.5747 16.6391 10.6085 16.7499 10.8469C17.3272 10.6423 17.9048 10.4375 18.5402 10.2123ZM2.5641 17.9734C1.99414 18.7609 1.95468 19.5929 2.43478 20.4194C2.91252 21.2419 3.67404 21.5774 4.60941 21.4742C5.36808 21.3906 5.94188 20.9872 6.29559 20.3137C6.62427 19.6878 6.665 19.0611 6.16872 18.4795C6.10134 18.4006 6.05184 18.3034 6.00723 18.2085C5.84604 17.8656 5.55943 17.6978 5.20304 17.6422C4.31214 17.5033 3.45194 17.6616 2.5641 17.9734ZM11.2965 8.34816C11.6496 8.19815 11.9878 8.01856 12.302 7.79948C12.5202 7.64736 12.7395 7.56562 12.9325 7.79786C13.1362 8.04299 12.9842 8.23209 12.7831 8.39883C12.6872 8.4784 12.531 8.54106 12.5922 8.7074C12.6825 8.95293 12.722 9.23935 12.9272 9.41417C13.6164 10.0012 14.4079 10.3148 15.3297 10.2332C15.5254 10.2159 15.6264 10.1446 15.5459 9.92633C15.1084 8.73892 14.6756 7.54977 14.2391 6.36196C14.1826 6.20826 14.1213 6.06656 13.8996 6.14194C13.055 6.42898 12.1516 6.56088 11.4095 7.11367C10.4171 7.8528 9.31276 8.37671 8.15561 8.80025C8.00671 8.85475 7.82405 8.89166 7.71276 9.19629C9.04078 9.38948 10.1285 8.81952 11.2965 8.34816ZM13.4513 10.8112C13.5277 11.3087 13.4251 11.5159 12.9187 11.7198C12.0763 12.059 11.222 12.3685 10.3755 12.6973C9.88267 12.8887 9.79475 13.0837 9.94065 13.5775C10.2053 14.4734 10.4778 15.3672 10.7241 16.2681C10.9061 16.9339 10.7727 17.1297 10.1063 17.3279C9.90778 17.3869 9.654 17.3785 9.57208 17.6389C9.6795 17.7941 9.81293 17.7558 9.94045 17.7275C10.2746 17.6531 10.6096 17.5814 10.9412 17.4968C11.4394 17.3698 11.5466 17.1965 11.4179 16.6976C11.2174 15.9207 10.9882 15.1509 10.8006 14.3711C10.6557 13.769 10.8402 13.4842 11.4243 13.3035C12.6571 12.922 13.9 12.5784 15.1613 12.3032C15.6167 12.2038 15.9613 11.6113 15.8388 11.1652C15.7986 11.019 15.707 10.9736 15.577 10.9871C14.8816 11.0589 14.2124 10.9478 13.5585 10.714C13.5343 10.7054 13.4933 10.7438 13.4513 10.8112ZM19.3637 20.6922C19.4772 20.4996 19.6073 20.3147 19.7008 20.1128C19.8818 19.7219 19.8138 19.6211 19.3835 19.6196C18.2231 19.6157 17.0628 19.615 15.9024 19.6172C15.7773 19.6174 15.6346 19.5781 15.5274 19.7237C15.5192 19.8729 15.568 20.0202 15.631 20.1661C16.278 21.6659 18.1283 21.9517 19.3637 20.6922ZM12.2456 16.8977C12.2456 17.1165 12.2456 17.3353 12.2456 17.5623C12.442 17.5443 12.5933 17.4144 12.7411 17.2876C13.5306 16.6102 13.7657 15.4437 13.3222 14.4279C13.012 13.7173 12.9043 13.6674 12.1666 13.892C12.091 13.915 12.0171 13.9493 11.9398 13.9605C11.5653 14.0145 11.5307 14.2177 11.6235 14.5476C11.8374 15.3074 12.1257 16.0478 12.2456 16.8977ZM2.11822 16.6833C2.05713 16.8367 1.94642 16.9871 2.10493 17.1796C3.07856 16.9953 4.06152 16.7959 5.09841 16.8011C5.00513 16.4517 4.79377 16.2254 4.67034 15.9557C4.56293 15.7209 4.38225 15.6426 4.12997 15.6588C3.33243 15.7098 2.65266 15.9912 2.11822 16.6833ZM5.71389 9.01465C5.27482 9.05622 5.46087 9.3974 5.43163 9.62527C5.41202 9.77804 5.41259 9.93845 5.63415 9.98957C6.22575 10.126 6.41978 9.96206 6.40938 9.36374C6.40051 8.8537 6.02927 9.0595 5.71389 9.01465Z" fill="black"/>
<path d="M11.5827 5.75801C10.5442 5.43616 10.0634 4.60945 10.3094 3.61659C10.5103 2.80537 11.4023 2.25803 12.2395 2.43233C13.1616 2.62433 13.743 3.39522 13.641 4.29063C13.5409 5.16881 12.7764 5.80755 11.8498 5.78539C11.771 5.78351 11.6925 5.77092 11.5827 5.75801ZM12.7087 4.61507C12.7961 4.49427 12.8334 4.35431 12.8528 4.21049C12.9101 3.78588 12.672 3.39411 12.2698 3.24293C11.8543 3.0868 11.3943 3.23324 11.1636 3.59501C10.9082 3.99559 10.9491 4.41854 11.2746 4.74237C11.6635 5.12925 12.2091 5.09757 12.7087 4.61507Z" fill="black"/>
<path d="M19.0977 16.0345C19.3605 16.0378 19.5853 16.0301 19.8083 16.047C20.0398 16.0645 20.2254 16.1685 20.2223 16.4317C20.2196 16.6696 20.0556 16.7942 19.8355 16.7988C19.2434 16.811 18.6507 16.8124 18.0586 16.7996C17.8302 16.7947 17.6315 16.6846 17.6389 16.4214C17.646 16.1653 17.8441 16.0592 18.071 16.0464C18.3995 16.0278 18.7295 16.0371 19.0977 16.0345Z" fill="black"/>
<path d="M18.1052 18.0395C17.8076 18.026 17.6222 17.9003 17.6444 17.6289C17.6669 17.3522 17.8941 17.2857 18.1384 17.2855C18.6787 17.2851 19.2191 17.2844 19.7594 17.2875C20.0107 17.289 20.2183 17.3798 20.219 17.6628C20.2197 17.9455 20.0154 18.0384 19.7618 18.0393C19.2214 18.0411 18.6811 18.0401 18.1052 18.0395Z" fill="black"/>
</svg>
