<svg width="24" height="24" viewBox="0 0 24 24" fill="none" xmlns="http://www.w3.org/2000/svg">
<path d="M3.77781 6C2.80063 6 2 6.80063 2 7.77781V16.6667C2 17.6438 2.80063 18.4445 3.77781 18.4445H20.2222C21.1994 18.4445 22 17.6438 22 16.6667V7.77781C22 6.80063 21.1994 6 20.2222 6H3.77781ZM3.77781 6.88881H20.2222C20.2678 6.88881 20.3105 6.8964 20.3541 6.9026L12.4303 13.6597C12.2257 13.8341 11.7739 13.8341 11.5693 13.6597L3.64587 6.9026C3.68943 6.8964 3.73224 6.88881 3.77781 6.88881ZM2.94448 7.4721L10.9929 14.3332C11.5693 14.8244 12.4303 14.8244 13.0067 14.3332L21.0551 7.4721C21.0894 7.56774 21.1106 7.66849 21.1106 7.77762V16.6665C21.1106 17.1666 20.7219 17.5553 20.2218 17.5553H3.77743C3.27735 17.5553 2.88862 17.1665 2.88862 16.6665V7.77762C2.88862 7.66834 2.91001 7.56774 2.94412 7.4721H2.94448Z" fill="black"/>
</svg>
