<svg width="24" height="24" viewBox="0 0 24 24" fill="none" xmlns="http://www.w3.org/2000/svg">
<path d="M12.5002 1.00018C10.5117 1.0023 8.60526 1.79322 7.19922 3.1994C5.79308 4.60553 5.00231 6.51198 5 8.50034C5 10.9734 6.27991 12.69 7.63567 14.5068L7.69419 14.5853C8.69921 15.9337 9.70442 17.2813 10.7102 18.6282L12.1953 20.6172C12.1978 20.6208 12.2013 20.6232 12.2042 20.6268L12.2043 20.627C12.2164 20.6414 12.2294 20.6551 12.2432 20.668C12.2508 20.6749 12.2577 20.6819 12.2655 20.6879C12.268 20.6899 12.2697 20.6925 12.2726 20.6945C12.2754 20.6964 12.2826 20.6991 12.2878 20.7023L12.2879 20.7024C12.3123 20.7191 12.3387 20.7328 12.3664 20.7433C12.376 20.7468 12.3855 20.7507 12.3953 20.7537V20.7535C12.4288 20.7636 12.4635 20.7691 12.4985 20.7698H12.5015C12.5365 20.7691 12.5712 20.7636 12.6047 20.7534C12.6145 20.7505 12.6242 20.7472 12.6336 20.7433C12.6613 20.7328 12.6877 20.7191 12.7121 20.7024C12.7172 20.6991 12.7227 20.6982 12.7273 20.6947C12.7319 20.6911 12.7319 20.6901 12.7343 20.6881C12.7421 20.6821 12.749 20.6749 12.7566 20.6681L12.7568 20.668C12.7706 20.6551 12.7837 20.6414 12.7958 20.627C12.7987 20.6234 12.8022 20.6209 12.8047 20.6174L14.2898 18.6284C15.2958 17.2808 16.3011 15.9331 17.3058 14.5855L17.3643 14.507C18.7194 12.6897 20 10.9731 20 8.50052V8.50034C19.9979 6.51184 19.207 4.60558 17.801 3.1994C16.395 1.79326 14.4887 1.00231 12.5005 1L12.5002 1.00018ZM16.7559 14.0523L16.6974 14.1308C15.6924 15.4788 14.6872 16.8262 13.6814 18.1731L12.5001 19.7546L11.3195 18.1736C10.3136 16.8263 9.30828 15.4789 8.30358 14.1313L8.24435 14.0523C6.91122 12.2642 5.7607 10.7202 5.7607 8.49968C5.7607 6.09187 7.04523 3.86672 9.13058 2.66289C11.2159 1.45896 13.7853 1.45896 15.8707 2.66289C17.956 3.86695 19.2408 6.09201 19.2408 8.49968C19.2402 10.7212 18.0892 12.265 16.7561 14.0523L16.7559 14.0523Z" fill="black"/>
<path fill-rule="evenodd" clip-rule="evenodd" d="M5.00039 8.50025C5.0027 6.51188 5.79347 4.60543 7.19961 3.1993C8.60565 1.79312 10.5121 1.00221 12.5006 1.00008C14.4888 1.00239 16.3954 1.79317 17.8014 3.1993C19.2074 4.60548 19.9983 6.51175 20.0004 8.50025C20.0004 10.9719 18.7207 12.6883 17.3663 14.5048L17.3062 14.5854C16.3015 15.933 15.2962 17.2807 14.2902 18.6283L12.8051 20.6173C12.8036 20.6195 12.8017 20.6212 12.7998 20.623C12.7986 20.6242 12.7974 20.6255 12.7962 20.6269C12.784 20.6414 12.771 20.655 12.7572 20.6679C12.7544 20.6703 12.7515 20.673 12.7488 20.6756C12.7442 20.6799 12.7396 20.6842 12.7347 20.688C12.7337 20.6888 12.7331 20.6895 12.7324 20.6902C12.7314 20.6913 12.7303 20.6925 12.7276 20.6946C12.7252 20.6965 12.7225 20.6976 12.7197 20.6987C12.7173 20.6998 12.7148 20.7008 12.7124 20.7023C12.688 20.719 12.6617 20.7327 12.6339 20.7432C12.6246 20.7471 12.6149 20.7504 12.6051 20.7533C12.5715 20.7635 12.5369 20.769 12.5019 20.7697H12.4989C12.4978 20.7697 12.4967 20.7697 12.4956 20.7696C12.462 20.7687 12.4286 20.7633 12.3962 20.7536C12.3961 20.7536 12.3964 20.7537 12.3962 20.7536C12.3961 20.7536 12.3953 20.7535 12.3951 20.7534C12.3856 20.7505 12.3762 20.7466 12.3668 20.7432C12.3418 20.7338 12.318 20.7217 12.2956 20.7072C12.2932 20.7056 12.2908 20.704 12.2883 20.7023C12.2856 20.7007 12.2821 20.6989 12.2792 20.6976C12.2766 20.6964 12.2743 20.6953 12.273 20.6944C12.2701 20.6924 12.2684 20.6898 12.2659 20.6878C12.2605 20.6837 12.2555 20.679 12.2505 20.6743C12.2482 20.6721 12.246 20.67 12.2436 20.6679C12.2298 20.655 12.2167 20.6414 12.2047 20.6269C12.203 20.6247 12.2009 20.6228 12.1991 20.621C12.1979 20.6198 12.1967 20.6185 12.1957 20.6171L10.7106 18.6281C9.7048 17.2812 8.6996 15.9336 7.69458 14.5852L7.63607 14.5067C6.2803 12.6899 5.00039 10.9733 5.00039 8.50025ZM7.55589 14.5665L7.55078 14.5597C6.19921 12.7484 4.90039 11.0078 4.90039 8.50025C4.90273 6.4854 5.70403 4.55345 7.1289 3.12859C8.54723 1.71011 10.468 0.909481 12.4732 0.900162L12.501 0.899902C14.5157 0.902241 16.4474 1.70373 17.8721 3.12859C19.2968 4.55349 20.0982 6.48515 20.1004 8.50014C20.1004 11.005 18.8032 12.745 17.4537 14.5549L17.4449 14.5667L17.3864 14.6452C16.3817 15.9928 15.3763 17.3405 14.3704 18.6881L12.8857 20.6764C12.8823 20.6811 12.8791 20.6849 12.8766 20.6876C12.8751 20.6891 12.8738 20.6905 12.8727 20.6916C12.8721 20.6922 12.8715 20.6928 12.8711 20.6932C12.857 20.7098 12.8421 20.7253 12.8268 20.7397L12.8233 20.7431L12.8142 20.7514C12.811 20.7543 12.8067 20.7583 12.8015 20.7627C12.8004 20.7637 12.7992 20.7649 12.7979 20.7661C12.7948 20.7689 12.7917 20.7715 12.7886 20.7738C12.7814 20.7794 12.7747 20.7832 12.7695 20.7859C12.7668 20.7872 12.7643 20.7884 12.7624 20.7893C12.7338 20.808 12.7031 20.8239 12.6707 20.8362C12.6583 20.8413 12.6458 20.8455 12.6337 20.8491C12.6335 20.8492 12.6339 20.849 12.6337 20.8491M12.4956 20.8697C12.4961 20.8697 12.4965 20.8697 12.4969 20.8697L12.4989 20.8697L12.5019 20.8697L12.5039 20.8697C12.5478 20.8688 12.5914 20.8619 12.6337 20.8491M12.4956 20.8697V20.8892L12.3661 20.8491C12.3529 20.8451 12.3376 20.839 12.3321 20.837C12.2984 20.8243 12.2661 20.8077 12.2365 20.788L12.2315 20.7856L12.2258 20.7827C12.2237 20.7815 12.2202 20.7795 12.2163 20.7768C12.2085 20.7714 12.2025 20.7658 12.1994 20.7627C12.1888 20.7538 12.1776 20.743 12.1764 20.7419L12.1753 20.7409C12.1601 20.7267 12.1451 20.7112 12.1309 20.6945L12.126 20.6895C12.1254 20.6889 12.1249 20.6881 12.1242 20.6874C12.1217 20.6847 12.1185 20.6809 12.115 20.6763L10.6304 18.688C9.62466 17.341 8.61944 15.9934 7.61441 14.645C7.61441 14.645 7.61441 14.645 7.61441 14.645L7.55589 14.5665M19.1411 8.49958C19.1406 10.6707 18.025 12.1841 16.699 13.9619ZM16.699 13.9619L16.6176 14.0709C15.6126 15.4189 14.6074 16.7663 13.6017 18.1132L12.5005 19.5874L11.4001 18.1137C10.3942 16.7664 9.38883 15.419 8.38414 14.0714L8.32491 13.9924C8.32494 13.9924 8.32489 13.9923 8.32491 13.9924C6.98894 12.2006 5.86109 10.6821 5.86109 8.49958C5.86109 6.1275 7.12656 3.93537 9.18096 2.7494C11.2354 1.56333 13.7666 1.56333 15.8211 2.7494C17.8755 3.93559 19.1411 6.12765 19.1411 8.49958M8.24474 14.0522C6.91161 12.2641 5.76109 10.7201 5.76109 8.49958C5.76109 6.09177 7.04562 3.86663 9.13097 2.66279C11.2163 1.45887 13.7856 1.45887 15.8711 2.66279C17.9564 3.86685 19.2411 6.09191 19.2411 8.49958C19.2406 10.7211 18.0896 12.2649 16.7564 14.0522L16.6978 14.1307C15.6928 15.4787 14.6876 16.8261 13.6818 18.173L12.5005 19.7545L11.3199 18.1735C10.314 16.8262 9.30867 15.4788 8.30397 14.1312L8.24474 14.0522Z" fill="black"/>
<path d="M16.0629 23.556C16.2727 23.556 16.4429 23.3858 16.4429 23.1759C16.4429 22.9659 16.2727 22.7957 16.0629 22.7957H8.94258C8.73274 22.7957 8.5625 22.9659 8.5625 23.1759C8.5625 23.3858 8.73274 23.556 8.94258 23.556H16.0629Z" fill="black"/>
<path fill-rule="evenodd" clip-rule="evenodd" d="M16.5414 23.1758C16.5414 23.4409 16.3264 23.6559 16.0613 23.6559H8.94102C8.67595 23.6559 8.46094 23.4409 8.46094 23.1758C8.46094 22.9106 8.67592 22.6956 8.94102 22.6956H16.0613C16.3264 22.6956 16.5414 22.9106 16.5414 23.1758ZM16.4414 23.1758C16.4414 23.3857 16.2711 23.5559 16.0613 23.5559H8.94102C8.73118 23.5559 8.56094 23.3857 8.56094 23.1758C8.56094 22.9658 8.73118 22.7956 8.94102 22.7956H16.0613C16.2711 22.7956 16.4414 22.9658 16.4414 23.1758Z" fill="black"/>
<path fill-rule="evenodd" clip-rule="evenodd" d="M12.5 11C13.8807 11 15 9.88071 15 8.5C15 7.11929 13.8807 6 12.5 6C11.1193 6 10 7.11929 10 8.5C10 9.88071 11.1193 11 12.5 11ZM12.5 12C14.433 12 16 10.433 16 8.5C16 6.567 14.433 5 12.5 5C10.567 5 9 6.567 9 8.5C9 10.433 10.567 12 12.5 12Z" fill="black"/>
</svg>
