<svg width="13" height="22" viewBox="0 0 13 22" fill="none" xmlns="http://www.w3.org/2000/svg">
<path d="M6.14551 20.2414L5.73904 19.4619C5.54519 19.0904 0.987243 10.3243 0.28671 6.90638C-0.0427956 5.29843 0.380639 3.67116 1.47953 2.32482C2.64958 0.890775 4.43726 0 6.14535 0C7.8534 0 9.64155 0.890945 10.8116 2.32534C11.91 3.67163 12.3335 5.29868 12.004 6.90646C11.3035 10.3247 6.7457 19.0909 6.55163 19.462L6.14551 20.2414ZM6.14551 0.916779C4.70615 0.916779 3.19042 1.67838 2.1901 2.90427C1.2689 4.03326 0.911818 5.38938 1.1848 6.72252C1.74071 9.43485 4.99074 15.9746 6.14556 18.246C7.30033 15.9747 10.5505 9.43485 11.1063 6.72252C11.3793 5.38955 11.0227 4.03377 10.1015 2.90479C9.10103 1.67856 7.58552 0.916779 6.14564 0.916779H6.14551Z" fill="black"/>
<path d="M12.2921 22.0001H0L1.5862 17.2712L2.45553 17.5625L1.27466 21.0835H11.0174L9.83623 17.5625L10.7054 17.2712L12.2921 22.0001Z" fill="black"/>
<path d="M6.14577 9.19162C4.61597 9.19162 3.37109 7.94692 3.37109 6.41677C3.37109 4.88696 4.6158 3.64209 6.14577 3.64209C7.67558 3.64209 8.92029 4.88679 8.92029 6.41677C8.92029 7.94675 7.67558 9.19162 6.14577 9.19162ZM6.14577 4.55857C5.12119 4.55857 4.28779 5.39198 4.28779 6.41656C4.28779 7.44114 5.12119 8.27472 6.14577 8.27472C7.17019 8.27472 8.00359 7.44097 8.00359 6.41656C8.00359 5.39198 7.17019 4.55857 6.14577 4.55857Z" fill="black"/>
</svg>
