<svg id="Layer_1" data-name="Layer 1" xmlns="http://www.w3.org/2000/svg" viewBox="0 0 342.84089 445.77331">
  <g>
    <path d="M245.94189,239.40984l-16.3809,14.7597c-.8867-.4746-11.3262-5.8847-6.1016,5.4981L67.0703,400.59534c-3.273,32.334,25.789,25.7871,25.789,25.7871l140.5552-156.7207.04879.0488s12.2813,6.4473,5.5274-6.1425l-.0586-.0567,14.6836-16.373c8.0273,5.834,27.0117,15.5215,51.9922,1.082,31.5527-18.2368,46.3613-77.0586,31.3183-91.48679-15.0449-14.4287-50.3496-1.8413-64.166,5.8345C259.98289,169.66615,217.38909,202.156,245.94189,239.40984ZM88.7631,405.09344l139.89559-138.043L99.2026,407.55234C92.1445,410.76724,88.7631,405.09344,88.7631,405.09344Zm154.11429-195.251c6.4492,21.79779,25.4824,25.48139,25.4824,25.48139l66.6153-66.61959c-.9161,66.61959-45.43359,85.34419-68.7657,77.36569C242.87939,238.08554,242.87739,209.84245,242.87739,209.84245Z" fill="#231f20"/>
    <path d="M176.1235,325.43124l.48049,96.6368s-6.4888,2.1777-8.6822-5.418l4.9434-87.5566-7.4072,8.3222-6.5122,96.9922c19.97071,25.5723,35.6035,0,35.6035,0l-6.461-122.4258Z" fill="#231f20"/>
    <path d="M287.96139,400.48794l-99.3457-89.0938L183.934,316.65l84.5801,78.1133c3.4102,6.8613-2.4551,10.4355-2.4551,10.4355l-84.5214-85.8535-7.813,8.7813,88.4477,98.1523C294.50629,429.55434,287.96139,400.48794,287.96139,400.48794Z" fill="#231f20"/>
    <path d="M169.11619,320.87074l.875-13.252-41.65769-42.3144,41.89689,38.6914.5674-8.582-39.5596-35.4766.0499-.0508s6.4467-12.2812-6.1407-5.5273l-.0595.0586-13.80469-12.3809A67.14761,67.14761,0,0,0,125.228,214.56455L39.4394,137.57195l-5.768,5.7671,67.5859,68.8198-2.8862,2.8857-71.0625-64.9209-4.9078,4.9087L89.021,224.39414l-3.0093,3.0093-69.332-66.65039-4.9087,4.9092,64.8916,71.09129-2.9654,2.9668L5.4951,171.51725,0,177.01135l76.2456,86.53709a66.46985,66.46985,0,0,0,27.0796-13.5449l12.4218,13.7852c-.4751.8886-5.8862,11.3261,5.49809,6.0996l46.8232,51.9609ZM79.4018,255.38444l-5.5263-5.5254,35.7539-35.75389L72.2861,174.53574l45.9766,41.28031S109.1806,246.48014,79.4018,255.38444Z" fill="#231f20"/>
    <path d="M330.57659,49.93665c-26-41-74.5-33-74.5-33-72.4785-50.3135-113.0005,27.5-113.0005,27.5-77.5,32.5-69.38859,97.5918-69.38859,97.5918,20.5854-8.7485,38.8481-.5342,45.3979,3.1436-1.0307,8.2173-2.48,17.3305-4.5317,26.5488,0,0,21.04249-40.7314,7.03019-59.0122,0,0-.1201,9.5395-1.47649,23.3237-18.7222-8.1152-40.3545-.4028-40.3545-.4028,5.5278-57.582,69.87739-83.2739,69.87739-83.2739,44.53621-69.5078,97.1104-20.8672,97.1104-20.8672,42.5-12.3252,63.123,21.8852,63.123,21.8852-4.9297,17.5537-22.0449,40.3018-47.1621,59.6138-13.3886,10.3008-20.8926,18.7031-25.0176,24.3325.7833-4.2925,1.6348-8.40621,2.4844-12.1914a297.17626,297.17626,0,0,1,23.543-24.1489c14.9629-13.6006,26.78511-30.92091,24.8242-48.7066,0,0-16.16209,7.2813-31.623,39.1519,0,0,9.875-14.7163,20.1425-21.8027,0,0-2.4355,12.5791-18.289,28.5239-7.416,7.46-12.6992,13.185-16.2442,17.1855,1.7774-6.9443,3.14261-11.3764,3.14261-11.3764-3.54881-1.5562-7.03121-2.8741-10.46291-4.0376,5.1328-5.5396,20.9551-24.7193,21.1407-51.0386,0,0-13.7872,7.8252-24.9883,38.32669,0,0,9.1601-14.43509,14.6191-17.77589a80.68157,80.68157,0,0,1-15.2207,29.0752,114.79736,114.79736,0,0,0-21.666-4.3047,71.45132,71.45132,0,0,0,4.3769-20.2471,40.23665,40.23665,0,0,1-11.1757,19.7813c-3.6465-.126-7.1797-.0786-10.58009.144l.709-12.0171L185.811,94.45085c-3.0508.3711-5.97849.8637-8.7871,1.4521-7.8775-7.9834-38.5352-33.729-70.00439,11.2657a71.07925,71.07925,0,0,1,48.21439-10.4605,28.28263,28.28263,0,0,0-15.77839-5.4727s13.29059-8.601,33.32569,5.6441c-23.0928,5.8345-36.8301,17.5571-36.8301,17.5571,48.397-27.0342,96.2876-4.8701,96.2876-4.8701-3.0625,30.3188,2.3633,64.4624,2.3633,64.4624-.5273-8.646.2813-18.4517,1.6524-27.9326,12.5468-18.6602,46.039-27.5015,67.8222-52.1597C328.518,66.27655,330.57659,49.93665,330.57659,49.93665Z" fill="#231f20"/>
    <path d="M185.67229,266.84924l-.6777.5703s.2363-49.789.3398-98.09959c-9.2031-1.9507-13.2075-2.0097-20.7583-2.3833-2.2397,10.0405-2.88859,51.55129,2.1299,77.897,0,0-14.4277-17.564-10.7798-78.88719-2.7373-.0825-5.2202-.0991-7.3769-.0801-.48679,5.67039-.7984,11.5469-.8916,17.6089-.8687,56.86419,23.4477,83.94429,23.4477,83.94429l-.8906-.1933c-.4062.1093-13.96429,3.8242-.8476,8.1191h.2578l-3.2266,48.0625,7.165-6.6934,2.31211-40.9238.19329,38.5879,11.5781-10.8144-1.4941-28.2989C188.08829,274.70474,198.93009,271.22624,185.67229,266.84924Z" fill="#231f20"/>
    <path d="M173.875,162.70965c-43.95849-1.1011-57.95319,17.4179-57.95319,17.4179,32.2217-19.5791,80.89119-6.6801,95.38529-.2807,14.4902,6.3994-1.3828,10.2495-23.8535,12.5073-2.33209.2344-4.7735.395-7.2676.501l.0957,4.7431c12.7617.4248,26.4023-.3774,38.6504-3.6372C254.44969,184.507,217.83639,163.81115,173.875,162.70965Z" fill="#231f20"/>
    <path d="M149.45019,195.20135l.4721-3.0679c-14.247-.7368-25.98779-2.2866-25.98779-2.2866C125.47069,190.66425,135.581,193.31605,149.45019,195.20135Z" fill="#231f20"/>
  </g>
</svg>
