<svg width="489" height="489" viewBox="0 0 489 489" fill="none" xmlns="http://www.w3.org/2000/svg">
<path d="M421.656 378.535C380.617 342.075 461.94 304.13 462 276.46C462.07 243.959 423.205 251.111 388.775 232.885C366.564 221.127 389.124 192.36 393.56 175.619C403.88 136.684 396.315 89.6967 359.023 67.9611C301.742 34.5753 212.323 63.0464 200.693 132.254C198.798 143.528 197.254 153.925 197.254 165.334C197.254 174.623 200.341 198.991 188.549 203.732C184.237 205.466 171.35 197.57 155.433 189.673C137.978 181.012 116.878 172.352 99.4465 176.396C54.2588 186.882 30.2312 247.064 88.6598 296.225C120.087 322.668 70.9951 352.595 86.9093 398.455C97.8276 429.916 121.257 428.211 165.612 431.439C217.317 435.2 319.14 439.305 370.692 428.348C380.909 426.176 460.749 413.265 421.656 378.535Z" fill="#D0F2D4"/>
<path d="M139.348 160.799C134.668 160.799 130.862 156.99 130.862 152.308V108.097C130.862 103.415 134.668 99.6068 139.348 99.6068H250.578C255.258 99.6068 259.064 103.415 259.064 108.097V152.308C259.064 156.99 255.258 160.799 250.578 160.799H139.348Z" fill="white"/>
<path d="M250.578 98.5628H139.348C134.093 98.5628 129.819 102.84 129.819 108.097V152.308C129.819 157.566 134.093 161.842 139.348 161.842H250.578C255.833 161.842 260.107 157.566 260.107 152.308V108.097C260.107 102.84 255.833 98.5628 250.578 98.5628ZM250.578 100.651C254.689 100.651 258.02 103.984 258.02 108.097V152.308C258.02 156.42 254.689 159.755 250.578 159.755H139.348C135.238 159.755 131.905 156.42 131.905 152.308V108.097C131.905 103.984 135.238 100.651 139.348 100.651H250.578Z" fill="#34665C"/>
<path d="M239.939 128.114H149.987V124.411H239.939V128.114Z" fill="#DBF2DD"/>
<path d="M149.987 137.917H239.939V134.214H149.987V137.917Z" fill="#DBF2DD"/>
<path d="M149.987 147.72H239.939V144.017H149.987V147.72Z" fill="#DBF2DD"/>
<path d="M258.021 113.058V108.097C258.021 103.984 254.689 100.651 250.578 100.651H139.348C135.238 100.651 131.906 103.984 131.906 108.097V113.058H258.021Z" fill="#34665C"/>
<path d="M145.879 106.854C145.879 108.64 144.432 110.087 142.648 110.087C140.863 110.087 139.417 108.64 139.417 106.854C139.417 105.069 140.863 103.622 142.648 103.622C144.432 103.622 145.879 105.069 145.879 106.854Z" fill="#00FFCC"/>
<path d="M158.615 106.854C158.615 108.64 157.169 110.087 155.383 110.087C153.599 110.087 152.153 108.64 152.153 106.854C152.153 105.069 153.599 103.622 155.383 103.622C157.169 103.622 158.615 105.069 158.615 106.854Z" fill="#FBDA4C"/>
<path d="M171.351 106.854C171.351 108.64 169.904 110.087 168.12 110.087C166.336 110.087 164.888 108.64 164.888 106.854C164.888 105.069 166.336 103.622 168.12 103.622C169.904 103.622 171.351 105.069 171.351 106.854Z" fill="#49F04F"/>
<path d="M157.208 333.824C152.291 333.824 148.291 329.822 148.291 324.902V161.861C148.291 156.941 152.291 152.939 157.208 152.939H408.371C413.287 152.939 417.289 156.941 417.289 161.861V324.902C417.289 329.822 413.287 333.824 408.371 333.824H157.208" fill="white"/>
<path d="M408.371 151.895H157.208C151.716 151.895 147.247 156.366 147.247 161.861V324.902C147.247 330.397 151.716 334.868 157.208 334.868H408.371C413.863 334.868 418.332 330.397 418.332 324.902V161.861C418.332 156.366 413.863 151.895 408.371 151.895ZM408.371 153.983C412.72 153.983 416.245 157.51 416.245 161.861V324.902C416.245 329.253 412.72 332.78 408.371 332.78H157.208C152.859 332.78 149.334 329.253 149.334 324.902V161.861C149.334 157.51 152.859 153.983 157.208 153.983H408.371Z" fill="#34665C"/>
<path d="M416.245 170.221V161.861C416.245 157.51 412.72 153.983 408.371 153.983H157.208C152.859 153.983 149.334 157.51 149.334 161.861V170.221H416.245Z" fill="#34665C"/>
<path d="M162.749 162.101C162.749 163.888 161.301 165.334 159.517 165.334C157.733 165.334 156.286 163.888 156.286 162.101C156.286 160.316 157.733 158.869 159.517 158.869C161.301 158.869 162.749 160.316 162.749 162.101Z" fill="#00FFCC"/>
<path d="M175.485 162.101C175.485 163.888 174.038 165.334 172.253 165.334C170.468 165.334 169.022 163.888 169.022 162.101C169.022 160.316 170.468 158.869 172.253 158.869C174.038 158.869 175.485 160.316 175.485 162.101Z" fill="#FBDA4C"/>
<path d="M188.22 162.101C188.22 163.888 186.773 165.334 184.989 165.334C183.205 165.334 181.757 163.888 181.757 162.101C181.757 160.316 183.205 158.869 184.989 158.869C186.773 158.869 188.22 160.316 188.22 162.101Z" fill="#49F04F"/>
<path d="M285.54 311.33L226.06 322.779L171.23 313.597V182.48L223.512 191.609L285.512 180.206L345.387 191.609L399.877 182.396V313.616L345.664 322.779L285.54 311.33" fill="#70CCBA"/>
<path d="M231.566 253.097C232.494 252.835 233.42 252.563 234.349 252.298V206.433L223.589 208.411L187.756 202.153V263.616C202.538 261.016 217.134 257.174 231.566 253.097Z" fill="white"/>
<path d="M226.619 268.2C213.818 271.666 200.855 274.801 187.756 276.997V299.597L225.858 305.978L234.349 304.345V266.055C231.775 266.779 229.199 267.5 226.619 268.2" fill="white"/>
<path d="M295.841 252.76C289.416 250.477 285.587 250.617 279.074 252.927C273.597 254.87 267.998 256.312 262.418 257.924C257.466 259.356 252.519 260.809 247.568 262.254V301.8L285.525 294.495L320.284 301.114V261.175C312.11 258.429 303.953 255.642 295.841 252.76" fill="white"/>
<path d="M266.744 242.928C277.682 239.902 285.612 235.616 296.962 239.179C304.739 241.62 312.513 244.084 320.284 246.555V203.663L285.46 197.032L247.568 204V248.453C253.951 246.576 260.334 244.701 266.744 242.928" fill="white"/>
<path d="M333.505 265.578V303.63L345.839 305.978L383.35 299.641V281.29C366.685 276.19 350.047 270.995 333.505 265.578Z" fill="white"/>
<path d="M383.35 266.714V201.958L345.214 208.411L333.505 206.181V250.769C350.118 256.076 366.729 261.41 383.35 266.714Z" fill="white"/>
<path d="M393.149 229.886C388.556 229.886 384.834 226.113 384.834 221.459C384.834 216.804 388.556 213.031 393.149 213.031C397.74 213.031 401.463 216.804 401.463 221.459C401.463 226.113 397.74 229.886 393.149 229.886ZM393.149 203.378C382.824 203.378 374.454 211.861 374.454 222.326C374.454 227.361 377.263 232.409 379.967 235.762L390.735 249.612C391.965 251.195 394.331 251.195 395.562 249.612L406.329 235.763C411.161 229.886 411.844 224.883 411.844 222.326C411.844 211.861 403.474 203.378 393.149 203.378" fill="#AD5757"/>
<path d="M297.12 403.264C292.439 403.264 288.633 399.456 288.633 394.774V350.562C288.633 345.88 292.439 342.071 297.12 342.071H408.349C413.028 342.071 416.836 345.88 416.836 350.562V394.774C416.836 399.456 413.028 403.264 408.349 403.264H297.12Z" fill="white"/>
<path d="M408.349 341.027H297.12C291.865 341.027 287.59 345.305 287.59 350.562V394.774C287.59 400.031 291.865 404.308 297.12 404.308H408.349C413.603 404.308 417.879 400.031 417.879 394.774V350.562C417.879 345.305 413.603 341.027 408.349 341.027ZM408.349 343.115C412.46 343.115 415.792 346.45 415.792 350.562V394.774C415.792 398.886 412.46 402.22 408.349 402.22H297.12C293.009 402.22 289.676 398.886 289.676 394.774V350.562C289.676 346.45 293.009 343.115 297.12 343.115H408.349Z" fill="#34665C"/>
<path d="M397.711 370.58H307.758V366.877H397.711V370.58Z" fill="#DBF2DD"/>
<path d="M397.711 380.383H307.758V376.679H397.711V380.383Z" fill="#DBF2DD"/>
<path d="M397.711 390.185H307.758V386.482H397.711V390.185Z" fill="#DBF2DD"/>
<path d="M415.792 355.524V350.562C415.792 346.449 412.46 343.115 408.349 343.115H297.12C293.009 343.115 289.676 346.449 289.676 350.562V355.524H415.792" fill="#34665C"/>
<path d="M303.65 349.32C303.65 351.105 302.204 352.552 300.419 352.552C298.635 352.552 297.188 351.105 297.188 349.32C297.188 347.534 298.635 346.087 300.419 346.087C302.204 346.087 303.65 347.534 303.65 349.32Z" fill="#00FFCC"/>
<path d="M316.386 349.32C316.386 351.105 314.939 352.552 313.155 352.552C311.371 352.552 309.924 351.105 309.924 349.32C309.924 347.534 311.371 346.087 313.155 346.087C314.939 346.087 316.386 347.534 316.386 349.32Z" fill="#FBDA4C"/>
<path d="M329.122 349.32C329.122 351.105 327.676 352.552 325.89 352.552C324.106 352.552 322.659 351.105 322.659 349.32C322.659 347.534 324.106 346.087 325.89 346.087C327.676 346.087 329.122 347.534 329.122 349.32Z" fill="#49F04F"/>
<path d="M181.157 412.659C176.477 412.659 172.67 408.851 172.67 404.169V350.562C172.67 345.88 176.477 342.071 181.157 342.071H255.706C260.386 342.071 264.192 345.88 264.192 350.562V404.169C264.192 408.851 260.386 412.659 255.706 412.659H181.157" fill="white"/>
<path d="M255.706 341.027H181.157C175.901 341.027 171.626 345.305 171.626 350.562V404.169C171.626 409.426 175.901 413.703 181.157 413.703H255.706C260.961 413.703 265.235 409.426 265.235 404.169V350.562C265.235 345.305 260.961 341.027 255.706 341.027ZM255.706 343.115C259.817 343.115 263.149 346.45 263.149 350.562V404.169C263.149 408.281 259.817 411.615 255.706 411.615H181.157C177.046 411.615 173.713 408.281 173.713 404.169V350.562C173.713 346.45 177.046 343.115 181.157 343.115H255.706Z" fill="#34665C"/>
<path d="M263.149 355.524V350.562C263.149 346.449 259.817 343.115 255.706 343.115H181.157C177.046 343.115 173.713 346.449 173.713 350.562V355.524H263.149Z" fill="#34665C"/>
<path d="M187.687 349.32C187.687 351.105 186.24 352.552 184.456 352.552C182.672 352.552 181.224 351.105 181.224 349.32C181.224 347.534 182.672 346.087 184.456 346.087C186.24 346.087 187.687 347.534 187.687 349.32Z" fill="#00FFCC"/>
<path d="M200.422 349.32C200.422 351.105 198.976 352.552 197.192 352.552C195.407 352.552 193.961 351.105 193.961 349.32C193.961 347.534 195.407 346.087 197.192 346.087C198.976 346.087 200.422 347.534 200.422 349.32Z" fill="#FBDA4C"/>
<path d="M213.159 349.32C213.159 351.105 211.712 352.552 209.927 352.552C208.143 352.552 206.696 351.105 206.696 349.32C206.696 347.534 208.143 346.087 209.927 346.087C211.712 346.087 213.159 347.534 213.159 349.32Z" fill="#49F04F"/>
<path d="M238.425 407.945H198.094V381.774L218.431 362.597L238.425 381.774V407.945" fill="#DBF2DD"/>
<path d="M222.819 407.945H213.699V390.118H222.819V407.945Z" fill="white"/>
<path d="M243.111 384.143L218.431 359.45L193.751 384.143L196.019 386.413L218.431 363.989L240.842 386.413L243.111 384.143Z" fill="#DBF2DD"/>
<path d="M210.845 395.488H201.775V386.413H210.845V395.488" fill="white"/>
<path d="M206.736 395.896H205.607V386.042H206.736V395.896Z" fill="#DBF2DD"/>
<path d="M201.248 391.533V390.404H211.095V391.533H201.248" fill="#DBF2DD"/>
<path d="M235.364 395.488H226.294V386.413H235.364V395.488" fill="white"/>
<path d="M231.255 395.896H230.126V386.042H231.255V395.896Z" fill="#DBF2DD"/>
<path d="M225.767 391.533V390.404H235.614V391.533H225.767" fill="#DBF2DD"/>
<path d="M222.172 379.133C222.172 381.296 220.421 383.047 218.26 383.047C216.099 383.047 214.347 381.296 214.347 379.133C214.347 376.972 216.099 375.218 218.26 375.218C220.421 375.218 222.172 376.972 222.172 379.133Z" fill="white"/>
<path d="M217.672 374.808H218.846V383.339H217.672V374.808Z" fill="#DBF2DD"/>
<path d="M222.523 378.485V379.66H213.997V378.485H222.523Z" fill="#DBF2DD"/>
<path d="M142.179 261.289L138.831 342.152L137.181 382.553L135.641 422.942L126.085 423.075C125.2 409.682 124.119 396.293 122.921 382.907C121.687 369.523 120.412 356.141 119.002 342.765C117.613 329.39 116.216 316.014 114.693 302.647C113.22 289.284 111.62 275.904 109.996 262.579L142.179 261.289" fill="#3D8A7B"/>
<path d="M141.365 261.155L141.127 261.472L140.817 261.971L140.189 262.983L138.905 265.17C138.043 266.637 137.228 268.202 136.383 269.717C134.732 272.823 133.083 275.957 131.488 279.161C128.235 285.525 125.303 292.108 122.314 298.696C116.401 311.913 111.02 325.467 105.957 339.173L102.211 349.484C100.996 352.935 99.8161 356.4 98.6496 359.871C96.2352 366.793 94.1093 373.805 91.9264 380.811C90.7958 384.304 89.8601 387.846 88.8342 391.371C87.817 394.896 86.8367 398.433 85.8622 401.97C84.8963 405.513 84.0506 409.081 83.1576 412.641C82.2679 416.201 81.3827 419.764 80.5651 423.341L73.0157 421.999C73.5395 418.349 73.996 414.684 74.448 411.017L75.795 400.01C76.7833 392.684 77.6046 385.315 78.5571 377.959L79.9921 366.917C80.42 363.222 80.9352 359.542 81.4483 355.856L82.9465 344.78L84.58 333.706C86.8258 318.934 89.2617 304.133 92.0858 289.276L94.3299 278.13C95.1539 274.414 95.9026 270.687 96.7519 266.939C97.5631 263.196 98.4621 259.435 99.3845 255.656L100.864 249.929L101.648 247.006L102.091 245.478L102.316 244.708L102.63 243.761L141.365 261.155" fill="#4AA895"/>
<path d="M150.849 431.117L125.816 431.439C124.634 431.457 123.662 430.515 123.642 429.332L123.562 424.853C123.594 422.966 124.849 421.1 126.654 420.722C126.654 420.722 139.339 422.106 144.356 423.315C149.732 424.61 152.776 425.714 153.043 426.469C153.945 429.019 152.478 430.795 150.849 431.117" fill="#44AB96"/>
<path d="M96.9244 431.117L71.8913 431.439C70.7106 431.457 69.7373 430.515 69.7182 429.332L69.6387 424.853C69.6701 422.966 70.9249 421.1 72.7305 420.722C72.7305 420.722 85.4147 422.106 90.4314 423.315C95.8084 424.61 98.8517 425.714 99.1187 426.469C100.02 429.019 98.5534 430.795 96.9244 431.117" fill="#50C9B1"/>
<path d="M180.393 216.025C181.218 219.737 182.184 223.401 183.075 227.09C184.021 230.76 184.977 234.428 185.976 238.08C187.947 245.395 190.047 252.666 192.17 259.93L191.951 259.366C194.539 265.921 197.149 272.467 199.885 278.956C201.239 282.208 202.634 285.44 204.041 288.668C205.499 291.873 206.885 295.11 208.407 298.287C209.872 301.343 208.583 305.008 205.528 306.473C202.474 307.938 198.81 306.649 197.347 303.592C197.291 303.477 197.24 303.361 197.192 303.244L197.181 303.217C195.869 299.951 194.421 296.743 193.045 293.505C191.616 290.289 190.178 287.078 188.697 283.885C185.763 277.488 182.705 271.146 179.624 264.813L179.605 264.772L179.404 264.25C176.685 257.188 173.943 250.135 171.07 243.125C169.648 239.615 168.184 236.12 166.707 232.629C165.177 229.156 163.723 225.658 162.127 222.206C159.878 217.344 161.995 211.577 166.855 209.328C171.715 207.077 177.479 209.195 179.727 214.058C180.017 214.685 180.245 215.377 180.393 216.025" fill="#E3A5A2"/>
<path d="M179.432 211.757L187.607 240.26L170.86 247.172L157.604 211.347L165.384 196.551L173.087 200.775C175.722 202.798 178.338 208.281 179.432 211.757" fill="#D95C3F"/>
<path d="M210.472 305.734C210.68 305.93 210.714 305.985 210.776 306.056L210.932 306.254C211.008 306.362 211.107 306.492 211.159 306.583C211.284 306.782 211.4 306.98 211.486 307.154C211.682 307.523 211.817 307.852 211.949 308.185C212.206 308.847 212.38 309.47 212.533 310.085C212.828 311.311 213.003 312.492 213.122 313.655C213.355 315.977 213.357 318.228 213.284 320.455C213.249 321.505 212.37 322.327 211.32 322.293C210.414 322.264 209.677 321.603 209.515 320.747L209.51 320.718C209.12 318.649 208.654 316.606 208.019 314.704C207.703 313.757 207.343 312.845 206.939 312.034C206.737 311.632 206.523 311.247 206.305 310.943C206.199 310.792 206.087 310.643 205.995 310.556L205.876 310.454L205.856 310.463L205.881 310.508C205.898 310.529 205.889 310.532 206.047 310.683C204.68 309.46 204.564 307.361 205.786 305.995C207.008 304.628 209.106 304.512 210.472 305.734" fill="#E3A5A2"/>
<path d="M212.688 301.53C212.967 301.755 212.977 301.787 213.067 301.875L213.248 302.078C213.349 302.197 213.447 302.321 213.509 302.414C213.662 302.624 213.777 302.813 213.88 302.992C214.088 303.355 214.257 303.696 214.395 304.021C214.686 304.681 214.883 305.296 215.07 305.91C215.425 307.128 215.653 308.302 215.85 309.467C216.211 311.789 216.376 314.059 216.469 316.314C216.513 317.364 215.698 318.25 214.649 318.293C213.74 318.33 212.954 317.724 212.732 316.877L212.727 316.855C212.179 314.774 211.562 312.723 210.813 310.803C210.43 309.855 210.023 308.928 209.569 308.108C209.341 307.707 209.107 307.314 208.871 307.012C208.756 306.85 208.638 306.723 208.543 306.631L208.427 306.546L208.421 306.57L208.461 306.625C208.501 306.664 208.464 306.649 208.688 306.83C207.225 305.726 206.935 303.643 208.04 302.18C209.144 300.716 211.225 300.426 212.688 301.53" fill="#E3A5A2"/>
<path d="M206.78 305.011C206.98 305.344 207.033 305.477 207.135 305.685C207.229 305.879 207.298 306.054 207.381 306.239C207.527 306.601 207.666 306.957 207.783 307.307C208.031 308.011 208.223 308.704 208.399 309.397C208.742 310.784 208.964 312.158 209.12 313.526C209.275 314.893 209.334 316.252 209.347 317.598C209.356 318.945 209.289 320.28 209.192 321.604C209.115 322.649 208.206 323.434 207.16 323.358C206.237 323.289 205.517 322.571 205.416 321.681L205.41 321.63C205.27 320.411 205.104 319.204 204.871 318.019C204.634 316.835 204.361 315.669 204.01 314.544C203.661 313.421 203.262 312.326 202.789 311.301C202.55 310.792 202.304 310.293 202.033 309.835C201.902 309.6 201.762 309.385 201.626 309.176L201.424 308.89L201.29 308.744C200.261 307.227 200.654 305.162 202.17 304.132C203.686 303.1 205.75 303.494 206.78 305.011Z" fill="#E3A5A2"/>
<path d="M203.616 304.684C203.976 306.165 204.225 307.495 204.476 308.894C204.717 310.277 204.935 311.658 205.119 313.043C205.49 315.809 205.752 318.581 205.907 321.353C205.967 322.4 205.165 323.296 204.119 323.356C203.186 323.407 202.372 322.775 202.166 321.895L202.163 321.881C201.55 319.28 200.841 316.708 200.033 314.176C199.633 312.91 199.201 311.655 198.75 310.414C198.303 309.191 197.813 307.909 197.33 306.812C196.587 305.127 197.35 303.159 199.034 302.416C200.718 301.672 202.684 302.436 203.426 304.121C203.505 304.299 203.571 304.501 203.616 304.684" fill="#E3A5A2"/>
<path d="M195.779 301.245C195.742 297.223 202.114 292.421 202.114 292.421C209.076 294.327 211.784 297.647 213.068 300.118L211.88 309.389L207.836 310.781C206.079 311.385 204.131 311.857 202.282 311.396C199.766 310.77 195.816 305.04 195.779 301.245Z" fill="#E3A5A2"/>
<path d="M214.172 307.061C214.077 306.795 213.919 306.29 213.733 305.917C213.553 305.516 213.33 305.14 213.102 304.782C212.631 304.074 212.057 303.498 211.433 303.077C210.805 302.659 210.152 302.35 209.407 302.216C209.066 302.103 208.651 302.112 208.283 302.057C207.896 302.032 207.477 302.072 207.087 302.062L206.743 302.052C204.897 302.003 203.441 300.468 203.489 298.621C203.538 296.774 205.073 295.316 206.919 295.365C207.116 295.37 207.327 295.396 207.514 295.434C208.203 295.578 208.877 295.685 209.554 295.886C210.235 296.122 210.907 296.303 211.558 296.655C212.873 297.246 214.076 298.169 215.043 299.22C216.018 300.28 216.746 301.499 217.232 302.749C217.467 303.378 217.668 304.008 217.804 304.652C217.952 305.316 218.032 305.879 218.079 306.695C218.141 307.765 217.323 308.683 216.252 308.744C215.372 308.795 214.593 308.25 214.312 307.458L214.172 307.061" fill="#E3A5A2"/>
<path d="M173.147 368.542C170.332 368.915 167.541 368.357 165.076 366.931C158.978 363.399 156.888 355.56 160.418 349.458C160.645 349.064 160.905 348.668 161.189 348.28L236.397 246.018C237.342 244.732 238.734 243.909 240.317 243.699C241.813 243.5 243.308 243.885 244.525 244.78C246.908 246.534 247.588 249.804 246.107 252.386L182.539 362.269C180.538 365.729 177.115 368.016 173.147 368.542Z" fill="#5CDEC4"/>
<path d="M194.536 302.937L161.189 348.28C160.905 348.668 160.645 349.064 160.418 349.458C156.888 355.56 158.978 363.399 165.076 366.931C167.541 368.357 170.332 368.915 173.147 368.542C177.115 368.016 180.538 365.729 182.539 362.269L210.008 314.786C204.867 310.815 199.711 306.864 194.536 302.937Z" fill="#329C87"/>
<path d="M339.753 151.895H339.741C337.512 148.301 334.936 144.888 332.023 141.71C323.838 144.928 315.739 148.369 307.672 151.895H291.219C291.496 151.556 291.758 151.199 292.002 150.824C295.788 145.035 294.169 137.273 288.383 133.484C286.269 132.099 283.891 131.437 281.539 131.437C277.457 131.437 273.455 133.433 271.052 137.106C267.986 141.793 268.467 147.777 271.834 151.895H260.107V122.45C266.862 120.318 273.922 119.225 281.028 119.225C294.032 119.225 307.18 122.885 318.873 130.542C327.589 136.251 334.595 143.589 339.753 151.895" fill="#C4E6DF"/>
<path d="M258.021 151.895H222.191C222.469 151.449 222.752 151.007 223.041 150.566C223.674 149.596 224.33 148.646 225.003 147.72H239.939V144.016H227.889C229.7 141.848 231.624 139.814 233.646 137.917H239.939V134.214H237.936C244.029 129.377 250.833 125.665 258.021 123.145V151.895Z" fill="#F0FFFC"/>
<path d="M260.107 151.895H258.021V123.145C258.711 122.903 259.409 122.67 260.107 122.45V151.895Z" fill="#9CD0FF"/>
<path d="M239.939 137.917H233.646C235.032 136.617 236.462 135.383 237.936 134.214H239.939V137.917Z" fill="#DAE1FF"/>
<path d="M239.939 147.72H225.003C225.931 146.444 226.892 145.211 227.889 144.016H239.939V147.72Z" fill="#DAE1FF"/>
<path d="M214.768 190.083L211.738 189.554C211.633 183.091 212.43 176.582 214.171 170.221H265.869C249.019 177.308 231.954 183.865 214.768 190.083M327.885 188.277L303.262 183.586C314.734 178.8 326.282 174.037 338.05 170.221H346.637C346.194 172.419 345.962 174.693 345.962 177.021C345.962 178.255 346.057 179.49 346.232 180.718C340.11 183.213 333.997 185.738 327.885 188.277" fill="#F0FFFC"/>
<path d="M340.998 153.983H340.986C340.584 153.281 340.168 152.584 339.741 151.895H339.753C340.181 152.584 340.597 153.281 340.998 153.983M302.919 153.983H289.047C289.84 153.388 290.57 152.69 291.219 151.895H307.672C306.086 152.588 304.503 153.284 302.919 153.983M274.013 153.983H220.941C221.344 153.283 221.762 152.585 222.191 151.895H258.02H260.107H271.834C272.461 152.662 273.189 153.365 274.013 153.983" fill="#AEE6DA"/>
<path d="M346.637 170.221H338.05C340.995 169.266 343.954 168.37 346.93 167.549C345.442 162.849 343.456 158.297 340.986 153.983H340.999C343.574 158.475 345.623 163.218 347.128 168.125C346.944 168.816 346.779 169.513 346.637 170.221ZM265.869 170.221H214.171C215.695 164.648 217.942 159.193 220.941 153.983H274.013C274.226 154.143 274.445 154.297 274.672 154.444C276.787 155.83 279.164 156.491 281.516 156.491C284.206 156.491 286.861 155.625 289.047 153.983H302.919C292.016 158.792 281.153 163.708 270.201 168.385C268.758 169.001 267.315 169.612 265.869 170.221" fill="#AEE6DA"/>
<path d="M267.561 256.468C260.443 255.066 253.45 252.517 246.846 248.766C246.659 247.22 245.859 245.763 244.524 244.78C243.517 244.038 242.319 243.648 241.088 243.648C240.832 243.648 240.574 243.664 240.317 243.699C240.005 243.741 239.7 243.805 239.405 243.893C237.64 242.57 235.952 241.175 234.349 239.717V237.935C238.764 236.69 243.17 235.414 247.568 234.109V248.453C253.951 246.576 260.334 244.701 266.744 242.928C274.739 240.716 281.13 237.83 288.422 237.83C291.106 237.83 293.909 238.22 296.962 239.179C304.393 241.512 311.82 243.865 319.244 246.225C313.674 249.92 307.633 252.757 301.331 254.695C299.498 254.054 297.668 253.409 295.84 252.76C292.735 251.657 290.237 251.119 287.749 251.119C285.087 251.119 282.439 251.734 279.074 252.927C275.279 254.274 271.426 255.379 267.561 256.468M234.349 225.116V209.181C238.763 207.725 243.171 206.244 247.568 204.736V220.454C243.173 222.049 238.77 223.605 234.349 225.116ZM214.206 206.772L214.189 206.769C212.659 201.167 211.833 195.378 211.738 189.554L214.768 190.083C213.78 190.44 212.791 190.796 211.802 191.151C212.009 196.437 212.819 201.681 214.206 206.772M252.14 203.16C260.36 200.305 268.547 197.359 276.701 194.315C285.557 191.009 294.387 187.29 303.262 183.586L327.885 188.277C318.627 192.122 309.373 195.994 300.104 199.821L285.46 197.032L252.14 203.16" fill="#AEE6DA"/>
<path d="M234.349 239.717C224.402 230.679 217.574 219.175 214.189 206.769L214.206 206.772C214.948 209.493 215.856 212.169 216.924 214.786C222.746 212.959 228.554 211.092 234.349 209.181V225.116C231.042 226.247 227.725 227.352 224.402 228.427C226.887 231.955 229.725 235.276 232.9 238.343C233.382 238.207 233.865 238.071 234.349 237.935V239.717" fill="#F0FFFC"/>
<path d="M280.897 257.767C276.448 257.767 271.981 257.338 267.561 256.468C271.426 255.379 275.279 254.274 279.074 252.927C282.439 251.734 285.088 251.119 287.749 251.119C290.237 251.119 292.735 251.657 295.84 252.76C297.668 253.409 299.499 254.054 301.331 254.695C294.725 256.725 287.831 257.767 280.897 257.767" fill="#F0FFFC"/>
<path d="M320.283 245.523V209.758C330.044 206.139 339.76 202.406 349.44 198.57C349.749 196.452 349.96 194.325 350.073 192.2C350.081 192.217 350.089 192.233 350.098 192.25C349.815 197.552 348.922 202.85 347.393 208.042L345.214 208.411L333.505 206.181V233.604C329.563 238.212 325.109 242.194 320.283 245.523" fill="#AEE6DA"/>
<path d="M247.568 248.453V234.109C272.072 226.836 296.303 218.648 320.284 209.758V245.523C319.939 245.76 319.593 245.994 319.244 246.225C311.82 243.865 304.393 241.512 296.962 239.179C293.909 238.22 291.106 237.83 288.422 237.83C281.13 237.83 274.74 240.716 266.744 242.928C260.334 244.701 253.951 246.576 247.568 248.453ZM247.568 220.454V204.736C249.094 204.214 250.618 203.688 252.14 203.16L285.46 197.032L300.104 199.821C282.696 207.009 265.233 214.041 247.568 220.454Z" fill="#F0FFFC"/>
<path d="M333.505 233.604V206.181L345.214 208.411L347.393 208.043C345.522 214.4 342.699 220.596 338.884 226.427C337.224 228.965 335.425 231.36 333.505 233.604" fill="#F0FFFC"/>
<path d="M350.098 192.25C350.089 192.233 350.081 192.217 350.073 192.2C350.301 187.902 350.131 183.604 349.565 179.364C348.454 179.814 347.342 180.266 346.232 180.718C346.057 179.49 345.962 178.255 345.962 177.021C345.962 174.693 346.194 172.419 346.637 170.221C346.779 169.513 346.944 168.816 347.128 168.125C349.515 175.902 350.534 184.079 350.098 192.25Z" fill="#F07490"/>
<path d="M246.846 248.766C245.565 248.04 244.301 247.268 243.051 246.45C241.8 245.63 240.586 244.778 239.405 243.893C239.7 243.805 240.005 243.741 240.317 243.699C240.574 243.664 240.832 243.648 241.088 243.648C242.319 243.648 243.517 244.038 244.524 244.78C245.859 245.763 246.659 247.22 246.846 248.766Z" fill="#83AFE9"/>
<path d="M234.349 237.935V225.116C238.77 223.605 243.173 222.049 247.568 220.454V234.109C243.17 235.414 238.764 236.69 234.349 237.935Z" fill="#AEE6DA"/>
<path d="M232.9 238.342C229.725 235.276 226.887 231.955 224.402 228.427C227.725 227.352 231.042 226.247 234.349 225.116V237.935C233.865 238.071 233.382 238.207 232.9 238.342" fill="#F5FAFF"/>
<path d="M345.387 191.609L327.885 188.277C333.998 185.738 340.11 183.213 346.232 180.718C346.737 184.24 347.912 187.703 349.441 190.924L345.387 191.609Z" fill="#F5FAFF"/>
<path d="M320.284 209.758V203.663L300.104 199.821C309.373 195.994 318.627 192.122 327.886 188.277L345.387 191.609L349.441 190.924C349.646 191.353 349.857 191.779 350.073 192.2C349.96 194.325 349.749 196.452 349.44 198.57C339.76 202.406 330.044 206.139 320.284 209.758" fill="#AEE6DA"/>
<path d="M247.568 234.109V220.454C265.233 214.041 282.696 207.009 300.104 199.821L320.284 203.663V209.758C296.303 218.648 272.072 226.836 247.568 234.109Z" fill="#F5FAFF"/>
<path d="M350.073 192.2C349.857 191.779 349.646 191.353 349.441 190.924C347.912 187.703 346.737 184.24 346.232 180.718C347.342 180.266 348.454 179.814 349.565 179.364C350.131 183.604 350.301 187.902 350.073 192.2" fill="#F5A2B5"/>
<path d="M339.741 151.895H307.672C315.739 148.369 323.838 144.928 332.024 141.71C334.937 144.888 337.512 148.301 339.741 151.895" fill="#E6EBFF"/>
<path d="M223.512 191.609L214.768 190.083C231.954 183.865 249.019 177.308 265.869 170.221H338.05C326.282 174.037 314.734 178.8 303.262 183.586L285.512 180.206L223.512 191.609" fill="#F5FAFF"/>
<path d="M340.986 153.983H302.919C304.502 153.284 306.086 152.588 307.672 151.895H339.741C340.168 152.584 340.584 153.281 340.986 153.983Z" fill="#AEE6DA"/>
<path d="M338.05 170.221H265.869C267.315 169.612 268.758 169.001 270.201 168.385C281.153 163.708 292.015 158.792 302.919 153.983H340.986C343.456 158.297 345.442 162.849 346.93 167.549C343.954 168.37 340.995 169.266 338.05 170.221" fill="#AEE6DA"/>
<path d="M234.349 209.181V206.433L223.589 208.411L214.206 206.772C212.819 201.681 212.009 196.437 211.802 191.151C212.792 190.796 213.78 190.44 214.768 190.083L223.512 191.609L285.512 180.206L303.262 183.586C294.387 187.29 285.557 191.009 276.701 194.315C268.547 197.359 260.36 200.305 252.14 203.16L247.568 204V204.736C243.171 206.244 238.763 207.725 234.349 209.181" fill="#AEE6DA"/>
<path d="M216.924 214.786C215.856 212.169 214.948 209.493 214.206 206.772L223.589 208.411L234.349 206.433V209.181C228.554 211.092 222.746 212.959 216.924 214.786" fill="#F5FAFF"/>
<path d="M247.568 204.736V204L252.14 203.16C250.618 203.688 249.094 204.214 247.568 204.736" fill="#F5FAFF"/>
<path d="M291.219 151.895H271.834C268.467 147.777 267.986 141.793 271.052 137.106C273.455 133.433 277.457 131.437 281.539 131.437C283.891 131.437 286.269 132.099 288.384 133.484C294.169 137.273 295.788 145.035 292.002 150.824C291.758 151.199 291.496 151.556 291.219 151.895Z" fill="#EBEFFF"/>
<path d="M289.047 153.983H274.013C273.189 153.365 272.461 152.662 271.834 151.895H291.219C290.57 152.69 289.84 153.388 289.047 153.983Z" fill="#AEE6DA"/>
<path d="M281.516 156.491C279.164 156.491 276.786 155.829 274.672 154.444C274.445 154.297 274.226 154.142 274.013 153.983H289.047C286.861 155.625 284.206 156.491 281.516 156.491" fill="#AEE6DA"/>
<path d="M272.184 121.984C252.805 124.553 235.555 135.405 224.858 151.756C204.611 182.71 213.307 224.372 244.243 244.629C257.681 253.43 273.838 257.116 289.74 255.009C309.119 252.44 326.369 241.588 337.065 225.236C346.874 210.242 350.259 192.324 346.6 174.783C342.939 157.242 332.668 142.176 317.683 132.363C304.245 123.563 288.086 119.877 272.184 121.984ZM291.313 266.943C272.56 269.43 253.503 265.082 237.654 254.704C201.166 230.809 190.91 181.67 214.792 145.164C227.407 125.877 247.753 113.079 270.611 110.049C289.364 107.564 308.421 111.91 324.271 122.289C341.948 133.864 354.059 151.633 358.378 172.321C362.695 193.011 358.701 214.144 347.133 231.829C334.518 251.114 314.171 263.913 291.315 266.943H291.313" fill="#5CDEC4"/>
<path d="M337.065 225.236C326.369 241.588 309.119 252.44 289.74 255.009C273.838 257.116 257.681 253.43 244.243 244.629C213.307 224.372 204.611 182.71 224.858 151.756C235.555 135.405 252.805 124.553 272.184 121.984C288.086 119.877 304.245 123.563 317.683 132.363C332.668 142.176 342.939 157.242 346.6 174.783C350.259 192.324 346.874 210.242 337.065 225.236V225.236ZM318.873 130.542C286.883 109.594 243.978 118.559 223.04 150.565C202.103 182.573 211.063 225.501 243.051 246.45C275.042 267.398 317.948 258.434 338.885 226.427C359.822 194.42 350.862 151.492 318.873 130.542Z" fill="#3CBDA3"/>
<path d="M141.644 286.016C144.833 257.223 176.559 210.974 176.559 210.974C178.702 206.539 175.823 200.187 164.42 196.109L143.113 187.524C138.021 185.492 134.088 186.573 128.369 193.365C128.369 193.365 105.744 215.223 95.3594 271.93C108.923 278.606 122.484 283.086 141.644 286.016" fill="#FF876B"/>
<path d="M148.595 191.745C148.595 191.745 147.689 196.481 153.127 198.652C158.566 200.825 161.168 196.765 161.168 196.765C161.168 196.765 162.219 188.968 167.465 182.506C167.314 178.602 158.59 174.256 154.219 177.644C152.806 184.555 148.595 191.745 148.595 191.745" fill="#E3A5A2"/>
<path d="M178.071 153.44C178.071 153.44 184.183 168.438 175.76 176.338L173.087 175.485L178.071 153.44Z" fill="#AD577F"/>
<path d="M180.976 171.059C179.329 175.438 176.015 178.241 173.575 177.322C171.137 176.403 170.495 172.109 172.143 167.731C173.791 163.353 177.104 160.549 179.544 161.469C181.983 162.389 182.625 166.682 180.976 171.059Z" fill="#FFB9B6"/>
<path d="M144.048 147.299C148.359 142.409 154.481 139.56 161.04 140.077C161.257 140.094 161.486 140.127 161.709 140.154C161.936 140.162 162.165 140.165 162.382 140.183C168.942 140.7 171.476 140.517 175.155 145.899C179.9 152.84 176.879 165.348 176.56 169.395C175.656 180.868 173.836 188.995 163.185 188.101C152.034 187.165 141.375 178.653 141.649 166.685C141.743 162.628 141.36 150.349 144.048 147.299" fill="#FFB9B6"/>
<path d="M177.803 158.504C189.757 154.405 180.136 139.353 170.316 135.751C154.381 129.904 142.708 131.311 140.581 141.162C140.581 141.162 132.273 147.635 136.886 158.105C136.886 158.105 132.557 178.25 147.058 179.393C147.058 179.393 143.833 176.834 141.501 168.575C141.501 168.575 150.686 163.588 146.041 150.821C146.041 150.821 165.848 162.602 177.803 158.504Z" fill="#AD5757"/>
<path d="M134.802 167.418C135.744 172 138.578 175.288 141.131 174.763C143.684 174.238 144.989 170.097 144.047 165.515C143.105 160.933 140.272 157.645 137.719 158.171C135.166 158.696 133.861 162.836 134.802 167.418Z" fill="#FFB9B6"/>
<path d="M149.011 212.911L155.402 257.385L150.45 252.154L176.255 259.729L189.157 263.569L195.62 265.523L198.875 266.53L200.518 267.047L202.27 267.627C205.726 268.77 207.601 272.5 206.459 275.956C205.329 279.376 201.672 281.249 198.249 280.184L198.026 280.115L196.582 279.664L195.015 279.2L191.835 278.275L185.41 276.446L172.501 272.835L146.627 265.701C144.284 265.054 142.557 263.276 141.875 261.119L141.676 260.47L128.442 217.534C126.721 211.951 129.849 206.029 135.429 204.307C141.01 202.585 146.929 205.716 148.649 211.299C148.809 211.814 148.933 212.393 149.011 212.911Z" fill="#FFB9B6"/>
<path d="M215.732 268.85C215.2 268.879 214.454 268.972 213.895 269.194C213.309 269.406 212.8 269.703 212.397 270.08C211.996 270.465 211.663 270.851 211.423 271.345C211.163 271.801 210.991 272.346 210.834 272.878C210.3 274.687 208.4 275.72 206.593 275.185C204.785 274.649 203.753 272.749 204.288 270.941C204.444 270.412 204.717 269.949 205.07 269.574L205.208 269.427C205.581 269.034 205.929 268.646 206.324 268.283C206.75 267.932 207.124 267.569 207.602 267.275C208.481 266.639 209.526 266.188 210.552 265.902C211.592 265.615 212.653 265.552 213.646 265.652C214.666 265.76 215.525 265.99 216.519 266.444C217.148 266.73 217.425 267.471 217.139 268.101C216.94 268.538 216.521 268.806 216.072 268.831L215.732 268.85" fill="#FFB9B6"/>
<path d="M207.964 267.595C206.349 267.402 204.537 267.248 202.516 268.042C201.036 268.624 198.557 272.685 198.777 274.479C199.31 278.818 202.059 281.717 204.435 283.544C206.35 285.016 209.294 286.333 210.486 287.057C211.048 287.4 211.507 286.626 211.723 286.003L215.697 276.297C213.008 274.774 207.964 267.595 207.964 267.595" fill="#FFB9B6"/>
<path d="M214.034 274.918C213.914 274.839 213.958 274.872 213.942 274.863L213.962 274.879L214.056 274.935C214.128 274.977 214.226 275.022 214.325 275.068C214.526 275.157 214.746 275.248 214.983 275.33C215.446 275.501 215.953 275.647 216.462 275.789C217.49 276.066 218.565 276.288 219.647 276.491C221.823 276.88 224.052 277.158 226.29 277.381L226.298 277.382C227.073 277.459 227.639 278.15 227.561 278.925C227.488 279.65 226.875 280.19 226.163 280.197C223.858 280.206 221.545 280.162 219.205 279.99C218.033 279.895 216.858 279.777 215.659 279.587C215.058 279.486 214.455 279.378 213.829 279.221C213.518 279.147 213.199 279.057 212.867 278.949C212.7 278.894 212.532 278.838 212.345 278.761C212.259 278.73 212.159 278.686 212.053 278.636L211.884 278.553C211.807 278.51 211.788 278.509 211.608 278.39C210.649 277.719 210.417 276.399 211.087 275.44C211.756 274.481 213.076 274.248 214.034 274.918" fill="#FFB9B6"/>
<path d="M213.182 277.516C213.099 277.395 213.093 277.397 213.093 277.397L213.084 277.393L213.121 277.444L213.294 277.608C213.424 277.729 213.614 277.856 213.806 277.975C214.19 278.223 214.667 278.435 215.155 278.633C216.144 279.02 217.244 279.303 218.369 279.528C219.503 279.735 220.666 279.892 221.845 279.991C223.025 280.094 224.219 280.134 225.417 280.168L225.458 280.169C226.235 280.192 226.848 280.841 226.826 281.619C226.805 282.349 226.226 282.935 225.513 282.986C224.26 283.072 223.003 283.15 221.731 283.161C220.461 283.177 219.178 283.132 217.881 283.021C216.582 282.89 215.268 282.693 213.928 282.315C213.256 282.116 212.581 281.896 211.889 281.553C211.543 281.382 211.199 281.202 210.839 280.95C210.665 280.839 210.479 280.691 210.296 280.539C210.207 280.47 210.101 280.36 210.006 280.27L209.843 280.094C209.79 280.033 209.736 279.979 209.612 279.794C208.983 278.808 209.273 277.498 210.259 276.87C211.244 276.241 212.553 276.53 213.182 277.516" fill="#FFB9B6"/>
<path d="M211.897 280.84C211.716 280.674 211.768 280.73 211.727 280.698L211.715 280.694L211.767 280.733L212.001 280.861C212.195 280.949 212.419 281.039 212.668 281.118C213.157 281.283 213.713 281.408 214.272 281.522C215.408 281.742 216.613 281.86 217.824 281.952C220.258 282.112 222.749 282.092 225.244 281.997H225.257C226.034 281.968 226.689 282.575 226.718 283.352C226.747 284.085 226.205 284.708 225.494 284.806C222.948 285.142 220.38 285.405 217.753 285.48C216.434 285.501 215.108 285.499 213.736 285.367C213.045 285.292 212.351 285.207 211.618 285.037C211.255 284.96 210.876 284.856 210.48 284.719C210.274 284.641 210.08 284.574 209.846 284.459C209.74 284.41 209.622 284.35 209.485 284.269C209.414 284.225 209.37 284.206 209.272 284.135C209.169 284.056 209.155 284.07 208.916 283.848C208.086 283.025 208.08 281.684 208.903 280.853C209.726 280.022 211.067 280.016 211.897 280.84" fill="#FFB9B6"/>
<path d="M208.197 281.228L208.305 281.399C208.364 281.493 208.464 281.597 208.539 281.698C208.721 281.898 208.912 282.103 209.137 282.293C209.568 282.686 210.083 283.027 210.621 283.343C211.712 283.968 212.972 284.412 214.292 284.704C215.605 285.03 216.998 285.146 218.396 285.231L220.52 285.23L222.661 285.099L222.75 285.093C223.526 285.045 224.193 285.635 224.241 286.411C224.287 287.148 223.752 287.788 223.035 287.892L220.742 288.217C219.971 288.296 219.19 288.342 218.412 288.404C216.843 288.436 215.254 288.43 213.649 288.171C212.049 287.947 210.427 287.533 208.866 286.806C208.091 286.433 207.323 286.01 206.601 285.461C206.237 285.197 205.888 284.891 205.545 284.565C205.376 284.387 205.208 284.23 205.042 284.029C204.865 283.813 204.742 283.684 204.501 283.296C203.93 282.274 204.295 280.984 205.316 280.413C206.336 279.843 207.626 280.208 208.197 281.228" fill="#FFB9B6"/>
<path d="M131.828 238.29H153.478L150.754 210.979L133.72 190.019C133.72 190.019 117.535 200.701 131.828 238.29" fill="#FF876B"/>
<path d="M150.973 213.168C151.547 215.225 151.949 217.3 152.295 219.38C152.65 221.458 152.906 223.547 153.134 225.639C153.351 227.731 153.512 229.83 153.583 231.937C153.66 234.044 153.664 236.158 153.478 238.29C152.875 236.236 152.461 234.164 152.121 232.083C151.774 230.004 151.518 227.915 151.316 225.82C151.126 223.725 150.967 221.626 150.903 219.518C150.832 217.411 150.817 215.298 150.973 213.168Z" fill="#D95C3F"/>
<path d="M131.828 238.29C130.295 235.407 129.131 232.342 128.16 229.225C127.191 226.103 126.461 222.904 125.965 219.661C125.519 216.413 125.303 213.121 125.447 209.836C125.654 206.555 126.223 203.281 127.365 200.225C126.884 203.457 126.695 206.651 126.739 209.854C126.867 213.057 127.16 216.243 127.629 219.414C128.119 222.582 128.75 225.732 129.457 228.875C130.183 232.014 130.97 235.146 131.828 238.29" fill="#D95C3F"/>
<path d="M456.014 434.53H27V428.348H456.014V434.53Z" fill="#D1DADD"/>
<path d="M277.453 206.114C275.492 206.114 273.839 205.419 272.493 204.03C271.143 202.641 270.55 201.008 270.713 199.129C270.958 195.697 271.775 192.715 273.164 190.183C274.553 187.65 276.759 185.036 279.781 182.34C283.131 179.399 285.683 176.845 287.438 174.679C289.196 172.515 290.075 170.045 290.075 167.267C290.075 163.918 288.953 161.14 286.708 158.934C284.459 156.728 281.334 155.626 277.331 155.626C274.716 155.626 272.491 156.176 270.654 157.277C268.815 158.382 267.323 159.751 266.179 161.385C265.035 163.019 263.627 164.122 261.954 164.694C260.277 165.266 258.663 165.225 257.111 164.571C255.232 163.754 253.946 162.406 253.253 160.527C252.557 158.648 252.699 156.892 253.68 155.258C256.049 151.582 259.235 148.518 263.238 146.067C267.241 143.616 271.939 142.391 277.331 142.391C285.909 142.391 292.506 144.781 297.124 149.562C301.738 154.34 304.045 160.078 304.045 166.777C304.045 170.862 303.168 174.355 301.413 177.257C299.655 180.156 296.897 183.443 293.139 187.119C290.361 189.734 288.4 191.858 287.257 193.492C286.113 195.125 285.337 197.004 284.928 199.129C284.601 201.171 283.744 202.846 282.355 204.153C280.966 205.46 279.332 206.114 277.453 206.114ZM277.331 235.524C274.635 235.524 272.328 234.565 270.409 232.647C268.488 230.725 267.527 228.416 267.527 225.72C267.527 223.025 268.488 220.716 270.409 218.794C272.328 216.876 274.635 215.917 277.331 215.917C280.027 215.917 282.335 216.876 284.257 218.794C286.175 220.716 287.134 223.025 287.134 225.72C287.134 228.416 286.175 230.725 284.257 232.647C282.335 234.565 280.027 235.524 277.331 235.524Z" fill="#AD5757"/>
</svg>
