<svg height="562.316" viewBox="0 0 884.402 562.316" width="884.402"
    xmlns="http://www.w3.org/2000/svg">
    <g transform="translate(-46.598 -381.556)">
        <path
            d="M436.443,233.762H176.282l176.792-2.048c32.683-2.842,55.713-34.9,43.3-65.248-2.146-5.243.1-6.7-2.558-11.76C366.02,102.373,317.834,59.743,263.228,34.979c1.352-.255,2.715-.441,4.106-.627a276.664,276.664,0,0,0-31.36-13.357c-5.684-2.029-11.437-3.861-17.179-5.468-28.234-7.958-66.385-4.322-78.4,26.94-10.1,26.244,3.312,57.947,28.547,69.443l45.325,17.326c-.382-.568-.725-1.137-1.078-1.735L252.6,142.563a4.684,4.684,0,0,1-2.205,8.5l-95.726,10.457c-13.8,1.392-31.076,7.164-41.248,16.66-7.419,6.86-13.671,16.2-13.612,28.018a146.019,146.019,0,0,0-18.62,2.617c-9.379,2.019-18.924,5.5-19.6,11.211-1.333,11.466,14.965,13.8,25.235,13.8l-64.994-.255c6.978,0,7.84-.059,12.466-4.665s9.8-8.154,9.8-15.131l.568-22.364c0-4.606,1.1-8.33-3.508-8.33H0a8.732,8.732,0,0,0,8.085-4.9.245.245,0,0,0,.059-.127c2.058-3.822,2.528-9.32,2.146-14.524l.48-1.705,1.235-4.547,26.146-15.386a6.264,6.264,0,0,0,.568-.372c13.642-8.34,15.347-23.246,10.672-36.574-.1-.255-.157-.48-.255-.7-.216-.568-.412-1.107-.657-1.646a49.774,49.774,0,0,0-4.616-8.683C37.113,83.371,27.313,74.776,18,72.532a35.878,35.878,0,0,0-7.958-.882c32.4-30.38,69.727-57.379,113.817-66.356A256.015,256.015,0,0,1,240.443,8.332C284.974,20.181,325.076,44.779,356.877,78c42.806,44.659,62.828,96.834,79.566,155.761Z"
            fill="#32c5ff" transform="translate(448.497 707.685)" />
        <path
            d="M75.274,13.347a15.053,15.053,0,0,1-7.134,6.86,35.2,35.2,0,0,1-8.3,2.94c-4.743.794-6.419-2.2-9.447-5.145a22.168,22.168,0,0,0-5.88-4.077,9.8,9.8,0,0,0-8.369-.127,5.057,5.057,0,0,0-3,4.616c.2,3.6,5.155,6.439,7.958,7.928a69.061,69.061,0,0,0,11.368,4.194c9.575,2.94-6.37,9.065-9.722,9.447a68.443,68.443,0,0,1-21.56-.51,72.687,72.687,0,0,1,4.675,14.21c1.107,4.675,2.4,10.3,1.49,15C26.244,74.215,22.511,78.321,17.9,81.1L0,6.408A53.087,53.087,0,0,1,42.473,5.017a12.6,12.6,0,0,0,13.3-2.94L57.6.3a13.25,13.25,0,0,1,7.644.608c4.341,1.637,12.377,6.9,10.025,12.436Z"
            fill="#0091ff" transform="translate(374.154 793.83)" />
        <path
            d="M274.641-2.415h93.134A10.755,10.755,0,0,1,378.529,8.34V25.4a27.874,27.874,0,0,1-27.8,27.766H25.357A27.815,27.815,0,0,1-2.415,25.4l-.006-2.421H248.553A25.959,25.959,0,0,0,274.41-.257Zm99.058,27.8V8.34a5.932,5.932,0,0,0-5.925-5.925H278.9a30.784,30.784,0,0,1-9.742,17.493,30.789,30.789,0,0,1-20.609,7.9H2.548a23.066,23.066,0,0,0,22.82,20.532H350.714A23.13,23.13,0,0,0,373.7,25.381Z"
            transform="translate(117.071 890.702)" />
        <path
            d="M28.42-2.415H281.626a30.684,30.684,0,0,1,23.6,11.073l.036.045,1.325,1.677a30.506,30.506,0,0,1,5.01,10.893l35.023,146.01a29.76,29.76,0,0,1,.651,10.532,30.835,30.835,0,0,1-30.658,27.538H63.446a30.87,30.87,0,0,1-30.014-23.676L-1.554,35.657A30.836,30.836,0,0,1,28.42-2.415Zm253.168,4.83H28.42A26.005,26.005,0,0,0,3.142,34.527L38.129,180.551a25.977,25.977,0,0,0,25.318,19.972H316.615a25.959,25.959,0,0,0,25.857-23.234l0-.023a24.943,24.943,0,0,0-.545-8.839l0-.01L306.9,22.4a25.7,25.7,0,0,0-4.192-9.139l-1.215-1.535a25.784,25.784,0,0,0-19.868-9.308Z"
            transform="translate(49.009 713.107)" />
        <ellipse cx="27.371" cy="30.762" fill="#d7e8f0" rx="27.371"
            ry="30.762" transform="translate(186.217 804.166) rotate(-17.5)" />
        <path
            d="M125.443,18.629c-22.334,3.734-39.5,13.945-51.029,35.084C64.1,72.627,62.89,95.706,73.9,114.473L28.962,97.245C2.943,85.328-6.21,58.848,4.217,31.653c12.4-32.4,51.734-36.162,80.85-27.91C91,5.409,96.916,7.31,102.776,9.407q11.486,4.116,22.667,9.222Z"
            fill="#32c5ff" transform="translate(591.77 722.555)" />
        <g transform="translate(193.06 383.18)">
            <path
                d="M672.922,497.67l-3.616-3.2a179.347,179.347,0,0,0-170.732-294.62,182.892,182.892,0,0,0-24.309,6.771l-3.151,1.118-.071-3.342a210.794,210.794,0,0,0-4.263-37.873A205.808,205.808,0,0,0,265.767,2.39a207.771,207.771,0,0,0-42,4.31C112.749,29.6,41.009,138.614,63.851,249.71a207.567,207.567,0,0,0,8.718,30.308l.9,2.415L71,283.174A137.255,137.255,0,0,0,1.91,330.633l-3.82-2.956a142.086,142.086,0,0,1,69.076-48.372A211.133,211.133,0,0,1,54.76,208.264,209.588,209.588,0,0,1,70.6,128.131a211.149,211.149,0,0,1,75.3-93.407,209.42,209.42,0,0,1,36.221-20A212.579,212.579,0,0,1,265.207-2.415h.35a209.481,209.481,0,0,1,79.781,15.8,211.045,211.045,0,0,1,93.418,75.265,209.3,209.3,0,0,1,20,36.217,211.88,211.88,0,0,1,12.757,40.68,215.7,215.7,0,0,1,4.265,35.442,187.819,187.819,0,0,1,21.824-5.872,185.554,185.554,0,0,1,37.123-3.85,183.254,183.254,0,0,1,70.151,13.825A184.818,184.818,0,0,1,686.664,271a183.368,183.368,0,0,1,17.514,31.713A184.158,184.158,0,0,1,672.922,497.67Z"
                fill="#9f9f9f" transform="translate(0.862 0.791)" />
            <g transform="translate(245.98 318.5)">
                <path
                    d="M445.164,239.8C427.118,176.18,399.932,124.1,364.361,85l-.026-.029c-1.474-1.674-3.053-3.386-4.829-5.234C327.288,46.083,287.4,22.212,244.159,10.7A254.942,254.942,0,0,0,128.642,7.638h-.005c-46.782,9.537-85.023,39.6-114.182,67.219a42.282,42.282,0,0,1,4.862-.274h0a37.751,37.751,0,0,1,8.5.942l.029.007a37.567,37.567,0,0,1,14.883,8.075A63.919,63.919,0,0,1,55.18,97.963a65.2,65.2,0,0,1,4.8,9.022l.027.066c.095.237.192.473.294.722.122.3.247.6.375.922l0,.01c.073.188.133.362.185.516.025.074.051.15.079.228,2.864,7.6,3.721,14.953,2.478,21.271a25.034,25.034,0,0,1-4.027,9.6,26.412,26.412,0,0,1-8.362,7.58l-.019.011-1.793,1.033L22.489,164.706l-.3.174.26,1.971.575,4.475a19.38,19.38,0,0,1-3.5,13.31,2.748,2.748,0,0,1-.276.409,15.283,15.283,0,0,1-12.323,5.8H0v-4.83H7.006a10.506,10.506,0,0,0,8.217-3.681h0l.261-.357a14.561,14.561,0,0,0,2.735-10.114l-.564-4.387-.681-5.167,3.1-1.779,26.725-15.764,1.793-1.033c14.864-8.751,10.424-25.709,7.825-32.6L56.4,111.1c-.04-.112-.077-.221-.113-.327s-.075-.22-.107-.3c-.115-.289-.233-.577-.348-.856-.1-.239-.2-.485-.3-.734a60.336,60.336,0,0,0-4.424-8.315c-6.74-10.535-16.079-18.325-24.375-20.33a32.9,32.9,0,0,0-7.4-.819h-.008a32.456,32.456,0,0,0-7.788.863,11.981,11.981,0,0,0-5.465,2.679l-.057.056-3.4-3.434L2.7,79.5c9.582-9.424,18.476-17.577,27.186-24.92A311.08,311.08,0,0,1,59.645,32.2,224.188,224.188,0,0,1,92.161,14.334a183.945,183.945,0,0,1,17.368-6.641,167.709,167.709,0,0,1,18.14-4.787A258.44,258.44,0,0,1,245.387,6.034l.008,0a245.978,245.978,0,0,1,63.635,27.1A261.686,261.686,0,0,1,362.992,76.4c1.816,1.89,3.438,3.648,4.954,5.369a308.053,308.053,0,0,1,27.47,35.118,359.673,359.673,0,0,1,22.48,38.477,428.8,428.8,0,0,1,17.968,40.853c5.1,13.408,9.8,27.629,13.947,42.266Z"
                    transform="translate(0.225 0.607)" />
                <path d="M479.514,2.9H0v-4.83H479.514Z" transform="translate(12.446 239.287)" />
                <path d="M54.41,2.1H0V-1.12H54.41Z" transform="translate(133.162 239.277)" />
                <g transform="translate(70.56 17.64)">
                    <path
                        d="M93.371-2.415a99.014,99.014,0,0,1,26.5,3.7C125.655,2.9,131.489,4.76,137.206,6.8a288.244,288.244,0,0,1,46.56,21.448,295.757,295.757,0,0,1,42.438,29.5A281.171,281.171,0,0,1,262.615,94.22a252.1,252.1,0,0,1,28.469,42.348c2.76,5.214,4.926,10.516,7.021,15.644a51.05,51.05,0,0,1-42.814,70.224l-.09.008h-.091L78.3,224.513H23.89A25.43,25.43,0,0,1-.192,207.275c-2.917-8.62-2.961-16.969-.133-24.819a45.578,45.578,0,0,1,12.27-17.741A62.331,62.331,0,0,1,29.9,153.123a70.39,70.39,0,0,1,20.688-5.281L149.9,137.807a2.279,2.279,0,0,0,1.271-3.975L68.439,102.22l-.068-.031a54.313,54.313,0,0,1-17.3-12.562,59.343,59.343,0,0,1-6.526-8.438A60.949,60.949,0,0,1,36.4,61.544a58.624,58.624,0,0,1-1.345-10.6A53.765,53.765,0,0,1,38.56,29.69a46.649,46.649,0,0,1,9.207-14.958A47.855,47.855,0,0,1,60.915,4.769a61.31,61.31,0,0,1,15.634-5.5A81.363,81.363,0,0,1,93.371-2.415Zm161.59,220.032a46.222,46.222,0,0,0,38.673-63.575c-2.052-5.022-4.172-10.211-6.819-15.212C256.6,81.92,200.066,34.263,135.585,11.351c-5.615-2-11.341-3.827-17.022-5.418A94.125,94.125,0,0,0,93.371,2.415c-14.617,0-40.59,3.769-50.3,29.01C33.505,56.279,45.977,86.639,70.3,97.762l83.207,31.793.247.174a7.109,7.109,0,0,1-3.369,12.883L51.073,152.648c-13.771,1.389-26.5,6.931-35.839,15.605C3.357,179.294-.294,191.9,4.382,205.723a20.6,20.6,0,0,0,19.5,13.961h54.4Z"
                        transform="translate(38.713 0.028)" />
                    <path
                        d="M13.928,54.663a44.246,44.246,0,0,1-7.181-5.774,35.289,35.289,0,0,1-5.731-7.368,25.512,25.512,0,0,1-3.167-8.762,21.842,21.842,0,0,1,.683-9.74,36.668,36.668,0,0,1,9.1-14.762A61.936,61.936,0,0,1,21.141-2.093l2.408,4.187C17.376,5.644,6.516,13.266,3.156,24.413c-3.256,10.809,4.785,20.62,13.4,26.2Z"
                        transform="translate(56.133 169.54)" />
                    <path
                        d="M6.376,40.82a25.06,25.06,0,0,1-7.031-9.5l-.013-.033a23.045,23.045,0,0,1-1.722-9.751,24.441,24.441,0,0,1,2.2-8.864C1.9,8.015,5.5,3.3,10.8-1.75l3.329,3.5C3.538,11.829.256,20.635,3.8,29.46A20.209,20.209,0,0,0,9.468,37.11Z"
                        transform="translate(75.731 183.201)" />
                    <path
                        d="M2.724,25.134a12.753,12.753,0,0,1-3.859-4.091A9.8,9.8,0,0,1-2.414,16.3c-.053-3.888,2.033-8.173,6.2-12.736a47.044,47.044,0,0,1,5.991-5.5l2.883,3.875A42.885,42.885,0,0,0,7.3,6.877c-3.231,3.554-4.92,6.79-4.883,9.358.027,1.89,1.036,3.508,3.084,4.946Z"
                        transform="translate(93.574 198.94)" />
                    <path
                        d="M57.747,30.051h-34.5A60.154,60.154,0,0,1,11.036,29,26.912,26.912,0,0,1,5.2,27.138,14.62,14.62,0,0,1,.394,23.69a11.5,11.5,0,0,1-2.7-9.379A9.192,9.192,0,0,1,.369,9,19.808,19.808,0,0,1,5.491,5.336,59.559,59.559,0,0,1,19.1.646,145.961,145.961,0,0,1,38.006-2.406l.409,4.813A143.721,143.721,0,0,0,20.163,5.357,54.742,54.742,0,0,0,7.715,9.623c-2.243,1.177-4.97,3.043-5.228,5.25A6.784,6.784,0,0,0,4,20.48c2.8,3.146,9.273,4.741,19.243,4.741H54.665v.939l2-.493Z"
                        transform="translate(0.49 194.501)" />
                </g>
            </g>
        </g>
        <path
            d="M138,112.868,71.138,122.874l11.652,8.212,21.8,17.454c3.41,2.4,2.558,8.065,4.449,11.505a26.872,26.872,0,0,1-42.14,25.617L14.317,148.677A40.543,40.543,0,0,1,.8,132.86c-4.3-21.413,8.9-45.227,34.3-49l73.088-10.976-10.78-8.369L64.219,38.682A26.891,26.891,0,0,1,57.241,30.6,26.891,26.891,0,0,1,100.45,5.715l59.212,46.06A39.514,39.514,0,0,1,171.1,65.769c4.038,20.7-8.879,43.463-33.095,47.1Z"
            fill="#0091ff" transform="translate(370.048 466.645)" />
        <g transform="translate(373.38 783.02)">
            <path
                d="M6.548,24.529h0a76.9,76.9,0,0,0-1.836-9.48C3.035,8.631.842,4.044-1.63,1.782L1.63-1.782C4.845,1.16,7.46,6.432,9.4,13.889a80.315,80.315,0,0,1,1.945,10.093Z"
                transform="translate(76.528 58.594)" />
            <path
                d="M1.065,20.141l-2.129-4.335a55.566,55.566,0,0,1,45.049-1.754,10.234,10.234,0,0,0,10.742-2.388l.023-.022L68.4-1.726l3.379,3.451L58.138,15.082a15.037,15.037,0,0,1-15.854,3.491l-.058-.022A50.825,50.825,0,0,0,1.065,20.141Z"
                transform="translate(0.088 0.5)" />
            <path
                d="M12.144,7.874a4.373,4.373,0,0,1-1.668-.33l-.07-.03L-.99,2.389.99-2.016,11.9,2.889,13.608-.976,18.026.976,16.283,4.921a4.373,4.373,0,0,1-4.138,2.953Z"
                transform="translate(43.483 94.472)" />
            <path
                d="M1.245,14.446l-2.491-2.041A11.338,11.338,0,0,0,.386.643L3.338-.643A14.6,14.6,0,0,1,4.415,7.2,14.6,14.6,0,0,1,1.245,14.446Z"
                transform="translate(43.483 72.02)" />
            <g transform="translate(21.56 60.76)">
                <path
                    d="M.284,15.609l-.569-4.8c3.4-.4,8.006-6.36,8.686-10.248l0-.009A3.58,3.58,0,0,1,12.06-2.415a4.716,4.716,0,0,1,2.678.856A4.193,4.193,0,0,1,16.5,1.131a28.612,28.612,0,0,1,.215,6.4A14.7,14.7,0,0,1,14.8,14.562l-4-2.7c.819-1.213,1.184-4.208,1.175-6.815a23.459,23.459,0,0,1-3.226,5.1C7.219,11.992,4.087,15.158.284,15.609Z"
                    transform="translate(36.838 33.712)" />
                <path
                    d="M14.631-2.415a17.042,17.042,0,0,1,12.054,29.1A17.046,17.046,0,1,1,8-1.074,16.942,16.942,0,0,1,14.631-2.415Zm0,29.263A12.216,12.216,0,1,0,2.415,14.631,12.23,12.23,0,0,0,14.631,26.848Z"
                    transform="translate(11.995 0.333)" />
                <path
                    d="M2.276,17.017-2.276,15.4a17.044,17.044,0,0,1,19.441-11L19.02-.809,23.571.809l-3.417,9.608-2.277-.812a12.207,12.207,0,0,0-15.6,7.412Z"
                    transform="translate(0.431 28.743)" />
            </g>
        </g>
        <circle cx="12.387" cy="12.387" fill="#fff" opacity="0.53"
            r="12.387" transform="translate(409.179 846.357)" />
        <path
            d="M1.249,83.1l-2.5-4.134c3.195-1.93,7.23-5.372,8.317-10.808.835-4.286-.492-9.888-1.461-13.979l-.01-.043A70.246,70.246,0,0,0,1.079,40.4L-.8,36.211l4.517.828a65.923,65.923,0,0,0,20.8.482l.058-.007a27.711,27.711,0,0,0,5.909-1.972A17.493,17.493,0,0,0,34.72,33.1a8.274,8.274,0,0,0-.832-.305,70.4,70.4,0,0,1-11.719-4.342l-.072-.036a30.326,30.326,0,0,1-5.4-3.439c-2.442-2.035-3.736-4.221-3.847-6.5l0-.088A7.446,7.446,0,0,1,17.2,11.532l.01,0a12.174,12.174,0,0,1,10.41.173,23.922,23.922,0,0,1,6.516,4.521c.558.54,1.056,1.063,1.538,1.569,2.236,2.348,3.256,3.3,5.794,2.912a31.784,31.784,0,0,0,7.628-2.718l.089-.043a12.7,12.7,0,0,0,5.968-5.683,2.9,2.9,0,0,0-.1-2.36,10.966,10.966,0,0,0-3.616-4,20.929,20.929,0,0,0-4.964-2.71L46.4,3.168a10.842,10.842,0,0,0-6.247-.513L39.146-2.069a15.658,15.658,0,0,1,8.99.729,25.68,25.68,0,0,1,6.155,3.351,15.271,15.271,0,0,1,5.184,5.966,7.717,7.717,0,0,1,.082,6.254l-.031.072-.036.07a17.547,17.547,0,0,1-8.255,7.939,36.618,36.618,0,0,1-8.823,3.126l-.065.014-.066.01a9.222,9.222,0,0,1-6.2-.981,17.113,17.113,0,0,1-3.913-3.361c-.449-.472-.914-.96-1.4-1.433l-.007-.007a19.1,19.1,0,0,0-5.221-3.62l-.042-.02a7.36,7.36,0,0,0-6.3-.113,2.614,2.614,0,0,0-1.523,2.359c.063.84.811,1.9,2.113,2.981a25.668,25.668,0,0,0,4.494,2.841A65.557,65.557,0,0,0,35.2,28.146l.083.024a8.833,8.833,0,0,1,3.273,1.667,3.96,3.96,0,0,1,1.43,3.386c-.22,2.307-2.413,4.355-6.9,6.445a32.6,32.6,0,0,1-7.936,2.642,70.727,70.727,0,0,1-18,.133,75.08,75.08,0,0,1,3.165,10.646c1.071,4.519,2.531,10.7,1.495,16l0,.01C10.674,74.772,7.023,79.613,1.249,83.1Z"
            transform="translate(392 794.859)" />
        <path
            d="M85.94,202.693a29.307,29.307,0,0,1-17.284-5.635L16.105,160.091A43.031,43.031,0,0,1,1.795,143.338a42.376,42.376,0,0,1-3.321-9.848,43.766,43.766,0,0,1-.867-10.179A44.952,44.952,0,0,1,2.774,103.8,43.462,43.462,0,0,1,8.185,95.85a42.233,42.233,0,0,1,7.2-6.651A43.382,43.382,0,0,1,34.72,81.408L92.7,72.726l1.975-.307-28.78-22.4a29.308,29.308,0,1,1,36-46.255l59.2,46.053a41.158,41.158,0,0,1,15.488,24.912,42.2,42.2,0,0,1,.785,8.624,43.211,43.211,0,0,1-3.589,16.714,42.6,42.6,0,0,1-4.219,7.511,40.846,40.846,0,0,1-11.716,11.137,42.286,42.286,0,0,1-16.328,5.973L80.612,133.8l6.728,4.742,15.052,10.57A29.316,29.316,0,0,1,85.94,202.693ZM83.892,2.415A24.478,24.478,0,0,0,68.861,46.209l37.6,29.267L93.421,77.5,35.435,86.185A37.577,37.577,0,0,0,7.043,106.063a39.17,39.17,0,0,0-.9,35.181,38.193,38.193,0,0,0,12.711,14.878l.017.012,52.613,37.011A24.486,24.486,0,1,0,99.667,153.1l-.034-.023L84.561,142.5,67.981,130.81l72.824-10.9A36.632,36.632,0,0,0,165.617,104.8a38.073,38.073,0,0,0,6.231-29.139v0a36.332,36.332,0,0,0-13.684-22l-.021-.016L98.931,7.577A24.6,24.6,0,0,0,83.892,2.415Z"
            transform="translate(366.89 457.212)" />
        <path d="M1.392.142.98.838A6.968,6.968,0,0,0,0,.328Z" fill="#353642"
            transform="translate(715.821 741.718)" />
        <g transform="translate(346.5 657.5)">
            <path
                d="M32.166,1.5A30.673,30.673,0,0,1,44.1,60.421,30.673,30.673,0,0,1,20.229,3.91,30.475,30.475,0,0,1,32.166,1.5Zm0,58.332A27.666,27.666,0,1,0,4.5,32.166,27.7,27.7,0,0,0,32.166,59.832Z"
                transform="translate(-3 -3)" />
            <g transform="translate(29.5 12.503)">
                <path
                    d="M18,45.828a1.5,1.5,0,0,1-1.5-1.5V18a1.5,1.5,0,0,1,3,0V44.328A1.5,1.5,0,0,1,18,45.828Z"
                    transform="translate(-18 -18)" />
                <path transform="translate(-18 20.328)" />
            </g>
        </g>
    </g>
</svg>