<svg width="24" height="24" viewBox="0 0 24 24" fill="none" xmlns="http://www.w3.org/2000/svg">
<path d="M15.2142 21.0042C15.1579 20.996 15.1024 20.9829 15.0481 20.9651C7.9093 18.6136 4.02774 13.4134 3.51103 5.50805C3.4935 5.23893 3.58718 4.97242 3.76776 4.77709C4.61436 3.86008 5.59202 3.11955 6.6738 2.57562C7.02588 2.40117 7.45224 2.441 7.76165 2.67647C8.99794 3.60996 9.96997 4.89956 10.6495 6.50838C10.8402 6.95853 10.7012 7.47652 10.3112 7.76724L8.58765 9.05266C8.42605 9.17318 8.36186 9.39099 8.43157 9.58219C8.84121 10.7027 9.39074 11.7293 10.0654 12.6337C10.7398 13.538 11.567 14.3576 12.5243 15.07C12.6877 15.1916 12.9145 15.1922 13.0762 15.0714L14.7999 13.786C15.1898 13.4949 15.7256 13.5095 16.1033 13.8211C17.4516 14.9314 18.4103 16.2305 18.9528 17.6829C19.0896 18.0453 19.0065 18.4653 18.7404 18.7512C17.9062 19.6376 16.9136 20.3654 15.7886 20.9159C15.6118 21.0025 15.4095 21.0326 15.2142 21.0041L15.2142 21.0042ZM7.17029 3.27395C7.12433 3.26726 7.0764 3.27417 7.0333 3.29554C6.04009 3.79505 5.13958 4.47764 4.35887 5.323C4.32755 5.35701 4.31085 5.40647 4.31401 5.45584C4.80708 13.0013 8.50333 17.9624 15.3 20.2011C15.3448 20.2154 15.3948 20.2129 15.4345 20.1935C16.4722 19.6854 17.3868 19.0152 18.1526 18.2014C18.2106 18.139 18.2295 18.0459 18.1992 17.9656C17.7064 16.6461 16.8292 15.4609 15.5915 14.4418C15.5914 14.4417 15.5914 14.4416 15.5913 14.4416C15.5005 14.3667 15.3725 14.3622 15.2808 14.4307L13.5572 15.7161C13.1124 16.0482 12.4901 16.0472 12.0439 15.7152C11.024 14.9565 10.1414 14.0814 9.42041 13.1145C8.69915 12.1476 8.11231 11.0522 7.67589 9.85829C7.48488 9.33563 7.66205 8.73914 8.10663 8.40759L9.83017 7.12246C9.9221 7.05389 9.9543 6.93012 9.90854 6.8218C9.28457 5.34455 8.39877 4.16577 7.27579 3.31782C7.24452 3.29398 7.20795 3.2793 7.17019 3.2738L7.17029 3.27395Z" fill="black"/>
</svg>
