<svg width="24" height="24" viewBox="0 0 24 24" fill="none" xmlns="http://www.w3.org/2000/svg">
<path d="M4.67757 4.24427C4.67757 9.91387 4.67975 15.5835 4.67443 21.2531C4.67385 21.8662 4.72201 21.9147 5.33513 21.9138C9.45581 21.9077 13.5765 21.9153 17.6972 21.9058C18.3482 21.9043 18.9601 21.7978 19.4175 21.2176C19.7733 20.7664 20.1952 20.3536 20.6437 19.9935C21.0073 19.7016 21.0318 19.348 20.9789 18.9744C20.5764 16.1279 20.1999 13.2782 19.8412 10.4258C19.6295 8.74261 18.8617 4.17186 18.6327 2.49079C18.5885 2.1666 19.0092 4.77662 18.7534 4.54653C18.7534 4.24427 18.6689 4.05087 18.6327 3.80371C18.5543 3.26976 18.5577 2.72378 18.5296 2.21722C18.1784 1.9948 17.8433 1.95799 17.4749 2.0874C17.3323 2.13751 17.1679 2.17801 16.9875 2.06579C16.8545 1.98307 16.6451 2.01053 16.4698 2.01043C12.2029 2.00806 7.93611 2.01514 3.66935 2.00002C3.15366 1.99819 2.95933 2.14955 3.00696 2.66658C3.03365 2.95636 3.01081 3.25063 3.01199 3.54288C3.01372 3.97396 3.1421 4.11772 3.58156 4.10873C4.16639 4.09676 4.74987 4.13263 5.33525 4.12774C8.91503 4.09779 12.4952 4.11035 16.0752 4.11555C16.5694 4.11627 16.6954 4.08446 16.738 3.54329C16.7765 3.05375 17.0621 2.6397 17.215 2.18393" stroke="black" stroke-width="0.789068" stroke-linecap="round" stroke-linejoin="round"/>
<path d="M18.6185 2.35938C18.4074 2.63108 18.3552 2.96827 18.3555 3.34795C18.3593 9.24642 18.3585 15.1449 18.3568 21.0434C18.3568 21.2808 18.3647 21.5129 18.4325 21.7354" stroke="black" stroke-width="0.789068" stroke-linecap="round" stroke-linejoin="round"/>
<path d="M7.5 16H15.5C15.775 16 16 15.775 16 15.5C16 15.225 15.775 15 15.5 15H7.5C7.225 15 7 15.225 7 15.5C7 15.775 7.225 16 7.5 16ZM7.5 13.5H15.5C15.775 13.5 16 13.275 16 13C16 12.725 15.775 12.5 15.5 12.5H7.5C7.225 12.5 7 12.725 7 13C7 13.275 7.225 13.5 7.5 13.5ZM7 10.5C7 10.775 7.225 11 7.5 11H15.5C15.775 11 16 10.775 16 10.5C16 10.225 15.775 10 15.5 10H7.5C7.225 10 7 10.225 7 10.5Z" fill="black"/>
</svg>
