<svg width="1735" height="1735" viewBox="0 0 1735 1735" fill="none" xmlns="http://www.w3.org/2000/svg">
<path d="M867.686 1734.9C1346.58 1734.9 1734.79 1346.68 1734.79 867.795C1734.79 388.906 1346.58 0.689941 867.686 0.689941C388.797 0.689941 0.581055 388.906 0.581055 867.795C0.581055 1346.68 388.797 1734.9 867.686 1734.9Z" fill="#98D8CB"/>
<path d="M1117.03 652.507C1091.5 631.214 1043.14 651.192 1015.25 656.882C968.927 666.332 922.102 673.5 874.685 670.582C851.013 669.125 826.813 665.818 805.171 655.522C785.025 645.936 768.239 630.611 748.95 619.589C718.388 602.127 683.035 595.446 650.998 613.304C636.504 621.383 624.993 633.221 614.678 646.052C605.488 657.482 589.409 692.222 573.379 681.071C565.829 651.739 544.744 626.066 516.843 613.618C481.035 597.642 438.836 605.222 408.402 629.126C373.68 656.399 363.847 700.77 359.591 742.515C355.602 781.666 361.313 817.812 382.55 852.463C398.02 877.702 416.617 899.662 443.31 908.157C443.363 908.277 443.383 908.393 443.44 908.515C451.03 924.356 441.377 943.88 453.44 958.678C460.689 967.57 470.915 968.109 481.324 970.39C492.295 972.794 502.078 978.126 511.207 984.534C531.022 998.442 548.281 1015.95 567.563 1030.63C587.316 1045.67 608.059 1059.36 629.653 1071.61C654.226 1085.48 679.788 1097.52 706.131 1107.63C710.014 1109.13 714.138 1106.56 716.265 1103.51C720.735 1097.1 725.206 1090.68 729.677 1084.27C766.828 1102.16 807.75 1096.55 845.993 1080.64C889.729 1062.44 938.129 1039.71 966.714 1000.31C976.695 986.557 982.798 971.824 983.57 954.703C983.826 949.047 983.57 944.132 983.4 939.471C972.201 935.939 973.194 917.074 986.336 916.247C987.249 913.861 988.339 911.546 989.596 909.322C996.694 896.804 1005.47 885.036 1013.36 873.005C1036.37 837.915 1058.03 801.882 1079.62 765.838C1093.1 754.38 1105.92 742.285 1115.97 727.672C1130.91 705.956 1140.66 672.21 1117.03 652.507Z" fill="#FFD9BD"/>
<path d="M1003.27 1156.23C993.945 1162.04 985.636 1167.56 978.126 1175.58C972.378 1181.73 966.818 1194.36 960.246 1198.99C923.247 1225.04 934.155 1178.9 914.524 1170.67C903.193 1165.93 895.554 1173.54 890.109 1183.02C885.689 1190.71 885.221 1199.94 882.486 1208.19C877.528 1223.14 869.15 1234.97 857.491 1245.44C851.112 1251.17 857.836 1261.18 865.129 1259.65C873.798 1278.78 890.159 1299.58 909.293 1309.26C927.566 1318.5 939.957 1309.34 953.954 1296.8C992.844 1261.93 1008.48 1218.14 1018.85 1168.21C1020.64 1159.59 1011.57 1151.05 1003.27 1156.23Z" fill="#FFD9BD"/>
<path d="M499.369 802.829C494.798 782.382 484.341 746.605 461.196 740.692C460.899 728.334 442.223 720.921 433.23 733.734C416.405 757.707 417.265 787.023 428.163 813.301C436.033 832.279 451.78 861.372 475.651 861.886C506.183 862.543 504.007 823.576 499.369 802.829Z" fill="#FFA294"/>
<path d="M1089.07 716.529C1063.89 717.832 1040 725.598 1016.2 734.276C1022.49 729.658 1028.51 724.674 1034.22 719.349C1047.27 707.159 1033.69 685.185 1017.04 689.824C991.43 696.957 968.873 712.7 943.704 721.549C915.927 731.259 886.378 734.846 857.084 732.065C817.993 728.604 781.546 714.295 744.927 700.751C747.792 695.911 747.281 689.358 741.13 685.823C715.215 670.927 687.453 661.945 660.01 650.585C655.01 648.514 646.887 650.802 643.503 654.949C624.091 678.773 606.871 704.302 592.052 731.224C584.283 745.238 603.576 761.65 614.952 748.893C631.738 730.202 647.166 710.334 661.117 689.442C666.296 692.132 671.492 694.539 676.735 696.706C677.058 699.29 678.36 701.651 680.373 703.304C745.038 758.72 843.872 788.52 930.675 771.231C931.51 776.864 935.693 782.171 942.358 782.087C997.138 781.386 1062.22 777.18 1096.09 728.764C1099.58 723.776 1094.96 716.225 1089.07 716.529Z" fill="#FFA294"/>
<path d="M714.843 1078.62C650.896 1048.03 591.344 1009.88 534.918 967.123C531.357 964.426 527.402 966.647 525.728 970.003C525.334 969.61 524.918 969.244 524.526 968.848C522.238 966.155 519.777 963.56 517.229 961.088C510.809 953.928 504.851 946.369 499.39 938.454C494.521 931.377 490.754 918.87 484.162 913.417C475.782 906.485 464.077 910.688 454.537 906.515C446.731 903.101 438.471 911.96 445.022 918.846C445.871 919.738 446.715 920.58 447.565 921.409C446.301 923.919 446.078 926.827 446.945 929.501C449.598 937.999 452.599 946.361 456.019 954.58C460.057 964.289 463.258 971.334 473.606 975.354C481.446 978.399 488.349 972.097 489.877 964.852C498.089 977.775 507.767 989.625 519.631 997.265C522.965 999.411 526.136 999.369 528.718 998.077C535.234 1002.54 541.964 1006.75 548.909 1010.72C553.733 1013.49 558.25 1011.28 560.436 1007.63C595.47 1036.37 633.589 1061.13 674.09 1081.45C671.602 1085.68 672.517 1090.89 675.756 1094.72C679.426 1099.11 683.459 1103.19 687.815 1106.91C693.6 1111.77 699.835 1114.6 707.453 1112.87C711.857 1111.87 714.095 1106.99 713.134 1102.86C712.609 1100.73 711.706 1098.71 710.47 1096.9C719.234 1095.69 724.63 1083.31 714.843 1078.62Z" fill="#FFA294"/>
<path d="M990.849 1230.46C972.568 1244.77 955.584 1261.37 931.417 1263.84C908.969 1266.14 888.648 1256.19 874.897 1238.68C869.137 1231.34 857.445 1240.77 862.124 1248.53C870.959 1263.19 881.584 1272.58 893.112 1277.78C895.047 1293.41 913.104 1300.66 924.898 1309.51C929.432 1312.91 935.955 1310.87 939.765 1307.59C963.819 1286.89 983.398 1264.46 999.291 1236.98C1002.56 1231.32 995.406 1226.9 990.849 1230.46Z" fill="#FFA294"/>
<path d="M1183.82 389.934C1117.33 223.173 971.228 68.5967 791.117 28.8578C699.588 8.66189 594.189 28.0034 537.346 106.155C367.861 74.5434 201.72 167.644 156.839 337.176C114.584 496.793 103.134 698.169 237.872 817.776C253.043 831.394 269.769 843.174 287.701 852.872C296.884 857.764 307.506 861.109 316.052 867.034C327.049 874.655 329.59 882.985 335.633 894.143C352.857 925.946 386.604 931.801 420.057 932.814C424.808 936.454 428.778 941.013 431.73 946.219C432.364 947.37 433.223 948.381 434.255 949.193C435.287 950.006 436.471 950.603 437.738 950.95C437.757 951.002 437.767 951.053 437.785 951.106C441.411 961.565 455.456 959.252 456.512 948.572C457.73 936.24 457.586 919.138 452.349 907.704C447.188 896.439 429.295 892.84 418.864 888.484C418.348 888.279 417.814 888.121 417.269 888.012C409.523 882.223 402.021 876.659 396.569 870.965C395.842 868.905 394.785 866.977 393.441 865.255C348.273 807.356 346.022 737.058 389.459 677.354C392.916 672.603 391.116 667.273 387.4 663.867C409.97 635.297 441.107 614.944 480.142 615.861C535.51 617.162 585.746 660.911 580.447 715.699C578.74 733.351 591.082 736.744 599.413 725.692C618.744 700.044 640.628 677.658 659.406 652.051C667.726 659.806 678.552 665.599 689.885 671.439C701.354 677.264 713.208 682.296 725.365 686.499C729.971 688.122 750.976 691.882 764.419 695.327C761.608 697.307 758.848 699.143 756.727 700.777C747.233 708.091 746.56 724.75 760.311 728.188C829.738 745.547 906.303 742.764 974.084 717.411C968.06 722.639 962.034 727.888 956.006 733.156C937.177 749.698 961.157 774.253 980.884 765.398C1018.33 748.591 1055.87 733.403 1094.26 719.711C1080.3 756.573 1062.48 789.61 1032.58 818.991C1019.04 832.304 1036.15 851.815 1052 844.155C1072.75 834.126 1093.27 823.822 1112.96 811.816C1133.35 799.388 1155.9 788.818 1171.86 770.83C1201.3 737.641 1215.41 696.79 1221.46 653.355C1233.73 565.289 1216.56 472.049 1183.82 389.934Z" fill="#9C5043"/>
<path d="M946.164 1313.28C912.642 1316.01 890.202 1295.03 872.487 1269.07C866.184 1259.83 860.927 1247.32 850.118 1242.24C841.965 1238.41 830.686 1239.03 823.771 1245.26C814.496 1253.62 820.544 1266.2 812.894 1274.55C809.259 1278.51 784.767 1282.85 779.492 1284.41C769.423 1287.39 756.717 1293.72 746.096 1294.3C745.417 1306.15 744.252 1305.06 742.602 1291.01C741.399 1285.34 740.196 1279.67 738.992 1274C736.185 1260.77 733.378 1247.54 730.57 1234.31C728.163 1222.96 725.662 1211.64 723.351 1200.28C720.156 1184.58 718.478 1187 725.876 1175.46C735.239 1160.86 740.511 1150.09 741.603 1132.33C742.323 1120.62 730.649 1115.19 720.942 1116.59C703.331 1119.13 676.394 1097.57 661.996 1088.93C641.651 1076.72 621.797 1063.71 602.214 1050.32C565.803 1025.42 522.173 1000.55 493.47 966.772C493.425 966.719 493.375 966.688 493.33 966.637C489.375 956.4 474.374 951.318 468.754 963.737C457.602 988.369 435.913 1019.76 445.332 1047.36C414.804 1089.69 393.438 1142.11 373.384 1189.72C362.148 1216.39 351.669 1243.36 342.643 1270.87C338.875 1282.35 325.531 1354.09 307.254 1350.12C295.389 1347.54 286.303 1357.22 288.528 1368.85C289.242 1372.58 299.913 1387.04 301.733 1388.88C299.529 1388.73 283.815 1396.88 282.641 1398.08C269.978 1411.05 274.331 1430.03 287.71 1440.37C297.832 1448.19 311.092 1447.97 323.041 1451.02C341.615 1455.75 358.517 1464.84 375.716 1473.01C407.984 1488.46 441.31 1501.59 475.443 1512.3C541.251 1532.74 556.311 1533.52 625.531 1533.27C647.411 1533.2 745.439 1549.93 762.826 1533.6C779.323 1518.11 758.176 1489.97 755.766 1466.01C793.814 1453.14 844.54 1426.73 873.515 1398.44C882.485 1389.58 890.856 1380.14 898.573 1370.17C909.158 1356.65 916.006 1357.47 931.432 1354.13C946.752 1350.82 954.944 1346.91 960.257 1331.78C963.245 1323.27 955.273 1312.54 946.164 1313.28Z" fill="#39B49B"/>
<path d="M729.576 1299.63C726.671 1298.72 723.565 1298.7 720.646 1299.56C692.643 1307.54 677.996 1345.03 669.446 1369.99C663.036 1388.71 693.126 1401.79 701.734 1383.61C702.708 1381.55 703.748 1379.52 704.783 1377.49C704.963 1379.14 705.242 1380.78 705.619 1382.4C709.132 1397.55 730.708 1403.63 741.235 1391.81C756.217 1374.98 757.483 1344.97 762.06 1323.46C766.54 1302.4 743.712 1291.03 729.576 1299.63Z" fill="#009376"/>
<path d="M725.851 1136.37C725.112 1131.62 720.033 1128.69 715.411 1128.64C709.801 1121.16 699.083 1118.34 690.407 1126.63C673.872 1142.42 637.38 1113.04 622.107 1104.55C604.806 1094.94 587.513 1085.31 570.228 1075.65C534.366 1055.5 497.783 1035.45 463.17 1013.26C448.983 1004.17 431.157 1026.28 444.82 1037.04C494.446 1076.11 544.572 1111.72 600.108 1142.19C624.452 1155.55 686.447 1192.43 710.394 1163.99C713.366 1165.63 717.109 1165.66 719.643 1162.66C723.021 1158.65 725.825 1154.78 726.432 1149.45C726.834 1145.08 726.638 1140.68 725.851 1136.37Z" fill="#009376"/>
<path d="M699.391 1219.33C695.119 1206.09 689.367 1193.37 682.245 1181.42C676.92 1172.54 667.314 1173.68 661.96 1179.25C659.396 1177.53 656.732 1175.96 653.982 1174.56C640.304 1167.73 629.421 1183.46 638.352 1194.82C643.835 1201.79 650.518 1207.59 656.513 1214.12C662.496 1220.64 668.039 1227.54 673.915 1234.16C683.971 1245.48 704.035 1233.57 699.391 1219.33Z" fill="#009376"/>
<path d="M437.277 1434.63C404.178 1411.9 365.675 1398.17 330.4 1379.37C304.331 1365.47 281.285 1404.55 307.19 1419.07C345.105 1440.34 386.751 1459.41 431.333 1456.57C443.247 1455.82 447.023 1441.32 437.277 1434.63Z" fill="#009376"/>
<path d="M953.957 1323.23C938.509 1312.52 920.639 1317.18 907.589 1300.54C897.86 1288.14 873.819 1298.2 875.519 1313.83C879.971 1354.76 818.075 1384.91 786.919 1399.34C743.684 1419.36 699.564 1434.41 655.866 1408.3C588.739 1368.19 523.822 1310.73 473.859 1250.75C467.644 1243.29 457.442 1246.29 452.31 1252.75C441.519 1247.63 426.189 1260.78 434.493 1272.14C458.166 1304.52 477.154 1343.15 496.04 1378.62C514.758 1413.78 524.648 1452.03 541.743 1487.55C557.602 1520.51 588.533 1525.83 622.107 1529.57C666.245 1534.48 709.639 1530.81 753.044 1522.13C768.578 1519.03 773.472 1497.21 762.364 1486.83C752.363 1477.49 741.15 1471.81 729.301 1467.4C768.829 1459.03 807.778 1436.88 840.279 1417.24C868.534 1400.17 898.279 1378.84 909.432 1349.4C929.283 1358.6 951.515 1358.69 958.338 1334C959.536 1329.66 957.462 1325.66 953.957 1323.23Z" fill="#009376"/>
<path d="M1146.44 663.295C1135.8 666.505 1125.63 673.079 1115.75 678.855C1121.88 673.202 1127.54 667.058 1132.67 660.482C1142.95 647.132 1123.81 633.282 1111.57 639.382C1106.65 641.881 1101.88 644.651 1097.27 647.679C1094.68 642.271 1089.56 638.431 1081.9 638.979C1055.3 640.883 1033.51 654.376 1008.78 663.368C985.906 671.685 962.426 678.243 938.548 682.984C897.321 691.168 855.053 692.825 813.134 690.08C812.842 686.073 811.369 682.243 808.902 679.073C806.434 675.903 803.082 673.535 799.269 672.27C780.48 666.027 761.716 659.363 743.026 652.464C727.142 645.121 711.431 637.365 696.906 628.105C676.583 615.148 635.967 592.424 635.469 565.471C635.171 549.346 613.658 538.426 601.958 551.59C595.541 558.809 587.289 573.517 574.994 562.478C572.601 560.328 571.481 547.218 569.743 543.66C564.73 533.401 555.614 523.435 544.451 519.827C513.39 509.789 502.784 549.778 473.354 544.776C461.629 542.784 455.267 532.828 445.002 528.108C432.507 522.362 420.041 524.628 408.496 531.369C376.8 549.88 355.828 580.565 320.288 594.308C239.591 625.511 215.011 527.755 205.46 468.953C193.071 392.678 205.121 313.98 229.213 241.286C234.148 226.396 213.161 219.389 205.126 231.13C174.158 276.388 154.388 330.227 147.002 385.765C120.72 481.124 124.472 579.491 162.935 672.159C182.596 719.526 211.309 761.214 247.185 797.799C268.504 819.538 291.374 839.749 313.784 860.343C337.318 881.969 359.807 906.648 386.856 923.817C394.522 928.681 403.893 926.542 410.516 921.213C419.43 925.51 428.824 928.727 438.5 930.797C452.342 933.74 462.727 913.733 448.656 906.71C404.858 884.85 368.102 841.262 360.906 792.22C354.317 747.303 367.643 703.142 389.711 664.259C398.443 656.139 405.919 648.767 408.942 635.462C409.037 635.048 409.041 634.647 409.116 634.236C409.859 633.213 410.58 632.166 411.334 631.154C412.166 629.902 412.689 628.471 412.859 626.977C413.03 625.484 412.844 623.972 412.317 622.564C413.106 622.612 413.897 622.566 414.675 622.425C417.112 623.542 419.804 623.982 422.469 623.701C425.134 623.42 427.675 622.428 429.825 620.828C431.512 619.633 433.149 618.422 434.773 617.203C438.221 619.38 442.046 620.892 446.051 621.659C456.947 623.743 466.064 619.967 473.578 613.6C476.907 614.681 480.347 615.387 483.834 615.705C489.317 616.215 494.846 615.804 500.193 614.491C504.499 621.021 511.022 625.773 518.558 627.868C526.976 630.385 532.782 629.787 538.021 627.711C543.1 633.769 548.957 639.13 555.44 643.655C560.346 647.213 565.768 649.998 571.518 651.912C568.839 671.959 567.784 692.817 574.596 708.973C580.444 722.842 599.667 724.795 604.879 708.973C604.9 708.91 604.91 708.847 604.93 708.783C610.132 710.022 615.565 708.309 618.402 701.721C626.026 684.026 631.606 665.937 640.371 649.019C641.56 648.565 642.741 648.071 643.905 647.495C645.406 646.719 646.766 645.699 647.929 644.475C648.068 644.545 648.199 644.623 648.338 644.694C655.111 648.092 662.228 651.22 669.473 654.22C698.877 670.978 729.338 685.81 760.664 698.623C756.223 709.335 760.612 724.205 773.414 726.72C828.557 737.576 885.183 738.624 940.691 729.816C952.981 727.904 967.055 725.636 981.707 722.666C978.654 724.196 975.628 725.772 972.545 727.254C959.813 733.376 968.827 755.373 982.267 750.317C997.846 744.456 1014.58 738.014 1031.31 730.667C1033.36 733.908 1037.2 736.034 1042.38 734.986C1061.52 731.111 1079.6 726.515 1097.33 719.722C1087.53 734.88 1077.39 749.85 1067.31 764.727C1062.65 771.604 1063.95 778.395 1068.02 783.252C1060.74 794.292 1053.28 805.216 1045.44 815.883C1035.64 829.24 1054.71 843.927 1066.98 836.006C1142.77 816.794 1175.69 746.457 1176.17 673.122C1176.27 657.365 1154.1 651.739 1146.44 663.295ZM175.804 580.277C176.455 581.6 177.108 582.923 177.791 584.232C182.945 601.368 188.093 618.481 193.861 635.43C186.555 617.492 180.521 599.062 175.804 580.277V580.277ZM606.16 656.653C606.081 654.582 606.039 652.51 605.986 650.437C607.649 650.266 609.293 649.941 610.897 649.469C609.269 651.835 607.655 654.211 606.16 656.653V656.653Z" fill="#8A4039"/>
<path d="M376.433 1673.88C404.122 1681.92 425.991 1687.54 462.451 1688.22C514.048 1689.16 564.984 1694.66 616.242 1692.13C657.129 1690.1 691.324 1687.03 732.237 1685.61C741.261 1649.87 738.089 1607.58 746.574 1570.92C749.126 1559.88 756.729 1539.95 745.271 1539.64C677.065 1537.78 608.302 1522.42 540.65 1513.57C505.33 1508.95 472.448 1507.08 440.296 1491.41C406.166 1474.79 367.686 1466.72 333.26 1451.15C326.829 1442.64 311.848 1441.76 308.414 1455.18C296.372 1502.26 305.574 1551.79 336.459 1589.66C350.027 1606.3 356.632 1611.16 359.489 1633.48C361.006 1645.32 364.706 1651.25 368.301 1661.23C370.41 1660.4 373.632 1673.07 376.433 1673.88Z" fill="#7C4C50"/>
<g style="mix-blend-mode:multiply" opacity="0.24">
<path d="M745.272 1539.64C677.065 1537.78 608.302 1522.42 540.651 1513.57C505.331 1508.95 472.449 1507.08 440.297 1491.41C417.069 1480.1 391.844 1472.72 367.234 1464.27C381.581 1476.27 397.178 1486.69 413.757 1495.35C444.116 1511.5 474.704 1522.47 506.98 1535.03C537.26 1546.8 568.209 1558.98 594.988 1577.71C621.272 1596.09 641.908 1620.45 652.027 1651.21C656.044 1663.65 658.499 1676.55 659.336 1689.6C683.208 1688.06 706.384 1686.5 732.238 1685.61C741.262 1649.87 738.09 1607.58 746.575 1570.92C749.127 1559.88 756.73 1539.95 745.272 1539.64Z" fill="#75484D"/>
</g>
<path d="M1048.18 1062.86C1030.14 1041.31 1007.46 1063.71 995.718 1078.15C971.445 1108.02 946.52 1137.16 922.882 1167.48C918.679 1172.88 920.093 1178.88 923.845 1182.12C922.977 1187.02 922.888 1192.03 922.734 1198.09C922.297 1215.01 943.392 1222.25 954.963 1211.44C981.211 1186.92 1003.45 1159.54 1023.8 1129.96C1035 1113.67 1065.61 1083.68 1048.18 1062.86Z" fill="#360604"/>
<path d="M1666.12 1487.76L1145.42 1493.95L1179.9 1043.09L1613.08 1044.86L1666.12 1487.76Z" fill="#39B49B"/>
<path d="M1662.12 1482.8L1149.49 1488.01L1611.72 1048.37L1662.12 1482.8Z" fill="#009376"/>
<path d="M1707.17 1498.1H1085.15V1581.25H1707.17V1498.1Z" fill="#39B49B"/>
<g style="mix-blend-mode:multiply" opacity="0.36">
<path d="M1707.17 1531.6H1085.15V1581.25H1707.17V1531.6Z" fill="#B76F48"/>
</g>
<path d="M1103.28 263.387C1023.9 128.463 853.516 5.60044 690.316 22.1935C657.687 25.3935 625.953 34.7168 596.778 49.6748C581.582 57.5507 567.232 66.9615 553.952 77.7599C549.754 81.1723 519.815 113.986 517.929 113.476C426.569 88.7707 328.741 123.968 260.475 186.296C225.437 218.285 195.189 256.205 174.243 298.937C154.789 338.623 135.663 385.819 130.572 429.879C130.238 432.774 134.764 433.196 135.529 430.551C148.05 387.307 157.347 347.511 180.89 308.272C204.53 268.873 232.987 232.068 269.653 203.92C328.582 158.682 400.685 140.038 474 137.48C489.328 136.945 513.85 142.49 528.072 137.838C542.171 133.226 560.972 106.981 573.128 97.8442C611.776 68.7944 652.041 46.6548 700.87 42.6046C811.176 33.4551 894.7 94.7223 982.795 150.704C1030.24 180.853 1067.89 224.942 1107.02 264.354C1108.14 265.48 1104.09 264.769 1103.28 263.387Z" fill="#E27B6D"/>
<path d="M848.594 983.135C847.897 993.84 852.774 1004.56 860.339 1011.99C864.374 1015.96 869.211 1019.03 874.528 1020.99C879.829 1022.82 885.531 1023.15 891.01 1021.96C894.749 1021.26 896.967 1017.03 896.499 1013.55C896.248 1011.72 895.35 1010.05 893.969 1008.83C892.588 1007.61 890.815 1006.92 888.972 1006.9C888.374 1006.88 887.781 1006.83 887.185 1006.79C885.695 1006.68 889.093 1007.15 887.551 1006.83C886.547 1006.63 885.555 1006.43 884.57 1006.13C883.725 1005.88 882.871 1005.66 882.029 1005.4C881.536 1005.25 881.048 1005.08 880.564 1004.9C878.688 1004.2 882.249 1005.7 880.786 1005.01C879.031 1004.22 877.334 1003.31 875.709 1002.28C875.274 1002 874.845 1001.7 874.425 1001.39C872.807 1000.22 875.823 1002.57 874.591 1001.52C873.852 1000.89 873.125 1000.26 872.433 999.575C871.743 998.896 871.083 998.187 870.453 997.449C870.164 997.11 869.901 996.745 869.606 996.412C871.439 998.48 870.033 996.935 869.644 996.361C868.616 994.735 867.686 993.048 866.861 991.311C868.057 993.628 867.311 992.374 867.076 991.728C866.875 991.175 866.691 990.615 866.524 990.05C866.274 989.203 866.066 988.346 865.898 987.477C865.842 987.188 865.791 986.898 865.745 986.608C865.932 988.096 865.985 988.494 865.904 987.802C865.855 987.287 865.799 986.774 865.771 986.256C865.719 985.216 865.726 984.174 865.792 983.135C866.062 978.636 861.644 974.337 857.193 974.536C854.929 974.588 852.772 975.51 851.17 977.112C849.568 978.713 848.646 980.87 848.594 983.135V983.135Z" fill="#841918"/>
<path d="M1262.92 1044.12V942.803C1262.92 924.736 1263.42 907.366 1270.09 890.162C1275.41 876.685 1283.44 864.445 1293.68 854.201C1303.93 843.958 1316.17 835.93 1329.65 830.616C1349.31 823.002 1369.24 823.452 1389.84 823.452C1407.87 823.452 1426.61 822.067 1444.57 824.121C1459.07 825.861 1473.04 830.594 1485.61 838.02C1498.18 845.446 1509.08 855.403 1517.59 867.26C1531.23 886.549 1537.24 908.58 1537.24 932.024V1040.83C1537.24 1052.38 1555.19 1052.4 1555.19 1040.83V936.136C1555.19 912.831 1551.54 890.599 1540.31 869.825C1525.24 842.325 1500.33 821.539 1470.58 811.638C1449.75 804.709 1428.27 805.507 1406.67 805.507C1386.35 805.507 1365.18 804.016 1345.09 807.664C1286.23 818.349 1245.09 871.615 1244.97 930.473C1244.9 968.355 1244.97 1006.24 1244.97 1044.12C1244.97 1055.67 1262.92 1055.69 1262.92 1044.12V1044.12Z" fill="#C1581E"/>
<path d="M721.689 1081.48C718.919 1083.84 716.383 1086.47 714.119 1089.31C712.722 1091.02 711.454 1092.82 710.324 1094.72C709.267 1096.64 708.409 1098.67 707.766 1100.77C707.483 1101.82 707.552 1102.94 707.963 1103.95C708.374 1104.96 709.105 1105.81 710.043 1106.37C710.816 1106.77 711.67 1107.01 712.543 1107.04C713.194 1107.04 713.839 1106.92 714.44 1106.67C715.041 1106.42 715.587 1106.05 716.046 1105.59C717.372 1103.96 718.751 1102.38 720.034 1100.71C719.737 1101.1 719.44 1101.48 719.142 1101.87C720.065 1100.67 721.035 1099.52 721.952 1098.33C721.645 1098.73 721.337 1099.12 721.03 1099.52C723.735 1096.02 726.84 1092.85 730.281 1090.08C731.42 1088.94 732.06 1087.39 732.061 1085.78C732.049 1084.17 731.411 1082.63 730.281 1081.48C729.139 1080.35 727.596 1079.71 725.985 1079.71C724.389 1079.77 722.868 1080.4 721.689 1081.48V1081.48Z" fill="#841918"/>
<path d="M984.943 948.74C971.928 958.801 920.908 938.986 895.954 928.83C861.185 914.679 829.059 894.45 795.943 876.658C735.16 844.001 596.61 728.971 594.04 725.48C588.51 717.966 576.857 717.244 581.332 725.634C608.563 776.693 642.504 824.828 625.157 879.235C609.656 927.853 544.446 979.861 484.52 908.107C479.317 901.878 470.348 905.648 475.572 913.258C511.843 966.087 580.859 1014.98 614.566 1037.44C654.247 1063.88 700.887 1082.58 748.393 1089.09C788.863 1094.64 829.227 1100.46 863.855 1083.89C910.376 1071.22 961.731 1019.07 983.366 979.492C992.351 963.055 988.855 945.717 984.943 948.74Z" fill="#FFA294"/>
<path d="M988.773 952.57C972.214 963.609 924.737 942.815 899.783 932.659C865.014 918.508 835.812 900.716 802.696 882.924C741.912 850.267 598.67 733.705 596.099 730.213C590.569 722.699 574.909 717.077 580.481 724.783C617.54 776.036 646.333 828.658 628.986 883.064C613.485 931.683 548.275 983.69 488.349 911.936C483.146 905.707 474.177 909.478 479.401 917.087C515.672 969.917 584.688 1018.81 618.395 1041.27C658.076 1067.71 704.716 1086.41 752.222 1092.92C792.692 1098.47 830.35 1098.45 864.978 1081.88C911.499 1069.21 968.088 1024.18 987.196 983.321C989.074 979.304 992.886 949.828 988.773 952.57Z" fill="white"/>
<path opacity="0.79" d="M988.773 952.571C977.849 959.852 953.484 953.27 930.992 945.039C935.9 961.02 935.052 977.39 922.005 990.991C892.795 1021.44 827.862 1006.36 791.604 995.102C813.191 1009.49 819.244 1016.44 824.072 1028.96C830.439 1045.48 828.676 1059.89 814.79 1070.26C798.834 1082.17 774.596 1089.43 754.397 1093.2C794.04 1098.45 830.974 1098.15 864.978 1081.88C911.499 1069.22 968.088 1024.18 987.195 983.321C989.074 979.305 992.885 949.828 988.773 952.571Z" fill="#FFCFE9"/>
<path d="M1663.2 1478.47H1167.95C1161.5 1478.47 1154.18 1477.5 1147.78 1478.47C1147.49 1478.49 1147.19 1478.49 1146.9 1478.47C1149.89 1481.46 1152.88 1484.45 1155.87 1487.44C1159.15 1437.43 1162.43 1387.42 1165.71 1337.41C1170.91 1258.25 1176.1 1179.1 1181.3 1099.94L1184.9 1045.01L1175.93 1053.99C1225.41 1053.89 1274.88 1053.79 1324.36 1053.69L1559.87 1053.21C1577.86 1053.18 1595.84 1053.14 1613.82 1053.1C1610.83 1050.11 1607.84 1047.12 1604.85 1044.13C1610.42 1094.16 1615.99 1144.19 1621.57 1194.22L1648.17 1433.09C1650.19 1451.21 1652.21 1469.32 1654.23 1487.44C1655.49 1498.8 1673.45 1498.92 1672.17 1487.44C1666.6 1437.42 1661.03 1387.39 1655.46 1337.36L1628.85 1098.49C1626.83 1080.37 1624.81 1062.25 1622.8 1044.13C1622.26 1039.32 1619.12 1035.15 1613.82 1035.16C1564.35 1035.26 1514.87 1035.36 1465.39 1035.46L1229.88 1035.93C1211.9 1035.97 1193.91 1036.01 1175.93 1036.04C1170.84 1036.05 1167.28 1040.16 1166.96 1045.01C1163.68 1095.03 1160.39 1145.04 1157.11 1195.05C1151.92 1274.2 1146.72 1353.36 1141.53 1432.52C1140.33 1450.83 1139.12 1469.14 1137.92 1487.44C1137.6 1492.29 1142.29 1496.42 1146.9 1496.42H1599.7C1620.49 1496.42 1641.54 1497.38 1662.31 1496.42C1662.6 1496.4 1662.9 1496.42 1663.2 1496.42C1674.75 1496.42 1674.77 1478.47 1663.2 1478.47Z" fill="#841918"/>
<path d="M1706.14 1568.81H1110.7C1102.86 1568.81 1094.07 1567.68 1086.29 1568.81C1085.94 1568.84 1085.58 1568.84 1085.23 1568.81C1088.22 1571.8 1091.21 1574.8 1094.2 1577.79V1494.38L1085.23 1503.35H1680.67C1688.5 1503.35 1697.3 1504.49 1705.08 1503.35C1705.43 1503.33 1705.78 1503.33 1706.14 1503.35L1697.17 1494.38V1577.79C1697.17 1589.33 1715.11 1589.35 1715.11 1577.79V1494.38C1715.08 1492.01 1714.12 1489.75 1712.45 1488.07C1710.77 1486.4 1708.51 1485.44 1706.14 1485.41H1161.59C1136.58 1485.41 1111.29 1484.32 1086.29 1485.41C1085.94 1485.42 1085.58 1485.41 1085.23 1485.41C1082.86 1485.44 1080.6 1486.4 1078.92 1488.07C1077.25 1489.75 1076.29 1492.01 1076.26 1494.38V1577.79C1076.29 1580.16 1077.25 1582.42 1078.92 1584.09C1080.6 1585.77 1082.86 1586.73 1085.23 1586.76H1629.78C1654.79 1586.76 1680.08 1587.84 1705.08 1586.76C1705.43 1586.74 1705.78 1586.76 1706.14 1586.76C1717.69 1586.76 1717.7 1568.81 1706.14 1568.81Z" fill="#841918"/>
<path d="M577.89 709.246C577.901 670.354 556.171 632.791 521.109 615.172C484.749 596.901 439.129 602.796 407.6 628.101C373.929 655.125 359.898 701.664 355.209 742.954C350.313 786.056 358.142 832.601 385.295 867.45C412.241 902.034 455.69 923.458 499.675 914.377C505.566 913.161 504.356 903.065 498.234 903.729C464.135 907.425 430.25 892.233 407.029 867.629C381.034 840.085 370.899 801.605 371.719 764.457C372.523 727.988 382.17 686.655 405.302 657.601C416.005 644.163 430.355 634.095 446.633 628.601C462.91 623.107 480.426 622.421 497.084 626.625C534.141 636.125 562.064 671.035 563.683 709.246C564.068 718.34 577.887 718.439 577.89 709.246V709.246Z" fill="#841918"/>
<path d="M443.593 740.959C480.579 764.785 494.537 807.373 492.556 849.649C492.165 857.995 504.646 859.365 506.876 851.587C520.399 804.428 491.956 751.691 451.612 727.239C442.817 721.908 435.031 735.444 443.593 740.959Z" fill="#841918"/>
<path d="M441.656 786.286C458.605 790.711 475.512 795.343 492.571 799.322C499.7 800.985 502.705 790.282 495.602 788.326C478.712 783.677 461.643 779.675 444.638 775.47C437.635 773.739 434.659 784.459 441.656 786.286Z" fill="#841918"/>
<path d="M474.249 972.666C514.799 998.491 554.81 1025.14 594.799 1051.82C634.692 1078.44 674.571 1105.77 717.345 1127.56C726.753 1132.36 733.63 1119.78 725.459 1113.68C686.945 1084.95 645.864 1059.59 605.334 1033.8C564.815 1008.01 524.273 982.253 483.212 957.332C473.394 951.373 464.64 966.545 474.249 972.666V972.666Z" fill="#841918"/>
<path d="M441.329 923.235C443.35 930.262 444.798 937.441 445.658 944.701C446.089 948.076 447.155 951.998 446.334 955.326C445.43 958.955 444.344 962.537 443.079 966.057C441.342 970.925 445.454 976.04 450.15 976.671C454.889 977.308 460.135 973.506 459.786 968.318C459.493 963.964 458.982 959.628 458.253 955.326C457.653 951.786 458.553 947.909 458.432 944.264C458.048 935.929 456.601 927.676 454.127 919.707C453.896 918.866 453.501 918.078 452.966 917.39C452.431 916.701 451.765 916.124 451.006 915.693C450.248 915.262 449.412 914.985 448.547 914.877C447.681 914.769 446.802 914.833 445.962 915.065C445.121 915.296 444.334 915.692 443.646 916.228C442.957 916.764 442.382 917.431 441.952 918.19C441.521 918.948 441.245 919.785 441.138 920.65C441.031 921.516 441.096 922.394 441.329 923.235V923.235Z" fill="#841918"/>
<path d="M729.067 1307.84C719.671 1318.31 711.035 1329.44 703.223 1341.14C699.492 1346.73 695.966 1352.46 692.646 1358.32C689.024 1364.71 685.467 1371.14 683.45 1378.23C681.338 1385.66 691.336 1389.19 695.408 1383.27C699.118 1377.87 701.857 1371.96 705.009 1366.23C708.252 1360.34 711.705 1354.57 715.369 1348.92C722.475 1337.98 730.367 1327.56 738.98 1317.75C740.255 1316.42 740.966 1314.64 740.966 1312.8C740.966 1310.95 740.255 1309.18 738.98 1307.84C736.412 1305.27 731.603 1305.01 729.067 1307.84V1307.84Z" fill="#841918"/>
<path d="M735.705 1306.69L726.845 1334.77C725.423 1339.28 724.001 1343.79 722.578 1348.3C721.037 1353.18 718.562 1358.61 719.016 1363.82C719.039 1365.1 719.431 1366.34 720.144 1367.4C720.858 1368.46 721.862 1369.29 723.037 1369.8C725.27 1370.69 728.529 1370.48 730.184 1368.44C733.752 1364.06 734.968 1358.6 736.563 1353.28C737.972 1348.58 739.381 1343.88 740.791 1339.18C743.662 1329.61 746.533 1320.04 749.404 1310.47C752.041 1301.68 738.448 1298 735.705 1306.69V1306.69Z" fill="#841918"/>
<path d="M533.389 99.5384C458.592 87.7851 382.408 97.9545 315.21 133.688C253.465 166.522 203.69 218.948 170.434 280.167C135.467 344.535 119.899 417.372 117.238 490.19C114.593 562.558 126.916 635.482 157.714 701.287C190.58 771.51 245.558 829.315 311.257 869.916C320.393 875.562 329.725 880.87 339.198 885.928C345.662 889.378 351.3 879.822 344.953 876.082C278.998 837.209 223.645 783.901 186.487 716.675C152.837 655.795 137.374 586.498 136.418 517.241C135.466 448.397 146.5 377.241 175.319 314.337C202.997 253.923 246.198 200.508 301.953 163.884C361.345 124.87 431.773 108.142 502.459 111.84C512.128 112.345 521.768 113.228 531.376 114.409C539.766 115.441 541.816 100.863 533.389 99.5384V99.5384Z" fill="#841918"/>
<path d="M346.677 892.779C340.776 883.426 334.583 874.223 329.513 864.382C325.732 857.043 313.884 862.121 316.226 869.984C319.159 879.833 326.365 889.231 332.729 897.124C339.363 905.241 347.025 912.461 355.522 918.6C372.256 930.884 392.504 939.461 413.408 940.245C421.039 940.531 422.757 928.572 415.222 926.843C397.116 922.689 379.921 916.386 364.717 905.502C357.523 900.284 350.943 894.267 345.105 887.566C342.164 884.228 339.451 880.695 336.985 876.992C334.279 872.928 332.276 868.373 329.513 864.382C325.707 867.319 321.901 870.255 318.095 873.192C324.759 881.285 330.416 890.184 336.347 898.818C340.656 905.089 350.833 899.366 346.677 892.779Z" fill="#841918"/>
<path d="M410.618 926.198C410.999 926.481 411.38 926.765 411.758 927.054C412.057 927.281 412.06 927.284 411.768 927.062C411.917 927.179 412.066 927.297 412.215 927.415C412.955 928.011 413.695 928.605 414.422 929.216C415.804 930.376 417.155 931.573 418.474 932.805C421.182 935.334 423.753 938.006 426.176 940.811C428.373 943.306 430.407 945.94 432.265 948.697C434.425 951.836 436.686 954.889 438.697 958.131C439.39 959.268 440.497 960.091 441.784 960.429C443.072 960.766 444.44 960.592 445.602 959.942C448.131 958.463 448.574 955.514 447.413 953.036C440.528 938.346 429.168 926.234 416.185 916.674C413.853 914.958 409.931 916.21 408.64 918.653C407.114 921.54 408.139 924.352 410.618 926.198V926.198Z" fill="#841918"/>
<path d="M537.674 111.766C597.793 41.0813 698.279 10.6798 788.028 31.635C833.007 42.137 875.32 62.7275 914.364 87.0301C956.895 113.502 995.77 145.215 1031.41 180.357C1069.25 217.52 1102.18 259.36 1129.42 304.863C1134.23 312.934 1145.77 305.867 1141.85 297.598C1120.89 253.363 1090.1 214.395 1056.56 178.998C1020.65 141.232 980.435 107.803 936.743 79.3944C896.252 52.9995 852.155 30.5539 805.459 17.5071C758.487 4.35206 708.878 3.79791 661.624 15.9004C608.948 29.4112 562.24 60.0121 528.818 102.91C523.975 109.113 532.366 118.007 537.674 111.766V111.766Z" fill="#841918"/>
<path d="M698.254 1146.75C712.982 1190.25 715.043 1237.09 730.347 1280.38C733.872 1290.35 749.535 1286.32 746.389 1275.95C733.081 1232.09 729.28 1185.7 714.297 1142.32C710.826 1132.27 694.803 1136.55 698.254 1146.75Z" fill="#841918"/>
<path d="M1087.25 714.206C1068.31 754.573 1046.82 793.771 1024.16 832.154C1006.35 862.306 988.341 893.229 967.783 921.614C963.755 927.176 972.807 934.164 977.325 928.976C1000.67 902.167 1018.77 871.359 1036.51 840.699C1059.04 801.774 1080.33 762.009 1099.03 721.093C1102.65 713.186 1090.99 706.228 1087.25 714.206V714.206Z" fill="#841918"/>
<path d="M967.298 932.6C972.373 942.993 978.335 954.474 979.102 966.244C979.703 975.473 974.844 982.454 969.027 989.133C954.202 1006.15 938.594 1022.6 921.388 1037.25C891.856 1062.39 857.125 1079.92 818.388 1084.87C793.921 1088 768.546 1086.45 744.121 1083.65C738.64 1083.02 737.587 1091.91 742.829 1093.19C787.812 1104.17 834.538 1103.72 877.241 1084.48C919.134 1065.61 954.135 1031.41 983.035 996.384C990.174 987.731 994.29 978.472 993.552 967.087C992.602 952.423 985.442 938.674 978.758 925.901C974.773 918.285 963.579 924.983 967.298 932.6V932.6Z" fill="#841918"/>
<path d="M1136.61 316.69C1159.33 348.478 1174.53 385.288 1186.63 422.239C1199.94 463.06 1209.71 504.956 1215.8 547.46C1221.7 588.374 1225.05 631.922 1217.57 672.819C1209.72 715.751 1186.06 751.82 1152.61 779.351C1115.67 809.763 1069.9 829.155 1024.02 841.499C1015.66 843.747 1019.26 855.829 1027.55 854.297C1111.72 838.747 1202.04 789.391 1230.35 703.376C1244.74 659.646 1242.3 610.574 1236.78 565.425C1231.39 521.398 1222.12 477.936 1209.05 435.549C1195.4 391.314 1177.74 346.324 1150.17 308.765C1144.27 300.733 1130.69 308.413 1136.61 316.69V316.69Z" fill="#841918"/>
<path d="M1146.46 671.688C1081.67 716.657 1009.93 749.348 934.523 772.062C929.117 773.69 931.358 781.923 936.859 780.534C1013.83 761.088 1086.63 725.912 1151.65 680.566C1157.04 676.81 1151.92 667.901 1146.46 671.688V671.688Z" fill="#841918"/>
<path d="M1094.19 669.699C1048.88 695.211 1003.46 720.541 958.517 746.694C951.746 750.634 957.774 760.915 964.65 757.186C1010.37 732.387 1055.62 706.765 1100.98 681.32C1108.54 677.083 1101.76 665.44 1094.19 669.699Z" fill="#841918"/>
<path d="M1019.97 679.759C949.629 728.055 858.468 742.001 776.431 719.231C753.417 712.853 731.303 703.588 710.617 691.656C704.298 688.009 695.364 695.681 700.027 702.246C717.369 726.657 756.214 726.414 773.06 701.515C775.136 698.447 773.91 692.862 770.385 691.312C753.412 683.852 735.814 678.315 718.264 672.418C698.56 665.797 679.848 657.641 661.091 648.731C654.922 645.801 650.436 653.767 655.808 657.77C687.571 681.442 727.375 688.17 762.857 704.191C761.965 700.789 761.074 697.388 760.182 693.987C749.893 708.871 723.973 709.213 713.394 694.433L702.804 705.022C779.863 749.125 876.415 755.227 959.331 724.225C982.817 715.485 1005.07 703.74 1025.54 689.282C1031.27 685.226 1025.87 675.712 1019.97 679.759V679.759Z" fill="#841918"/>
<path d="M657.445 633.167C634.404 663.89 610.517 694.007 589.123 725.912C585.035 732.009 594.596 739.561 599.399 733.841C624.528 703.913 647.81 672.486 671.326 641.281C673.941 637.812 671.88 632.295 668.442 630.284C664.333 627.88 660.058 629.683 657.445 633.167Z" fill="#841918"/>
<path d="M627.927 639.104C605.515 664.524 595.923 697.247 587.181 729.219C585.812 734.226 593.406 736.287 594.932 731.355C604.286 701.121 610.872 667.864 632.157 643.334C634.666 640.443 630.484 636.204 627.927 639.104V639.104Z" fill="#841918"/>
<path d="M308.081 1450.33C345.105 1469.95 384.578 1485.01 424.398 1497.89C467.317 1511.76 511.408 1523.53 556.005 1530.54C578.807 1534.26 601.797 1536.72 624.869 1537.91C636.219 1538.44 636.077 1521.09 624.869 1520.34C584.242 1517.64 543.844 1509.93 504.2 1500.88C461.173 1491.18 418.87 1478.51 377.593 1462.97C356.72 1455.15 336.314 1446.13 316.478 1435.96C306.996 1431.04 298.593 1445.3 308.081 1450.33V1450.33Z" fill="#841918"/>
<path d="M439.264 1043.53C415.831 1074.61 399.118 1110.85 383.623 1146.34C364.755 1189.56 347.971 1233.74 332.914 1278.43C325.083 1301.67 316.349 1325.31 312.093 1349.53C310.715 1357.37 322.215 1363.95 326.102 1355.43C334.925 1336.09 341.084 1315.47 347.886 1295.36C355.396 1273.16 363.136 1251.04 371.106 1228.98C386.444 1186.66 402.93 1144.56 423.126 1104.28C432.177 1086.24 441.993 1068.43 453.953 1052.12C460.465 1043.24 445.753 1034.93 439.264 1043.53V1043.53Z" fill="#841918"/>
<path d="M311.356 1345.9C297.496 1337.39 281.068 1349.68 279.264 1364.26C278.307 1372 281.756 1379.4 286.711 1385.16C291.234 1390.43 298.113 1395.91 304.973 1397.46C305.701 1392.07 306.43 1386.69 307.158 1381.31C288.736 1379.21 271.306 1394.95 270.471 1413.21C269.654 1431.05 286.134 1448.12 304.017 1447.61C313.086 1447.34 312.722 1434.68 304.017 1433.77C294.254 1432.75 285.045 1424.1 285.728 1413.82C286.318 1404.94 295.818 1396.16 304.973 1397.46C312.745 1398.56 319.055 1390.19 312.969 1383.72C308.222 1378.67 299.627 1375.57 298.303 1368.01C298.073 1366.7 298.36 1365.49 299.825 1363.91C300.741 1362.93 300.085 1363.58 300.702 1363.15C301.235 1362.88 301.293 1362.81 300.874 1362.95C300.297 1363.11 300.52 1363.04 301.543 1362.72C301.207 1363.12 300.42 1362.6 301.766 1362.74C300.919 1362.66 299.773 1361.99 301.356 1363.01C312.076 1369.92 322.239 1352.58 311.356 1345.9V1345.9Z" fill="#841918"/>
<path d="M726.802 1132.09C726.779 1137 726.612 1141.9 726.203 1146.8C726.021 1148.97 725.775 1151.13 725.519 1153.3C725.62 1152.44 725.623 1152.58 725.509 1153.36C725.434 1153.86 725.36 1154.37 725.282 1154.88C725.109 1156 724.923 1157.12 724.724 1158.24C723.324 1166.12 721.335 1173.91 719.43 1181.67C718.394 1185.89 720.775 1190.89 725.24 1191.91C727.365 1192.45 729.618 1192.14 731.526 1191.06C733.433 1189.98 734.848 1188.2 735.472 1186.1C740.89 1168.6 743.7 1150.41 743.813 1132.09C743.813 1127.64 739.9 1123.38 735.307 1123.59C733.064 1123.63 730.923 1124.53 729.336 1126.12C727.749 1127.71 726.841 1129.85 726.802 1132.09V1132.09Z" fill="#841918"/>
<path d="M303.143 1443.34C288.267 1498.38 303.897 1560.25 346.459 1598.97C354 1605.83 364.866 1595.11 357.695 1587.73C321.689 1550.69 305.518 1497.97 318.464 1447.56C321.009 1437.66 305.814 1433.46 303.143 1443.34V1443.34Z" fill="#841918"/>
<path d="M344.603 1599.32C347.048 1610.6 349.967 1621.75 353.084 1632.86C357.189 1647.5 361.124 1662.13 366.322 1676.41C370.039 1686.63 384.467 1682.62 382.545 1671.94C377.812 1645.67 368.579 1620.38 362.989 1594.26C361.912 1589.22 356.019 1586.29 351.262 1587.6C346.062 1589.03 343.509 1594.28 344.603 1599.32Z" fill="#841918"/>
<path d="M741.846 1543.79C738.996 1566.39 735.027 1588.84 731.239 1611.3C727.493 1633.51 722.386 1656.86 723.315 1679.45C723.679 1688.3 736.701 1690.61 739.104 1681.59C745.038 1659.3 747.017 1635.57 750.007 1612.72C753.01 1589.78 756.135 1566.83 758.295 1543.79C759.294 1533.13 743.141 1533.51 741.846 1543.79V1543.79Z" fill="#841918"/>
<path d="M960.969 825.664C953.46 840.327 944.449 854.17 934.081 866.971C929.307 872.916 924.463 878.81 919.549 884.651C917.324 887.307 915.083 889.948 912.824 892.575C911.309 894.342 909.855 896.13 908.456 897.993C908.063 898.516 907.676 899.043 907.286 899.568C907.168 899.727 905.238 902.214 906.671 900.428C910.988 899.871 915.306 899.314 919.624 898.757C914.924 896.391 909.308 896.604 905.422 900.49C903.293 902.687 902.103 905.626 902.103 908.685C902.103 911.744 903.293 914.684 905.422 916.88C914.741 926.199 931.032 913.728 923.459 902.592C922.902 906.909 922.345 911.227 921.787 915.545C944.391 891.947 965.228 866.076 978.886 836.137C981.21 831.043 980.34 824.97 975.164 821.942C970.565 819.252 963.485 820.633 960.969 825.664V825.664Z" fill="#841918"/>
<path d="M932.64 792.721C946.106 784.135 965.861 782.984 980.115 790.458C994.265 797.877 1003.08 812.86 1005.78 828.302C1007.24 836.618 1019.93 834.318 1020.1 826.364C1020.57 804.749 1007.04 784.469 987.546 775.344C977.333 770.44 965.901 768.656 954.679 770.216C943.779 771.767 934.125 776.755 925.618 783.62C920.487 787.76 927.143 796.227 932.64 792.721V792.721Z" fill="#841918"/>
<path d="M1338.64 1346.78C1341.6 1349.28 1344.56 1351.94 1348.24 1353.3C1347.54 1352.08 1346.85 1350.85 1346.15 1349.63C1343.03 1363.41 1340.15 1377.38 1339.42 1391.52C1339.13 1397.19 1338.53 1403.57 1341.09 1408.82C1343.18 1413.09 1347.34 1416.91 1352.32 1417.02C1364.09 1417.29 1368 1402.58 1369.13 1393.49C1370.06 1386.06 1370.62 1378.65 1370.92 1371.17C1371.09 1366.78 1371.24 1362.39 1371.31 1357.99C1371.35 1355.99 1372.02 1352.18 1370.34 1350.62C1369.9 1352.29 1369.46 1353.96 1369.02 1355.62C1397.55 1348 1401.11 1307.74 1385.29 1287.14C1377.02 1276.38 1363.3 1272.44 1350.92 1278.68C1339.35 1284.51 1332.64 1297.27 1329.88 1309.46C1326.98 1322.34 1328.1 1337.56 1338.64 1346.78C1341.53 1349.3 1345.78 1345.08 1342.87 1342.55C1327.84 1329.41 1334.33 1300.99 1347.25 1288.56C1356.3 1279.85 1369.65 1279.19 1378.5 1288.36C1385.29 1295.4 1388.53 1305.9 1388.68 1315.52C1388.91 1329.68 1382.38 1345.86 1367.43 1349.85C1366.93 1350 1366.48 1350.27 1366.11 1350.64C1365.75 1351.02 1365.49 1351.48 1365.36 1351.98C1365.22 1352.48 1365.22 1353.01 1365.36 1353.52C1365.49 1354.02 1365.75 1354.48 1366.11 1354.85C1365.07 1353.89 1365.35 1352.35 1365.36 1354.46C1365.36 1355.54 1365.35 1356.61 1365.34 1357.69C1365.29 1360.9 1365.19 1364.11 1365.08 1367.32C1364.9 1372.33 1364.84 1377.4 1364.34 1382.39C1363.5 1390.66 1363.82 1402.08 1357.55 1408.43C1353.59 1412.45 1348.88 1411.12 1346.46 1406.23C1344.26 1401.78 1345.16 1395.67 1345.44 1390.87C1346.2 1377.47 1348.96 1364.27 1351.92 1351.22C1352.1 1350.45 1351.99 1349.65 1351.6 1348.96C1351.22 1348.28 1350.58 1347.77 1349.83 1347.54C1347.19 1346.56 1344.99 1344.33 1342.87 1342.55C1339.95 1340.07 1335.7 1344.28 1338.64 1346.78Z" fill="white"/>
<path d="M1413.76 1329.45C1409.89 1321.27 1407.86 1311.96 1406.93 1303C1406.48 1298.63 1404.12 1284.95 1410.7 1283.92C1417.26 1282.89 1419.45 1290.66 1420.61 1295.41C1421.99 1301.04 1422.51 1308 1425.51 1313.06C1426.7 1315.06 1427.94 1315.4 1430.08 1315.4C1430.32 1315.29 1430.56 1315.19 1430.79 1315.09C1429.44 1315.44 1429.34 1315.51 1430.5 1315.31C1431.05 1315.11 1431.56 1314.82 1432.02 1314.47C1432.78 1313.71 1433.29 1312.73 1433.48 1311.67C1434.93 1305.79 1433.46 1299.1 1433.64 1293.12C1433.72 1289.76 1434.3 1286.43 1435.38 1283.24C1436.79 1279.23 1441.46 1275.97 1444.59 1280.55C1446.27 1283.01 1446.54 1286.87 1446.91 1289.73C1447.36 1293.24 1447.58 1296.76 1447.87 1300.28C1448.11 1303.16 1448.27 1313.26 1453.96 1310.32C1458.23 1308.12 1457.26 1298.27 1457.51 1294.38C1457.74 1290.86 1458.95 1276.71 1465.45 1280.74C1469.36 1283.17 1469.84 1291.4 1470.27 1295.44C1471.68 1308.86 1473.1 1327.23 1460.93 1336.29C1458.69 1337.96 1455.84 1339.36 1453.95 1341.44C1452.52 1343.01 1452.69 1344.46 1452.81 1346.39C1453.17 1352.64 1453.41 1358.91 1453.99 1365.14C1454.51 1370.84 1455.52 1376.48 1456.03 1382.17C1456.5 1387.5 1457.13 1394.24 1454.88 1399.27C1452.75 1404.05 1446.12 1406.26 1441.52 1403.81C1438.73 1402.33 1437.41 1399.36 1436.95 1396.35C1436.12 1390.87 1436.16 1385.09 1435.85 1379.55C1435.21 1368.27 1434.72 1356.96 1434.91 1345.65C1434.9 1345 1434.69 1344.36 1434.29 1343.84C1433.89 1343.32 1433.34 1342.95 1432.71 1342.77C1424.97 1341.39 1419.1 1338.29 1415.12 1331.33C1413.21 1327.99 1408.04 1331 1409.95 1334.35C1414.66 1342.58 1421.9 1346.9 1431.12 1348.54C1430.39 1347.58 1429.66 1346.61 1428.92 1345.65C1428.71 1358.64 1429.37 1371.64 1430.17 1384.6C1430.69 1393.07 1429.85 1404.19 1438.5 1408.98C1444.39 1412.24 1452.2 1410.87 1457.04 1406.33C1464.82 1399.03 1462.46 1384.88 1461.25 1375.55C1460.01 1366.03 1459.38 1356.55 1458.82 1346.97C1458.82 1346.07 1458.76 1345.17 1458.66 1344.28C1458.4 1344.23 1457.92 1345.43 1458.35 1345.52C1458.44 1345.53 1458.74 1345.11 1458.84 1345.08C1459.8 1344.81 1460.94 1343.59 1461.76 1343.01C1465.58 1340.32 1468.69 1337.84 1471.12 1333.78C1476.76 1324.36 1477.37 1313.96 1476.81 1303.25C1476.44 1296.41 1476.11 1289.17 1473.61 1282.72C1472.35 1279.47 1470.39 1276.17 1466.98 1274.86C1462.99 1273.34 1458.36 1275.01 1455.74 1278.24C1452.56 1282.17 1452.01 1287.77 1451.64 1292.64C1451.44 1295.32 1451.34 1298 1451.12 1300.68C1451.04 1301.72 1450.97 1302.76 1450.81 1303.79C1450.69 1304.19 1450.62 1304.6 1450.58 1305.01C1450.82 1306.42 1448.39 1304.85 1452.23 1304.76C1452.93 1305.05 1453.64 1305.34 1454.34 1305.63C1455.05 1306.32 1454.35 1304.9 1454.24 1304.25C1454.08 1303.2 1454.01 1302.12 1453.92 1301.06C1453.62 1297.58 1453.4 1294.1 1453 1290.64C1452.34 1284.92 1451.74 1277.59 1446.43 1274.14C1440.28 1270.14 1433.09 1273.34 1430.35 1279.73C1427.71 1285.89 1427.54 1292.64 1427.74 1299.22C1427.83 1302.11 1427.99 1305.02 1427.88 1307.91C1427.87 1308.23 1427.61 1310.43 1427.66 1310.46C1430.39 1312.15 1429.46 1307.64 1427.97 1309.83C1428.94 1310.01 1429.91 1310.19 1430.88 1310.37C1430.73 1310.14 1430.6 1309.9 1430.48 1309.65C1430.54 1308.8 1429.62 1307.16 1429.38 1306.3C1429.02 1305 1428.7 1303.68 1428.38 1302.37C1427.57 1298.99 1426.85 1295.59 1425.98 1292.22C1424.55 1286.68 1422.24 1281.61 1416.72 1279.12C1411.93 1276.95 1406.08 1277.75 1402.98 1282.3C1398.64 1288.68 1400.4 1299.21 1401.36 1306.35C1402.41 1315.37 1404.86 1324.18 1408.59 1332.47C1410.24 1335.95 1415.4 1332.91 1413.76 1329.45V1329.45Z" fill="white"/>
<path d="M1371.63 1200.4C1355.1 1200.4 1341.56 1215.99 1341.56 1236.22C1341.56 1256.45 1355.1 1273.65 1371.63 1273.65C1388.15 1273.65 1401.55 1257.25 1401.55 1237.02C1401.55 1216.8 1388.15 1200.4 1371.63 1200.4ZM1371.61 1253.08C1367.64 1253.32 1363.6 1251.19 1361.11 1246.41C1357.52 1239.51 1357.94 1228.45 1364.46 1223.34C1368.69 1220.02 1375.29 1220.88 1379.22 1224.54C1385.06 1229.97 1385.57 1239.14 1382.34 1245.9C1381.35 1247.94 1379.84 1249.68 1377.95 1250.94C1376.07 1252.21 1373.88 1252.94 1371.61 1253.08H1371.61Z" fill="white"/>
<path d="M1440.22 1193.9C1423.88 1191.47 1408.19 1204.91 1405.22 1224.92C1402.26 1244.93 1413.13 1263.93 1429.48 1266.35C1445.82 1268.78 1461.48 1254.53 1464.45 1234.52C1467.42 1214.51 1456.57 1196.32 1440.22 1193.9ZM1432.48 1246.01C1428.51 1245.66 1424.83 1242.96 1423.07 1237.86C1420.53 1230.52 1422.57 1219.64 1429.77 1215.54C1432.08 1214.31 1434.75 1213.94 1437.3 1214.5C1439.86 1215.05 1442.14 1216.5 1443.73 1218.58C1448.71 1224.81 1448.33 1234.27 1444.14 1240.47C1442.87 1242.35 1441.11 1243.85 1439.06 1244.82C1437.01 1245.8 1434.74 1246.2 1432.48 1246.01V1246.01Z" fill="white"/>
<path d="M1330.03 1232.53C1320.14 1233.18 1310.34 1234.77 1300.75 1237.28C1300.59 1236.63 1300.4 1235.98 1300.25 1235.33C1299.31 1231.47 1297.07 1226.19 1297.61 1222.23C1297.94 1219.83 1299.67 1219.02 1301.99 1218.13C1310.08 1215.05 1319.86 1214.6 1328.41 1214.36C1339.9 1214.04 1340.62 1196.1 1329.05 1196.43C1317.46 1196.75 1304.9 1197.63 1294.07 1202.1C1282.32 1206.94 1278.23 1217.54 1280.52 1229.59C1285.1 1253.68 1293.27 1277.4 1302.37 1300.12C1304.18 1304.61 1310.6 1305.88 1314.53 1303.77C1319.19 1301.26 1319.99 1296.13 1318.18 1291.61C1313.32 1279.49 1309.12 1267.1 1305.44 1254.56C1312.4 1252.74 1319.47 1251.45 1326.62 1250.69C1327.54 1250.61 1328.47 1250.53 1329.4 1250.47C1331.76 1250.48 1334.05 1249.62 1335.83 1248.06C1337.56 1246.43 1338.58 1244.19 1338.68 1241.82C1338.64 1237.37 1335.05 1232.19 1330.03 1232.53Z" fill="white"/>
<path d="M1524.8 1202.75C1520.55 1201.58 1514.51 1204.2 1513.76 1209.02C1512.65 1216.21 1511.4 1223.37 1510.08 1230.52C1505.61 1228.56 1500.7 1227.86 1495.87 1228.47C1487.14 1229.65 1479.72 1234.8 1474.64 1241.85C1465.69 1254.29 1467.81 1271.98 1479.87 1281.55C1485.82 1286.21 1492.92 1289.17 1500.43 1290.12C1504.67 1294.7 1513.8 1294.74 1515.86 1286.89C1522.19 1262.8 1527.27 1238.4 1531.07 1213.79C1531.8 1209.01 1529.85 1204.14 1524.8 1202.75ZM1496.12 1270.84C1495.19 1270.57 1494.3 1270.18 1493.47 1269.66C1491.4 1268.46 1489.71 1266.7 1488.61 1264.58C1487.5 1262.46 1487.02 1260.06 1487.23 1257.68C1487.44 1255.29 1488.32 1253.02 1489.77 1251.12C1491.22 1249.21 1493.19 1247.77 1495.44 1246.94C1496.37 1246.54 1497.38 1246.33 1498.4 1246.34C1499.42 1246.34 1500.43 1246.56 1501.36 1246.97C1503.78 1248.17 1505.1 1250.95 1505.29 1253.65C1505.72 1259.68 1503.94 1272.92 1496.12 1270.84Z" fill="white"/>
<path d="M751.334 1470.74C753.721 1481.93 754.816 1493.43 756.076 1504.79C756.641 1509.87 757.511 1515.07 757.618 1520.19C757.762 1527.07 750.965 1527.46 745.271 1528.47C727.473 1531.61 709.172 1531.88 691.155 1531.19C672.89 1530.49 653.777 1526.79 635.54 1528.54C628.185 1529.25 626.415 1539.09 633.776 1541.58C643.849 1544.99 655.283 1546.23 665.835 1547.37C676.35 1548.51 686.915 1549.34 697.483 1549.77C707.999 1550.24 718.532 1550.15 729.038 1549.5C738.761 1548.85 749.5 1548.42 758.82 1545.36C766.869 1542.72 774.224 1537.57 776.625 1529.05C778.653 1521.84 776.516 1514.12 775.244 1506.93C772.858 1493.44 770.61 1479.65 766.475 1466.57C763.419 1456.9 749.226 1460.86 751.334 1470.74V1470.74Z" fill="#841918"/>
<path d="M848.802 1248.49C860.425 1263.73 871.436 1279.49 884.524 1293.54C897.472 1307.44 914.715 1323.28 934.239 1326.11C938.619 1326.75 942.93 1325.41 944.714 1320.97C946.204 1317.27 945.184 1311.68 941.082 1309.89C932.923 1306.31 925.135 1302.9 917.321 1297.62C909.848 1292.37 902.935 1286.36 896.691 1279.7C884.148 1266.74 873.428 1252.23 862.161 1238.18C856.183 1230.73 842.935 1240.8 848.802 1248.49V1248.49Z" fill="#841918"/>
<path d="M870.532 1244.14C880.025 1232.29 886.081 1218.95 890.919 1204.63C892.841 1198.94 895.786 1192.7 896.135 1186.65C896.192 1185.89 896.198 1185.14 896.153 1184.39C896.017 1182.77 895.974 1185.26 896.035 1184.97C896.212 1184.11 897.075 1182.69 895.992 1184.57C896.333 1183.98 896.651 1183.39 897.019 1182.81C897.484 1182.07 896.838 1183 896.77 1183.09C897.095 1182.68 897.463 1182.27 897.829 1181.89C899.695 1179.99 901.746 1178.27 903.952 1176.77C905.21 1175.9 907.682 1175.01 908.575 1173.79C909.407 1172.66 909.503 1173.99 908.005 1173.41C908.647 1173.66 906.201 1173.12 906.338 1173.09C905.193 1173.35 906.415 1172.32 906.397 1173.33C906.393 1173.52 905.004 1171.05 906.617 1173.88C907.11 1174.75 907.558 1175.65 907.959 1176.57C910.379 1182.06 913.137 1187.63 915.23 1193.24C917.685 1199.81 919.582 1206.77 923.755 1212.51C925.842 1215.43 928.544 1217.85 931.671 1219.6C934.797 1221.35 938.271 1222.4 941.846 1222.66C945.246 1223.04 948.686 1222.46 951.779 1221C952.291 1220.73 952.787 1220.43 953.264 1220.1C953.768 1219.71 954.271 1219.32 954.775 1218.93C954.406 1219.22 954.036 1219.52 953.667 1219.81C955.362 1219.36 956.956 1218.6 958.364 1217.56C964.38 1212.97 965.289 1203.21 957.18 1199.95C949.313 1196.78 942.323 1203.75 943.81 1211.64C943.704 1211.07 944.052 1209.15 943.645 1210.68L945.584 1207.36C946.299 1206.5 947.384 1207.17 945.835 1206.9C945.953 1206.92 944.522 1207.14 945.081 1207.08C944.54 1207.03 943.995 1207.04 943.455 1207.1C941.486 1206.84 939.63 1206.03 938.102 1204.77C933.714 1200.89 932.373 1193.59 930.334 1188.36C928.209 1182.91 925.434 1177.77 923.192 1172.37C921.153 1167.46 918.887 1162.05 913.975 1159.35C907.357 1155.71 900.908 1159.75 895.301 1163.35C890.586 1166.37 885.972 1169.82 882.737 1174.46C880.778 1177.29 879.62 1180.61 879.383 1184.05C879.21 1184.81 879.17 1185.6 879.265 1186.37C879.105 1186.01 880.098 1184.59 879.368 1185.28C878.324 1186.27 878.071 1189.64 877.669 1191.1C873.342 1206.8 868.811 1221.99 859.082 1235.31C854.246 1241.93 865.355 1250.61 870.532 1244.14V1244.14Z" fill="#841918"/>
<path d="M921.646 1175.13C945.575 1146.7 972.786 1120.66 995.423 1091.2C1004.78 1079.01 1026.76 1045.07 1044.26 1064.03C1058.16 1079.1 1028.5 1103.19 1019.74 1114.31C996.049 1144.39 969.198 1171.88 945.528 1201.91C940.514 1208.28 948.172 1216.3 954.517 1210.9C982.945 1186.72 1007.42 1156.25 1030.03 1126.7C1042.57 1110.31 1069.67 1087.75 1061.31 1063.71C1057.26 1052.04 1044.69 1042.95 1032.33 1043C1019.54 1043.05 1008.47 1052.1 1000.05 1060.83C992.008 1069.17 985.451 1078.74 977.922 1087.51C972.655 1093.65 967.202 1099.64 961.84 1105.69C944.683 1125.07 927.238 1144.27 910.675 1164.16C904.339 1171.77 915.196 1182.79 921.646 1175.13Z" fill="#841918"/>
<path d="M1003.23 1158.94C1010.88 1161.48 1008.27 1171.82 1006.82 1177.54C1004.9 1185.12 1002.71 1192.65 1000.48 1200.14C995.833 1215.77 990.673 1231.38 983.588 1246.09C971.558 1271.07 953.606 1291.61 931.82 1308.61C927.249 1312.18 932.207 1320.16 937.458 1318.3C971.033 1306.44 991.428 1274.11 1004.59 1242.68C1012.25 1224.38 1017.71 1205.27 1022.63 1186.08C1026.55 1170.8 1026.06 1149.38 1007.06 1145.06C997.996 1143 994.44 1156.02 1003.23 1158.94V1158.94Z" fill="#841918"/>
<path d="M753.238 1307.45C766.774 1302.17 780.175 1296.55 793.439 1290.6C799.896 1287.7 806.392 1284.81 812.686 1281.57C815.967 1279.88 819.222 1278.14 822.471 1276.39C825.826 1274.58 828.429 1272.11 831.61 1270.08C832.64 1269.45 833.491 1268.57 834.082 1267.51C834.672 1266.46 834.983 1265.27 834.983 1264.06C834.983 1262.85 834.672 1261.67 834.082 1260.61C833.491 1259.56 832.64 1258.67 831.61 1258.04C828.153 1255.82 827.28 1249.65 830.689 1246.92C834.291 1244.04 840.2 1246.14 842.544 1249.64C845.895 1254.66 855.51 1251.6 852.964 1245.25C848.151 1233.25 832.146 1228.64 822.008 1237.44C811.745 1246.35 814.155 1262.57 824.571 1270.08V1258.04C821.146 1259.54 817.512 1260.36 814.099 1262.06C811.065 1263.57 808.021 1265.06 804.968 1266.54C798.597 1269.61 792.336 1272.91 785.98 1276.01C773.278 1282.22 760.419 1288.09 747.404 1293.62C739.603 1296.94 745.232 1310.58 753.238 1307.45V1307.45Z" fill="#841918"/>
<path d="M943.476 1316.99C944.417 1317.68 942.705 1316.24 943.883 1317.36C944.241 1317.7 944.605 1318.03 944.949 1318.38C945.351 1318.8 945.725 1319.23 946.102 1319.67C946.232 1319.82 946.634 1320.48 946.176 1319.75C945.676 1318.96 946.264 1319.91 946.357 1320.06C946.697 1320.6 948.027 1322.22 947.892 1322.87C947.884 1322.91 947.394 1321.51 947.651 1322.29C947.753 1322.6 947.885 1322.9 947.993 1323.21C948.183 1323.76 948.355 1324.31 948.508 1324.86C948.662 1325.42 948.796 1325.98 948.911 1326.55C948.972 1326.85 949.227 1328.51 949.062 1327.25C948.898 1326 949.098 1327.82 949.12 1328.19C949.153 1328.77 949.163 1329.34 949.166 1329.92C949.172 1330.81 948.782 1332.31 949.018 1333.14C949.018 1333.14 949.344 1331.36 949.142 1332.2C949.065 1332.52 949.03 1332.85 948.965 1333.17C948.85 1333.73 948.716 1334.29 948.561 1334.84C948.405 1335.39 948.21 1335.93 948.032 1336.48C947.922 1336.7 947.834 1336.94 947.768 1337.17C947.772 1337.14 948.587 1335.59 948.131 1336.28C947.506 1337.22 947.041 1338.31 946.419 1339.27C945.311 1340.99 947.392 1338.18 946.42 1339.29C946.089 1339.66 945.777 1340.06 945.434 1340.42C945.036 1340.85 944.62 1341.26 944.186 1341.65C944.001 1341.82 943.807 1341.97 943.624 1342.14C942.572 1343.05 941.912 1344.32 941.783 1345.7C941.653 1347.08 942.064 1348.46 942.929 1349.54C943.794 1350.63 945.046 1351.33 946.42 1351.51C947.795 1351.69 949.185 1351.33 950.299 1350.5C951.413 1349.68 952.163 1348.45 952.392 1347.09C952.621 1345.72 952.311 1344.32 951.526 1343.17C950.742 1342.03 949.545 1341.24 948.186 1340.96C946.828 1340.68 945.415 1340.94 944.245 1341.68C943.294 1342.2 942.379 1342.78 941.504 1343.41C940.959 1343.63 940.433 1343.89 939.932 1344.19C939.903 1344.21 941.8 1343.5 940.921 1343.77C940.604 1343.87 940.294 1344.01 939.98 1344.11C938.949 1344.47 937.896 1344.76 936.829 1344.98C936.4 1345.07 934.41 1345.38 936.049 1345.15C937.691 1344.91 935.673 1345.15 935.255 1345.17C933.917 1345.25 932.575 1345.26 931.236 1345.2C930.826 1345.18 928.819 1344.95 930.443 1345.17C932.065 1345.39 929.893 1345.03 929.421 1344.93C928.206 1344.67 926.976 1344.46 925.78 1344.11C925.231 1343.95 924.702 1343.73 924.155 1343.57C923.177 1343.28 925.573 1344.37 924.711 1343.8C924.379 1343.58 923.94 1343.42 923.589 1343.23C921.961 1342.3 920.051 1341.99 918.211 1342.36C916.372 1342.72 914.728 1343.74 913.582 1345.23C912.436 1346.71 911.866 1348.56 911.978 1350.43C912.089 1352.31 912.874 1354.08 914.188 1355.41C919.244 1360.49 926.08 1363.39 933.243 1363.5C939.921 1363.6 946.468 1361.65 952.007 1357.92C957.964 1354.01 962.293 1348.06 964.187 1341.19C965.86 1334.96 965.578 1328.37 963.378 1322.3C960.938 1315.43 956.254 1309.58 950.08 1305.69C948.578 1304.84 946.799 1304.6 945.126 1305.04C943.452 1305.48 942.018 1306.56 941.129 1308.04C939.328 1311.45 940.52 1314.82 943.476 1316.99V1316.99Z" fill="#841918"/>
<path d="M906.198 1348.95C888.873 1372.2 864.162 1391.24 841.298 1408.68C816.323 1427.73 790.451 1445.07 759.942 1453.53C725.222 1463.15 688.702 1464.36 655.868 1447.79C638.043 1438.79 623.157 1426.13 609.054 1412.16C592.777 1396.03 577.106 1379.31 561.481 1362.55C526.235 1324.76 492.245 1285.71 454.55 1250.29C445.966 1242.23 433.285 1254.82 441.596 1263.25C475.612 1297.74 508.077 1333.72 541.062 1369.18C557.651 1387.02 574.523 1404.58 592.008 1421.55C607.296 1436.38 623.243 1450.48 642.164 1460.55C675.843 1478.46 714.07 1481.68 751.158 1474.55C785.373 1467.97 814.293 1453.05 842.299 1432.72C871.228 1411.71 900.937 1387.48 921.693 1358.01C928.415 1348.46 912.974 1339.85 906.198 1348.95V1348.95Z" fill="#841918"/>
<path d="M616.296 1177.15C636.234 1198.8 656.953 1219.75 677.56 1240.76C687.577 1250.97 697.484 1261.3 707.579 1271.44C718.218 1282.12 728.44 1293.5 740.088 1303.11C746.398 1308.31 757.985 1301.45 752.418 1293.59C735.366 1269.54 711.839 1249.63 690.529 1229.48C668.836 1208.96 647.308 1188.36 626.87 1166.57C620.263 1159.53 609.787 1170.08 616.296 1177.15V1177.15Z" fill="#841918"/>
<path d="M462.99 963.484C452.998 982.052 443.006 1000.62 433.015 1019.19C432.259 1020.5 431.861 1021.98 431.861 1023.49C431.861 1025 432.259 1026.49 433.015 1027.8C445.161 1047.09 462.36 1061.2 481.268 1073.52C501.164 1086.49 521.219 1099.11 540.766 1112.62C561.28 1126.79 581.519 1141.36 602.093 1155.45C612.649 1162.67 623.303 1169.76 634.057 1176.7C643.994 1183.08 654.669 1191.36 666.033 1194.84C673.297 1197.07 679.353 1187.09 673.581 1181.88C665.007 1174.14 653.504 1168.96 643.784 1162.74C633.392 1156.09 623.213 1149.14 613.123 1142.04C593.453 1128.2 574.123 1113.88 554.573 1099.87C535.715 1086.36 516.505 1073.6 496.823 1061.32C478.596 1049.96 459.668 1037.5 447.742 1019.19V1027.8C457.451 1009.06 467.161 990.331 476.871 971.598C481.617 962.442 467.911 954.339 462.99 963.484V963.484Z" fill="#841918"/>
<path d="M713.411 1121.9C703.746 1129.8 696.37 1140.55 689.224 1150.67C685.503 1155.93 681.872 1161.26 678.143 1166.53C674.539 1171.61 667.44 1178.39 669.204 1185.07C669.698 1186.75 670.717 1188.23 672.111 1189.29C673.505 1190.36 675.202 1190.94 676.955 1190.97C684.163 1191.24 689.111 1181.54 692.543 1176.32C696.057 1170.97 699.454 1165.54 702.934 1160.17C709.704 1149.72 715.16 1140.77 724.249 1132.74C727.353 1129.99 727.049 1124.7 724.249 1121.9C721.078 1118.73 716.625 1119.27 713.411 1121.9Z" fill="#841918"/>
<path d="M725.595 1128.82C725.869 1128.66 726.14 1128.52 726.427 1128.39C725.838 1128.64 725.249 1128.89 724.66 1129.14C725.216 1128.92 725.795 1128.76 726.386 1128.68C725.728 1128.76 725.071 1128.85 724.413 1128.94C725 1128.88 725.592 1128.88 726.18 1128.94C725.52 1128.85 724.86 1128.76 724.2 1128.67C724.998 1128.79 725.779 1129 726.526 1129.3C725.93 1129.05 725.334 1128.8 724.738 1128.55C725.602 1128.93 726.417 1129.41 727.168 1129.99C726.661 1129.59 726.153 1129.2 725.646 1128.81C726.403 1129.41 727.093 1130.1 727.703 1130.85C727.309 1130.34 726.915 1129.83 726.52 1129.32C727.18 1130.17 727.727 1131.1 728.148 1132.1C727.892 1131.49 727.637 1130.88 727.381 1130.28C727.727 1131.2 727.969 1132.15 728.101 1133.13L727.827 1131.1C727.996 1132.58 727.991 1134.07 727.812 1135.55C727.904 1134.87 727.996 1134.19 728.088 1133.5C727.554 1137.42 726.397 1141.27 725.501 1145.11C725.078 1146.7 725.245 1148.4 725.971 1149.88C726.697 1151.35 727.933 1152.52 729.451 1153.16C730.969 1153.8 732.667 1153.87 734.233 1153.36C735.799 1152.85 737.126 1151.78 737.971 1150.37C739.26 1148.26 740.378 1146.05 741.315 1143.76C742.258 1141.42 742.87 1138.96 743.134 1136.45C743.794 1131.85 742.909 1127.17 740.618 1123.13C736.093 1115.68 726.156 1111.23 718.142 1116.06C714.835 1118.06 713.311 1122.78 715.493 1126.17C716.507 1127.83 718.126 1129.03 720.01 1129.53C721.894 1130.02 723.896 1129.77 725.595 1128.82V1128.82Z" fill="#841918"/>
<path d="M570.511 612.232C560.926 650.908 565.665 695.349 580.318 732.15C583.573 740.324 596.714 737.174 593.837 728.423C582.301 693.33 575.331 652.299 583.129 615.711C584.873 607.527 572.549 604.007 570.511 612.232Z" fill="#841918"/>
</svg>
