<svg width="24" height="24" viewBox="0 0 24 24" fill="none" xmlns="http://www.w3.org/2000/svg">
<path d="M12.7358 12.7385V12.669C12.7358 12.4258 12.6316 12.2175 12.458 12.0441V6.14134C12.458 5.86353 12.2148 5.62061 11.9372 5.62061C11.6594 5.62061 11.4165 5.86378 11.4165 6.14134V12.0441C11.2428 12.1829 11.1387 12.4261 11.1387 12.669C11.1387 13.1204 11.486 13.4675 11.9372 13.4675H12.0067L14.4722 15.9329C14.5763 16.0371 14.7153 16.0717 14.8541 16.0717C14.9929 16.0717 15.1319 16.0371 15.2361 15.9329C15.4444 15.7246 15.4444 15.4122 15.2361 15.2037L12.7358 12.7385Z" fill="black"/>
<circle cx="12" cy="12" r="9.5" stroke="black"/>
</svg>
