<svg width="111" height="83" viewBox="0 0 111 83" fill="none" xmlns="http://www.w3.org/2000/svg">
<path fill-rule="evenodd" clip-rule="evenodd" d="M10.4595 8.56627H100.541C101.033 8.56627 101.432 8.96543 101.432 9.45783V23.9912C97.742 24.6304 94.3095 26.3931 91.6255 29.0761C88.1966 32.5038 86.2703 37.1526 86.2703 42C86.2703 46.8474 88.1966 51.4962 91.6255 54.9239C94.3095 57.6069 97.742 59.3696 101.432 60.0088V74.5422C101.432 75.0346 101.033 75.4337 100.541 75.4337H10.4595C9.96688 75.4337 9.56757 75.0346 9.56757 74.5422L9.56757 60.2282C13.9276 59.9086 18.0462 58.0349 21.1584 54.9238C24.5872 51.4962 26.5135 46.8473 26.5135 42C26.5135 37.1526 24.5872 32.5037 21.1583 29.0761C18.0461 25.9651 13.9276 24.0914 9.56757 23.7718V9.45783C9.56757 8.96543 9.96688 8.56627 10.4595 8.56627ZM18.6357 52.4021C15.8759 55.1609 12.1328 56.7108 8.22981 56.7108H6V74.5422C6 77.0042 7.99657 79 10.4595 79H100.541C103.003 79 105 77.0042 105 74.5422V56.7108H104.554C103.496 56.7108 102.45 56.597 101.432 56.3761C98.6944 55.782 96.16 54.4133 94.1481 52.4021C91.3883 49.6433 89.8378 45.9016 89.8378 42C89.8378 38.0984 91.3883 34.3567 94.1481 31.5979C96.16 29.5867 98.6944 28.218 101.432 27.6239C102.45 27.403 103.496 27.2892 104.554 27.2892H105V9.45783C105 6.99584 103.003 5 100.541 5H10.4595C7.99657 5 6 6.99584 6 9.45783V27.2892H8.22973C12.1327 27.2892 15.8758 28.839 18.6357 31.5978C21.3955 34.3567 22.9459 38.0984 22.9459 42C22.946 45.9015 21.3955 49.6433 18.6357 52.4021ZM50.5082 38.7349C49.464 39.4324 48.2363 39.8046 46.9804 39.8046C45.2968 39.803 43.6826 39.1337 42.4921 37.9436C41.3017 36.7536 40.6321 35.14 40.6304 33.457C40.6304 32.2016 41.0028 30.9743 41.7006 29.9305C42.3983 28.8866 43.39 28.073 44.5503 27.5926C45.7106 27.1122 46.9874 26.9864 48.2192 27.2314C49.4509 27.4763 50.5824 28.0808 51.4704 28.9686C52.3585 29.8563 52.9633 30.9873 53.2083 32.2187C53.4533 33.45 53.3276 34.7263 52.8469 35.8862C52.3663 37.046 51.5524 38.0374 50.5082 38.7349ZM48.1563 31.6977C47.8082 31.4652 47.399 31.3412 46.9804 31.3412C46.419 31.3412 45.8806 31.5641 45.4837 31.9609C45.0867 32.3577 44.8637 32.8959 44.8637 33.457C44.8637 33.8755 44.9879 34.2846 45.2204 34.6325C45.453 34.9805 45.7836 35.2517 46.1704 35.4118C46.5571 35.572 46.9827 35.6139 47.3933 35.5322C47.8039 35.4506 48.181 35.2491 48.4771 34.9532C48.7731 34.6573 48.9747 34.2802 49.0563 33.8698C49.138 33.4594 49.0961 33.0339 48.9359 32.6473C48.7757 32.2607 48.5044 31.9302 48.1563 31.6977ZM61.4102 46.1302C62.4544 45.4328 63.6821 45.0605 64.938 45.0605C66.6216 45.0622 68.2357 45.7315 69.4262 46.9215C70.6167 48.1115 71.2862 49.7251 71.2879 51.4081C71.2879 52.6635 70.9155 53.8908 70.2178 54.9346C69.52 55.9785 68.5283 56.7921 67.368 57.2725C66.2077 57.753 64.9309 57.8787 63.6992 57.6337C62.4674 57.3888 61.336 56.7843 60.4479 55.8965C59.5598 55.0088 58.9551 53.8778 58.7101 52.6464C58.4651 51.4151 58.5908 50.1388 59.0714 48.979C59.552 47.8191 60.3659 46.8277 61.4102 46.1302ZM63.762 53.1674C64.1101 53.3999 64.5194 53.524 64.938 53.524C65.4994 53.524 66.0377 53.301 66.4347 52.9042C66.8316 52.5074 67.0546 51.9693 67.0546 51.4081C67.0546 50.9896 66.9305 50.5805 66.6979 50.2326C66.4653 49.8846 66.1348 49.6134 65.748 49.4533C65.3612 49.2931 64.9356 49.2512 64.5251 49.3329C64.1145 49.4145 63.7373 49.616 63.4413 49.9119C63.1453 50.2079 62.9437 50.5849 62.862 50.9953C62.7803 51.4057 62.8223 51.8312 62.9825 52.2178C63.1427 52.6044 63.414 52.9349 63.762 53.1674ZM70.7757 25.506C71.337 25.506 71.8752 25.7289 72.2722 26.1255C72.669 26.5223 72.8919 27.0604 72.8919 27.6214C72.8919 28.1825 72.669 28.7206 72.2722 29.1174L42.6391 58.7396C42.4439 58.9417 42.2103 59.1029 41.9521 59.2138C41.6938 59.3247 41.4161 59.383 41.135 59.3855C40.854 59.3879 40.5753 59.3344 40.3151 59.228C40.055 59.1216 39.8187 58.9645 39.6199 58.7658C39.4212 58.5672 39.264 58.3309 39.1576 58.0709C39.0512 57.8108 38.9976 57.5322 39.0001 57.2513C39.0025 56.9703 39.0609 56.6927 39.1718 56.4345C39.2828 56.1764 39.444 55.9429 39.6462 55.7477L69.2792 26.1255C69.6762 25.7289 70.2144 25.506 70.7757 25.506Z" fill="black"/>
</svg>
